G04 #@! TF.FileFunction,Legend,Bot*
%FSLAX46Y46*%
G04 Gerber Fmt 4.6, Leading zero omitted, Abs format (unit mm)*
G04 Created by KiCad (PCBNEW 4.0.7) date 09/06/18 00:21:24*
%MOMM*%
%LPD*%
G01*
G04 APERTURE LIST*
%ADD10C,0.100000*%
%ADD11C,0.150000*%
%ADD12C,20.000000*%
%ADD13R,2.200000X2.200000*%
%ADD14C,2.200000*%
%ADD15C,1.800000*%
%ADD16O,1.800000X1.800000*%
G04 APERTURE END LIST*
D10*
D11*
X161427967Y-84562834D02*
X161158559Y-84293426D01*
X161158559Y-84293426D02*
X163493426Y-81958559D01*
X163493426Y-81958559D02*
X163762834Y-82227967D01*
X179600000Y-90400000D02*
G75*
G03X179600000Y-90400000I-10000000J0D01*
G01*
X162112648Y-81801480D02*
X162045304Y-81936167D01*
X162045305Y-82003511D01*
X162078977Y-82104527D01*
X162179992Y-82205542D01*
X162281007Y-82239213D01*
X162348350Y-82239213D01*
X162449366Y-82205542D01*
X162718740Y-81936167D01*
X162011633Y-81229060D01*
X161775931Y-81464763D01*
X161742259Y-81565778D01*
X161742259Y-81633122D01*
X161775931Y-81734137D01*
X161843274Y-81801480D01*
X161944289Y-81835152D01*
X162011633Y-81835152D01*
X162112648Y-81801480D01*
X162348350Y-81565778D01*
X161405542Y-81835152D02*
X161001480Y-82239213D01*
X161910618Y-82744289D02*
X161203511Y-82037182D01*
X161102496Y-83552412D02*
X161506557Y-83148350D01*
X161304527Y-83350381D02*
X160597420Y-82643274D01*
X160765778Y-82676946D01*
X160900465Y-82676946D01*
X161001480Y-82643274D01*
%LPC*%
D10*
G36*
X161998602Y-102526881D02*
X157473119Y-98001398D01*
X160230836Y-95243681D01*
X164756319Y-99769164D01*
X161998602Y-102526881D01*
X161998602Y-102526881D01*
G37*
D12*
X169600000Y-90400000D03*
D10*
G36*
X178969164Y-85556319D02*
X174443681Y-81030836D01*
X177201398Y-78273119D01*
X181726881Y-82798602D01*
X178969164Y-85556319D01*
X178969164Y-85556319D01*
G37*
D13*
X162500000Y-64500000D03*
D14*
X165040000Y-64500000D03*
D13*
X171500000Y-64500000D03*
D14*
X174040000Y-64500000D03*
D15*
X158500000Y-57250000D03*
D16*
X158500000Y-64870000D03*
D15*
X164500000Y-57250000D03*
D16*
X172120000Y-57250000D03*
M02*
