G04 #@! TF.FileFunction,Legend,Top*
%FSLAX46Y46*%
G04 Gerber Fmt 4.6, Leading zero omitted, Abs format (unit mm)*
G04 Created by KiCad (PCBNEW 4.0.7) date 09/06/18 00:21:24*
%MOMM*%
%LPD*%
G01*
G04 APERTURE LIST*
%ADD10C,0.100000*%
%ADD11C,0.120000*%
%ADD12C,0.010000*%
%ADD13R,2.200000X2.200000*%
%ADD14C,2.200000*%
%ADD15C,1.800000*%
%ADD16O,1.800000X1.800000*%
G04 APERTURE END LIST*
D10*
D11*
X166760000Y-64500462D02*
G75*
G03X161210000Y-62955170I-2990000J462D01*
G01*
X166760000Y-64499538D02*
G75*
G02X161210000Y-66044830I-2990000J-462D01*
G01*
X166270000Y-64500000D02*
G75*
G03X166270000Y-64500000I-2500000J0D01*
G01*
X161210000Y-62955000D02*
X161210000Y-66045000D01*
X175760000Y-64500462D02*
G75*
G03X170210000Y-62955170I-2990000J462D01*
G01*
X175760000Y-64499538D02*
G75*
G02X170210000Y-66044830I-2990000J-462D01*
G01*
X175270000Y-64500000D02*
G75*
G03X175270000Y-64500000I-2500000J0D01*
G01*
X170210000Y-62955000D02*
X170210000Y-66045000D01*
D12*
G36*
X162229255Y-96144397D02*
X166874167Y-96155166D01*
X166885430Y-97308750D01*
X166896694Y-98462333D01*
X156013277Y-98462333D01*
X156025055Y-97884331D01*
X156036833Y-97306330D01*
X156810588Y-96719978D01*
X157584344Y-96133627D01*
X162229255Y-96144397D01*
X162229255Y-96144397D01*
G37*
X162229255Y-96144397D02*
X166874167Y-96155166D01*
X166885430Y-97308750D01*
X166896694Y-98462333D01*
X156013277Y-98462333D01*
X156025055Y-97884331D01*
X156036833Y-97306330D01*
X156810588Y-96719978D01*
X157584344Y-96133627D01*
X162229255Y-96144397D01*
G36*
X179690367Y-96716124D02*
X180463167Y-97298621D01*
X180474944Y-97880477D01*
X180486722Y-98462333D01*
X169603306Y-98462333D01*
X169614569Y-97308750D01*
X169625833Y-96155166D01*
X174271701Y-96144396D01*
X178917568Y-96133627D01*
X179690367Y-96716124D01*
X179690367Y-96716124D01*
G37*
X179690367Y-96716124D02*
X180463167Y-97298621D01*
X180474944Y-97880477D01*
X180486722Y-98462333D01*
X169603306Y-98462333D01*
X169614569Y-97308750D01*
X169625833Y-96155166D01*
X174271701Y-96144396D01*
X178917568Y-96133627D01*
X179690367Y-96716124D01*
G36*
X165888377Y-89445333D02*
X165897006Y-89538710D01*
X165910907Y-89707838D01*
X165929424Y-89944008D01*
X165951904Y-90238512D01*
X165977692Y-90582641D01*
X166006133Y-90967687D01*
X166036573Y-91384941D01*
X166068357Y-91825695D01*
X166088835Y-92112333D01*
X166128917Y-92674935D01*
X166163560Y-93159743D01*
X166193275Y-93573421D01*
X166218572Y-93922632D01*
X166239960Y-94214040D01*
X166257950Y-94454308D01*
X166273052Y-94650099D01*
X166285777Y-94808078D01*
X166296634Y-94934907D01*
X166306134Y-95037251D01*
X166314786Y-95121772D01*
X166323102Y-95195135D01*
X166327875Y-95234416D01*
X166350188Y-95414333D01*
X162156594Y-95414333D01*
X161442266Y-95414136D01*
X160808452Y-95413509D01*
X160250998Y-95412401D01*
X159765753Y-95410759D01*
X159348563Y-95408530D01*
X158995276Y-95405662D01*
X158701739Y-95402103D01*
X158463800Y-95397801D01*
X158277307Y-95392702D01*
X158138106Y-95386755D01*
X158042045Y-95379907D01*
X157984971Y-95372106D01*
X157962733Y-95363299D01*
X157962100Y-95361416D01*
X157969121Y-95306933D01*
X157989729Y-95178080D01*
X158022492Y-94982850D01*
X158065982Y-94729234D01*
X158118767Y-94425224D01*
X158179417Y-94078813D01*
X158246502Y-93697992D01*
X158318592Y-93290754D01*
X158394255Y-92865090D01*
X158472063Y-92428992D01*
X158550584Y-91990453D01*
X158628389Y-91557465D01*
X158704046Y-91138019D01*
X158776125Y-90740108D01*
X158843197Y-90371723D01*
X158903831Y-90040857D01*
X158956597Y-89755501D01*
X159000063Y-89523648D01*
X159032801Y-89353290D01*
X159053379Y-89252418D01*
X159059936Y-89227209D01*
X159105159Y-89222725D01*
X159228650Y-89218106D01*
X159424009Y-89213432D01*
X159684838Y-89208781D01*
X160004738Y-89204233D01*
X160377311Y-89199867D01*
X160796157Y-89195763D01*
X161254877Y-89192001D01*
X161747073Y-89188659D01*
X162266347Y-89185817D01*
X162471500Y-89184875D01*
X165858167Y-89170166D01*
X165888377Y-89445333D01*
X165888377Y-89445333D01*
G37*
X165888377Y-89445333D02*
X165897006Y-89538710D01*
X165910907Y-89707838D01*
X165929424Y-89944008D01*
X165951904Y-90238512D01*
X165977692Y-90582641D01*
X166006133Y-90967687D01*
X166036573Y-91384941D01*
X166068357Y-91825695D01*
X166088835Y-92112333D01*
X166128917Y-92674935D01*
X166163560Y-93159743D01*
X166193275Y-93573421D01*
X166218572Y-93922632D01*
X166239960Y-94214040D01*
X166257950Y-94454308D01*
X166273052Y-94650099D01*
X166285777Y-94808078D01*
X166296634Y-94934907D01*
X166306134Y-95037251D01*
X166314786Y-95121772D01*
X166323102Y-95195135D01*
X166327875Y-95234416D01*
X166350188Y-95414333D01*
X162156594Y-95414333D01*
X161442266Y-95414136D01*
X160808452Y-95413509D01*
X160250998Y-95412401D01*
X159765753Y-95410759D01*
X159348563Y-95408530D01*
X158995276Y-95405662D01*
X158701739Y-95402103D01*
X158463800Y-95397801D01*
X158277307Y-95392702D01*
X158138106Y-95386755D01*
X158042045Y-95379907D01*
X157984971Y-95372106D01*
X157962733Y-95363299D01*
X157962100Y-95361416D01*
X157969121Y-95306933D01*
X157989729Y-95178080D01*
X158022492Y-94982850D01*
X158065982Y-94729234D01*
X158118767Y-94425224D01*
X158179417Y-94078813D01*
X158246502Y-93697992D01*
X158318592Y-93290754D01*
X158394255Y-92865090D01*
X158472063Y-92428992D01*
X158550584Y-91990453D01*
X158628389Y-91557465D01*
X158704046Y-91138019D01*
X158776125Y-90740108D01*
X158843197Y-90371723D01*
X158903831Y-90040857D01*
X158956597Y-89755501D01*
X159000063Y-89523648D01*
X159032801Y-89353290D01*
X159053379Y-89252418D01*
X159059936Y-89227209D01*
X159105159Y-89222725D01*
X159228650Y-89218106D01*
X159424009Y-89213432D01*
X159684838Y-89208781D01*
X160004738Y-89204233D01*
X160377311Y-89199867D01*
X160796157Y-89195763D01*
X161254877Y-89192001D01*
X161747073Y-89188659D01*
X162266347Y-89185817D01*
X162471500Y-89184875D01*
X165858167Y-89170166D01*
X165888377Y-89445333D01*
G36*
X171976073Y-89177812D02*
X172395197Y-89178805D01*
X172854120Y-89180556D01*
X173346432Y-89183065D01*
X173865724Y-89186331D01*
X174068108Y-89187766D01*
X177452050Y-89212500D01*
X177993868Y-92239333D01*
X178082533Y-92735604D01*
X178166701Y-93208547D01*
X178245189Y-93651404D01*
X178316815Y-94057413D01*
X178380396Y-94419815D01*
X178434750Y-94731851D01*
X178478694Y-94986762D01*
X178511045Y-95177787D01*
X178530622Y-95298166D01*
X178536343Y-95340250D01*
X178533059Y-95352428D01*
X178519721Y-95363198D01*
X178491447Y-95372645D01*
X178443352Y-95380856D01*
X178370552Y-95387916D01*
X178268164Y-95393912D01*
X178131305Y-95398930D01*
X177955089Y-95403057D01*
X177734634Y-95406378D01*
X177465055Y-95408981D01*
X177141469Y-95410950D01*
X176758993Y-95412374D01*
X176312742Y-95413337D01*
X175797832Y-95413927D01*
X175209380Y-95414228D01*
X174542502Y-95414329D01*
X174342636Y-95414333D01*
X170148273Y-95414333D01*
X170172328Y-95297916D01*
X170179950Y-95233614D01*
X170192664Y-95093425D01*
X170209809Y-94885932D01*
X170230726Y-94619718D01*
X170254755Y-94303369D01*
X170281234Y-93945467D01*
X170309504Y-93554595D01*
X170338904Y-93139339D01*
X170344114Y-93064833D01*
X170393077Y-92366562D01*
X170436890Y-91749023D01*
X170475855Y-91208460D01*
X170510275Y-90741114D01*
X170540450Y-90343228D01*
X170566685Y-90011043D01*
X170589280Y-89740802D01*
X170608539Y-89528746D01*
X170624763Y-89371118D01*
X170638256Y-89264161D01*
X170649319Y-89204115D01*
X170656011Y-89187766D01*
X170701751Y-89184212D01*
X170825744Y-89181417D01*
X171021582Y-89179379D01*
X171282856Y-89178099D01*
X171603156Y-89177577D01*
X171976073Y-89177812D01*
X171976073Y-89177812D01*
G37*
X171976073Y-89177812D02*
X172395197Y-89178805D01*
X172854120Y-89180556D01*
X173346432Y-89183065D01*
X173865724Y-89186331D01*
X174068108Y-89187766D01*
X177452050Y-89212500D01*
X177993868Y-92239333D01*
X178082533Y-92735604D01*
X178166701Y-93208547D01*
X178245189Y-93651404D01*
X178316815Y-94057413D01*
X178380396Y-94419815D01*
X178434750Y-94731851D01*
X178478694Y-94986762D01*
X178511045Y-95177787D01*
X178530622Y-95298166D01*
X178536343Y-95340250D01*
X178533059Y-95352428D01*
X178519721Y-95363198D01*
X178491447Y-95372645D01*
X178443352Y-95380856D01*
X178370552Y-95387916D01*
X178268164Y-95393912D01*
X178131305Y-95398930D01*
X177955089Y-95403057D01*
X177734634Y-95406378D01*
X177465055Y-95408981D01*
X177141469Y-95410950D01*
X176758993Y-95412374D01*
X176312742Y-95413337D01*
X175797832Y-95413927D01*
X175209380Y-95414228D01*
X174542502Y-95414329D01*
X174342636Y-95414333D01*
X170148273Y-95414333D01*
X170172328Y-95297916D01*
X170179950Y-95233614D01*
X170192664Y-95093425D01*
X170209809Y-94885932D01*
X170230726Y-94619718D01*
X170254755Y-94303369D01*
X170281234Y-93945467D01*
X170309504Y-93554595D01*
X170338904Y-93139339D01*
X170344114Y-93064833D01*
X170393077Y-92366562D01*
X170436890Y-91749023D01*
X170475855Y-91208460D01*
X170510275Y-90741114D01*
X170540450Y-90343228D01*
X170566685Y-90011043D01*
X170589280Y-89740802D01*
X170608539Y-89528746D01*
X170624763Y-89371118D01*
X170638256Y-89264161D01*
X170649319Y-89204115D01*
X170656011Y-89187766D01*
X170701751Y-89184212D01*
X170825744Y-89181417D01*
X171021582Y-89179379D01*
X171282856Y-89178099D01*
X171603156Y-89177577D01*
X171976073Y-89177812D01*
G36*
X186514961Y-89244250D02*
X186458705Y-89399777D01*
X186371333Y-89605092D01*
X186263820Y-89836521D01*
X186147138Y-90070387D01*
X186039159Y-90270833D01*
X185696252Y-90794080D01*
X185282450Y-91279317D01*
X184804326Y-91722689D01*
X184268456Y-92120343D01*
X183681414Y-92468424D01*
X183049775Y-92763079D01*
X182380114Y-93000453D01*
X181679005Y-93176693D01*
X180953024Y-93287945D01*
X180879290Y-93295350D01*
X180637870Y-93317333D01*
X180369400Y-93340082D01*
X180123380Y-93359437D01*
X180071583Y-93363230D01*
X179680000Y-93391321D01*
X179680000Y-89149000D01*
X186543705Y-89149000D01*
X186514961Y-89244250D01*
X186514961Y-89244250D01*
G37*
X186514961Y-89244250D02*
X186458705Y-89399777D01*
X186371333Y-89605092D01*
X186263820Y-89836521D01*
X186147138Y-90070387D01*
X186039159Y-90270833D01*
X185696252Y-90794080D01*
X185282450Y-91279317D01*
X184804326Y-91722689D01*
X184268456Y-92120343D01*
X183681414Y-92468424D01*
X183049775Y-92763079D01*
X182380114Y-93000453D01*
X181679005Y-93176693D01*
X180953024Y-93287945D01*
X180879290Y-93295350D01*
X180637870Y-93317333D01*
X180369400Y-93340082D01*
X180123380Y-93359437D01*
X180071583Y-93363230D01*
X179680000Y-93391321D01*
X179680000Y-89149000D01*
X186543705Y-89149000D01*
X186514961Y-89244250D01*
G36*
X165667667Y-88344666D02*
X159995000Y-88344666D01*
X159995000Y-84280666D01*
X165667667Y-84280666D01*
X165667667Y-88344666D01*
X165667667Y-88344666D01*
G37*
X165667667Y-88344666D02*
X159995000Y-88344666D01*
X159995000Y-84280666D01*
X165667667Y-84280666D01*
X165667667Y-88344666D01*
G36*
X176505000Y-88344666D02*
X170832333Y-88344666D01*
X170832333Y-84280666D01*
X176505000Y-84280666D01*
X176505000Y-88344666D01*
X176505000Y-88344666D01*
G37*
X176505000Y-88344666D02*
X170832333Y-88344666D01*
X170832333Y-84280666D01*
X176505000Y-84280666D01*
X176505000Y-88344666D01*
G36*
X179944583Y-70607362D02*
X180778076Y-70635157D01*
X181549549Y-70717898D01*
X182262105Y-70856428D01*
X182918850Y-71051588D01*
X183522889Y-71304223D01*
X184077327Y-71615176D01*
X184352552Y-71804223D01*
X184613800Y-72014010D01*
X184901254Y-72275147D01*
X185195442Y-72567696D01*
X185476890Y-72871720D01*
X185726123Y-73167283D01*
X185871842Y-73359657D01*
X186102051Y-73710814D01*
X186322550Y-74101281D01*
X186527711Y-74516667D01*
X186711906Y-74942580D01*
X186869508Y-75364630D01*
X186994889Y-75768424D01*
X187082421Y-76139571D01*
X187126477Y-76463680D01*
X187130667Y-76578767D01*
X187138376Y-76698600D01*
X187158064Y-76774163D01*
X187173000Y-76787666D01*
X187187298Y-76829376D01*
X187198818Y-76952093D01*
X187207417Y-77152200D01*
X187212948Y-77426077D01*
X187215267Y-77770107D01*
X187215333Y-77846000D01*
X187215333Y-78904333D01*
X186336917Y-78904799D01*
X186061836Y-78906192D01*
X185806037Y-78909808D01*
X185585142Y-78915244D01*
X185414773Y-78922097D01*
X185310552Y-78929966D01*
X185299750Y-78931504D01*
X185141000Y-78957744D01*
X185141000Y-80027176D01*
X185140744Y-80364418D01*
X185141750Y-80626452D01*
X185146680Y-80822724D01*
X185158195Y-80962683D01*
X185178957Y-81055774D01*
X185211627Y-81111445D01*
X185258868Y-81139143D01*
X185323340Y-81148314D01*
X185407706Y-81148406D01*
X185456779Y-81148000D01*
X185592732Y-81162753D01*
X185681758Y-81201485D01*
X185689718Y-81209553D01*
X185704208Y-81262733D01*
X185727268Y-81394640D01*
X185758181Y-81599844D01*
X185796228Y-81872916D01*
X185840689Y-82208428D01*
X185890847Y-82600950D01*
X185945983Y-83045053D01*
X186005378Y-83535307D01*
X186068314Y-84066285D01*
X186072126Y-84098803D01*
X186152347Y-84783243D01*
X186223281Y-85388488D01*
X186285419Y-85919439D01*
X186339252Y-86381002D01*
X186385273Y-86778079D01*
X186423970Y-87115575D01*
X186455836Y-87398393D01*
X186481362Y-87631437D01*
X186501039Y-87819611D01*
X186515358Y-87967819D01*
X186524810Y-88080963D01*
X186529885Y-88163949D01*
X186531076Y-88221679D01*
X186528874Y-88259057D01*
X186523768Y-88280988D01*
X186516251Y-88292375D01*
X186506814Y-88298121D01*
X186495947Y-88303130D01*
X186493325Y-88304676D01*
X186443708Y-88309922D01*
X186317280Y-88314781D01*
X186121896Y-88319240D01*
X185865409Y-88323287D01*
X185555675Y-88326909D01*
X185200548Y-88330095D01*
X184807883Y-88332832D01*
X184385535Y-88335108D01*
X183941357Y-88336912D01*
X183483205Y-88338231D01*
X183018934Y-88339052D01*
X182556397Y-88339365D01*
X182103450Y-88339156D01*
X181667947Y-88338414D01*
X181257742Y-88337126D01*
X180880691Y-88335280D01*
X180544648Y-88332864D01*
X180257467Y-88329867D01*
X180027004Y-88326275D01*
X179861112Y-88322077D01*
X179767647Y-88317261D01*
X179752015Y-88315086D01*
X179704772Y-88287885D01*
X179690587Y-88224303D01*
X179700388Y-88118914D01*
X179709606Y-88045594D01*
X179727727Y-87894939D01*
X179753962Y-87673724D01*
X179787523Y-87388723D01*
X179827620Y-87046712D01*
X179873464Y-86654465D01*
X179924268Y-86218756D01*
X179979242Y-85746362D01*
X180037597Y-85244057D01*
X180098544Y-84718615D01*
X180161296Y-84176812D01*
X180225062Y-83625422D01*
X180289055Y-83071221D01*
X180352484Y-82520983D01*
X180381398Y-82269833D01*
X180414465Y-81993038D01*
X180446937Y-81740397D01*
X180476879Y-81525535D01*
X180502356Y-81362080D01*
X180521431Y-81263659D01*
X180526890Y-81245419D01*
X180562652Y-81190670D01*
X180628118Y-81159578D01*
X180746324Y-81143549D01*
X180810521Y-81139585D01*
X181055833Y-81126833D01*
X181078407Y-78957531D01*
X180945412Y-78930932D01*
X180858350Y-78921865D01*
X180704445Y-78914125D01*
X180501515Y-78908287D01*
X180267380Y-78904924D01*
X180119208Y-78904333D01*
X179426000Y-78904333D01*
X179426000Y-70607000D01*
X179944583Y-70607362D01*
X179944583Y-70607362D01*
G37*
X179944583Y-70607362D02*
X180778076Y-70635157D01*
X181549549Y-70717898D01*
X182262105Y-70856428D01*
X182918850Y-71051588D01*
X183522889Y-71304223D01*
X184077327Y-71615176D01*
X184352552Y-71804223D01*
X184613800Y-72014010D01*
X184901254Y-72275147D01*
X185195442Y-72567696D01*
X185476890Y-72871720D01*
X185726123Y-73167283D01*
X185871842Y-73359657D01*
X186102051Y-73710814D01*
X186322550Y-74101281D01*
X186527711Y-74516667D01*
X186711906Y-74942580D01*
X186869508Y-75364630D01*
X186994889Y-75768424D01*
X187082421Y-76139571D01*
X187126477Y-76463680D01*
X187130667Y-76578767D01*
X187138376Y-76698600D01*
X187158064Y-76774163D01*
X187173000Y-76787666D01*
X187187298Y-76829376D01*
X187198818Y-76952093D01*
X187207417Y-77152200D01*
X187212948Y-77426077D01*
X187215267Y-77770107D01*
X187215333Y-77846000D01*
X187215333Y-78904333D01*
X186336917Y-78904799D01*
X186061836Y-78906192D01*
X185806037Y-78909808D01*
X185585142Y-78915244D01*
X185414773Y-78922097D01*
X185310552Y-78929966D01*
X185299750Y-78931504D01*
X185141000Y-78957744D01*
X185141000Y-80027176D01*
X185140744Y-80364418D01*
X185141750Y-80626452D01*
X185146680Y-80822724D01*
X185158195Y-80962683D01*
X185178957Y-81055774D01*
X185211627Y-81111445D01*
X185258868Y-81139143D01*
X185323340Y-81148314D01*
X185407706Y-81148406D01*
X185456779Y-81148000D01*
X185592732Y-81162753D01*
X185681758Y-81201485D01*
X185689718Y-81209553D01*
X185704208Y-81262733D01*
X185727268Y-81394640D01*
X185758181Y-81599844D01*
X185796228Y-81872916D01*
X185840689Y-82208428D01*
X185890847Y-82600950D01*
X185945983Y-83045053D01*
X186005378Y-83535307D01*
X186068314Y-84066285D01*
X186072126Y-84098803D01*
X186152347Y-84783243D01*
X186223281Y-85388488D01*
X186285419Y-85919439D01*
X186339252Y-86381002D01*
X186385273Y-86778079D01*
X186423970Y-87115575D01*
X186455836Y-87398393D01*
X186481362Y-87631437D01*
X186501039Y-87819611D01*
X186515358Y-87967819D01*
X186524810Y-88080963D01*
X186529885Y-88163949D01*
X186531076Y-88221679D01*
X186528874Y-88259057D01*
X186523768Y-88280988D01*
X186516251Y-88292375D01*
X186506814Y-88298121D01*
X186495947Y-88303130D01*
X186493325Y-88304676D01*
X186443708Y-88309922D01*
X186317280Y-88314781D01*
X186121896Y-88319240D01*
X185865409Y-88323287D01*
X185555675Y-88326909D01*
X185200548Y-88330095D01*
X184807883Y-88332832D01*
X184385535Y-88335108D01*
X183941357Y-88336912D01*
X183483205Y-88338231D01*
X183018934Y-88339052D01*
X182556397Y-88339365D01*
X182103450Y-88339156D01*
X181667947Y-88338414D01*
X181257742Y-88337126D01*
X180880691Y-88335280D01*
X180544648Y-88332864D01*
X180257467Y-88329867D01*
X180027004Y-88326275D01*
X179861112Y-88322077D01*
X179767647Y-88317261D01*
X179752015Y-88315086D01*
X179704772Y-88287885D01*
X179690587Y-88224303D01*
X179700388Y-88118914D01*
X179709606Y-88045594D01*
X179727727Y-87894939D01*
X179753962Y-87673724D01*
X179787523Y-87388723D01*
X179827620Y-87046712D01*
X179873464Y-86654465D01*
X179924268Y-86218756D01*
X179979242Y-85746362D01*
X180037597Y-85244057D01*
X180098544Y-84718615D01*
X180161296Y-84176812D01*
X180225062Y-83625422D01*
X180289055Y-83071221D01*
X180352484Y-82520983D01*
X180381398Y-82269833D01*
X180414465Y-81993038D01*
X180446937Y-81740397D01*
X180476879Y-81525535D01*
X180502356Y-81362080D01*
X180521431Y-81263659D01*
X180526890Y-81245419D01*
X180562652Y-81190670D01*
X180628118Y-81159578D01*
X180746324Y-81143549D01*
X180810521Y-81139585D01*
X181055833Y-81126833D01*
X181078407Y-78957531D01*
X180945412Y-78930932D01*
X180858350Y-78921865D01*
X180704445Y-78914125D01*
X180501515Y-78908287D01*
X180267380Y-78904924D01*
X180119208Y-78904333D01*
X179426000Y-78904333D01*
X179426000Y-70607000D01*
X179944583Y-70607362D01*
G36*
X162592209Y-76554833D02*
X162687381Y-76999333D01*
X162874481Y-77683772D01*
X163133528Y-78323807D01*
X163465374Y-78921015D01*
X163870872Y-79476971D01*
X164258318Y-79902557D01*
X164777181Y-80363628D01*
X165337189Y-80750890D01*
X165936573Y-81063521D01*
X166573564Y-81300695D01*
X167246392Y-81461591D01*
X167754582Y-81529980D01*
X168430848Y-81551528D01*
X169099385Y-81492070D01*
X169752793Y-81354643D01*
X170383675Y-81142285D01*
X170984634Y-80858032D01*
X171548271Y-80504921D01*
X172067188Y-80085991D01*
X172533987Y-79604278D01*
X172581055Y-79548524D01*
X172977386Y-79025846D01*
X173296998Y-78497683D01*
X173547284Y-77948894D01*
X173735640Y-77364340D01*
X173815846Y-77020500D01*
X173911365Y-76554833D01*
X178579333Y-76532949D01*
X178576714Y-77919724D01*
X178574817Y-78317852D01*
X178570778Y-78745199D01*
X178564946Y-79179371D01*
X178557670Y-79597967D01*
X178549295Y-79978591D01*
X178540172Y-80298846D01*
X178539376Y-80322500D01*
X178527908Y-80645270D01*
X178517287Y-80896727D01*
X178505984Y-81090189D01*
X178492474Y-81238976D01*
X178475228Y-81356407D01*
X178452720Y-81455803D01*
X178423422Y-81550482D01*
X178387138Y-81650233D01*
X178192357Y-82068102D01*
X177942768Y-82444108D01*
X177647232Y-82770305D01*
X177314615Y-83038745D01*
X176953777Y-83241481D01*
X176573582Y-83370566D01*
X176439552Y-83396568D01*
X176365420Y-83401618D01*
X176211877Y-83406541D01*
X175984178Y-83411323D01*
X175687580Y-83415951D01*
X175327337Y-83420412D01*
X174908704Y-83424693D01*
X174436938Y-83428781D01*
X173917294Y-83432662D01*
X173355026Y-83436324D01*
X172755392Y-83439753D01*
X172123646Y-83442936D01*
X171465043Y-83445860D01*
X170784840Y-83448512D01*
X170088291Y-83450879D01*
X169380653Y-83452947D01*
X168667180Y-83454703D01*
X167953128Y-83456135D01*
X167243753Y-83457229D01*
X166544310Y-83457972D01*
X165860055Y-83458350D01*
X165196242Y-83458351D01*
X164558128Y-83457962D01*
X163950968Y-83457169D01*
X163380018Y-83455959D01*
X162850532Y-83454320D01*
X162367767Y-83452237D01*
X161936978Y-83449698D01*
X161563420Y-83446690D01*
X161252349Y-83443199D01*
X161009020Y-83439212D01*
X160862833Y-83435535D01*
X160551408Y-83424518D01*
X160310557Y-83412988D01*
X160126194Y-83399465D01*
X159984231Y-83382466D01*
X159870582Y-83360511D01*
X159771160Y-83332119D01*
X159724523Y-83315830D01*
X159343832Y-83134404D01*
X158985459Y-82882426D01*
X158664533Y-82573707D01*
X158396180Y-82222056D01*
X158256430Y-81975624D01*
X158197022Y-81852712D01*
X158146256Y-81738504D01*
X158103354Y-81625292D01*
X158067541Y-81505367D01*
X158038038Y-81371022D01*
X158014069Y-81214548D01*
X157994859Y-81028237D01*
X157979629Y-80804382D01*
X157967604Y-80535274D01*
X157958007Y-80213204D01*
X157950061Y-79830465D01*
X157942989Y-79379349D01*
X157936015Y-78852148D01*
X157935200Y-78787555D01*
X157906827Y-76532943D01*
X162592209Y-76554833D01*
X162592209Y-76554833D01*
G37*
X162592209Y-76554833D02*
X162687381Y-76999333D01*
X162874481Y-77683772D01*
X163133528Y-78323807D01*
X163465374Y-78921015D01*
X163870872Y-79476971D01*
X164258318Y-79902557D01*
X164777181Y-80363628D01*
X165337189Y-80750890D01*
X165936573Y-81063521D01*
X166573564Y-81300695D01*
X167246392Y-81461591D01*
X167754582Y-81529980D01*
X168430848Y-81551528D01*
X169099385Y-81492070D01*
X169752793Y-81354643D01*
X170383675Y-81142285D01*
X170984634Y-80858032D01*
X171548271Y-80504921D01*
X172067188Y-80085991D01*
X172533987Y-79604278D01*
X172581055Y-79548524D01*
X172977386Y-79025846D01*
X173296998Y-78497683D01*
X173547284Y-77948894D01*
X173735640Y-77364340D01*
X173815846Y-77020500D01*
X173911365Y-76554833D01*
X178579333Y-76532949D01*
X178576714Y-77919724D01*
X178574817Y-78317852D01*
X178570778Y-78745199D01*
X178564946Y-79179371D01*
X178557670Y-79597967D01*
X178549295Y-79978591D01*
X178540172Y-80298846D01*
X178539376Y-80322500D01*
X178527908Y-80645270D01*
X178517287Y-80896727D01*
X178505984Y-81090189D01*
X178492474Y-81238976D01*
X178475228Y-81356407D01*
X178452720Y-81455803D01*
X178423422Y-81550482D01*
X178387138Y-81650233D01*
X178192357Y-82068102D01*
X177942768Y-82444108D01*
X177647232Y-82770305D01*
X177314615Y-83038745D01*
X176953777Y-83241481D01*
X176573582Y-83370566D01*
X176439552Y-83396568D01*
X176365420Y-83401618D01*
X176211877Y-83406541D01*
X175984178Y-83411323D01*
X175687580Y-83415951D01*
X175327337Y-83420412D01*
X174908704Y-83424693D01*
X174436938Y-83428781D01*
X173917294Y-83432662D01*
X173355026Y-83436324D01*
X172755392Y-83439753D01*
X172123646Y-83442936D01*
X171465043Y-83445860D01*
X170784840Y-83448512D01*
X170088291Y-83450879D01*
X169380653Y-83452947D01*
X168667180Y-83454703D01*
X167953128Y-83456135D01*
X167243753Y-83457229D01*
X166544310Y-83457972D01*
X165860055Y-83458350D01*
X165196242Y-83458351D01*
X164558128Y-83457962D01*
X163950968Y-83457169D01*
X163380018Y-83455959D01*
X162850532Y-83454320D01*
X162367767Y-83452237D01*
X161936978Y-83449698D01*
X161563420Y-83446690D01*
X161252349Y-83443199D01*
X161009020Y-83439212D01*
X160862833Y-83435535D01*
X160551408Y-83424518D01*
X160310557Y-83412988D01*
X160126194Y-83399465D01*
X159984231Y-83382466D01*
X159870582Y-83360511D01*
X159771160Y-83332119D01*
X159724523Y-83315830D01*
X159343832Y-83134404D01*
X158985459Y-82882426D01*
X158664533Y-82573707D01*
X158396180Y-82222056D01*
X158256430Y-81975624D01*
X158197022Y-81852712D01*
X158146256Y-81738504D01*
X158103354Y-81625292D01*
X158067541Y-81505367D01*
X158038038Y-81371022D01*
X158014069Y-81214548D01*
X157994859Y-81028237D01*
X157979629Y-80804382D01*
X157967604Y-80535274D01*
X157958007Y-80213204D01*
X157950061Y-79830465D01*
X157942989Y-79379349D01*
X157936015Y-78852148D01*
X157935200Y-78787555D01*
X157906827Y-76532943D01*
X162592209Y-76554833D01*
G36*
X171890667Y-79370000D02*
X170549226Y-79370000D01*
X170524655Y-77009916D01*
X170519557Y-76568852D01*
X170513759Y-76151907D01*
X170507438Y-75767001D01*
X170500770Y-75422053D01*
X170493932Y-75124986D01*
X170487100Y-74883717D01*
X170480452Y-74706169D01*
X170474162Y-74600262D01*
X170470382Y-74573671D01*
X170417091Y-74516188D01*
X170375628Y-74510171D01*
X170338925Y-74548107D01*
X170292996Y-74652674D01*
X170235971Y-74829114D01*
X170165979Y-75082668D01*
X170151919Y-75136666D01*
X170088803Y-75376600D01*
X170023030Y-75617119D01*
X169951551Y-75868247D01*
X169871319Y-76140006D01*
X169779285Y-76442418D01*
X169672401Y-76785508D01*
X169547618Y-77179297D01*
X169401888Y-77633809D01*
X169241013Y-78131750D01*
X168839888Y-79370000D01*
X167576652Y-79370000D01*
X167175236Y-78131750D01*
X166994656Y-77572957D01*
X166838868Y-77086866D01*
X166705565Y-76665966D01*
X166592442Y-76302746D01*
X166497191Y-75989694D01*
X166417507Y-75719299D01*
X166351083Y-75484051D01*
X166295612Y-75276439D01*
X166281352Y-75220750D01*
X166207140Y-74941562D01*
X166144418Y-74737913D01*
X166090037Y-74601950D01*
X166040846Y-74525821D01*
X165993695Y-74501673D01*
X165992866Y-74501666D01*
X165944108Y-74540966D01*
X165908896Y-74646904D01*
X165906505Y-74660416D01*
X165901499Y-74732329D01*
X165896789Y-74880443D01*
X165892468Y-75096291D01*
X165888628Y-75371407D01*
X165885362Y-75697326D01*
X165882764Y-76065581D01*
X165880925Y-76467707D01*
X165879940Y-76895237D01*
X165879799Y-77094583D01*
X165879333Y-79370000D01*
X164608844Y-79370000D01*
X164619672Y-75866916D01*
X164630500Y-72363833D01*
X165307833Y-72350700D01*
X165567146Y-72347773D01*
X165823057Y-72348589D01*
X166051789Y-72352823D01*
X166229561Y-72360150D01*
X166282851Y-72364030D01*
X166580535Y-72390493D01*
X166849462Y-73287330D01*
X166936144Y-73574757D01*
X167035711Y-73902107D01*
X167145188Y-74259825D01*
X167261597Y-74638357D01*
X167381963Y-75028150D01*
X167503311Y-75419649D01*
X167622665Y-75803301D01*
X167737048Y-76169551D01*
X167843485Y-76508846D01*
X167938999Y-76811631D01*
X168020616Y-77068353D01*
X168085359Y-77269458D01*
X168130252Y-77405391D01*
X168147431Y-77454416D01*
X168212552Y-77584354D01*
X168280916Y-77630897D01*
X168354923Y-77595316D01*
X168374199Y-77574208D01*
X168394269Y-77523873D01*
X168435203Y-77399123D01*
X168494899Y-77207036D01*
X168571253Y-76954688D01*
X168662164Y-76649157D01*
X168765528Y-76297519D01*
X168879243Y-75906853D01*
X169001205Y-75484234D01*
X169129313Y-75036741D01*
X169157173Y-74938958D01*
X169890248Y-72363833D01*
X170890457Y-72352483D01*
X171890667Y-72341134D01*
X171890667Y-79370000D01*
X171890667Y-79370000D01*
G37*
X171890667Y-79370000D02*
X170549226Y-79370000D01*
X170524655Y-77009916D01*
X170519557Y-76568852D01*
X170513759Y-76151907D01*
X170507438Y-75767001D01*
X170500770Y-75422053D01*
X170493932Y-75124986D01*
X170487100Y-74883717D01*
X170480452Y-74706169D01*
X170474162Y-74600262D01*
X170470382Y-74573671D01*
X170417091Y-74516188D01*
X170375628Y-74510171D01*
X170338925Y-74548107D01*
X170292996Y-74652674D01*
X170235971Y-74829114D01*
X170165979Y-75082668D01*
X170151919Y-75136666D01*
X170088803Y-75376600D01*
X170023030Y-75617119D01*
X169951551Y-75868247D01*
X169871319Y-76140006D01*
X169779285Y-76442418D01*
X169672401Y-76785508D01*
X169547618Y-77179297D01*
X169401888Y-77633809D01*
X169241013Y-78131750D01*
X168839888Y-79370000D01*
X167576652Y-79370000D01*
X167175236Y-78131750D01*
X166994656Y-77572957D01*
X166838868Y-77086866D01*
X166705565Y-76665966D01*
X166592442Y-76302746D01*
X166497191Y-75989694D01*
X166417507Y-75719299D01*
X166351083Y-75484051D01*
X166295612Y-75276439D01*
X166281352Y-75220750D01*
X166207140Y-74941562D01*
X166144418Y-74737913D01*
X166090037Y-74601950D01*
X166040846Y-74525821D01*
X165993695Y-74501673D01*
X165992866Y-74501666D01*
X165944108Y-74540966D01*
X165908896Y-74646904D01*
X165906505Y-74660416D01*
X165901499Y-74732329D01*
X165896789Y-74880443D01*
X165892468Y-75096291D01*
X165888628Y-75371407D01*
X165885362Y-75697326D01*
X165882764Y-76065581D01*
X165880925Y-76467707D01*
X165879940Y-76895237D01*
X165879799Y-77094583D01*
X165879333Y-79370000D01*
X164608844Y-79370000D01*
X164619672Y-75866916D01*
X164630500Y-72363833D01*
X165307833Y-72350700D01*
X165567146Y-72347773D01*
X165823057Y-72348589D01*
X166051789Y-72352823D01*
X166229561Y-72360150D01*
X166282851Y-72364030D01*
X166580535Y-72390493D01*
X166849462Y-73287330D01*
X166936144Y-73574757D01*
X167035711Y-73902107D01*
X167145188Y-74259825D01*
X167261597Y-74638357D01*
X167381963Y-75028150D01*
X167503311Y-75419649D01*
X167622665Y-75803301D01*
X167737048Y-76169551D01*
X167843485Y-76508846D01*
X167938999Y-76811631D01*
X168020616Y-77068353D01*
X168085359Y-77269458D01*
X168130252Y-77405391D01*
X168147431Y-77454416D01*
X168212552Y-77584354D01*
X168280916Y-77630897D01*
X168354923Y-77595316D01*
X168374199Y-77574208D01*
X168394269Y-77523873D01*
X168435203Y-77399123D01*
X168494899Y-77207036D01*
X168571253Y-76954688D01*
X168662164Y-76649157D01*
X168765528Y-76297519D01*
X168879243Y-75906853D01*
X169001205Y-75484234D01*
X169129313Y-75036741D01*
X169157173Y-74938958D01*
X169890248Y-72363833D01*
X170890457Y-72352483D01*
X171890667Y-72341134D01*
X171890667Y-79370000D01*
G36*
X153353979Y-61176522D02*
X153884346Y-61178588D01*
X154390134Y-61181163D01*
X154864970Y-61184177D01*
X155302482Y-61187562D01*
X155696297Y-61191250D01*
X156040044Y-61195171D01*
X156327350Y-61199258D01*
X156551843Y-61203441D01*
X156707151Y-61207652D01*
X156786901Y-61211823D01*
X156796374Y-61213584D01*
X156797519Y-61261706D01*
X156788318Y-61392269D01*
X156768946Y-61603703D01*
X156739576Y-61894439D01*
X156700382Y-62262907D01*
X156651537Y-62707538D01*
X156593217Y-63226762D01*
X156525593Y-63819010D01*
X156448841Y-64482711D01*
X156363134Y-65216296D01*
X156268646Y-66018196D01*
X156205338Y-66552285D01*
X156162810Y-66911347D01*
X156123608Y-67244329D01*
X156088826Y-67541787D01*
X156059556Y-67794278D01*
X156036894Y-67992360D01*
X156021933Y-68126589D01*
X156015766Y-68187524D01*
X156015667Y-68189678D01*
X155976632Y-68276149D01*
X155867064Y-68335504D01*
X155698265Y-68362332D01*
X155652809Y-68363333D01*
X155423000Y-68363333D01*
X155423000Y-70552423D01*
X155708750Y-70579410D01*
X155867179Y-70590168D01*
X156080982Y-70598946D01*
X156320874Y-70604774D01*
X156534250Y-70606699D01*
X157074000Y-70607000D01*
X157074000Y-78904333D01*
X156640083Y-78897888D01*
X156420022Y-78892721D01*
X156151161Y-78883575D01*
X155869198Y-78871791D01*
X155634667Y-78860090D01*
X155097456Y-78816961D01*
X154618343Y-78747802D01*
X154173634Y-78648459D01*
X153817637Y-78541429D01*
X153142390Y-78273795D01*
X152516643Y-77938928D01*
X151939365Y-77535910D01*
X151409529Y-77063825D01*
X150926105Y-76521754D01*
X150488066Y-75908780D01*
X150094382Y-75223986D01*
X150090913Y-75217253D01*
X149840161Y-74682863D01*
X149639014Y-74154081D01*
X149491102Y-73643404D01*
X149400057Y-73163332D01*
X149369503Y-72734250D01*
X149362136Y-72610079D01*
X149343394Y-72529411D01*
X149327000Y-72512000D01*
X149312110Y-72470388D01*
X149300247Y-72348342D01*
X149291595Y-72150049D01*
X149286341Y-71879693D01*
X149284667Y-71559500D01*
X149284667Y-70607000D01*
X149993750Y-70606746D01*
X150263217Y-70604940D01*
X150533791Y-70600134D01*
X150780877Y-70592966D01*
X150979884Y-70584074D01*
X151052083Y-70579305D01*
X151401333Y-70552117D01*
X151401333Y-68363333D01*
X151136750Y-68362685D01*
X150989408Y-68357484D01*
X150873668Y-68344625D01*
X150821827Y-68330029D01*
X150805741Y-68280796D01*
X150781380Y-68149791D01*
X150749074Y-67939470D01*
X150709151Y-67652290D01*
X150661939Y-67290708D01*
X150607766Y-66857179D01*
X150546962Y-66354160D01*
X150479855Y-65784108D01*
X150469551Y-65695428D01*
X150412027Y-65200082D01*
X150354115Y-64702319D01*
X150297121Y-64213292D01*
X150242349Y-63744158D01*
X150191103Y-63306071D01*
X150144688Y-62910186D01*
X150104408Y-62567659D01*
X150071569Y-62289645D01*
X150052468Y-62129022D01*
X149937323Y-61165210D01*
X153353979Y-61176522D01*
X153353979Y-61176522D01*
G37*
X153353979Y-61176522D02*
X153884346Y-61178588D01*
X154390134Y-61181163D01*
X154864970Y-61184177D01*
X155302482Y-61187562D01*
X155696297Y-61191250D01*
X156040044Y-61195171D01*
X156327350Y-61199258D01*
X156551843Y-61203441D01*
X156707151Y-61207652D01*
X156786901Y-61211823D01*
X156796374Y-61213584D01*
X156797519Y-61261706D01*
X156788318Y-61392269D01*
X156768946Y-61603703D01*
X156739576Y-61894439D01*
X156700382Y-62262907D01*
X156651537Y-62707538D01*
X156593217Y-63226762D01*
X156525593Y-63819010D01*
X156448841Y-64482711D01*
X156363134Y-65216296D01*
X156268646Y-66018196D01*
X156205338Y-66552285D01*
X156162810Y-66911347D01*
X156123608Y-67244329D01*
X156088826Y-67541787D01*
X156059556Y-67794278D01*
X156036894Y-67992360D01*
X156021933Y-68126589D01*
X156015766Y-68187524D01*
X156015667Y-68189678D01*
X155976632Y-68276149D01*
X155867064Y-68335504D01*
X155698265Y-68362332D01*
X155652809Y-68363333D01*
X155423000Y-68363333D01*
X155423000Y-70552423D01*
X155708750Y-70579410D01*
X155867179Y-70590168D01*
X156080982Y-70598946D01*
X156320874Y-70604774D01*
X156534250Y-70606699D01*
X157074000Y-70607000D01*
X157074000Y-78904333D01*
X156640083Y-78897888D01*
X156420022Y-78892721D01*
X156151161Y-78883575D01*
X155869198Y-78871791D01*
X155634667Y-78860090D01*
X155097456Y-78816961D01*
X154618343Y-78747802D01*
X154173634Y-78648459D01*
X153817637Y-78541429D01*
X153142390Y-78273795D01*
X152516643Y-77938928D01*
X151939365Y-77535910D01*
X151409529Y-77063825D01*
X150926105Y-76521754D01*
X150488066Y-75908780D01*
X150094382Y-75223986D01*
X150090913Y-75217253D01*
X149840161Y-74682863D01*
X149639014Y-74154081D01*
X149491102Y-73643404D01*
X149400057Y-73163332D01*
X149369503Y-72734250D01*
X149362136Y-72610079D01*
X149343394Y-72529411D01*
X149327000Y-72512000D01*
X149312110Y-72470388D01*
X149300247Y-72348342D01*
X149291595Y-72150049D01*
X149286341Y-71879693D01*
X149284667Y-71559500D01*
X149284667Y-70607000D01*
X149993750Y-70606746D01*
X150263217Y-70604940D01*
X150533791Y-70600134D01*
X150780877Y-70592966D01*
X150979884Y-70584074D01*
X151052083Y-70579305D01*
X151401333Y-70552117D01*
X151401333Y-68363333D01*
X151136750Y-68362685D01*
X150989408Y-68357484D01*
X150873668Y-68344625D01*
X150821827Y-68330029D01*
X150805741Y-68280796D01*
X150781380Y-68149791D01*
X150749074Y-67939470D01*
X150709151Y-67652290D01*
X150661939Y-67290708D01*
X150607766Y-66857179D01*
X150546962Y-66354160D01*
X150479855Y-65784108D01*
X150469551Y-65695428D01*
X150412027Y-65200082D01*
X150354115Y-64702319D01*
X150297121Y-64213292D01*
X150242349Y-63744158D01*
X150191103Y-63306071D01*
X150144688Y-62910186D01*
X150104408Y-62567659D01*
X150071569Y-62289645D01*
X150052468Y-62129022D01*
X149937323Y-61165210D01*
X153353979Y-61176522D01*
G36*
X169105503Y-68271379D02*
X169968052Y-68272486D01*
X170797363Y-68274345D01*
X171576593Y-68276956D01*
X172288898Y-68280318D01*
X172324583Y-68280518D01*
X173002665Y-68284374D01*
X173601367Y-68287906D01*
X174125972Y-68291254D01*
X174581765Y-68294559D01*
X174974031Y-68297960D01*
X175308055Y-68301597D01*
X175589120Y-68305611D01*
X175822512Y-68310141D01*
X176013515Y-68315328D01*
X176167414Y-68321312D01*
X176289492Y-68328233D01*
X176385036Y-68336231D01*
X176459328Y-68345446D01*
X176517655Y-68356019D01*
X176565299Y-68368088D01*
X176607547Y-68381795D01*
X176643654Y-68395023D01*
X176999022Y-68546384D01*
X177300293Y-68719575D01*
X177578001Y-68933977D01*
X177758322Y-69102620D01*
X178059016Y-69447983D01*
X178279701Y-69810544D01*
X178424423Y-70197352D01*
X178451820Y-70310666D01*
X178472287Y-70449151D01*
X178491660Y-70664731D01*
X178509690Y-70949835D01*
X178526130Y-71296896D01*
X178540733Y-71698346D01*
X178553251Y-72146615D01*
X178563436Y-72634136D01*
X178571042Y-73153338D01*
X178575820Y-73696655D01*
X178577451Y-74152416D01*
X178579333Y-75687000D01*
X173966613Y-75687000D01*
X173947511Y-75591750D01*
X173934057Y-75512743D01*
X173912103Y-75370936D01*
X173884842Y-75187382D01*
X173859230Y-75009666D01*
X173724810Y-74359573D01*
X173512193Y-73733184D01*
X173226063Y-73136910D01*
X172871103Y-72577165D01*
X172452000Y-72060360D01*
X171973436Y-71592907D01*
X171440098Y-71181220D01*
X170856668Y-70831709D01*
X170777423Y-70791192D01*
X170548506Y-70681896D01*
X170298064Y-70571151D01*
X170062098Y-70474498D01*
X169930027Y-70425364D01*
X169541167Y-70289500D01*
X166958833Y-70289500D01*
X166514333Y-70452208D01*
X165899344Y-70707902D01*
X165347808Y-71004435D01*
X164844328Y-71351799D01*
X164373510Y-71759991D01*
X164145712Y-71989836D01*
X163702119Y-72505726D01*
X163338256Y-73035151D01*
X163049630Y-73588016D01*
X162831748Y-74174222D01*
X162680116Y-74803675D01*
X162597912Y-75401250D01*
X162570594Y-75687000D01*
X157920667Y-75687000D01*
X157922192Y-74088916D01*
X157924795Y-73422727D01*
X157931175Y-72804780D01*
X157941162Y-72239611D01*
X157954586Y-71731756D01*
X157971276Y-71285749D01*
X157991061Y-70906126D01*
X158013772Y-70597421D01*
X158039237Y-70364171D01*
X158067287Y-70210911D01*
X158067984Y-70208281D01*
X158184902Y-69875142D01*
X158354995Y-69567344D01*
X158589595Y-69266364D01*
X158744620Y-69102620D01*
X159016714Y-68855061D01*
X159292474Y-68660161D01*
X159601845Y-68498861D01*
X159856346Y-68395023D01*
X159898181Y-68379793D01*
X159940861Y-68366321D01*
X159989670Y-68354467D01*
X160049894Y-68344091D01*
X160126816Y-68335053D01*
X160225721Y-68327213D01*
X160351893Y-68320430D01*
X160510618Y-68314565D01*
X160707180Y-68309477D01*
X160946863Y-68305027D01*
X161234952Y-68301074D01*
X161576731Y-68297478D01*
X161977485Y-68294098D01*
X162442498Y-68290796D01*
X162977056Y-68287431D01*
X163586442Y-68283862D01*
X164175416Y-68280518D01*
X164883691Y-68277116D01*
X165659785Y-68274465D01*
X166486857Y-68272566D01*
X167348062Y-68271419D01*
X168226559Y-68271023D01*
X169105503Y-68271379D01*
X169105503Y-68271379D01*
G37*
X169105503Y-68271379D02*
X169968052Y-68272486D01*
X170797363Y-68274345D01*
X171576593Y-68276956D01*
X172288898Y-68280318D01*
X172324583Y-68280518D01*
X173002665Y-68284374D01*
X173601367Y-68287906D01*
X174125972Y-68291254D01*
X174581765Y-68294559D01*
X174974031Y-68297960D01*
X175308055Y-68301597D01*
X175589120Y-68305611D01*
X175822512Y-68310141D01*
X176013515Y-68315328D01*
X176167414Y-68321312D01*
X176289492Y-68328233D01*
X176385036Y-68336231D01*
X176459328Y-68345446D01*
X176517655Y-68356019D01*
X176565299Y-68368088D01*
X176607547Y-68381795D01*
X176643654Y-68395023D01*
X176999022Y-68546384D01*
X177300293Y-68719575D01*
X177578001Y-68933977D01*
X177758322Y-69102620D01*
X178059016Y-69447983D01*
X178279701Y-69810544D01*
X178424423Y-70197352D01*
X178451820Y-70310666D01*
X178472287Y-70449151D01*
X178491660Y-70664731D01*
X178509690Y-70949835D01*
X178526130Y-71296896D01*
X178540733Y-71698346D01*
X178553251Y-72146615D01*
X178563436Y-72634136D01*
X178571042Y-73153338D01*
X178575820Y-73696655D01*
X178577451Y-74152416D01*
X178579333Y-75687000D01*
X173966613Y-75687000D01*
X173947511Y-75591750D01*
X173934057Y-75512743D01*
X173912103Y-75370936D01*
X173884842Y-75187382D01*
X173859230Y-75009666D01*
X173724810Y-74359573D01*
X173512193Y-73733184D01*
X173226063Y-73136910D01*
X172871103Y-72577165D01*
X172452000Y-72060360D01*
X171973436Y-71592907D01*
X171440098Y-71181220D01*
X170856668Y-70831709D01*
X170777423Y-70791192D01*
X170548506Y-70681896D01*
X170298064Y-70571151D01*
X170062098Y-70474498D01*
X169930027Y-70425364D01*
X169541167Y-70289500D01*
X166958833Y-70289500D01*
X166514333Y-70452208D01*
X165899344Y-70707902D01*
X165347808Y-71004435D01*
X164844328Y-71351799D01*
X164373510Y-71759991D01*
X164145712Y-71989836D01*
X163702119Y-72505726D01*
X163338256Y-73035151D01*
X163049630Y-73588016D01*
X162831748Y-74174222D01*
X162680116Y-74803675D01*
X162597912Y-75401250D01*
X162570594Y-75687000D01*
X157920667Y-75687000D01*
X157922192Y-74088916D01*
X157924795Y-73422727D01*
X157931175Y-72804780D01*
X157941162Y-72239611D01*
X157954586Y-71731756D01*
X157971276Y-71285749D01*
X157991061Y-70906126D01*
X158013772Y-70597421D01*
X158039237Y-70364171D01*
X158067287Y-70210911D01*
X158067984Y-70208281D01*
X158184902Y-69875142D01*
X158354995Y-69567344D01*
X158589595Y-69266364D01*
X158744620Y-69102620D01*
X159016714Y-68855061D01*
X159292474Y-68660161D01*
X159601845Y-68498861D01*
X159856346Y-68395023D01*
X159898181Y-68379793D01*
X159940861Y-68366321D01*
X159989670Y-68354467D01*
X160049894Y-68344091D01*
X160126816Y-68335053D01*
X160225721Y-68327213D01*
X160351893Y-68320430D01*
X160510618Y-68314565D01*
X160707180Y-68309477D01*
X160946863Y-68305027D01*
X161234952Y-68301074D01*
X161576731Y-68297478D01*
X161977485Y-68294098D01*
X162442498Y-68290796D01*
X162977056Y-68287431D01*
X163586442Y-68283862D01*
X164175416Y-68280518D01*
X164883691Y-68277116D01*
X165659785Y-68274465D01*
X166486857Y-68272566D01*
X167348062Y-68271419D01*
X168226559Y-68271023D01*
X169105503Y-68271379D01*
G36*
X168649387Y-59063038D02*
X168801193Y-59073206D01*
X168881080Y-59088975D01*
X168969082Y-59113612D01*
X169117061Y-59144512D01*
X169301044Y-59176950D01*
X169422731Y-59195767D01*
X170181348Y-59344190D01*
X170932135Y-59564132D01*
X171664342Y-59850071D01*
X172367220Y-60196483D01*
X173030019Y-60597845D01*
X173641991Y-61048632D01*
X174192386Y-61543321D01*
X174388473Y-61747441D01*
X174925660Y-62382854D01*
X175387990Y-63041792D01*
X175777989Y-63730181D01*
X176098182Y-64453946D01*
X176351096Y-65219014D01*
X176539256Y-66031311D01*
X176665187Y-66896764D01*
X176689365Y-67146250D01*
X176710549Y-67389666D01*
X159787322Y-67389666D01*
X159809151Y-67167416D01*
X159846048Y-66807665D01*
X159880350Y-66512453D01*
X159914940Y-66261833D01*
X159952706Y-66035855D01*
X159996532Y-65814570D01*
X160021211Y-65701278D01*
X160240168Y-64906988D01*
X160387586Y-64523109D01*
X161709500Y-64523109D01*
X161709500Y-64531276D01*
X161710456Y-64759736D01*
X161715608Y-64924681D01*
X161728386Y-65047256D01*
X161752215Y-65148610D01*
X161790525Y-65249888D01*
X161845331Y-65369258D01*
X162046406Y-65697948D01*
X162309419Y-65976228D01*
X162623698Y-66197232D01*
X162978567Y-66354090D01*
X163363354Y-66439936D01*
X163529833Y-66453108D01*
X163642815Y-66448803D01*
X163797857Y-66432683D01*
X163906052Y-66417029D01*
X164278208Y-66314369D01*
X164619479Y-66137560D01*
X164919063Y-65894703D01*
X165166159Y-65593898D01*
X165289402Y-65379534D01*
X165348873Y-65255646D01*
X165389421Y-65155082D01*
X165414667Y-65056751D01*
X165428236Y-64939566D01*
X165433749Y-64782434D01*
X165434829Y-64564266D01*
X165434833Y-64532868D01*
X165433991Y-64305517D01*
X165429183Y-64142348D01*
X165416984Y-64022879D01*
X165407170Y-63981833D01*
X171065167Y-63981833D01*
X171065167Y-64532868D01*
X171066081Y-64760874D01*
X171071091Y-64924990D01*
X171083594Y-65045992D01*
X171106989Y-65144653D01*
X171144673Y-65241749D01*
X171200046Y-65358053D01*
X171200201Y-65358368D01*
X171395906Y-65690173D01*
X171628106Y-65953753D01*
X171911159Y-66162602D01*
X172215150Y-66312424D01*
X172348103Y-66361108D01*
X172477626Y-66391756D01*
X172630187Y-66408261D01*
X172832252Y-66414519D01*
X172912389Y-66414995D01*
X173238830Y-66404396D01*
X173486001Y-66371079D01*
X173571936Y-66348395D01*
X173812142Y-66239578D01*
X174061015Y-66073368D01*
X174293041Y-65869833D01*
X174482705Y-65649039D01*
X174508566Y-65611730D01*
X174646029Y-65381197D01*
X174737516Y-65159814D01*
X174789244Y-64922768D01*
X174807432Y-64645240D01*
X174804227Y-64431748D01*
X174777337Y-64109249D01*
X174716488Y-63843934D01*
X174612022Y-63611883D01*
X174454281Y-63389177D01*
X174324906Y-63244689D01*
X174034784Y-62988193D01*
X173721134Y-62806672D01*
X173374340Y-62696516D01*
X172984789Y-62654114D01*
X172762002Y-62657649D01*
X172549803Y-62673614D01*
X172387127Y-62700996D01*
X172238891Y-62748044D01*
X172080887Y-62817799D01*
X171775731Y-63002629D01*
X171516147Y-63247319D01*
X171292940Y-63561094D01*
X171232084Y-63669353D01*
X171065167Y-63981833D01*
X165407170Y-63981833D01*
X165393969Y-63926627D01*
X165356716Y-63833109D01*
X165301798Y-63721844D01*
X165298004Y-63714426D01*
X165144597Y-63447674D01*
X164978974Y-63235213D01*
X164776787Y-63047543D01*
X164695107Y-62983929D01*
X164409484Y-62811764D01*
X164090759Y-62703393D01*
X163727219Y-62655677D01*
X163469840Y-62655348D01*
X163265604Y-62666392D01*
X163114812Y-62685108D01*
X162986242Y-62718955D01*
X162848672Y-62775393D01*
X162731466Y-62831759D01*
X162383106Y-63047729D01*
X162096933Y-63319583D01*
X161875962Y-63644359D01*
X161846731Y-63701297D01*
X161790467Y-63819143D01*
X161752151Y-63916865D01*
X161728341Y-64015294D01*
X161715592Y-64135258D01*
X161710459Y-64297587D01*
X161709500Y-64523109D01*
X160387586Y-64523109D01*
X160533724Y-64142566D01*
X160897578Y-63413500D01*
X161327433Y-62725278D01*
X161818988Y-62083389D01*
X162367943Y-61493319D01*
X162970000Y-60960558D01*
X163620858Y-60490592D01*
X164316219Y-60088911D01*
X164482839Y-60006355D01*
X164825170Y-59854131D01*
X165213878Y-59701728D01*
X165623976Y-59557538D01*
X166030478Y-59429955D01*
X166408397Y-59327375D01*
X166683667Y-59267008D01*
X166901585Y-59225835D01*
X167119949Y-59183926D01*
X167305904Y-59147615D01*
X167382167Y-59132384D01*
X167541552Y-59108038D01*
X167746796Y-59088079D01*
X167979051Y-59073054D01*
X168219467Y-59063509D01*
X168449195Y-59059988D01*
X168649387Y-59063038D01*
X168649387Y-59063038D01*
G37*
X168649387Y-59063038D02*
X168801193Y-59073206D01*
X168881080Y-59088975D01*
X168969082Y-59113612D01*
X169117061Y-59144512D01*
X169301044Y-59176950D01*
X169422731Y-59195767D01*
X170181348Y-59344190D01*
X170932135Y-59564132D01*
X171664342Y-59850071D01*
X172367220Y-60196483D01*
X173030019Y-60597845D01*
X173641991Y-61048632D01*
X174192386Y-61543321D01*
X174388473Y-61747441D01*
X174925660Y-62382854D01*
X175387990Y-63041792D01*
X175777989Y-63730181D01*
X176098182Y-64453946D01*
X176351096Y-65219014D01*
X176539256Y-66031311D01*
X176665187Y-66896764D01*
X176689365Y-67146250D01*
X176710549Y-67389666D01*
X159787322Y-67389666D01*
X159809151Y-67167416D01*
X159846048Y-66807665D01*
X159880350Y-66512453D01*
X159914940Y-66261833D01*
X159952706Y-66035855D01*
X159996532Y-65814570D01*
X160021211Y-65701278D01*
X160240168Y-64906988D01*
X160387586Y-64523109D01*
X161709500Y-64523109D01*
X161709500Y-64531276D01*
X161710456Y-64759736D01*
X161715608Y-64924681D01*
X161728386Y-65047256D01*
X161752215Y-65148610D01*
X161790525Y-65249888D01*
X161845331Y-65369258D01*
X162046406Y-65697948D01*
X162309419Y-65976228D01*
X162623698Y-66197232D01*
X162978567Y-66354090D01*
X163363354Y-66439936D01*
X163529833Y-66453108D01*
X163642815Y-66448803D01*
X163797857Y-66432683D01*
X163906052Y-66417029D01*
X164278208Y-66314369D01*
X164619479Y-66137560D01*
X164919063Y-65894703D01*
X165166159Y-65593898D01*
X165289402Y-65379534D01*
X165348873Y-65255646D01*
X165389421Y-65155082D01*
X165414667Y-65056751D01*
X165428236Y-64939566D01*
X165433749Y-64782434D01*
X165434829Y-64564266D01*
X165434833Y-64532868D01*
X165433991Y-64305517D01*
X165429183Y-64142348D01*
X165416984Y-64022879D01*
X165407170Y-63981833D01*
X171065167Y-63981833D01*
X171065167Y-64532868D01*
X171066081Y-64760874D01*
X171071091Y-64924990D01*
X171083594Y-65045992D01*
X171106989Y-65144653D01*
X171144673Y-65241749D01*
X171200046Y-65358053D01*
X171200201Y-65358368D01*
X171395906Y-65690173D01*
X171628106Y-65953753D01*
X171911159Y-66162602D01*
X172215150Y-66312424D01*
X172348103Y-66361108D01*
X172477626Y-66391756D01*
X172630187Y-66408261D01*
X172832252Y-66414519D01*
X172912389Y-66414995D01*
X173238830Y-66404396D01*
X173486001Y-66371079D01*
X173571936Y-66348395D01*
X173812142Y-66239578D01*
X174061015Y-66073368D01*
X174293041Y-65869833D01*
X174482705Y-65649039D01*
X174508566Y-65611730D01*
X174646029Y-65381197D01*
X174737516Y-65159814D01*
X174789244Y-64922768D01*
X174807432Y-64645240D01*
X174804227Y-64431748D01*
X174777337Y-64109249D01*
X174716488Y-63843934D01*
X174612022Y-63611883D01*
X174454281Y-63389177D01*
X174324906Y-63244689D01*
X174034784Y-62988193D01*
X173721134Y-62806672D01*
X173374340Y-62696516D01*
X172984789Y-62654114D01*
X172762002Y-62657649D01*
X172549803Y-62673614D01*
X172387127Y-62700996D01*
X172238891Y-62748044D01*
X172080887Y-62817799D01*
X171775731Y-63002629D01*
X171516147Y-63247319D01*
X171292940Y-63561094D01*
X171232084Y-63669353D01*
X171065167Y-63981833D01*
X165407170Y-63981833D01*
X165393969Y-63926627D01*
X165356716Y-63833109D01*
X165301798Y-63721844D01*
X165298004Y-63714426D01*
X165144597Y-63447674D01*
X164978974Y-63235213D01*
X164776787Y-63047543D01*
X164695107Y-62983929D01*
X164409484Y-62811764D01*
X164090759Y-62703393D01*
X163727219Y-62655677D01*
X163469840Y-62655348D01*
X163265604Y-62666392D01*
X163114812Y-62685108D01*
X162986242Y-62718955D01*
X162848672Y-62775393D01*
X162731466Y-62831759D01*
X162383106Y-63047729D01*
X162096933Y-63319583D01*
X161875962Y-63644359D01*
X161846731Y-63701297D01*
X161790467Y-63819143D01*
X161752151Y-63916865D01*
X161728341Y-64015294D01*
X161715592Y-64135258D01*
X161710459Y-64297587D01*
X161709500Y-64523109D01*
X160387586Y-64523109D01*
X160533724Y-64142566D01*
X160897578Y-63413500D01*
X161327433Y-62725278D01*
X161818988Y-62083389D01*
X162367943Y-61493319D01*
X162970000Y-60960558D01*
X163620858Y-60490592D01*
X164316219Y-60088911D01*
X164482839Y-60006355D01*
X164825170Y-59854131D01*
X165213878Y-59701728D01*
X165623976Y-59557538D01*
X166030478Y-59429955D01*
X166408397Y-59327375D01*
X166683667Y-59267008D01*
X166901585Y-59225835D01*
X167119949Y-59183926D01*
X167305904Y-59147615D01*
X167382167Y-59132384D01*
X167541552Y-59108038D01*
X167746796Y-59088079D01*
X167979051Y-59073054D01*
X168219467Y-59063509D01*
X168449195Y-59059988D01*
X168649387Y-59063038D01*
G36*
X175743000Y-55155333D02*
X156227333Y-55155333D01*
X156227333Y-56171924D01*
X156523667Y-56144383D01*
X156820000Y-56116841D01*
X156820000Y-60362333D01*
X153391000Y-60362333D01*
X152860401Y-60362121D01*
X152354915Y-60361508D01*
X151880838Y-60360526D01*
X151444468Y-60359207D01*
X151052102Y-60357583D01*
X150710037Y-60355687D01*
X150424572Y-60353550D01*
X150202003Y-60351206D01*
X150048628Y-60348686D01*
X149970743Y-60346022D01*
X149962000Y-60344766D01*
X149977023Y-60300752D01*
X150017635Y-60195537D01*
X150077146Y-60046191D01*
X150130428Y-59914835D01*
X150423059Y-59307869D01*
X150784687Y-58747849D01*
X151212681Y-58236580D01*
X151704410Y-57775866D01*
X152257242Y-57367513D01*
X152868548Y-57013325D01*
X153535694Y-56715105D01*
X154256050Y-56474660D01*
X155026985Y-56293793D01*
X155528833Y-56212419D01*
X155701686Y-56188124D01*
X155851902Y-56165597D01*
X155951558Y-56149056D01*
X155962750Y-56146881D01*
X156058000Y-56127386D01*
X156058000Y-45291666D01*
X156227333Y-45291666D01*
X156227333Y-54986000D01*
X161138000Y-54986000D01*
X161138000Y-50322052D01*
X162154000Y-50322052D01*
X162186466Y-50373243D01*
X162279980Y-50470963D01*
X162428715Y-50609818D01*
X162626847Y-50784409D01*
X162868548Y-50989343D01*
X162926583Y-51037626D01*
X163249376Y-51306715D01*
X163515424Y-51531471D01*
X163722738Y-51710160D01*
X163869330Y-51841048D01*
X163953214Y-51922404D01*
X163973831Y-51950729D01*
X163963538Y-51992630D01*
X163937446Y-52092225D01*
X163910833Y-52192000D01*
X163865856Y-52369605D01*
X163849782Y-52481243D01*
X163867253Y-52542062D01*
X163922913Y-52567211D01*
X164021406Y-52571840D01*
X164027250Y-52571807D01*
X164132152Y-52565259D01*
X164301019Y-52548022D01*
X164514149Y-52522386D01*
X164751841Y-52490643D01*
X164867408Y-52474123D01*
X165527649Y-52377632D01*
X165553951Y-53344969D01*
X165562542Y-53623864D01*
X165572190Y-53874828D01*
X165582257Y-54085336D01*
X165592106Y-54242867D01*
X165601099Y-54334897D01*
X165605291Y-54352819D01*
X165663598Y-54379830D01*
X165776882Y-54392222D01*
X165916891Y-54390926D01*
X166055376Y-54376872D01*
X166164086Y-54350989D01*
X166199325Y-54333270D01*
X166226284Y-54308290D01*
X166246949Y-54270519D01*
X166262397Y-54208911D01*
X166273703Y-54112417D01*
X166281944Y-53969990D01*
X166288196Y-53770582D01*
X166293534Y-53503147D01*
X166296229Y-53338437D01*
X166301611Y-53032080D01*
X166307433Y-52800257D01*
X166314614Y-52632838D01*
X166324071Y-52519691D01*
X166336724Y-52450686D01*
X166353491Y-52415691D01*
X166375289Y-52404575D01*
X166380895Y-52404328D01*
X166446678Y-52410311D01*
X166578873Y-52426270D01*
X166760108Y-52449980D01*
X166973011Y-52479219D01*
X167042280Y-52488995D01*
X167271440Y-52519937D01*
X167484111Y-52545744D01*
X167659508Y-52564092D01*
X167776843Y-52572657D01*
X167793696Y-52573000D01*
X167884820Y-52567475D01*
X167935961Y-52540810D01*
X167950990Y-52477864D01*
X167933777Y-52363500D01*
X167890899Y-52192740D01*
X167829137Y-51960648D01*
X167965485Y-51819178D01*
X168037026Y-51751839D01*
X168162857Y-51640596D01*
X168331704Y-51495114D01*
X168532293Y-51325061D01*
X168753351Y-51140103D01*
X168876355Y-51038181D01*
X169139080Y-50820004D01*
X169340495Y-50647736D01*
X169485247Y-50514199D01*
X169577983Y-50412218D01*
X169623352Y-50334615D01*
X169625999Y-50274213D01*
X169590573Y-50223835D01*
X169521720Y-50176305D01*
X169457066Y-50141373D01*
X169351118Y-50072893D01*
X169284050Y-50003866D01*
X169274359Y-49981640D01*
X169279385Y-49913828D01*
X169303482Y-49783612D01*
X169342692Y-49610065D01*
X169390210Y-49422923D01*
X169441654Y-49221105D01*
X169483454Y-49039887D01*
X169511058Y-48900191D01*
X169520000Y-48826708D01*
X169519242Y-48780687D01*
X169508613Y-48750505D01*
X169475576Y-48736257D01*
X169407597Y-48738036D01*
X169292142Y-48755937D01*
X169116674Y-48790053D01*
X168913982Y-48831261D01*
X168687224Y-48873892D01*
X168527276Y-48890293D01*
X168418923Y-48875214D01*
X168346948Y-48823409D01*
X168296138Y-48729631D01*
X168255712Y-48604250D01*
X168205305Y-48477557D01*
X168145571Y-48426389D01*
X168128304Y-48424333D01*
X168073892Y-48453500D01*
X167973580Y-48533966D01*
X167839290Y-48655182D01*
X167682939Y-48806598D01*
X167590253Y-48900583D01*
X167128167Y-49376833D01*
X167115038Y-49218247D01*
X167118100Y-49124112D01*
X167134923Y-48964453D01*
X167163173Y-48756872D01*
X167200516Y-48518967D01*
X167231454Y-48340270D01*
X167293769Y-47975980D01*
X167335183Y-47689600D01*
X167355980Y-47477065D01*
X167356443Y-47334311D01*
X167336856Y-47257274D01*
X167308083Y-47240185D01*
X167245163Y-47257268D01*
X167129974Y-47301038D01*
X166986890Y-47362200D01*
X166980000Y-47365296D01*
X166704833Y-47489222D01*
X166632372Y-47395861D01*
X166583290Y-47321933D01*
X166505395Y-47192572D01*
X166409964Y-47026919D01*
X166321715Y-46868654D01*
X166190184Y-46633231D01*
X166089536Y-46464686D01*
X166012941Y-46354093D01*
X165953574Y-46292523D01*
X165904605Y-46271051D01*
X165868851Y-46276542D01*
X165824641Y-46321254D01*
X165749874Y-46425945D01*
X165654162Y-46576066D01*
X165547119Y-46757067D01*
X165521542Y-46802185D01*
X165411432Y-46995617D01*
X165310004Y-47169438D01*
X165227424Y-47306518D01*
X165173862Y-47389725D01*
X165168109Y-47397631D01*
X165095981Y-47492763D01*
X164827689Y-47365881D01*
X164684991Y-47302231D01*
X164567429Y-47256694D01*
X164500161Y-47239003D01*
X164499699Y-47238999D01*
X164461928Y-47265612D01*
X164443797Y-47348869D01*
X164445634Y-47493903D01*
X164467769Y-47705847D01*
X164510530Y-47989831D01*
X164569217Y-48323740D01*
X164612126Y-48571379D01*
X164647395Y-48803047D01*
X164672582Y-49000339D01*
X164685245Y-49144846D01*
X164685634Y-49201349D01*
X164672833Y-49376833D01*
X164209942Y-48900583D01*
X164046301Y-48736951D01*
X163898156Y-48597583D01*
X163777408Y-48493014D01*
X163695956Y-48433778D01*
X163671891Y-48424333D01*
X163608707Y-48459121D01*
X163556131Y-48568780D01*
X163545287Y-48604250D01*
X163500515Y-48740521D01*
X163448344Y-48830073D01*
X163373558Y-48878151D01*
X163260944Y-48890004D01*
X163095284Y-48870878D01*
X162887017Y-48831261D01*
X162651636Y-48783548D01*
X162486750Y-48752128D01*
X162379820Y-48736733D01*
X162318310Y-48737097D01*
X162289683Y-48752953D01*
X162281401Y-48784034D01*
X162281000Y-48818362D01*
X162291453Y-48898210D01*
X162319875Y-49039414D01*
X162361862Y-49221673D01*
X162410349Y-49414534D01*
X162458920Y-49613191D01*
X162495075Y-49786603D01*
X162515290Y-49915900D01*
X162516228Y-49981670D01*
X162466966Y-50045631D01*
X162370442Y-50121616D01*
X162323379Y-50150680D01*
X162216453Y-50227305D01*
X162158641Y-50300987D01*
X162154000Y-50322052D01*
X161138000Y-50322052D01*
X161138000Y-45291666D01*
X170663000Y-45291666D01*
X170663000Y-54986000D01*
X175573667Y-54986000D01*
X175573667Y-45291666D01*
X170663000Y-45291666D01*
X161138000Y-45291666D01*
X156227333Y-45291666D01*
X156058000Y-45291666D01*
X156058000Y-45080000D01*
X175743000Y-45080000D01*
X175743000Y-55155333D01*
X175743000Y-55155333D01*
G37*
X175743000Y-55155333D02*
X156227333Y-55155333D01*
X156227333Y-56171924D01*
X156523667Y-56144383D01*
X156820000Y-56116841D01*
X156820000Y-60362333D01*
X153391000Y-60362333D01*
X152860401Y-60362121D01*
X152354915Y-60361508D01*
X151880838Y-60360526D01*
X151444468Y-60359207D01*
X151052102Y-60357583D01*
X150710037Y-60355687D01*
X150424572Y-60353550D01*
X150202003Y-60351206D01*
X150048628Y-60348686D01*
X149970743Y-60346022D01*
X149962000Y-60344766D01*
X149977023Y-60300752D01*
X150017635Y-60195537D01*
X150077146Y-60046191D01*
X150130428Y-59914835D01*
X150423059Y-59307869D01*
X150784687Y-58747849D01*
X151212681Y-58236580D01*
X151704410Y-57775866D01*
X152257242Y-57367513D01*
X152868548Y-57013325D01*
X153535694Y-56715105D01*
X154256050Y-56474660D01*
X155026985Y-56293793D01*
X155528833Y-56212419D01*
X155701686Y-56188124D01*
X155851902Y-56165597D01*
X155951558Y-56149056D01*
X155962750Y-56146881D01*
X156058000Y-56127386D01*
X156058000Y-45291666D01*
X156227333Y-45291666D01*
X156227333Y-54986000D01*
X161138000Y-54986000D01*
X161138000Y-50322052D01*
X162154000Y-50322052D01*
X162186466Y-50373243D01*
X162279980Y-50470963D01*
X162428715Y-50609818D01*
X162626847Y-50784409D01*
X162868548Y-50989343D01*
X162926583Y-51037626D01*
X163249376Y-51306715D01*
X163515424Y-51531471D01*
X163722738Y-51710160D01*
X163869330Y-51841048D01*
X163953214Y-51922404D01*
X163973831Y-51950729D01*
X163963538Y-51992630D01*
X163937446Y-52092225D01*
X163910833Y-52192000D01*
X163865856Y-52369605D01*
X163849782Y-52481243D01*
X163867253Y-52542062D01*
X163922913Y-52567211D01*
X164021406Y-52571840D01*
X164027250Y-52571807D01*
X164132152Y-52565259D01*
X164301019Y-52548022D01*
X164514149Y-52522386D01*
X164751841Y-52490643D01*
X164867408Y-52474123D01*
X165527649Y-52377632D01*
X165553951Y-53344969D01*
X165562542Y-53623864D01*
X165572190Y-53874828D01*
X165582257Y-54085336D01*
X165592106Y-54242867D01*
X165601099Y-54334897D01*
X165605291Y-54352819D01*
X165663598Y-54379830D01*
X165776882Y-54392222D01*
X165916891Y-54390926D01*
X166055376Y-54376872D01*
X166164086Y-54350989D01*
X166199325Y-54333270D01*
X166226284Y-54308290D01*
X166246949Y-54270519D01*
X166262397Y-54208911D01*
X166273703Y-54112417D01*
X166281944Y-53969990D01*
X166288196Y-53770582D01*
X166293534Y-53503147D01*
X166296229Y-53338437D01*
X166301611Y-53032080D01*
X166307433Y-52800257D01*
X166314614Y-52632838D01*
X166324071Y-52519691D01*
X166336724Y-52450686D01*
X166353491Y-52415691D01*
X166375289Y-52404575D01*
X166380895Y-52404328D01*
X166446678Y-52410311D01*
X166578873Y-52426270D01*
X166760108Y-52449980D01*
X166973011Y-52479219D01*
X167042280Y-52488995D01*
X167271440Y-52519937D01*
X167484111Y-52545744D01*
X167659508Y-52564092D01*
X167776843Y-52572657D01*
X167793696Y-52573000D01*
X167884820Y-52567475D01*
X167935961Y-52540810D01*
X167950990Y-52477864D01*
X167933777Y-52363500D01*
X167890899Y-52192740D01*
X167829137Y-51960648D01*
X167965485Y-51819178D01*
X168037026Y-51751839D01*
X168162857Y-51640596D01*
X168331704Y-51495114D01*
X168532293Y-51325061D01*
X168753351Y-51140103D01*
X168876355Y-51038181D01*
X169139080Y-50820004D01*
X169340495Y-50647736D01*
X169485247Y-50514199D01*
X169577983Y-50412218D01*
X169623352Y-50334615D01*
X169625999Y-50274213D01*
X169590573Y-50223835D01*
X169521720Y-50176305D01*
X169457066Y-50141373D01*
X169351118Y-50072893D01*
X169284050Y-50003866D01*
X169274359Y-49981640D01*
X169279385Y-49913828D01*
X169303482Y-49783612D01*
X169342692Y-49610065D01*
X169390210Y-49422923D01*
X169441654Y-49221105D01*
X169483454Y-49039887D01*
X169511058Y-48900191D01*
X169520000Y-48826708D01*
X169519242Y-48780687D01*
X169508613Y-48750505D01*
X169475576Y-48736257D01*
X169407597Y-48738036D01*
X169292142Y-48755937D01*
X169116674Y-48790053D01*
X168913982Y-48831261D01*
X168687224Y-48873892D01*
X168527276Y-48890293D01*
X168418923Y-48875214D01*
X168346948Y-48823409D01*
X168296138Y-48729631D01*
X168255712Y-48604250D01*
X168205305Y-48477557D01*
X168145571Y-48426389D01*
X168128304Y-48424333D01*
X168073892Y-48453500D01*
X167973580Y-48533966D01*
X167839290Y-48655182D01*
X167682939Y-48806598D01*
X167590253Y-48900583D01*
X167128167Y-49376833D01*
X167115038Y-49218247D01*
X167118100Y-49124112D01*
X167134923Y-48964453D01*
X167163173Y-48756872D01*
X167200516Y-48518967D01*
X167231454Y-48340270D01*
X167293769Y-47975980D01*
X167335183Y-47689600D01*
X167355980Y-47477065D01*
X167356443Y-47334311D01*
X167336856Y-47257274D01*
X167308083Y-47240185D01*
X167245163Y-47257268D01*
X167129974Y-47301038D01*
X166986890Y-47362200D01*
X166980000Y-47365296D01*
X166704833Y-47489222D01*
X166632372Y-47395861D01*
X166583290Y-47321933D01*
X166505395Y-47192572D01*
X166409964Y-47026919D01*
X166321715Y-46868654D01*
X166190184Y-46633231D01*
X166089536Y-46464686D01*
X166012941Y-46354093D01*
X165953574Y-46292523D01*
X165904605Y-46271051D01*
X165868851Y-46276542D01*
X165824641Y-46321254D01*
X165749874Y-46425945D01*
X165654162Y-46576066D01*
X165547119Y-46757067D01*
X165521542Y-46802185D01*
X165411432Y-46995617D01*
X165310004Y-47169438D01*
X165227424Y-47306518D01*
X165173862Y-47389725D01*
X165168109Y-47397631D01*
X165095981Y-47492763D01*
X164827689Y-47365881D01*
X164684991Y-47302231D01*
X164567429Y-47256694D01*
X164500161Y-47239003D01*
X164499699Y-47238999D01*
X164461928Y-47265612D01*
X164443797Y-47348869D01*
X164445634Y-47493903D01*
X164467769Y-47705847D01*
X164510530Y-47989831D01*
X164569217Y-48323740D01*
X164612126Y-48571379D01*
X164647395Y-48803047D01*
X164672582Y-49000339D01*
X164685245Y-49144846D01*
X164685634Y-49201349D01*
X164672833Y-49376833D01*
X164209942Y-48900583D01*
X164046301Y-48736951D01*
X163898156Y-48597583D01*
X163777408Y-48493014D01*
X163695956Y-48433778D01*
X163671891Y-48424333D01*
X163608707Y-48459121D01*
X163556131Y-48568780D01*
X163545287Y-48604250D01*
X163500515Y-48740521D01*
X163448344Y-48830073D01*
X163373558Y-48878151D01*
X163260944Y-48890004D01*
X163095284Y-48870878D01*
X162887017Y-48831261D01*
X162651636Y-48783548D01*
X162486750Y-48752128D01*
X162379820Y-48736733D01*
X162318310Y-48737097D01*
X162289683Y-48752953D01*
X162281401Y-48784034D01*
X162281000Y-48818362D01*
X162291453Y-48898210D01*
X162319875Y-49039414D01*
X162361862Y-49221673D01*
X162410349Y-49414534D01*
X162458920Y-49613191D01*
X162495075Y-49786603D01*
X162515290Y-49915900D01*
X162516228Y-49981670D01*
X162466966Y-50045631D01*
X162370442Y-50121616D01*
X162323379Y-50150680D01*
X162216453Y-50227305D01*
X162158641Y-50300987D01*
X162154000Y-50322052D01*
X161138000Y-50322052D01*
X161138000Y-45291666D01*
X170663000Y-45291666D01*
X170663000Y-54986000D01*
X175573667Y-54986000D01*
X175573667Y-45291666D01*
X170663000Y-45291666D01*
X161138000Y-45291666D01*
X156227333Y-45291666D01*
X156058000Y-45291666D01*
X156058000Y-45080000D01*
X175743000Y-45080000D01*
X175743000Y-55155333D01*
D11*
X159360000Y-59200000D02*
X157640000Y-59200000D01*
X157640000Y-59200000D02*
X157640000Y-62920000D01*
X157640000Y-62920000D02*
X159360000Y-62920000D01*
X159360000Y-62920000D02*
X159360000Y-59200000D01*
X158500000Y-58130000D02*
X158500000Y-59200000D01*
X158500000Y-63990000D02*
X158500000Y-62920000D01*
X166450000Y-56390000D02*
X166450000Y-58110000D01*
X166450000Y-58110000D02*
X170170000Y-58110000D01*
X170170000Y-58110000D02*
X170170000Y-56390000D01*
X170170000Y-56390000D02*
X166450000Y-56390000D01*
X165380000Y-57250000D02*
X166450000Y-57250000D01*
X171240000Y-57250000D02*
X170170000Y-57250000D01*
D12*
G36*
X184740461Y-103610154D02*
X151779077Y-103610154D01*
X151779077Y-99663385D01*
X152033077Y-99663385D01*
X152033077Y-103356154D01*
X184486461Y-103356154D01*
X184486461Y-99663385D01*
X152033077Y-99663385D01*
X151779077Y-99663385D01*
X151779077Y-99409385D01*
X184740461Y-99409385D01*
X184740461Y-103610154D01*
X184740461Y-103610154D01*
G37*
X184740461Y-103610154D02*
X151779077Y-103610154D01*
X151779077Y-99663385D01*
X152033077Y-99663385D01*
X152033077Y-103356154D01*
X184486461Y-103356154D01*
X184486461Y-99663385D01*
X152033077Y-99663385D01*
X151779077Y-99663385D01*
X151779077Y-99409385D01*
X184740461Y-99409385D01*
X184740461Y-103610154D01*
G36*
X173680853Y-100380151D02*
X173762454Y-100386255D01*
X173833013Y-100398784D01*
X173906513Y-100419766D01*
X173942097Y-100431751D01*
X174107945Y-100501217D01*
X174248852Y-100588658D01*
X174377767Y-100702482D01*
X174408056Y-100734330D01*
X174527649Y-100888600D01*
X174617270Y-101061319D01*
X174677860Y-101255258D01*
X174710357Y-101473187D01*
X174716891Y-101644779D01*
X174711107Y-101825406D01*
X174692802Y-101979424D01*
X174659697Y-102117936D01*
X174609511Y-102252045D01*
X174578582Y-102318324D01*
X174473391Y-102488973D01*
X174339236Y-102637003D01*
X174181129Y-102758408D01*
X174004081Y-102849181D01*
X173855523Y-102896268D01*
X173738551Y-102914851D01*
X173600827Y-102922926D01*
X173458658Y-102920517D01*
X173328353Y-102907650D01*
X173264447Y-102895359D01*
X173080736Y-102831371D01*
X172910290Y-102733814D01*
X172759049Y-102607501D01*
X172632954Y-102457249D01*
X172551508Y-102317514D01*
X172491286Y-102177225D01*
X172449737Y-102042668D01*
X172424822Y-101902760D01*
X172414505Y-101746419D01*
X172414851Y-101709780D01*
X172946361Y-101709780D01*
X172965485Y-101882427D01*
X173006586Y-102044554D01*
X173069335Y-102188584D01*
X173149651Y-102302807D01*
X173243246Y-102393692D01*
X173336055Y-102452142D01*
X173439179Y-102482803D01*
X173563716Y-102490326D01*
X173595081Y-102489338D01*
X173690450Y-102480327D01*
X173767111Y-102459708D01*
X173835864Y-102427353D01*
X173946845Y-102348172D01*
X174036027Y-102242099D01*
X174105159Y-102106378D01*
X174155988Y-101938259D01*
X174161161Y-101914737D01*
X174186172Y-101727579D01*
X174183876Y-101540393D01*
X174155693Y-101360571D01*
X174103041Y-101195504D01*
X174027340Y-101052584D01*
X173984723Y-100995783D01*
X173916783Y-100936302D01*
X173823739Y-100882964D01*
X173719556Y-100842554D01*
X173628934Y-100822975D01*
X173488494Y-100824817D01*
X173352871Y-100861070D01*
X173230191Y-100928035D01*
X173128582Y-101022010D01*
X173096178Y-101065548D01*
X173024121Y-101204497D01*
X172975351Y-101363238D01*
X172949540Y-101534191D01*
X172946361Y-101709780D01*
X172414851Y-101709780D01*
X172416072Y-101580903D01*
X172432105Y-101371894D01*
X172466323Y-101191684D01*
X172521413Y-101033196D01*
X172600067Y-100889357D01*
X172704972Y-100753091D01*
X172748837Y-100705408D01*
X172898300Y-100574961D01*
X173065502Y-100478066D01*
X173252047Y-100414086D01*
X173459534Y-100382389D01*
X173574230Y-100378449D01*
X173680853Y-100380151D01*
X173680853Y-100380151D01*
G37*
X173680853Y-100380151D02*
X173762454Y-100386255D01*
X173833013Y-100398784D01*
X173906513Y-100419766D01*
X173942097Y-100431751D01*
X174107945Y-100501217D01*
X174248852Y-100588658D01*
X174377767Y-100702482D01*
X174408056Y-100734330D01*
X174527649Y-100888600D01*
X174617270Y-101061319D01*
X174677860Y-101255258D01*
X174710357Y-101473187D01*
X174716891Y-101644779D01*
X174711107Y-101825406D01*
X174692802Y-101979424D01*
X174659697Y-102117936D01*
X174609511Y-102252045D01*
X174578582Y-102318324D01*
X174473391Y-102488973D01*
X174339236Y-102637003D01*
X174181129Y-102758408D01*
X174004081Y-102849181D01*
X173855523Y-102896268D01*
X173738551Y-102914851D01*
X173600827Y-102922926D01*
X173458658Y-102920517D01*
X173328353Y-102907650D01*
X173264447Y-102895359D01*
X173080736Y-102831371D01*
X172910290Y-102733814D01*
X172759049Y-102607501D01*
X172632954Y-102457249D01*
X172551508Y-102317514D01*
X172491286Y-102177225D01*
X172449737Y-102042668D01*
X172424822Y-101902760D01*
X172414505Y-101746419D01*
X172414851Y-101709780D01*
X172946361Y-101709780D01*
X172965485Y-101882427D01*
X173006586Y-102044554D01*
X173069335Y-102188584D01*
X173149651Y-102302807D01*
X173243246Y-102393692D01*
X173336055Y-102452142D01*
X173439179Y-102482803D01*
X173563716Y-102490326D01*
X173595081Y-102489338D01*
X173690450Y-102480327D01*
X173767111Y-102459708D01*
X173835864Y-102427353D01*
X173946845Y-102348172D01*
X174036027Y-102242099D01*
X174105159Y-102106378D01*
X174155988Y-101938259D01*
X174161161Y-101914737D01*
X174186172Y-101727579D01*
X174183876Y-101540393D01*
X174155693Y-101360571D01*
X174103041Y-101195504D01*
X174027340Y-101052584D01*
X173984723Y-100995783D01*
X173916783Y-100936302D01*
X173823739Y-100882964D01*
X173719556Y-100842554D01*
X173628934Y-100822975D01*
X173488494Y-100824817D01*
X173352871Y-100861070D01*
X173230191Y-100928035D01*
X173128582Y-101022010D01*
X173096178Y-101065548D01*
X173024121Y-101204497D01*
X172975351Y-101363238D01*
X172949540Y-101534191D01*
X172946361Y-101709780D01*
X172414851Y-101709780D01*
X172416072Y-101580903D01*
X172432105Y-101371894D01*
X172466323Y-101191684D01*
X172521413Y-101033196D01*
X172600067Y-100889357D01*
X172704972Y-100753091D01*
X172748837Y-100705408D01*
X172898300Y-100574961D01*
X173065502Y-100478066D01*
X173252047Y-100414086D01*
X173459534Y-100382389D01*
X173574230Y-100378449D01*
X173680853Y-100380151D01*
G36*
X175713692Y-101109231D02*
X176163077Y-101109231D01*
X176163077Y-101500000D01*
X175711684Y-101500000D01*
X175717573Y-101960878D01*
X175723461Y-102421756D01*
X175779912Y-102470280D01*
X175812200Y-102494843D01*
X175845334Y-102508726D01*
X175890756Y-102514230D01*
X175959907Y-102513654D01*
X175989996Y-102512518D01*
X176143630Y-102506231D01*
X176143584Y-102694009D01*
X176143538Y-102881788D01*
X176040961Y-102894109D01*
X175949037Y-102901318D01*
X175839437Y-102904196D01*
X175725564Y-102902941D01*
X175620818Y-102897756D01*
X175538601Y-102888841D01*
X175524685Y-102886364D01*
X175401259Y-102845666D01*
X175303473Y-102778841D01*
X175234549Y-102688607D01*
X175206552Y-102617970D01*
X175200785Y-102577506D01*
X175195730Y-102503366D01*
X175191572Y-102400950D01*
X175188495Y-102275653D01*
X175186682Y-102132876D01*
X175186262Y-102022654D01*
X175186153Y-101500000D01*
X174893077Y-101500000D01*
X174893077Y-101109231D01*
X175186153Y-101109231D01*
X175186153Y-100503538D01*
X175713692Y-100503538D01*
X175713692Y-101109231D01*
X175713692Y-101109231D01*
G37*
X175713692Y-101109231D02*
X176163077Y-101109231D01*
X176163077Y-101500000D01*
X175711684Y-101500000D01*
X175717573Y-101960878D01*
X175723461Y-102421756D01*
X175779912Y-102470280D01*
X175812200Y-102494843D01*
X175845334Y-102508726D01*
X175890756Y-102514230D01*
X175959907Y-102513654D01*
X175989996Y-102512518D01*
X176143630Y-102506231D01*
X176143584Y-102694009D01*
X176143538Y-102881788D01*
X176040961Y-102894109D01*
X175949037Y-102901318D01*
X175839437Y-102904196D01*
X175725564Y-102902941D01*
X175620818Y-102897756D01*
X175538601Y-102888841D01*
X175524685Y-102886364D01*
X175401259Y-102845666D01*
X175303473Y-102778841D01*
X175234549Y-102688607D01*
X175206552Y-102617970D01*
X175200785Y-102577506D01*
X175195730Y-102503366D01*
X175191572Y-102400950D01*
X175188495Y-102275653D01*
X175186682Y-102132876D01*
X175186262Y-102022654D01*
X175186153Y-101500000D01*
X174893077Y-101500000D01*
X174893077Y-101109231D01*
X175186153Y-101109231D01*
X175186153Y-100503538D01*
X175713692Y-100503538D01*
X175713692Y-101109231D01*
G36*
X177100923Y-101109231D02*
X177569846Y-101109231D01*
X177569846Y-101500000D01*
X177100923Y-101500000D01*
X177102025Y-101915192D01*
X177103706Y-102081571D01*
X177107711Y-102216260D01*
X177113933Y-102317118D01*
X177122264Y-102382005D01*
X177126449Y-102398260D01*
X177155428Y-102454259D01*
X177200701Y-102490018D01*
X177268904Y-102508397D01*
X177366673Y-102512260D01*
X177389160Y-102511589D01*
X177530860Y-102506231D01*
X177530814Y-102694075D01*
X177530769Y-102881919D01*
X177440119Y-102894344D01*
X177346991Y-102902438D01*
X177235393Y-102905160D01*
X177118434Y-102902869D01*
X177009224Y-102895924D01*
X176920873Y-102884685D01*
X176895769Y-102879430D01*
X176806256Y-102853349D01*
X176742386Y-102822677D01*
X176690825Y-102780013D01*
X176665156Y-102751472D01*
X176639165Y-102714987D01*
X176618418Y-102670973D01*
X176602369Y-102614925D01*
X176590468Y-102542337D01*
X176582167Y-102448703D01*
X176576918Y-102329517D01*
X176574174Y-102180273D01*
X176573384Y-101997269D01*
X176573384Y-101500000D01*
X176280307Y-101500000D01*
X176280307Y-101109231D01*
X176573384Y-101109231D01*
X176573384Y-100503538D01*
X177100923Y-100503538D01*
X177100923Y-101109231D01*
X177100923Y-101109231D01*
G37*
X177100923Y-101109231D02*
X177569846Y-101109231D01*
X177569846Y-101500000D01*
X177100923Y-101500000D01*
X177102025Y-101915192D01*
X177103706Y-102081571D01*
X177107711Y-102216260D01*
X177113933Y-102317118D01*
X177122264Y-102382005D01*
X177126449Y-102398260D01*
X177155428Y-102454259D01*
X177200701Y-102490018D01*
X177268904Y-102508397D01*
X177366673Y-102512260D01*
X177389160Y-102511589D01*
X177530860Y-102506231D01*
X177530814Y-102694075D01*
X177530769Y-102881919D01*
X177440119Y-102894344D01*
X177346991Y-102902438D01*
X177235393Y-102905160D01*
X177118434Y-102902869D01*
X177009224Y-102895924D01*
X176920873Y-102884685D01*
X176895769Y-102879430D01*
X176806256Y-102853349D01*
X176742386Y-102822677D01*
X176690825Y-102780013D01*
X176665156Y-102751472D01*
X176639165Y-102714987D01*
X176618418Y-102670973D01*
X176602369Y-102614925D01*
X176590468Y-102542337D01*
X176582167Y-102448703D01*
X176576918Y-102329517D01*
X176574174Y-102180273D01*
X176573384Y-101997269D01*
X176573384Y-101500000D01*
X176280307Y-101500000D01*
X176280307Y-101109231D01*
X176573384Y-101109231D01*
X176573384Y-100503538D01*
X177100923Y-100503538D01*
X177100923Y-101109231D01*
G36*
X178814790Y-101083674D02*
X178968350Y-101116805D01*
X179079276Y-101162948D01*
X179144013Y-101205449D01*
X179201890Y-101255687D01*
X179221687Y-101278147D01*
X179250894Y-101318242D01*
X179274657Y-101357251D01*
X179293657Y-101399742D01*
X179308575Y-101450280D01*
X179320092Y-101513434D01*
X179328889Y-101593769D01*
X179335648Y-101695851D01*
X179341050Y-101824248D01*
X179345776Y-101983526D01*
X179349498Y-102135000D01*
X179353710Y-102290458D01*
X179358715Y-102435823D01*
X179364247Y-102565824D01*
X179370044Y-102675192D01*
X179375842Y-102758656D01*
X179381378Y-102810946D01*
X179383957Y-102823731D01*
X179403733Y-102887231D01*
X179142481Y-102887231D01*
X179032980Y-102885758D01*
X178947409Y-102881591D01*
X178890900Y-102875106D01*
X178868843Y-102867190D01*
X178859973Y-102837560D01*
X178850627Y-102783266D01*
X178845635Y-102742297D01*
X178834814Y-102637444D01*
X178715345Y-102733713D01*
X178590766Y-102814115D01*
X178450340Y-102871118D01*
X178303570Y-102902771D01*
X178159955Y-102907121D01*
X178028995Y-102882216D01*
X178015460Y-102877493D01*
X177895219Y-102814245D01*
X177803066Y-102724614D01*
X177741221Y-102611507D01*
X177712134Y-102480411D01*
X177715299Y-102334794D01*
X178234153Y-102334794D01*
X178245000Y-102404553D01*
X178278115Y-102451492D01*
X178331563Y-102491337D01*
X178388219Y-102511163D01*
X178458739Y-102512604D01*
X178553781Y-102497295D01*
X178563423Y-102495255D01*
X178639868Y-102471213D01*
X178720332Y-102434652D01*
X178750000Y-102417531D01*
X178839846Y-102360553D01*
X178839846Y-102023036D01*
X178728196Y-102036985D01*
X178568543Y-102065906D01*
X178437311Y-102108499D01*
X178336762Y-102163403D01*
X178269159Y-102229254D01*
X178236763Y-102304687D01*
X178234153Y-102334794D01*
X177715299Y-102334794D01*
X177715343Y-102332792D01*
X177753335Y-102201356D01*
X177826285Y-102085966D01*
X177934369Y-101986488D01*
X178077763Y-101902787D01*
X178256641Y-101834727D01*
X178471181Y-101782175D01*
X178659115Y-101752404D01*
X178749097Y-101739823D01*
X178805605Y-101726331D01*
X178834013Y-101706782D01*
X178839694Y-101676028D01*
X178828022Y-101628922D01*
X178818189Y-101600014D01*
X178780186Y-101539264D01*
X178714641Y-101500454D01*
X178618782Y-101482269D01*
X178566661Y-101480461D01*
X178422751Y-101496622D01*
X178272031Y-101542358D01*
X178127481Y-101613550D01*
X178106766Y-101626405D01*
X178004253Y-101691981D01*
X177895201Y-101542260D01*
X177786149Y-101392538D01*
X177858115Y-101328160D01*
X177981242Y-101240124D01*
X178129702Y-101169541D01*
X178295392Y-101117509D01*
X178470206Y-101085122D01*
X178646040Y-101073478D01*
X178814790Y-101083674D01*
X178814790Y-101083674D01*
G37*
X178814790Y-101083674D02*
X178968350Y-101116805D01*
X179079276Y-101162948D01*
X179144013Y-101205449D01*
X179201890Y-101255687D01*
X179221687Y-101278147D01*
X179250894Y-101318242D01*
X179274657Y-101357251D01*
X179293657Y-101399742D01*
X179308575Y-101450280D01*
X179320092Y-101513434D01*
X179328889Y-101593769D01*
X179335648Y-101695851D01*
X179341050Y-101824248D01*
X179345776Y-101983526D01*
X179349498Y-102135000D01*
X179353710Y-102290458D01*
X179358715Y-102435823D01*
X179364247Y-102565824D01*
X179370044Y-102675192D01*
X179375842Y-102758656D01*
X179381378Y-102810946D01*
X179383957Y-102823731D01*
X179403733Y-102887231D01*
X179142481Y-102887231D01*
X179032980Y-102885758D01*
X178947409Y-102881591D01*
X178890900Y-102875106D01*
X178868843Y-102867190D01*
X178859973Y-102837560D01*
X178850627Y-102783266D01*
X178845635Y-102742297D01*
X178834814Y-102637444D01*
X178715345Y-102733713D01*
X178590766Y-102814115D01*
X178450340Y-102871118D01*
X178303570Y-102902771D01*
X178159955Y-102907121D01*
X178028995Y-102882216D01*
X178015460Y-102877493D01*
X177895219Y-102814245D01*
X177803066Y-102724614D01*
X177741221Y-102611507D01*
X177712134Y-102480411D01*
X177715299Y-102334794D01*
X178234153Y-102334794D01*
X178245000Y-102404553D01*
X178278115Y-102451492D01*
X178331563Y-102491337D01*
X178388219Y-102511163D01*
X178458739Y-102512604D01*
X178553781Y-102497295D01*
X178563423Y-102495255D01*
X178639868Y-102471213D01*
X178720332Y-102434652D01*
X178750000Y-102417531D01*
X178839846Y-102360553D01*
X178839846Y-102023036D01*
X178728196Y-102036985D01*
X178568543Y-102065906D01*
X178437311Y-102108499D01*
X178336762Y-102163403D01*
X178269159Y-102229254D01*
X178236763Y-102304687D01*
X178234153Y-102334794D01*
X177715299Y-102334794D01*
X177715343Y-102332792D01*
X177753335Y-102201356D01*
X177826285Y-102085966D01*
X177934369Y-101986488D01*
X178077763Y-101902787D01*
X178256641Y-101834727D01*
X178471181Y-101782175D01*
X178659115Y-101752404D01*
X178749097Y-101739823D01*
X178805605Y-101726331D01*
X178834013Y-101706782D01*
X178839694Y-101676028D01*
X178828022Y-101628922D01*
X178818189Y-101600014D01*
X178780186Y-101539264D01*
X178714641Y-101500454D01*
X178618782Y-101482269D01*
X178566661Y-101480461D01*
X178422751Y-101496622D01*
X178272031Y-101542358D01*
X178127481Y-101613550D01*
X178106766Y-101626405D01*
X178004253Y-101691981D01*
X177895201Y-101542260D01*
X177786149Y-101392538D01*
X177858115Y-101328160D01*
X177981242Y-101240124D01*
X178129702Y-101169541D01*
X178295392Y-101117509D01*
X178470206Y-101085122D01*
X178646040Y-101073478D01*
X178814790Y-101083674D01*
G36*
X183236774Y-101084390D02*
X183353642Y-101097402D01*
X183447992Y-101122623D01*
X183527752Y-101162461D01*
X183600848Y-101219325D01*
X183627246Y-101244617D01*
X183667719Y-101286508D01*
X183700819Y-101326248D01*
X183727392Y-101368257D01*
X183748283Y-101416955D01*
X183764339Y-101476763D01*
X183776404Y-101552100D01*
X183785324Y-101647389D01*
X183791945Y-101767049D01*
X183797112Y-101915500D01*
X183801670Y-102097163D01*
X183803167Y-102164308D01*
X183806989Y-102319834D01*
X183811317Y-102464269D01*
X183815941Y-102592591D01*
X183820650Y-102699782D01*
X183825232Y-102780820D01*
X183829478Y-102830684D01*
X183831677Y-102843269D01*
X183846249Y-102887231D01*
X183317258Y-102887231D01*
X183306605Y-102833500D01*
X183295839Y-102776558D01*
X183284080Y-102710819D01*
X183283262Y-102706087D01*
X183270573Y-102632405D01*
X183183439Y-102712722D01*
X183060531Y-102805948D01*
X182927060Y-102866011D01*
X182775149Y-102896021D01*
X182708461Y-102900275D01*
X182625469Y-102900917D01*
X182552274Y-102897871D01*
X182501703Y-102891772D01*
X182493412Y-102889626D01*
X182364235Y-102830563D01*
X182266465Y-102748305D01*
X182200404Y-102643268D01*
X182166355Y-102515867D01*
X182161384Y-102435856D01*
X182168148Y-102335729D01*
X182676098Y-102335729D01*
X182687852Y-102402312D01*
X182728233Y-102454765D01*
X182792612Y-102490811D01*
X182876360Y-102508172D01*
X182974848Y-102504572D01*
X183083446Y-102477735D01*
X183118502Y-102464315D01*
X183189942Y-102429757D01*
X183235993Y-102391350D01*
X183261966Y-102339798D01*
X183273171Y-102265806D01*
X183275077Y-102190209D01*
X183275132Y-102113357D01*
X183270828Y-102063891D01*
X183255456Y-102037620D01*
X183222309Y-102030355D01*
X183164681Y-102037905D01*
X183075862Y-102056081D01*
X183064214Y-102058485D01*
X182920003Y-102097551D01*
X182807831Y-102148388D01*
X182729975Y-102209761D01*
X182697600Y-102257292D01*
X182676098Y-102335729D01*
X182168148Y-102335729D01*
X182169874Y-102310184D01*
X182198300Y-102207929D01*
X182251095Y-102116634D01*
X182293347Y-102065223D01*
X182402568Y-101970529D01*
X182546553Y-101890941D01*
X182725717Y-101826298D01*
X182940472Y-101776441D01*
X183101917Y-101751556D01*
X183275077Y-101729349D01*
X183275077Y-101662018D01*
X183262734Y-101599033D01*
X183220949Y-101540658D01*
X183215615Y-101535224D01*
X183185621Y-101506763D01*
X183158611Y-101489732D01*
X183124243Y-101481860D01*
X183072176Y-101480879D01*
X182992067Y-101484519D01*
X182986038Y-101484840D01*
X182802553Y-101512043D01*
X182638675Y-101573000D01*
X182519927Y-101647440D01*
X182456385Y-101695906D01*
X182347961Y-101549296D01*
X182300645Y-101483659D01*
X182263793Y-101429386D01*
X182242620Y-101394319D01*
X182239538Y-101386270D01*
X182255367Y-101364316D01*
X182297456Y-101329399D01*
X182357706Y-101287172D01*
X182428019Y-101243288D01*
X182500297Y-101203401D01*
X182504702Y-101201166D01*
X182632709Y-101146031D01*
X182766217Y-101109109D01*
X182915874Y-101088214D01*
X183089461Y-101081177D01*
X183236774Y-101084390D01*
X183236774Y-101084390D01*
G37*
X183236774Y-101084390D02*
X183353642Y-101097402D01*
X183447992Y-101122623D01*
X183527752Y-101162461D01*
X183600848Y-101219325D01*
X183627246Y-101244617D01*
X183667719Y-101286508D01*
X183700819Y-101326248D01*
X183727392Y-101368257D01*
X183748283Y-101416955D01*
X183764339Y-101476763D01*
X183776404Y-101552100D01*
X183785324Y-101647389D01*
X183791945Y-101767049D01*
X183797112Y-101915500D01*
X183801670Y-102097163D01*
X183803167Y-102164308D01*
X183806989Y-102319834D01*
X183811317Y-102464269D01*
X183815941Y-102592591D01*
X183820650Y-102699782D01*
X183825232Y-102780820D01*
X183829478Y-102830684D01*
X183831677Y-102843269D01*
X183846249Y-102887231D01*
X183317258Y-102887231D01*
X183306605Y-102833500D01*
X183295839Y-102776558D01*
X183284080Y-102710819D01*
X183283262Y-102706087D01*
X183270573Y-102632405D01*
X183183439Y-102712722D01*
X183060531Y-102805948D01*
X182927060Y-102866011D01*
X182775149Y-102896021D01*
X182708461Y-102900275D01*
X182625469Y-102900917D01*
X182552274Y-102897871D01*
X182501703Y-102891772D01*
X182493412Y-102889626D01*
X182364235Y-102830563D01*
X182266465Y-102748305D01*
X182200404Y-102643268D01*
X182166355Y-102515867D01*
X182161384Y-102435856D01*
X182168148Y-102335729D01*
X182676098Y-102335729D01*
X182687852Y-102402312D01*
X182728233Y-102454765D01*
X182792612Y-102490811D01*
X182876360Y-102508172D01*
X182974848Y-102504572D01*
X183083446Y-102477735D01*
X183118502Y-102464315D01*
X183189942Y-102429757D01*
X183235993Y-102391350D01*
X183261966Y-102339798D01*
X183273171Y-102265806D01*
X183275077Y-102190209D01*
X183275132Y-102113357D01*
X183270828Y-102063891D01*
X183255456Y-102037620D01*
X183222309Y-102030355D01*
X183164681Y-102037905D01*
X183075862Y-102056081D01*
X183064214Y-102058485D01*
X182920003Y-102097551D01*
X182807831Y-102148388D01*
X182729975Y-102209761D01*
X182697600Y-102257292D01*
X182676098Y-102335729D01*
X182168148Y-102335729D01*
X182169874Y-102310184D01*
X182198300Y-102207929D01*
X182251095Y-102116634D01*
X182293347Y-102065223D01*
X182402568Y-101970529D01*
X182546553Y-101890941D01*
X182725717Y-101826298D01*
X182940472Y-101776441D01*
X183101917Y-101751556D01*
X183275077Y-101729349D01*
X183275077Y-101662018D01*
X183262734Y-101599033D01*
X183220949Y-101540658D01*
X183215615Y-101535224D01*
X183185621Y-101506763D01*
X183158611Y-101489732D01*
X183124243Y-101481860D01*
X183072176Y-101480879D01*
X182992067Y-101484519D01*
X182986038Y-101484840D01*
X182802553Y-101512043D01*
X182638675Y-101573000D01*
X182519927Y-101647440D01*
X182456385Y-101695906D01*
X182347961Y-101549296D01*
X182300645Y-101483659D01*
X182263793Y-101429386D01*
X182242620Y-101394319D01*
X182239538Y-101386270D01*
X182255367Y-101364316D01*
X182297456Y-101329399D01*
X182357706Y-101287172D01*
X182428019Y-101243288D01*
X182500297Y-101203401D01*
X182504702Y-101201166D01*
X182632709Y-101146031D01*
X182766217Y-101109109D01*
X182915874Y-101088214D01*
X183089461Y-101081177D01*
X183236774Y-101084390D01*
G36*
X181951608Y-101109685D02*
X182017882Y-101111665D01*
X182057286Y-101116092D01*
X182075925Y-101123890D01*
X182079898Y-101135981D01*
X182078431Y-101143423D01*
X182071155Y-101168745D01*
X182054043Y-101227651D01*
X182028240Y-101316221D01*
X181994889Y-101430537D01*
X181955134Y-101566679D01*
X181910119Y-101720729D01*
X181860988Y-101888767D01*
X181818964Y-102032423D01*
X181568855Y-102887231D01*
X181075003Y-102887231D01*
X180941510Y-102347241D01*
X180905671Y-102205073D01*
X180872815Y-102080128D01*
X180844108Y-101976461D01*
X180820718Y-101898129D01*
X180803810Y-101849191D01*
X180794552Y-101833701D01*
X180793971Y-101834356D01*
X180785805Y-101859942D01*
X180769926Y-101918291D01*
X180747674Y-102004155D01*
X180720390Y-102112284D01*
X180689413Y-102237427D01*
X180656086Y-102374335D01*
X180656083Y-102374346D01*
X180532241Y-102887231D01*
X180038773Y-102887231D01*
X179789903Y-102032423D01*
X179738499Y-101855866D01*
X179690237Y-101690108D01*
X179646261Y-101539075D01*
X179607712Y-101406691D01*
X179575735Y-101296881D01*
X179551471Y-101213570D01*
X179536065Y-101160684D01*
X179530868Y-101142862D01*
X179529413Y-101129073D01*
X179538379Y-101119717D01*
X179563521Y-101114145D01*
X179610598Y-101111705D01*
X179685368Y-101111747D01*
X179790313Y-101113554D01*
X180059924Y-101119000D01*
X180171445Y-101587923D01*
X180203964Y-101725252D01*
X180234836Y-101856725D01*
X180262443Y-101975368D01*
X180285168Y-102074207D01*
X180301393Y-102146268D01*
X180307403Y-102174077D01*
X180331840Y-102291308D01*
X180359102Y-102164308D01*
X180371581Y-102108687D01*
X180391622Y-102022361D01*
X180417510Y-101912583D01*
X180447530Y-101786606D01*
X180479965Y-101651684D01*
X180497760Y-101578154D01*
X180609156Y-101119000D01*
X180817133Y-101113470D01*
X180910378Y-101111643D01*
X180971732Y-101112733D01*
X181008332Y-101117697D01*
X181027316Y-101127492D01*
X181035729Y-101142777D01*
X181051324Y-101197657D01*
X181074123Y-101282719D01*
X181102160Y-101390159D01*
X181133466Y-101512175D01*
X181166072Y-101640963D01*
X181198012Y-101768721D01*
X181227316Y-101887645D01*
X181252016Y-101989932D01*
X181270145Y-102067780D01*
X181277077Y-102099645D01*
X181295857Y-102179894D01*
X181313379Y-102235478D01*
X181327877Y-102262933D01*
X181337586Y-102258799D01*
X181340769Y-102224483D01*
X181345332Y-102198824D01*
X181358033Y-102141323D01*
X181377390Y-102058016D01*
X181401921Y-101954935D01*
X181430145Y-101838113D01*
X181460578Y-101713586D01*
X181491740Y-101587385D01*
X181522147Y-101465546D01*
X181550319Y-101354100D01*
X181574774Y-101259083D01*
X181594028Y-101186526D01*
X181606301Y-101143423D01*
X181615007Y-101128845D01*
X181634787Y-101119060D01*
X181672272Y-101113147D01*
X181734092Y-101110186D01*
X181826876Y-101109255D01*
X181852364Y-101109231D01*
X181951608Y-101109685D01*
X181951608Y-101109685D01*
G37*
X181951608Y-101109685D02*
X182017882Y-101111665D01*
X182057286Y-101116092D01*
X182075925Y-101123890D01*
X182079898Y-101135981D01*
X182078431Y-101143423D01*
X182071155Y-101168745D01*
X182054043Y-101227651D01*
X182028240Y-101316221D01*
X181994889Y-101430537D01*
X181955134Y-101566679D01*
X181910119Y-101720729D01*
X181860988Y-101888767D01*
X181818964Y-102032423D01*
X181568855Y-102887231D01*
X181075003Y-102887231D01*
X180941510Y-102347241D01*
X180905671Y-102205073D01*
X180872815Y-102080128D01*
X180844108Y-101976461D01*
X180820718Y-101898129D01*
X180803810Y-101849191D01*
X180794552Y-101833701D01*
X180793971Y-101834356D01*
X180785805Y-101859942D01*
X180769926Y-101918291D01*
X180747674Y-102004155D01*
X180720390Y-102112284D01*
X180689413Y-102237427D01*
X180656086Y-102374335D01*
X180656083Y-102374346D01*
X180532241Y-102887231D01*
X180038773Y-102887231D01*
X179789903Y-102032423D01*
X179738499Y-101855866D01*
X179690237Y-101690108D01*
X179646261Y-101539075D01*
X179607712Y-101406691D01*
X179575735Y-101296881D01*
X179551471Y-101213570D01*
X179536065Y-101160684D01*
X179530868Y-101142862D01*
X179529413Y-101129073D01*
X179538379Y-101119717D01*
X179563521Y-101114145D01*
X179610598Y-101111705D01*
X179685368Y-101111747D01*
X179790313Y-101113554D01*
X180059924Y-101119000D01*
X180171445Y-101587923D01*
X180203964Y-101725252D01*
X180234836Y-101856725D01*
X180262443Y-101975368D01*
X180285168Y-102074207D01*
X180301393Y-102146268D01*
X180307403Y-102174077D01*
X180331840Y-102291308D01*
X180359102Y-102164308D01*
X180371581Y-102108687D01*
X180391622Y-102022361D01*
X180417510Y-101912583D01*
X180447530Y-101786606D01*
X180479965Y-101651684D01*
X180497760Y-101578154D01*
X180609156Y-101119000D01*
X180817133Y-101113470D01*
X180910378Y-101111643D01*
X180971732Y-101112733D01*
X181008332Y-101117697D01*
X181027316Y-101127492D01*
X181035729Y-101142777D01*
X181051324Y-101197657D01*
X181074123Y-101282719D01*
X181102160Y-101390159D01*
X181133466Y-101512175D01*
X181166072Y-101640963D01*
X181198012Y-101768721D01*
X181227316Y-101887645D01*
X181252016Y-101989932D01*
X181270145Y-102067780D01*
X181277077Y-102099645D01*
X181295857Y-102179894D01*
X181313379Y-102235478D01*
X181327877Y-102262933D01*
X181337586Y-102258799D01*
X181340769Y-102224483D01*
X181345332Y-102198824D01*
X181358033Y-102141323D01*
X181377390Y-102058016D01*
X181401921Y-101954935D01*
X181430145Y-101838113D01*
X181460578Y-101713586D01*
X181491740Y-101587385D01*
X181522147Y-101465546D01*
X181550319Y-101354100D01*
X181574774Y-101259083D01*
X181594028Y-101186526D01*
X181606301Y-101143423D01*
X181615007Y-101128845D01*
X181634787Y-101119060D01*
X181672272Y-101113147D01*
X181734092Y-101110186D01*
X181826876Y-101109255D01*
X181852364Y-101109231D01*
X181951608Y-101109685D01*
G36*
X156602776Y-100897057D02*
X156731953Y-100908202D01*
X156841717Y-100928302D01*
X156907923Y-100950284D01*
X157026194Y-101021836D01*
X157127048Y-101119524D01*
X157201002Y-101233624D01*
X157214704Y-101264905D01*
X157226300Y-101296397D01*
X157235747Y-101329101D01*
X157243373Y-101367563D01*
X157249507Y-101416328D01*
X157254479Y-101479941D01*
X157258616Y-101562948D01*
X157262249Y-101669894D01*
X157265706Y-101805324D01*
X157269316Y-101973784D01*
X157270595Y-102037308D01*
X157274489Y-102204029D01*
X157279177Y-102357829D01*
X157284439Y-102494008D01*
X157290058Y-102607864D01*
X157295812Y-102694697D01*
X157301483Y-102749805D01*
X157304559Y-102765115D01*
X157325272Y-102828615D01*
X156746730Y-102828615D01*
X156734519Y-102767558D01*
X156725565Y-102701565D01*
X156722307Y-102640558D01*
X156717035Y-102590751D01*
X156699552Y-102577593D01*
X156667360Y-102600228D01*
X156652066Y-102616549D01*
X156593557Y-102668459D01*
X156511594Y-102723656D01*
X156420044Y-102773839D01*
X156332772Y-102810706D01*
X156321769Y-102814306D01*
X156142667Y-102850732D01*
X155961244Y-102848297D01*
X155949783Y-102846861D01*
X155813049Y-102810849D01*
X155697518Y-102744030D01*
X155606741Y-102650461D01*
X155544270Y-102534199D01*
X155513656Y-102399299D01*
X155511114Y-102345771D01*
X155522096Y-102244849D01*
X156077538Y-102244849D01*
X156088240Y-102314970D01*
X156125440Y-102370262D01*
X156127918Y-102372771D01*
X156156117Y-102398109D01*
X156184784Y-102412362D01*
X156224922Y-102417791D01*
X156287535Y-102416653D01*
X156330419Y-102414345D01*
X156422992Y-102405751D01*
X156493744Y-102389583D01*
X156559811Y-102361300D01*
X156587770Y-102346140D01*
X156693000Y-102286742D01*
X156698592Y-102098525D01*
X156699329Y-102012872D01*
X156696243Y-101949317D01*
X156689802Y-101914670D01*
X156685657Y-101910308D01*
X156658653Y-101913773D01*
X156604220Y-101922932D01*
X156533268Y-101935933D01*
X156520540Y-101938355D01*
X156358208Y-101978417D01*
X156233096Y-102029480D01*
X156144859Y-102091783D01*
X156093149Y-102165565D01*
X156077538Y-102244849D01*
X155522096Y-102244849D01*
X155527408Y-102196037D01*
X155577062Y-102063246D01*
X155660488Y-101947101D01*
X155778096Y-101847301D01*
X155930298Y-101763546D01*
X156117504Y-101695538D01*
X156340126Y-101642975D01*
X156512597Y-101615818D01*
X156702769Y-101590938D01*
X156702769Y-101524646D01*
X156696880Y-101466892D01*
X156682714Y-101420881D01*
X156682651Y-101420764D01*
X156633808Y-101368856D01*
X156557893Y-101337442D01*
X156460654Y-101325803D01*
X156347839Y-101333220D01*
X156225195Y-101358976D01*
X156098469Y-101402352D01*
X155973410Y-101462630D01*
X155880628Y-101520983D01*
X155830256Y-101556492D01*
X155709913Y-101396362D01*
X155589570Y-101236231D01*
X155662592Y-101170245D01*
X155744351Y-101109967D01*
X155852877Y-101049194D01*
X155976319Y-100993371D01*
X156102823Y-100947946D01*
X156203691Y-100921622D01*
X156328154Y-100903340D01*
X156464680Y-100895294D01*
X156602776Y-100897057D01*
X156602776Y-100897057D01*
G37*
X156602776Y-100897057D02*
X156731953Y-100908202D01*
X156841717Y-100928302D01*
X156907923Y-100950284D01*
X157026194Y-101021836D01*
X157127048Y-101119524D01*
X157201002Y-101233624D01*
X157214704Y-101264905D01*
X157226300Y-101296397D01*
X157235747Y-101329101D01*
X157243373Y-101367563D01*
X157249507Y-101416328D01*
X157254479Y-101479941D01*
X157258616Y-101562948D01*
X157262249Y-101669894D01*
X157265706Y-101805324D01*
X157269316Y-101973784D01*
X157270595Y-102037308D01*
X157274489Y-102204029D01*
X157279177Y-102357829D01*
X157284439Y-102494008D01*
X157290058Y-102607864D01*
X157295812Y-102694697D01*
X157301483Y-102749805D01*
X157304559Y-102765115D01*
X157325272Y-102828615D01*
X156746730Y-102828615D01*
X156734519Y-102767558D01*
X156725565Y-102701565D01*
X156722307Y-102640558D01*
X156717035Y-102590751D01*
X156699552Y-102577593D01*
X156667360Y-102600228D01*
X156652066Y-102616549D01*
X156593557Y-102668459D01*
X156511594Y-102723656D01*
X156420044Y-102773839D01*
X156332772Y-102810706D01*
X156321769Y-102814306D01*
X156142667Y-102850732D01*
X155961244Y-102848297D01*
X155949783Y-102846861D01*
X155813049Y-102810849D01*
X155697518Y-102744030D01*
X155606741Y-102650461D01*
X155544270Y-102534199D01*
X155513656Y-102399299D01*
X155511114Y-102345771D01*
X155522096Y-102244849D01*
X156077538Y-102244849D01*
X156088240Y-102314970D01*
X156125440Y-102370262D01*
X156127918Y-102372771D01*
X156156117Y-102398109D01*
X156184784Y-102412362D01*
X156224922Y-102417791D01*
X156287535Y-102416653D01*
X156330419Y-102414345D01*
X156422992Y-102405751D01*
X156493744Y-102389583D01*
X156559811Y-102361300D01*
X156587770Y-102346140D01*
X156693000Y-102286742D01*
X156698592Y-102098525D01*
X156699329Y-102012872D01*
X156696243Y-101949317D01*
X156689802Y-101914670D01*
X156685657Y-101910308D01*
X156658653Y-101913773D01*
X156604220Y-101922932D01*
X156533268Y-101935933D01*
X156520540Y-101938355D01*
X156358208Y-101978417D01*
X156233096Y-102029480D01*
X156144859Y-102091783D01*
X156093149Y-102165565D01*
X156077538Y-102244849D01*
X155522096Y-102244849D01*
X155527408Y-102196037D01*
X155577062Y-102063246D01*
X155660488Y-101947101D01*
X155778096Y-101847301D01*
X155930298Y-101763546D01*
X156117504Y-101695538D01*
X156340126Y-101642975D01*
X156512597Y-101615818D01*
X156702769Y-101590938D01*
X156702769Y-101524646D01*
X156696880Y-101466892D01*
X156682714Y-101420881D01*
X156682651Y-101420764D01*
X156633808Y-101368856D01*
X156557893Y-101337442D01*
X156460654Y-101325803D01*
X156347839Y-101333220D01*
X156225195Y-101358976D01*
X156098469Y-101402352D01*
X155973410Y-101462630D01*
X155880628Y-101520983D01*
X155830256Y-101556492D01*
X155709913Y-101396362D01*
X155589570Y-101236231D01*
X155662592Y-101170245D01*
X155744351Y-101109967D01*
X155852877Y-101049194D01*
X155976319Y-100993371D01*
X156102823Y-100947946D01*
X156203691Y-100921622D01*
X156328154Y-100903340D01*
X156464680Y-100895294D01*
X156602776Y-100897057D01*
G36*
X160551912Y-100907625D02*
X160675835Y-100929238D01*
X160752050Y-100951991D01*
X160869327Y-101013844D01*
X160981948Y-101104477D01*
X161079150Y-101214075D01*
X161134241Y-101300521D01*
X161192680Y-101434948D01*
X161234468Y-101590173D01*
X161261274Y-101773044D01*
X161267568Y-101846808D01*
X161280537Y-102027538D01*
X160024307Y-102027538D01*
X160024416Y-102071500D01*
X160043374Y-102187009D01*
X160096351Y-102291981D01*
X160178379Y-102378544D01*
X160245260Y-102421384D01*
X160292372Y-102441857D01*
X160341240Y-102452962D01*
X160404297Y-102456326D01*
X160491917Y-102453676D01*
X160666484Y-102429049D01*
X160822210Y-102371940D01*
X160950268Y-102291597D01*
X161017105Y-102240618D01*
X161240045Y-102582638D01*
X161184138Y-102628127D01*
X161104558Y-102681752D01*
X161000391Y-102736469D01*
X160885435Y-102786058D01*
X160773489Y-102824299D01*
X160717923Y-102838299D01*
X160579745Y-102857908D01*
X160424788Y-102864699D01*
X160270688Y-102858660D01*
X160135082Y-102839782D01*
X160129850Y-102838663D01*
X159969000Y-102787080D01*
X159821156Y-102707543D01*
X159693999Y-102605316D01*
X159595211Y-102485659D01*
X159581045Y-102462693D01*
X159514015Y-102315850D01*
X159467836Y-102142415D01*
X159445149Y-101959700D01*
X159448909Y-101751094D01*
X159459610Y-101695385D01*
X160021202Y-101695385D01*
X160384216Y-101695385D01*
X160512011Y-101695119D01*
X160605888Y-101694000D01*
X160671007Y-101691540D01*
X160712524Y-101687254D01*
X160735599Y-101680656D01*
X160745389Y-101671259D01*
X160747121Y-101661192D01*
X160733812Y-101578759D01*
X160699631Y-101490589D01*
X160654584Y-101419796D01*
X160573718Y-101351915D01*
X160475924Y-101313168D01*
X160370785Y-101304157D01*
X160267887Y-101325485D01*
X160176813Y-101377756D01*
X160164060Y-101388955D01*
X160108063Y-101458810D01*
X160061034Y-101549825D01*
X160034908Y-101631885D01*
X160021202Y-101695385D01*
X159459610Y-101695385D01*
X159485807Y-101559021D01*
X159554123Y-101385937D01*
X159652137Y-101234297D01*
X159778126Y-101106558D01*
X159930372Y-101005174D01*
X160107152Y-100932602D01*
X160178172Y-100913605D01*
X160287488Y-100898766D01*
X160417266Y-100897120D01*
X160551912Y-100907625D01*
X160551912Y-100907625D01*
G37*
X160551912Y-100907625D02*
X160675835Y-100929238D01*
X160752050Y-100951991D01*
X160869327Y-101013844D01*
X160981948Y-101104477D01*
X161079150Y-101214075D01*
X161134241Y-101300521D01*
X161192680Y-101434948D01*
X161234468Y-101590173D01*
X161261274Y-101773044D01*
X161267568Y-101846808D01*
X161280537Y-102027538D01*
X160024307Y-102027538D01*
X160024416Y-102071500D01*
X160043374Y-102187009D01*
X160096351Y-102291981D01*
X160178379Y-102378544D01*
X160245260Y-102421384D01*
X160292372Y-102441857D01*
X160341240Y-102452962D01*
X160404297Y-102456326D01*
X160491917Y-102453676D01*
X160666484Y-102429049D01*
X160822210Y-102371940D01*
X160950268Y-102291597D01*
X161017105Y-102240618D01*
X161240045Y-102582638D01*
X161184138Y-102628127D01*
X161104558Y-102681752D01*
X161000391Y-102736469D01*
X160885435Y-102786058D01*
X160773489Y-102824299D01*
X160717923Y-102838299D01*
X160579745Y-102857908D01*
X160424788Y-102864699D01*
X160270688Y-102858660D01*
X160135082Y-102839782D01*
X160129850Y-102838663D01*
X159969000Y-102787080D01*
X159821156Y-102707543D01*
X159693999Y-102605316D01*
X159595211Y-102485659D01*
X159581045Y-102462693D01*
X159514015Y-102315850D01*
X159467836Y-102142415D01*
X159445149Y-101959700D01*
X159448909Y-101751094D01*
X159459610Y-101695385D01*
X160021202Y-101695385D01*
X160384216Y-101695385D01*
X160512011Y-101695119D01*
X160605888Y-101694000D01*
X160671007Y-101691540D01*
X160712524Y-101687254D01*
X160735599Y-101680656D01*
X160745389Y-101671259D01*
X160747121Y-101661192D01*
X160733812Y-101578759D01*
X160699631Y-101490589D01*
X160654584Y-101419796D01*
X160573718Y-101351915D01*
X160475924Y-101313168D01*
X160370785Y-101304157D01*
X160267887Y-101325485D01*
X160176813Y-101377756D01*
X160164060Y-101388955D01*
X160108063Y-101458810D01*
X160061034Y-101549825D01*
X160034908Y-101631885D01*
X160021202Y-101695385D01*
X159459610Y-101695385D01*
X159485807Y-101559021D01*
X159554123Y-101385937D01*
X159652137Y-101234297D01*
X159778126Y-101106558D01*
X159930372Y-101005174D01*
X160107152Y-100932602D01*
X160178172Y-100913605D01*
X160287488Y-100898766D01*
X160417266Y-100897120D01*
X160551912Y-100907625D01*
G36*
X166500386Y-100899503D02*
X166652778Y-100917374D01*
X166778553Y-100954419D01*
X166882204Y-101012169D01*
X166968226Y-101092158D01*
X166999881Y-101132343D01*
X167030282Y-101176358D01*
X167055253Y-101219322D01*
X167075432Y-101265643D01*
X167091459Y-101319728D01*
X167103972Y-101385985D01*
X167113609Y-101468821D01*
X167121008Y-101572644D01*
X167126809Y-101701860D01*
X167131649Y-101860877D01*
X167136168Y-102054103D01*
X167136646Y-102076385D01*
X167140432Y-102235455D01*
X167144700Y-102383449D01*
X167149253Y-102515476D01*
X167153892Y-102626646D01*
X167158418Y-102712071D01*
X167162633Y-102766860D01*
X167165383Y-102784654D01*
X167179942Y-102828615D01*
X166896446Y-102828615D01*
X166782824Y-102828686D01*
X166702157Y-102826913D01*
X166648337Y-102820317D01*
X166615260Y-102805921D01*
X166596819Y-102780746D01*
X166586907Y-102741815D01*
X166579419Y-102686147D01*
X166577730Y-102673162D01*
X166564821Y-102575849D01*
X166454910Y-102661038D01*
X166390128Y-102708958D01*
X166328616Y-102750646D01*
X166286384Y-102775604D01*
X166168188Y-102819700D01*
X166031364Y-102847026D01*
X165893724Y-102854919D01*
X165806138Y-102847408D01*
X165665097Y-102806965D01*
X165548852Y-102737352D01*
X165459801Y-102641425D01*
X165400347Y-102522036D01*
X165372889Y-102382041D01*
X165371268Y-102330385D01*
X165383203Y-102216933D01*
X165927458Y-102216933D01*
X165935126Y-102289601D01*
X165978964Y-102358069D01*
X165982035Y-102361195D01*
X166019457Y-102393852D01*
X166057542Y-102411052D01*
X166110937Y-102417556D01*
X166157672Y-102418308D01*
X166262978Y-102409093D01*
X166363630Y-102384810D01*
X166376830Y-102380070D01*
X166461530Y-102344086D01*
X166517244Y-102306933D01*
X166549891Y-102259487D01*
X166565389Y-102192625D01*
X166569654Y-102097225D01*
X166569692Y-102082748D01*
X166567871Y-102006137D01*
X166563000Y-101947009D01*
X166555965Y-101914166D01*
X166552312Y-101910308D01*
X166496739Y-101916052D01*
X166416565Y-101931230D01*
X166324203Y-101952758D01*
X166232071Y-101977552D01*
X166152583Y-102002528D01*
X166104247Y-102021592D01*
X166013740Y-102078144D01*
X165954237Y-102144853D01*
X165927458Y-102216933D01*
X165383203Y-102216933D01*
X165386834Y-102182419D01*
X165432858Y-102056659D01*
X165511881Y-101948458D01*
X165626446Y-101853169D01*
X165635809Y-101846897D01*
X165769626Y-101774306D01*
X165935056Y-101710937D01*
X166125308Y-101658812D01*
X166333588Y-101619950D01*
X166447577Y-101605567D01*
X166569692Y-101592645D01*
X166569692Y-101527092D01*
X166552620Y-101455151D01*
X166512587Y-101397731D01*
X166483870Y-101367272D01*
X166457631Y-101348572D01*
X166423720Y-101338887D01*
X166371988Y-101335474D01*
X166292284Y-101335590D01*
X166283010Y-101335684D01*
X166136234Y-101346344D01*
X166006952Y-101378058D01*
X165880743Y-101435341D01*
X165792348Y-101489196D01*
X165689081Y-101557278D01*
X165572540Y-101398178D01*
X165523527Y-101329898D01*
X165484678Y-101273173D01*
X165460957Y-101235406D01*
X165456000Y-101224414D01*
X165471184Y-101207791D01*
X165511849Y-101175583D01*
X165570663Y-101133422D01*
X165603232Y-101111275D01*
X165747356Y-101026595D01*
X165894590Y-100965715D01*
X166054802Y-100925702D01*
X166237862Y-100903625D01*
X166316884Y-100899271D01*
X166500386Y-100899503D01*
X166500386Y-100899503D01*
G37*
X166500386Y-100899503D02*
X166652778Y-100917374D01*
X166778553Y-100954419D01*
X166882204Y-101012169D01*
X166968226Y-101092158D01*
X166999881Y-101132343D01*
X167030282Y-101176358D01*
X167055253Y-101219322D01*
X167075432Y-101265643D01*
X167091459Y-101319728D01*
X167103972Y-101385985D01*
X167113609Y-101468821D01*
X167121008Y-101572644D01*
X167126809Y-101701860D01*
X167131649Y-101860877D01*
X167136168Y-102054103D01*
X167136646Y-102076385D01*
X167140432Y-102235455D01*
X167144700Y-102383449D01*
X167149253Y-102515476D01*
X167153892Y-102626646D01*
X167158418Y-102712071D01*
X167162633Y-102766860D01*
X167165383Y-102784654D01*
X167179942Y-102828615D01*
X166896446Y-102828615D01*
X166782824Y-102828686D01*
X166702157Y-102826913D01*
X166648337Y-102820317D01*
X166615260Y-102805921D01*
X166596819Y-102780746D01*
X166586907Y-102741815D01*
X166579419Y-102686147D01*
X166577730Y-102673162D01*
X166564821Y-102575849D01*
X166454910Y-102661038D01*
X166390128Y-102708958D01*
X166328616Y-102750646D01*
X166286384Y-102775604D01*
X166168188Y-102819700D01*
X166031364Y-102847026D01*
X165893724Y-102854919D01*
X165806138Y-102847408D01*
X165665097Y-102806965D01*
X165548852Y-102737352D01*
X165459801Y-102641425D01*
X165400347Y-102522036D01*
X165372889Y-102382041D01*
X165371268Y-102330385D01*
X165383203Y-102216933D01*
X165927458Y-102216933D01*
X165935126Y-102289601D01*
X165978964Y-102358069D01*
X165982035Y-102361195D01*
X166019457Y-102393852D01*
X166057542Y-102411052D01*
X166110937Y-102417556D01*
X166157672Y-102418308D01*
X166262978Y-102409093D01*
X166363630Y-102384810D01*
X166376830Y-102380070D01*
X166461530Y-102344086D01*
X166517244Y-102306933D01*
X166549891Y-102259487D01*
X166565389Y-102192625D01*
X166569654Y-102097225D01*
X166569692Y-102082748D01*
X166567871Y-102006137D01*
X166563000Y-101947009D01*
X166555965Y-101914166D01*
X166552312Y-101910308D01*
X166496739Y-101916052D01*
X166416565Y-101931230D01*
X166324203Y-101952758D01*
X166232071Y-101977552D01*
X166152583Y-102002528D01*
X166104247Y-102021592D01*
X166013740Y-102078144D01*
X165954237Y-102144853D01*
X165927458Y-102216933D01*
X165383203Y-102216933D01*
X165386834Y-102182419D01*
X165432858Y-102056659D01*
X165511881Y-101948458D01*
X165626446Y-101853169D01*
X165635809Y-101846897D01*
X165769626Y-101774306D01*
X165935056Y-101710937D01*
X166125308Y-101658812D01*
X166333588Y-101619950D01*
X166447577Y-101605567D01*
X166569692Y-101592645D01*
X166569692Y-101527092D01*
X166552620Y-101455151D01*
X166512587Y-101397731D01*
X166483870Y-101367272D01*
X166457631Y-101348572D01*
X166423720Y-101338887D01*
X166371988Y-101335474D01*
X166292284Y-101335590D01*
X166283010Y-101335684D01*
X166136234Y-101346344D01*
X166006952Y-101378058D01*
X165880743Y-101435341D01*
X165792348Y-101489196D01*
X165689081Y-101557278D01*
X165572540Y-101398178D01*
X165523527Y-101329898D01*
X165484678Y-101273173D01*
X165460957Y-101235406D01*
X165456000Y-101224414D01*
X165471184Y-101207791D01*
X165511849Y-101175583D01*
X165570663Y-101133422D01*
X165603232Y-101111275D01*
X165747356Y-101026595D01*
X165894590Y-100965715D01*
X166054802Y-100925702D01*
X166237862Y-100903625D01*
X166316884Y-100899271D01*
X166500386Y-100899503D01*
G36*
X170688582Y-100910464D02*
X170856491Y-100956331D01*
X171000445Y-101032623D01*
X171120660Y-101139580D01*
X171217354Y-101277437D01*
X171290744Y-101446434D01*
X171341048Y-101646807D01*
X171366198Y-101846808D01*
X171380302Y-102027538D01*
X170754150Y-102027538D01*
X170601597Y-102028054D01*
X170461822Y-102029515D01*
X170339551Y-102031794D01*
X170239509Y-102034766D01*
X170166423Y-102038301D01*
X170125016Y-102042275D01*
X170117413Y-102044666D01*
X170114781Y-102079030D01*
X170128181Y-102135450D01*
X170153262Y-102202644D01*
X170185673Y-102269327D01*
X170221064Y-102324216D01*
X170228802Y-102333570D01*
X170296485Y-102396364D01*
X170372812Y-102435161D01*
X170468220Y-102453968D01*
X170551364Y-102457385D01*
X170706121Y-102444630D01*
X170846890Y-102403697D01*
X170986942Y-102330583D01*
X171000505Y-102321939D01*
X171120192Y-102244581D01*
X171228195Y-102414100D01*
X171336197Y-102583618D01*
X171282906Y-102627211D01*
X171202369Y-102681335D01*
X171096570Y-102735964D01*
X170978805Y-102785254D01*
X170862370Y-102823360D01*
X170805477Y-102837077D01*
X170657625Y-102858008D01*
X170499589Y-102864878D01*
X170346961Y-102857698D01*
X170216235Y-102836695D01*
X170046597Y-102777205D01*
X169894446Y-102687014D01*
X169765266Y-102570339D01*
X169664539Y-102431397D01*
X169647137Y-102399040D01*
X169587575Y-102244343D01*
X169552033Y-102069580D01*
X169540530Y-101885065D01*
X169553086Y-101701113D01*
X169566061Y-101639815D01*
X170129189Y-101639815D01*
X170131689Y-101664642D01*
X170150686Y-101680739D01*
X170190658Y-101689984D01*
X170256085Y-101694255D01*
X170351445Y-101695429D01*
X170481218Y-101695385D01*
X170487153Y-101695385D01*
X170621275Y-101694750D01*
X170720328Y-101692668D01*
X170788301Y-101688869D01*
X170829184Y-101683082D01*
X170846966Y-101675038D01*
X170848506Y-101670961D01*
X170833477Y-101580582D01*
X170793995Y-101488595D01*
X170737320Y-101406894D01*
X170670713Y-101347376D01*
X170641513Y-101331850D01*
X170528999Y-101304141D01*
X170419075Y-101312329D01*
X170318206Y-101353425D01*
X170232853Y-101424441D01*
X170169479Y-101522388D01*
X170155759Y-101556464D01*
X170138705Y-101604382D01*
X170129189Y-101639815D01*
X169566061Y-101639815D01*
X169589723Y-101528039D01*
X169645161Y-101386398D01*
X169740983Y-101239304D01*
X169865699Y-101114535D01*
X170014300Y-101014982D01*
X170181776Y-100943538D01*
X170363118Y-100903097D01*
X170496500Y-100894785D01*
X170688582Y-100910464D01*
X170688582Y-100910464D01*
G37*
X170688582Y-100910464D02*
X170856491Y-100956331D01*
X171000445Y-101032623D01*
X171120660Y-101139580D01*
X171217354Y-101277437D01*
X171290744Y-101446434D01*
X171341048Y-101646807D01*
X171366198Y-101846808D01*
X171380302Y-102027538D01*
X170754150Y-102027538D01*
X170601597Y-102028054D01*
X170461822Y-102029515D01*
X170339551Y-102031794D01*
X170239509Y-102034766D01*
X170166423Y-102038301D01*
X170125016Y-102042275D01*
X170117413Y-102044666D01*
X170114781Y-102079030D01*
X170128181Y-102135450D01*
X170153262Y-102202644D01*
X170185673Y-102269327D01*
X170221064Y-102324216D01*
X170228802Y-102333570D01*
X170296485Y-102396364D01*
X170372812Y-102435161D01*
X170468220Y-102453968D01*
X170551364Y-102457385D01*
X170706121Y-102444630D01*
X170846890Y-102403697D01*
X170986942Y-102330583D01*
X171000505Y-102321939D01*
X171120192Y-102244581D01*
X171228195Y-102414100D01*
X171336197Y-102583618D01*
X171282906Y-102627211D01*
X171202369Y-102681335D01*
X171096570Y-102735964D01*
X170978805Y-102785254D01*
X170862370Y-102823360D01*
X170805477Y-102837077D01*
X170657625Y-102858008D01*
X170499589Y-102864878D01*
X170346961Y-102857698D01*
X170216235Y-102836695D01*
X170046597Y-102777205D01*
X169894446Y-102687014D01*
X169765266Y-102570339D01*
X169664539Y-102431397D01*
X169647137Y-102399040D01*
X169587575Y-102244343D01*
X169552033Y-102069580D01*
X169540530Y-101885065D01*
X169553086Y-101701113D01*
X169566061Y-101639815D01*
X170129189Y-101639815D01*
X170131689Y-101664642D01*
X170150686Y-101680739D01*
X170190658Y-101689984D01*
X170256085Y-101694255D01*
X170351445Y-101695429D01*
X170481218Y-101695385D01*
X170487153Y-101695385D01*
X170621275Y-101694750D01*
X170720328Y-101692668D01*
X170788301Y-101688869D01*
X170829184Y-101683082D01*
X170846966Y-101675038D01*
X170848506Y-101670961D01*
X170833477Y-101580582D01*
X170793995Y-101488595D01*
X170737320Y-101406894D01*
X170670713Y-101347376D01*
X170641513Y-101331850D01*
X170528999Y-101304141D01*
X170419075Y-101312329D01*
X170318206Y-101353425D01*
X170232853Y-101424441D01*
X170169479Y-101522388D01*
X170155759Y-101556464D01*
X170138705Y-101604382D01*
X170129189Y-101639815D01*
X169566061Y-101639815D01*
X169589723Y-101528039D01*
X169645161Y-101386398D01*
X169740983Y-101239304D01*
X169865699Y-101114535D01*
X170014300Y-101014982D01*
X170181776Y-100943538D01*
X170363118Y-100903097D01*
X170496500Y-100894785D01*
X170688582Y-100910464D01*
G36*
X155256923Y-102828615D02*
X154690307Y-102828615D01*
X154688765Y-101964038D01*
X154687222Y-101099461D01*
X154640434Y-101285077D01*
X154623296Y-101347653D01*
X154595736Y-101441606D01*
X154559526Y-101561187D01*
X154516440Y-101700649D01*
X154468250Y-101854242D01*
X154416730Y-102016219D01*
X154373764Y-102149654D01*
X154153881Y-102828615D01*
X153637249Y-102828615D01*
X153439683Y-102218038D01*
X153390690Y-102066590D01*
X153344362Y-101923319D01*
X153302388Y-101793450D01*
X153266455Y-101682207D01*
X153238252Y-101594816D01*
X153219467Y-101536501D01*
X153213756Y-101518701D01*
X153197137Y-101461280D01*
X153175418Y-101378743D01*
X153151961Y-101284124D01*
X153138139Y-101225624D01*
X153090883Y-101021308D01*
X153089518Y-101924961D01*
X153088153Y-102828615D01*
X152560615Y-102828615D01*
X152560615Y-100190923D01*
X153334124Y-100190923D01*
X153625967Y-101156813D01*
X153682301Y-101342743D01*
X153735298Y-101516665D01*
X153783883Y-101675123D01*
X153826983Y-101814660D01*
X153863523Y-101931819D01*
X153892428Y-102023144D01*
X153912625Y-102085178D01*
X153923039Y-102114464D01*
X153924178Y-102116334D01*
X153930582Y-102096853D01*
X153946566Y-102043327D01*
X153971107Y-101959322D01*
X154003176Y-101848402D01*
X154041748Y-101714133D01*
X154085796Y-101560078D01*
X154134296Y-101389805D01*
X154186219Y-101206876D01*
X154200819Y-101155329D01*
X154471091Y-100200692D01*
X155256923Y-100190114D01*
X155256923Y-102828615D01*
X155256923Y-102828615D01*
G37*
X155256923Y-102828615D02*
X154690307Y-102828615D01*
X154688765Y-101964038D01*
X154687222Y-101099461D01*
X154640434Y-101285077D01*
X154623296Y-101347653D01*
X154595736Y-101441606D01*
X154559526Y-101561187D01*
X154516440Y-101700649D01*
X154468250Y-101854242D01*
X154416730Y-102016219D01*
X154373764Y-102149654D01*
X154153881Y-102828615D01*
X153637249Y-102828615D01*
X153439683Y-102218038D01*
X153390690Y-102066590D01*
X153344362Y-101923319D01*
X153302388Y-101793450D01*
X153266455Y-101682207D01*
X153238252Y-101594816D01*
X153219467Y-101536501D01*
X153213756Y-101518701D01*
X153197137Y-101461280D01*
X153175418Y-101378743D01*
X153151961Y-101284124D01*
X153138139Y-101225624D01*
X153090883Y-101021308D01*
X153089518Y-101924961D01*
X153088153Y-102828615D01*
X152560615Y-102828615D01*
X152560615Y-100190923D01*
X153334124Y-100190923D01*
X153625967Y-101156813D01*
X153682301Y-101342743D01*
X153735298Y-101516665D01*
X153783883Y-101675123D01*
X153826983Y-101814660D01*
X153863523Y-101931819D01*
X153892428Y-102023144D01*
X153912625Y-102085178D01*
X153923039Y-102114464D01*
X153924178Y-102116334D01*
X153930582Y-102096853D01*
X153946566Y-102043327D01*
X153971107Y-101959322D01*
X154003176Y-101848402D01*
X154041748Y-101714133D01*
X154085796Y-101560078D01*
X154134296Y-101389805D01*
X154186219Y-101206876D01*
X154200819Y-101155329D01*
X154471091Y-100200692D01*
X155256923Y-100190114D01*
X155256923Y-102828615D01*
G36*
X158153259Y-100907711D02*
X158158384Y-101624500D01*
X158447055Y-101278942D01*
X158735725Y-100933385D01*
X159038093Y-100933385D01*
X159141794Y-100933906D01*
X159230161Y-100935345D01*
X159296547Y-100937513D01*
X159334301Y-100940222D01*
X159340461Y-100941939D01*
X159328146Y-100958419D01*
X159293584Y-101000046D01*
X159240347Y-101062638D01*
X159172010Y-101142013D01*
X159092145Y-101233987D01*
X159038398Y-101295514D01*
X158942537Y-101405355D01*
X158869851Y-101489908D01*
X158817550Y-101553086D01*
X158782842Y-101598802D01*
X158762938Y-101630971D01*
X158755048Y-101653506D01*
X158756380Y-101670321D01*
X158762412Y-101682613D01*
X158782491Y-101717016D01*
X158816949Y-101778232D01*
X158863105Y-101861335D01*
X158918277Y-101961399D01*
X158979785Y-102073500D01*
X159044945Y-102192710D01*
X159111077Y-102314106D01*
X159175500Y-102432760D01*
X159235531Y-102543748D01*
X159288489Y-102642145D01*
X159331693Y-102723024D01*
X159362461Y-102781460D01*
X159378111Y-102812528D01*
X159379538Y-102816170D01*
X159361129Y-102820511D01*
X159310416Y-102824193D01*
X159234170Y-102826926D01*
X159139161Y-102828422D01*
X159087972Y-102828615D01*
X158796407Y-102828615D01*
X158609132Y-102480455D01*
X158550696Y-102372403D01*
X158497198Y-102274576D01*
X158451867Y-102192796D01*
X158417937Y-102132885D01*
X158398638Y-102100667D01*
X158397085Y-102098416D01*
X158382733Y-102084756D01*
X158364925Y-102086506D01*
X158337648Y-102107749D01*
X158294886Y-102152567D01*
X158260464Y-102191148D01*
X158148615Y-102317759D01*
X158148615Y-102828615D01*
X157582000Y-102828615D01*
X157582000Y-100190923D01*
X158148134Y-100190923D01*
X158153259Y-100907711D01*
X158153259Y-100907711D01*
G37*
X158153259Y-100907711D02*
X158158384Y-101624500D01*
X158447055Y-101278942D01*
X158735725Y-100933385D01*
X159038093Y-100933385D01*
X159141794Y-100933906D01*
X159230161Y-100935345D01*
X159296547Y-100937513D01*
X159334301Y-100940222D01*
X159340461Y-100941939D01*
X159328146Y-100958419D01*
X159293584Y-101000046D01*
X159240347Y-101062638D01*
X159172010Y-101142013D01*
X159092145Y-101233987D01*
X159038398Y-101295514D01*
X158942537Y-101405355D01*
X158869851Y-101489908D01*
X158817550Y-101553086D01*
X158782842Y-101598802D01*
X158762938Y-101630971D01*
X158755048Y-101653506D01*
X158756380Y-101670321D01*
X158762412Y-101682613D01*
X158782491Y-101717016D01*
X158816949Y-101778232D01*
X158863105Y-101861335D01*
X158918277Y-101961399D01*
X158979785Y-102073500D01*
X159044945Y-102192710D01*
X159111077Y-102314106D01*
X159175500Y-102432760D01*
X159235531Y-102543748D01*
X159288489Y-102642145D01*
X159331693Y-102723024D01*
X159362461Y-102781460D01*
X159378111Y-102812528D01*
X159379538Y-102816170D01*
X159361129Y-102820511D01*
X159310416Y-102824193D01*
X159234170Y-102826926D01*
X159139161Y-102828422D01*
X159087972Y-102828615D01*
X158796407Y-102828615D01*
X158609132Y-102480455D01*
X158550696Y-102372403D01*
X158497198Y-102274576D01*
X158451867Y-102192796D01*
X158417937Y-102132885D01*
X158398638Y-102100667D01*
X158397085Y-102098416D01*
X158382733Y-102084756D01*
X158364925Y-102086506D01*
X158337648Y-102107749D01*
X158294886Y-102152567D01*
X158260464Y-102191148D01*
X158148615Y-102317759D01*
X158148615Y-102828615D01*
X157582000Y-102828615D01*
X157582000Y-100190923D01*
X158148134Y-100190923D01*
X158153259Y-100907711D01*
G36*
X162720615Y-101395795D02*
X162578061Y-101395795D01*
X162421525Y-101413720D01*
X162278541Y-101467984D01*
X162147237Y-101559321D01*
X162137001Y-101568414D01*
X162056307Y-101641316D01*
X162056307Y-102828615D01*
X161489692Y-102828615D01*
X161489692Y-100933385D01*
X162056307Y-100933385D01*
X162056307Y-101231708D01*
X162162610Y-101121073D01*
X162292215Y-101011461D01*
X162435221Y-100937751D01*
X162589678Y-100900920D01*
X162604529Y-100899406D01*
X162720615Y-100888880D01*
X162720615Y-101395795D01*
X162720615Y-101395795D01*
G37*
X162720615Y-101395795D02*
X162578061Y-101395795D01*
X162421525Y-101413720D01*
X162278541Y-101467984D01*
X162147237Y-101559321D01*
X162137001Y-101568414D01*
X162056307Y-101641316D01*
X162056307Y-102828615D01*
X161489692Y-102828615D01*
X161489692Y-100933385D01*
X162056307Y-100933385D01*
X162056307Y-101231708D01*
X162162610Y-101121073D01*
X162292215Y-101011461D01*
X162435221Y-100937751D01*
X162589678Y-100900920D01*
X162604529Y-100899406D01*
X162720615Y-100888880D01*
X162720615Y-101395795D01*
G36*
X165514615Y-100679385D02*
X164361846Y-100679385D01*
X164361846Y-101324154D01*
X165182461Y-101324154D01*
X165182461Y-101773538D01*
X164361846Y-101773538D01*
X164361846Y-102828615D01*
X163775692Y-102828615D01*
X163775692Y-100190923D01*
X165514615Y-100190923D01*
X165514615Y-100679385D01*
X165514615Y-100679385D01*
G37*
X165514615Y-100679385D02*
X164361846Y-100679385D01*
X164361846Y-101324154D01*
X165182461Y-101324154D01*
X165182461Y-101773538D01*
X164361846Y-101773538D01*
X164361846Y-102828615D01*
X163775692Y-102828615D01*
X163775692Y-100190923D01*
X165514615Y-100190923D01*
X165514615Y-100679385D01*
G36*
X167996000Y-102828615D02*
X167409846Y-102828615D01*
X167409846Y-100933385D01*
X167996000Y-100933385D01*
X167996000Y-102828615D01*
X167996000Y-102828615D01*
G37*
X167996000Y-102828615D02*
X167409846Y-102828615D01*
X167409846Y-100933385D01*
X167996000Y-100933385D01*
X167996000Y-102828615D01*
G36*
X169520000Y-101395795D02*
X169374628Y-101395795D01*
X169287484Y-101398667D01*
X169219669Y-101410262D01*
X169151668Y-101435052D01*
X169102761Y-101458068D01*
X169028537Y-101500273D01*
X168959979Y-101548801D01*
X168915979Y-101589004D01*
X168855692Y-101657667D01*
X168855692Y-102828615D01*
X168289077Y-102828615D01*
X168289077Y-100933385D01*
X168855692Y-100933385D01*
X168855692Y-101231708D01*
X168961995Y-101121073D01*
X169091599Y-101011461D01*
X169234606Y-100937751D01*
X169389063Y-100900920D01*
X169403914Y-100899406D01*
X169520000Y-100888880D01*
X169520000Y-101395795D01*
X169520000Y-101395795D01*
G37*
X169520000Y-101395795D02*
X169374628Y-101395795D01*
X169287484Y-101398667D01*
X169219669Y-101410262D01*
X169151668Y-101435052D01*
X169102761Y-101458068D01*
X169028537Y-101500273D01*
X168959979Y-101548801D01*
X168915979Y-101589004D01*
X168855692Y-101657667D01*
X168855692Y-102828615D01*
X168289077Y-102828615D01*
X168289077Y-100933385D01*
X168855692Y-100933385D01*
X168855692Y-101231708D01*
X168961995Y-101121073D01*
X169091599Y-101011461D01*
X169234606Y-100937751D01*
X169389063Y-100900920D01*
X169403914Y-100899406D01*
X169520000Y-100888880D01*
X169520000Y-101395795D01*
G36*
X171769779Y-100744060D02*
X171821025Y-100764974D01*
X171887338Y-100819129D01*
X171928211Y-100893621D01*
X171943568Y-100979057D01*
X171933328Y-101066045D01*
X171897416Y-101145193D01*
X171835751Y-101207109D01*
X171824760Y-101214044D01*
X171755085Y-101237905D01*
X171669680Y-101243862D01*
X171587642Y-101231726D01*
X171549914Y-101216753D01*
X171478178Y-101157457D01*
X171436163Y-101077960D01*
X171426148Y-100985874D01*
X171437654Y-100939840D01*
X171484431Y-100939840D01*
X171485584Y-101028394D01*
X171491659Y-101052562D01*
X171532914Y-101131324D01*
X171596424Y-101182376D01*
X171674147Y-101202684D01*
X171758040Y-101189216D01*
X171799916Y-101168789D01*
X171859820Y-101113300D01*
X171889663Y-101044666D01*
X171892279Y-100970837D01*
X171870499Y-100899761D01*
X171827158Y-100839388D01*
X171765088Y-100797667D01*
X171687124Y-100782548D01*
X171662829Y-100784164D01*
X171577055Y-100811450D01*
X171516255Y-100865433D01*
X171484431Y-100939840D01*
X171437654Y-100939840D01*
X171450409Y-100888817D01*
X171451254Y-100886890D01*
X171506256Y-100806144D01*
X171582867Y-100753713D01*
X171673303Y-100732163D01*
X171769779Y-100744060D01*
X171769779Y-100744060D01*
G37*
X171769779Y-100744060D02*
X171821025Y-100764974D01*
X171887338Y-100819129D01*
X171928211Y-100893621D01*
X171943568Y-100979057D01*
X171933328Y-101066045D01*
X171897416Y-101145193D01*
X171835751Y-101207109D01*
X171824760Y-101214044D01*
X171755085Y-101237905D01*
X171669680Y-101243862D01*
X171587642Y-101231726D01*
X171549914Y-101216753D01*
X171478178Y-101157457D01*
X171436163Y-101077960D01*
X171426148Y-100985874D01*
X171437654Y-100939840D01*
X171484431Y-100939840D01*
X171485584Y-101028394D01*
X171491659Y-101052562D01*
X171532914Y-101131324D01*
X171596424Y-101182376D01*
X171674147Y-101202684D01*
X171758040Y-101189216D01*
X171799916Y-101168789D01*
X171859820Y-101113300D01*
X171889663Y-101044666D01*
X171892279Y-100970837D01*
X171870499Y-100899761D01*
X171827158Y-100839388D01*
X171765088Y-100797667D01*
X171687124Y-100782548D01*
X171662829Y-100784164D01*
X171577055Y-100811450D01*
X171516255Y-100865433D01*
X171484431Y-100939840D01*
X171437654Y-100939840D01*
X171450409Y-100888817D01*
X171451254Y-100886890D01*
X171506256Y-100806144D01*
X171582867Y-100753713D01*
X171673303Y-100732163D01*
X171769779Y-100744060D01*
G36*
X167986230Y-100669615D02*
X167409846Y-100680429D01*
X167409846Y-100210461D01*
X167997240Y-100210461D01*
X167986230Y-100669615D01*
X167986230Y-100669615D01*
G37*
X167986230Y-100669615D02*
X167409846Y-100680429D01*
X167409846Y-100210461D01*
X167997240Y-100210461D01*
X167986230Y-100669615D01*
G36*
X171718211Y-100846827D02*
X171769383Y-100872833D01*
X171798365Y-100900620D01*
X171804910Y-100928452D01*
X171792313Y-100973362D01*
X171790054Y-100979651D01*
X171775344Y-101040065D01*
X171783910Y-101084697D01*
X171786117Y-101089049D01*
X171797214Y-101119121D01*
X171780769Y-101128447D01*
X171770746Y-101128769D01*
X171736207Y-101112595D01*
X171711862Y-101079923D01*
X171689017Y-101043991D01*
X171669649Y-101031077D01*
X171654648Y-101047795D01*
X171649692Y-101079923D01*
X171639501Y-101119209D01*
X171620384Y-101128769D01*
X171604925Y-101121093D01*
X171595851Y-101093353D01*
X171591748Y-101038483D01*
X171591077Y-100982231D01*
X171591077Y-100943154D01*
X171649692Y-100943154D01*
X171665981Y-100967022D01*
X171688769Y-100972461D01*
X171720593Y-100960245D01*
X171727846Y-100943154D01*
X171711557Y-100919286D01*
X171688769Y-100913846D01*
X171656945Y-100926063D01*
X171649692Y-100943154D01*
X171591077Y-100943154D01*
X171591077Y-100835692D01*
X171657297Y-100835692D01*
X171718211Y-100846827D01*
X171718211Y-100846827D01*
G37*
X171718211Y-100846827D02*
X171769383Y-100872833D01*
X171798365Y-100900620D01*
X171804910Y-100928452D01*
X171792313Y-100973362D01*
X171790054Y-100979651D01*
X171775344Y-101040065D01*
X171783910Y-101084697D01*
X171786117Y-101089049D01*
X171797214Y-101119121D01*
X171780769Y-101128447D01*
X171770746Y-101128769D01*
X171736207Y-101112595D01*
X171711862Y-101079923D01*
X171689017Y-101043991D01*
X171669649Y-101031077D01*
X171654648Y-101047795D01*
X171649692Y-101079923D01*
X171639501Y-101119209D01*
X171620384Y-101128769D01*
X171604925Y-101121093D01*
X171595851Y-101093353D01*
X171591748Y-101038483D01*
X171591077Y-100982231D01*
X171591077Y-100943154D01*
X171649692Y-100943154D01*
X171665981Y-100967022D01*
X171688769Y-100972461D01*
X171720593Y-100960245D01*
X171727846Y-100943154D01*
X171711557Y-100919286D01*
X171688769Y-100913846D01*
X171656945Y-100926063D01*
X171649692Y-100943154D01*
X171591077Y-100943154D01*
X171591077Y-100835692D01*
X171657297Y-100835692D01*
X171718211Y-100846827D01*
%LPC*%
D13*
X162500000Y-64500000D03*
D14*
X165040000Y-64500000D03*
D13*
X171500000Y-64500000D03*
D14*
X174040000Y-64500000D03*
D15*
X158500000Y-57250000D03*
D16*
X158500000Y-64870000D03*
D15*
X164500000Y-57250000D03*
D16*
X172120000Y-57250000D03*
M02*
