G04 #@! TF.FileFunction,Copper,L2,Bot,Signal*
%FSLAX46Y46*%
G04 Gerber Fmt 4.6, Leading zero omitted, Abs format (unit mm)*
G04 Created by KiCad (PCBNEW 4.0.7) date 09/06/18 00:21:24*
%MOMM*%
%LPD*%
G01*
G04 APERTURE LIST*
%ADD10C,0.100000*%
%ADD11C,14.000000*%
%ADD12R,1.800000X1.800000*%
%ADD13C,1.800000*%
%ADD14C,1.400000*%
%ADD15O,1.400000X1.400000*%
%ADD16C,0.250000*%
%ADD17C,0.152400*%
G04 APERTURE END LIST*
D10*
G36*
X161998602Y-102244038D02*
X157755962Y-98001398D01*
X160230836Y-95526524D01*
X164473476Y-99769164D01*
X161998602Y-102244038D01*
X161998602Y-102244038D01*
G37*
D11*
X169600000Y-90400000D03*
D10*
G36*
X178969164Y-85273476D02*
X174726524Y-81030836D01*
X177201398Y-78555962D01*
X181444038Y-82798602D01*
X178969164Y-85273476D01*
X178969164Y-85273476D01*
G37*
D12*
X162500000Y-64500000D03*
D13*
X165040000Y-64500000D03*
D12*
X171500000Y-64500000D03*
D13*
X174040000Y-64500000D03*
D14*
X158500000Y-57250000D03*
D15*
X158500000Y-64870000D03*
D14*
X164500000Y-57250000D03*
D15*
X172120000Y-57250000D03*
D16*
X178085281Y-81914719D02*
X168400000Y-72229438D01*
X168400000Y-61150000D02*
X164500000Y-57250000D01*
X168400000Y-72229438D02*
X168400000Y-61150000D01*
X158500000Y-57250000D02*
X164500000Y-57250000D01*
X174250000Y-94750000D02*
X169000000Y-94750000D01*
X165040000Y-64500000D02*
X165040000Y-63040000D01*
X158500000Y-63000000D02*
X158500000Y-64870000D01*
X159000000Y-62500000D02*
X158500000Y-63000000D01*
X164500000Y-62500000D02*
X159000000Y-62500000D01*
X165040000Y-63040000D02*
X164500000Y-62500000D01*
X174040000Y-64500000D02*
X174040000Y-59170000D01*
X174040000Y-59170000D02*
X172120000Y-57250000D01*
D17*
G36*
X175559098Y-44958920D02*
X175849955Y-45017658D01*
X176058796Y-45158469D01*
X176199608Y-45367312D01*
X176258349Y-45658155D01*
X176258349Y-55501756D01*
X176042908Y-56088226D01*
X176033961Y-56145220D01*
X176022705Y-56201810D01*
X176022705Y-63172145D01*
X176023060Y-63173928D01*
X176022724Y-63175717D01*
X176035586Y-63236903D01*
X176047779Y-63298201D01*
X176048790Y-63299714D01*
X176049164Y-63301494D01*
X176808405Y-65079672D01*
X177180279Y-67012416D01*
X177217207Y-67481418D01*
X177180549Y-67815589D01*
X177184059Y-67855787D01*
X177181612Y-67896063D01*
X177189597Y-67919223D01*
X177191728Y-67943628D01*
X177210353Y-67979422D01*
X177223506Y-68017569D01*
X177239747Y-68035911D01*
X177251055Y-68057642D01*
X177281960Y-68083584D01*
X177308710Y-68113794D01*
X178093746Y-68710237D01*
X178652632Y-69481031D01*
X178764316Y-69767676D01*
X178771312Y-69778642D01*
X178774571Y-69791237D01*
X178805663Y-69832486D01*
X178833443Y-69876029D01*
X178844104Y-69883484D01*
X178851934Y-69893871D01*
X178896440Y-69920079D01*
X178938773Y-69949680D01*
X178951475Y-69952487D01*
X178962684Y-69959088D01*
X179013830Y-69966269D01*
X179064269Y-69977417D01*
X179077080Y-69975149D01*
X179089961Y-69976958D01*
X179149536Y-69973567D01*
X179706852Y-69973567D01*
X181422392Y-70095775D01*
X182894260Y-70463969D01*
X184169785Y-71092390D01*
X185293457Y-72005398D01*
X186018663Y-72850520D01*
X186616926Y-73796343D01*
X187076569Y-74822518D01*
X187385723Y-75900135D01*
X187493056Y-77668945D01*
X187494689Y-78822495D01*
X187437446Y-79110703D01*
X187299333Y-79318687D01*
X187093823Y-79460420D01*
X186806657Y-79522690D01*
X185851581Y-79538205D01*
X185843559Y-79538205D01*
X185717503Y-79563279D01*
X185610638Y-79634684D01*
X185539233Y-79741549D01*
X185514159Y-79867605D01*
X185514159Y-80023098D01*
X185521763Y-80061325D01*
X185523326Y-80100268D01*
X185534183Y-80123766D01*
X185539233Y-80149154D01*
X185560886Y-80181560D01*
X185577234Y-80216942D01*
X185747344Y-80450659D01*
X186063739Y-80967912D01*
X186097513Y-81153783D01*
X186515608Y-84687805D01*
X186780387Y-86968454D01*
X186866963Y-87723792D01*
X186891431Y-87941763D01*
X186898013Y-88004692D01*
X186899724Y-88023810D01*
X186901850Y-88068437D01*
X186825281Y-88403288D01*
X186823869Y-88452908D01*
X186817980Y-88502199D01*
X186861309Y-89060572D01*
X186847133Y-89119484D01*
X186531437Y-89906706D01*
X186107136Y-90671763D01*
X185042095Y-91879477D01*
X183678635Y-92799011D01*
X182082502Y-93411082D01*
X180311489Y-93691118D01*
X179842860Y-93726586D01*
X179672924Y-93737673D01*
X179658511Y-93741530D01*
X179640105Y-93740679D01*
X179503294Y-93761375D01*
X179223166Y-93758692D01*
X179192944Y-93764403D01*
X179162196Y-93763791D01*
X179134806Y-93774502D01*
X179601480Y-92748900D01*
X179739048Y-92057301D01*
X179104418Y-90450800D01*
X169650800Y-90450800D01*
X169650800Y-99904418D01*
X171257301Y-100539048D01*
X175011192Y-99133037D01*
X177941278Y-96397501D01*
X178915457Y-94256563D01*
X178998144Y-94720358D01*
X178999018Y-94722593D01*
X178999003Y-94723360D01*
X179037095Y-94936757D01*
X179043779Y-94981386D01*
X179064990Y-95040406D01*
X179085641Y-95099635D01*
X179086706Y-95100830D01*
X179087248Y-95102337D01*
X179129457Y-95148775D01*
X179171177Y-95195565D01*
X179906213Y-95750027D01*
X179906388Y-95750111D01*
X179906517Y-95750256D01*
X180635216Y-96298617D01*
X180853257Y-96560529D01*
X180931452Y-96892217D01*
X180931452Y-97738353D01*
X180956526Y-97864409D01*
X181027931Y-97971274D01*
X181134796Y-98042679D01*
X181260852Y-98067753D01*
X184923892Y-98067753D01*
X185214737Y-98126489D01*
X185423577Y-98267301D01*
X185564391Y-98476149D01*
X185623131Y-98767002D01*
X185623131Y-103897993D01*
X185564392Y-104188826D01*
X185423579Y-104397665D01*
X185214731Y-104538480D01*
X184923889Y-104597227D01*
X151478024Y-104597227D01*
X151187181Y-104538480D01*
X150978333Y-104397664D01*
X150837522Y-104188827D01*
X150778784Y-103897994D01*
X150778784Y-98767002D01*
X150837524Y-98476149D01*
X150978337Y-98267300D01*
X151187176Y-98126489D01*
X151478021Y-98067753D01*
X155141450Y-98067753D01*
X155267506Y-98042679D01*
X155335176Y-97997463D01*
X157471116Y-97997463D01*
X157492027Y-98108594D01*
X157554526Y-98202834D01*
X161797166Y-102445474D01*
X161884156Y-102504911D01*
X161994667Y-102528884D01*
X162105798Y-102507973D01*
X162200038Y-102445474D01*
X164674912Y-99970600D01*
X164734349Y-99883610D01*
X164758322Y-99773099D01*
X164737411Y-99661968D01*
X164674912Y-99567728D01*
X164053827Y-98946643D01*
X167251100Y-100401480D01*
X167942699Y-100539048D01*
X169549200Y-99904418D01*
X169549200Y-90522645D01*
X169585859Y-90485986D01*
X169514014Y-90414141D01*
X169477355Y-90450800D01*
X160095582Y-90450800D01*
X159460952Y-92057301D01*
X160836175Y-95728991D01*
X160432272Y-95325088D01*
X160345282Y-95265651D01*
X160234771Y-95241678D01*
X160123640Y-95262589D01*
X160029400Y-95325088D01*
X157554526Y-97799962D01*
X157495089Y-97886952D01*
X157471116Y-97997463D01*
X155335176Y-97997463D01*
X155374371Y-97971274D01*
X155445776Y-97864409D01*
X155470850Y-97738353D01*
X155470850Y-96892218D01*
X155549044Y-96560527D01*
X155767083Y-96298617D01*
X156495781Y-95750256D01*
X156495929Y-95750090D01*
X156496132Y-95749992D01*
X157231938Y-95194746D01*
X157232752Y-95193833D01*
X157233851Y-95193292D01*
X157275498Y-95145876D01*
X157317457Y-95098802D01*
X157317860Y-95097646D01*
X157318667Y-95096727D01*
X157338979Y-95037039D01*
X157359749Y-94977434D01*
X157359679Y-94976212D01*
X157360073Y-94975053D01*
X157365310Y-94935504D01*
X157402949Y-94722704D01*
X157954999Y-91630983D01*
X158458969Y-88816482D01*
X158499884Y-88742699D01*
X159460952Y-88742699D01*
X160095582Y-90349200D01*
X169549200Y-90349200D01*
X169549200Y-80895582D01*
X167942699Y-80260952D01*
X164188808Y-81666963D01*
X161258722Y-84402499D01*
X159598520Y-88051100D01*
X159460952Y-88742699D01*
X158499884Y-88742699D01*
X158689199Y-88401312D01*
X159175071Y-88190961D01*
X159225823Y-88155871D01*
X159277121Y-88121595D01*
X159278600Y-88119381D01*
X159280789Y-88117868D01*
X159314247Y-88066032D01*
X159348526Y-88014730D01*
X159349045Y-88012120D01*
X159350489Y-88009883D01*
X159361562Y-87949193D01*
X159373600Y-87888674D01*
X159373600Y-84072613D01*
X159382687Y-83951706D01*
X159377174Y-83906495D01*
X159376920Y-83860954D01*
X159369459Y-83843221D01*
X159367130Y-83824125D01*
X159344738Y-83784470D01*
X159327074Y-83742489D01*
X159313394Y-83728961D01*
X159303935Y-83712209D01*
X159268070Y-83684140D01*
X159235687Y-83652116D01*
X158573328Y-83214868D01*
X158053940Y-82672842D01*
X157668350Y-82025807D01*
X157436445Y-81288791D01*
X157400551Y-80902230D01*
X157381361Y-80324752D01*
X157376413Y-79846429D01*
X157363904Y-79786774D01*
X157352603Y-79726831D01*
X157350737Y-79723977D01*
X157350037Y-79720639D01*
X157315643Y-79670300D01*
X157282271Y-79619257D01*
X157279454Y-79617333D01*
X157277530Y-79614518D01*
X157226486Y-79581170D01*
X157176125Y-79546786D01*
X157172787Y-79546087D01*
X157169932Y-79544222D01*
X157110024Y-79532949D01*
X157050326Y-79520452D01*
X156563611Y-79515583D01*
X155315311Y-79459439D01*
X153575896Y-79070066D01*
X152036254Y-78260931D01*
X150731546Y-77069234D01*
X149714784Y-75534838D01*
X149088740Y-73816187D01*
X148907503Y-71772310D01*
X148907503Y-70672824D01*
X148965025Y-70384818D01*
X149103246Y-70177096D01*
X149308794Y-70035554D01*
X149595851Y-69973389D01*
X150581747Y-69957812D01*
X150620714Y-69957540D01*
X150682537Y-69944794D01*
X150744472Y-69932474D01*
X150745446Y-69931823D01*
X150746592Y-69931587D01*
X150798852Y-69896138D01*
X150851337Y-69861069D01*
X150851987Y-69860096D01*
X150852956Y-69859439D01*
X150887673Y-69806688D01*
X150922742Y-69754204D01*
X150922970Y-69753056D01*
X150923614Y-69752078D01*
X150935499Y-69690068D01*
X150947816Y-69628148D01*
X150947816Y-69478742D01*
X150944626Y-69462703D01*
X150946031Y-69448549D01*
X150938175Y-69422579D01*
X150935757Y-69390428D01*
X150926672Y-69372444D01*
X150922742Y-69352686D01*
X150912310Y-69337074D01*
X150908818Y-69325529D01*
X150854142Y-69223045D01*
X150844647Y-69211457D01*
X150839038Y-69197563D01*
X150804198Y-69162091D01*
X150772684Y-69123629D01*
X150759475Y-69116555D01*
X150748978Y-69105868D01*
X150546943Y-68968227D01*
X150416859Y-68799835D01*
X150316342Y-68396987D01*
X150312868Y-68389624D01*
X150297533Y-68252602D01*
X150297412Y-68252221D01*
X150297445Y-68251822D01*
X150210813Y-67494072D01*
X150210741Y-67493846D01*
X150210760Y-67493608D01*
X149944699Y-65195309D01*
X149944644Y-65195138D01*
X149944658Y-65194961D01*
X149904447Y-64850812D01*
X157520600Y-64850812D01*
X157520600Y-64889188D01*
X157595152Y-65263988D01*
X157807460Y-65581728D01*
X158125200Y-65794036D01*
X158500000Y-65868588D01*
X158874800Y-65794036D01*
X159192540Y-65581728D01*
X159404848Y-65263988D01*
X159479400Y-64889188D01*
X159479400Y-64850812D01*
X159433460Y-64619850D01*
X161323800Y-64619850D01*
X161323800Y-65454939D01*
X161365849Y-65556454D01*
X161443545Y-65634151D01*
X161545060Y-65676200D01*
X162380150Y-65676200D01*
X162449200Y-65607150D01*
X162449200Y-64550800D01*
X162550800Y-64550800D01*
X162550800Y-65607150D01*
X162619850Y-65676200D01*
X163454940Y-65676200D01*
X163556455Y-65634151D01*
X163634151Y-65556454D01*
X163676200Y-65454939D01*
X163676200Y-64619850D01*
X163607150Y-64550800D01*
X162550800Y-64550800D01*
X162449200Y-64550800D01*
X161392850Y-64550800D01*
X161323800Y-64619850D01*
X159433460Y-64619850D01*
X159404848Y-64476012D01*
X159192540Y-64158272D01*
X158904400Y-63965742D01*
X158904400Y-63545061D01*
X161323800Y-63545061D01*
X161323800Y-64380150D01*
X161392850Y-64449200D01*
X162449200Y-64449200D01*
X162449200Y-63392850D01*
X162550800Y-63392850D01*
X162550800Y-64449200D01*
X163607150Y-64449200D01*
X163676200Y-64380150D01*
X163676200Y-63545061D01*
X163634151Y-63443546D01*
X163556455Y-63365849D01*
X163454940Y-63323800D01*
X162619850Y-63323800D01*
X162550800Y-63392850D01*
X162449200Y-63392850D01*
X162380150Y-63323800D01*
X161545060Y-63323800D01*
X161443545Y-63365849D01*
X161365849Y-63443546D01*
X161323800Y-63545061D01*
X158904400Y-63545061D01*
X158904400Y-63167508D01*
X159167508Y-62904400D01*
X164332492Y-62904400D01*
X164635600Y-63207508D01*
X164635600Y-63390982D01*
X164372796Y-63499570D01*
X164040736Y-63831051D01*
X163860805Y-64264374D01*
X163860396Y-64733568D01*
X164039570Y-65167204D01*
X164371051Y-65499264D01*
X164804374Y-65679195D01*
X165273568Y-65679604D01*
X165707204Y-65500430D01*
X166039264Y-65168949D01*
X166219195Y-64735626D01*
X166219604Y-64266432D01*
X166040430Y-63832796D01*
X165708949Y-63500736D01*
X165444400Y-63390886D01*
X165444400Y-63040000D01*
X165413617Y-62885243D01*
X165413617Y-62885242D01*
X165325954Y-62754046D01*
X164785954Y-62214046D01*
X164654757Y-62126383D01*
X164500000Y-62095600D01*
X159000000Y-62095600D01*
X158845243Y-62126383D01*
X158714046Y-62214046D01*
X158214046Y-62714046D01*
X158126383Y-62845243D01*
X158095600Y-63000000D01*
X158095600Y-63965742D01*
X157807460Y-64158272D01*
X157595152Y-64476012D01*
X157520600Y-64850812D01*
X149904447Y-64850812D01*
X149671666Y-62858564D01*
X149671556Y-62858224D01*
X149671584Y-62857865D01*
X149534896Y-61709306D01*
X149533635Y-61705433D01*
X149533853Y-61701369D01*
X149503800Y-61492279D01*
X149558793Y-61027649D01*
X149557293Y-61008588D01*
X149561075Y-60989847D01*
X149562837Y-60356392D01*
X149677709Y-60049962D01*
X150196980Y-58996512D01*
X150897056Y-58079266D01*
X151605229Y-57443960D01*
X157520430Y-57443960D01*
X157669221Y-57804061D01*
X157944490Y-58079811D01*
X158304331Y-58229230D01*
X158693960Y-58229570D01*
X159054061Y-58080779D01*
X159329811Y-57805510D01*
X159392557Y-57654400D01*
X163607382Y-57654400D01*
X163669221Y-57804061D01*
X163944490Y-58079811D01*
X164304331Y-58229230D01*
X164693960Y-58229570D01*
X164845179Y-58167087D01*
X167995600Y-61317508D01*
X167995600Y-72229438D01*
X168026383Y-72384195D01*
X168114046Y-72515392D01*
X175476571Y-79877917D01*
X174525088Y-80829400D01*
X174465651Y-80916390D01*
X174441678Y-81026901D01*
X174462589Y-81138032D01*
X174525088Y-81232272D01*
X175146173Y-81853357D01*
X171948900Y-80398520D01*
X171257301Y-80260952D01*
X169650800Y-80895582D01*
X169650800Y-90277355D01*
X169614141Y-90314014D01*
X169685986Y-90385859D01*
X169722645Y-90349200D01*
X179104418Y-90349200D01*
X179739048Y-88742699D01*
X178363825Y-85071009D01*
X178767728Y-85474912D01*
X178854718Y-85534349D01*
X178965229Y-85558322D01*
X179076360Y-85537411D01*
X179170600Y-85474912D01*
X181645474Y-83000038D01*
X181704911Y-82913048D01*
X181728884Y-82802537D01*
X181707973Y-82691406D01*
X181645474Y-82597166D01*
X177402834Y-78354526D01*
X177315844Y-78295089D01*
X177205333Y-78271116D01*
X177094202Y-78292027D01*
X176999962Y-78354526D01*
X176048479Y-79306009D01*
X168804400Y-72061930D01*
X168804400Y-64619850D01*
X170323800Y-64619850D01*
X170323800Y-65454939D01*
X170365849Y-65556454D01*
X170443545Y-65634151D01*
X170545060Y-65676200D01*
X171380150Y-65676200D01*
X171449200Y-65607150D01*
X171449200Y-64550800D01*
X171550800Y-64550800D01*
X171550800Y-65607150D01*
X171619850Y-65676200D01*
X172454940Y-65676200D01*
X172556455Y-65634151D01*
X172634151Y-65556454D01*
X172676200Y-65454939D01*
X172676200Y-64619850D01*
X172607150Y-64550800D01*
X171550800Y-64550800D01*
X171449200Y-64550800D01*
X170392850Y-64550800D01*
X170323800Y-64619850D01*
X168804400Y-64619850D01*
X168804400Y-63545061D01*
X170323800Y-63545061D01*
X170323800Y-64380150D01*
X170392850Y-64449200D01*
X171449200Y-64449200D01*
X171449200Y-63392850D01*
X171550800Y-63392850D01*
X171550800Y-64449200D01*
X172607150Y-64449200D01*
X172676200Y-64380150D01*
X172676200Y-63545061D01*
X172634151Y-63443546D01*
X172556455Y-63365849D01*
X172454940Y-63323800D01*
X171619850Y-63323800D01*
X171550800Y-63392850D01*
X171449200Y-63392850D01*
X171380150Y-63323800D01*
X170545060Y-63323800D01*
X170443545Y-63365849D01*
X170365849Y-63443546D01*
X170323800Y-63545061D01*
X168804400Y-63545061D01*
X168804400Y-61150000D01*
X168773617Y-60995243D01*
X168685954Y-60864046D01*
X165417130Y-57595222D01*
X165479230Y-57445669D01*
X165479400Y-57250000D01*
X171121412Y-57250000D01*
X171195964Y-57624800D01*
X171408272Y-57942540D01*
X171726012Y-58154848D01*
X172100812Y-58229400D01*
X172139188Y-58229400D01*
X172463068Y-58164976D01*
X173635600Y-59337508D01*
X173635600Y-63390982D01*
X173372796Y-63499570D01*
X173040736Y-63831051D01*
X172860805Y-64264374D01*
X172860396Y-64733568D01*
X173039570Y-65167204D01*
X173371051Y-65499264D01*
X173804374Y-65679195D01*
X174273568Y-65679604D01*
X174707204Y-65500430D01*
X175039264Y-65168949D01*
X175219195Y-64735626D01*
X175219604Y-64266432D01*
X175040430Y-63832796D01*
X174708949Y-63500736D01*
X174444400Y-63390886D01*
X174444400Y-59170000D01*
X174413617Y-59015243D01*
X174325954Y-58884046D01*
X173047798Y-57605890D01*
X173118588Y-57250000D01*
X173044036Y-56875200D01*
X172831728Y-56557460D01*
X172513988Y-56345152D01*
X172139188Y-56270600D01*
X172100812Y-56270600D01*
X171726012Y-56345152D01*
X171408272Y-56557460D01*
X171195964Y-56875200D01*
X171121412Y-57250000D01*
X165479400Y-57250000D01*
X165479570Y-57056040D01*
X165330779Y-56695939D01*
X165055510Y-56420189D01*
X164695669Y-56270770D01*
X164306040Y-56270430D01*
X163945939Y-56419221D01*
X163670189Y-56694490D01*
X163607443Y-56845600D01*
X159392618Y-56845600D01*
X159330779Y-56695939D01*
X159055510Y-56420189D01*
X158695669Y-56270770D01*
X158306040Y-56270430D01*
X157945939Y-56419221D01*
X157670189Y-56694490D01*
X157520770Y-57054331D01*
X157520430Y-57443960D01*
X151605229Y-57443960D01*
X151768553Y-57297442D01*
X152784778Y-56672561D01*
X155301554Y-55864998D01*
X155313532Y-55858348D01*
X155326968Y-55855675D01*
X155369352Y-55827355D01*
X155413921Y-55802609D01*
X155422442Y-55791881D01*
X155433833Y-55784270D01*
X155462153Y-55741887D01*
X155493860Y-55701968D01*
X155497627Y-55688795D01*
X155505238Y-55677405D01*
X155515182Y-55627412D01*
X155529200Y-55578397D01*
X155527639Y-55564785D01*
X155530312Y-55551349D01*
X155530312Y-45658021D01*
X155589052Y-45367172D01*
X155729864Y-45158329D01*
X155938707Y-45017518D01*
X156229559Y-44958780D01*
X165894167Y-44958048D01*
X175559098Y-44958920D01*
X175559098Y-44958920D01*
G37*
X175559098Y-44958920D02*
X175849955Y-45017658D01*
X176058796Y-45158469D01*
X176199608Y-45367312D01*
X176258349Y-45658155D01*
X176258349Y-55501756D01*
X176042908Y-56088226D01*
X176033961Y-56145220D01*
X176022705Y-56201810D01*
X176022705Y-63172145D01*
X176023060Y-63173928D01*
X176022724Y-63175717D01*
X176035586Y-63236903D01*
X176047779Y-63298201D01*
X176048790Y-63299714D01*
X176049164Y-63301494D01*
X176808405Y-65079672D01*
X177180279Y-67012416D01*
X177217207Y-67481418D01*
X177180549Y-67815589D01*
X177184059Y-67855787D01*
X177181612Y-67896063D01*
X177189597Y-67919223D01*
X177191728Y-67943628D01*
X177210353Y-67979422D01*
X177223506Y-68017569D01*
X177239747Y-68035911D01*
X177251055Y-68057642D01*
X177281960Y-68083584D01*
X177308710Y-68113794D01*
X178093746Y-68710237D01*
X178652632Y-69481031D01*
X178764316Y-69767676D01*
X178771312Y-69778642D01*
X178774571Y-69791237D01*
X178805663Y-69832486D01*
X178833443Y-69876029D01*
X178844104Y-69883484D01*
X178851934Y-69893871D01*
X178896440Y-69920079D01*
X178938773Y-69949680D01*
X178951475Y-69952487D01*
X178962684Y-69959088D01*
X179013830Y-69966269D01*
X179064269Y-69977417D01*
X179077080Y-69975149D01*
X179089961Y-69976958D01*
X179149536Y-69973567D01*
X179706852Y-69973567D01*
X181422392Y-70095775D01*
X182894260Y-70463969D01*
X184169785Y-71092390D01*
X185293457Y-72005398D01*
X186018663Y-72850520D01*
X186616926Y-73796343D01*
X187076569Y-74822518D01*
X187385723Y-75900135D01*
X187493056Y-77668945D01*
X187494689Y-78822495D01*
X187437446Y-79110703D01*
X187299333Y-79318687D01*
X187093823Y-79460420D01*
X186806657Y-79522690D01*
X185851581Y-79538205D01*
X185843559Y-79538205D01*
X185717503Y-79563279D01*
X185610638Y-79634684D01*
X185539233Y-79741549D01*
X185514159Y-79867605D01*
X185514159Y-80023098D01*
X185521763Y-80061325D01*
X185523326Y-80100268D01*
X185534183Y-80123766D01*
X185539233Y-80149154D01*
X185560886Y-80181560D01*
X185577234Y-80216942D01*
X185747344Y-80450659D01*
X186063739Y-80967912D01*
X186097513Y-81153783D01*
X186515608Y-84687805D01*
X186780387Y-86968454D01*
X186866963Y-87723792D01*
X186891431Y-87941763D01*
X186898013Y-88004692D01*
X186899724Y-88023810D01*
X186901850Y-88068437D01*
X186825281Y-88403288D01*
X186823869Y-88452908D01*
X186817980Y-88502199D01*
X186861309Y-89060572D01*
X186847133Y-89119484D01*
X186531437Y-89906706D01*
X186107136Y-90671763D01*
X185042095Y-91879477D01*
X183678635Y-92799011D01*
X182082502Y-93411082D01*
X180311489Y-93691118D01*
X179842860Y-93726586D01*
X179672924Y-93737673D01*
X179658511Y-93741530D01*
X179640105Y-93740679D01*
X179503294Y-93761375D01*
X179223166Y-93758692D01*
X179192944Y-93764403D01*
X179162196Y-93763791D01*
X179134806Y-93774502D01*
X179601480Y-92748900D01*
X179739048Y-92057301D01*
X179104418Y-90450800D01*
X169650800Y-90450800D01*
X169650800Y-99904418D01*
X171257301Y-100539048D01*
X175011192Y-99133037D01*
X177941278Y-96397501D01*
X178915457Y-94256563D01*
X178998144Y-94720358D01*
X178999018Y-94722593D01*
X178999003Y-94723360D01*
X179037095Y-94936757D01*
X179043779Y-94981386D01*
X179064990Y-95040406D01*
X179085641Y-95099635D01*
X179086706Y-95100830D01*
X179087248Y-95102337D01*
X179129457Y-95148775D01*
X179171177Y-95195565D01*
X179906213Y-95750027D01*
X179906388Y-95750111D01*
X179906517Y-95750256D01*
X180635216Y-96298617D01*
X180853257Y-96560529D01*
X180931452Y-96892217D01*
X180931452Y-97738353D01*
X180956526Y-97864409D01*
X181027931Y-97971274D01*
X181134796Y-98042679D01*
X181260852Y-98067753D01*
X184923892Y-98067753D01*
X185214737Y-98126489D01*
X185423577Y-98267301D01*
X185564391Y-98476149D01*
X185623131Y-98767002D01*
X185623131Y-103897993D01*
X185564392Y-104188826D01*
X185423579Y-104397665D01*
X185214731Y-104538480D01*
X184923889Y-104597227D01*
X151478024Y-104597227D01*
X151187181Y-104538480D01*
X150978333Y-104397664D01*
X150837522Y-104188827D01*
X150778784Y-103897994D01*
X150778784Y-98767002D01*
X150837524Y-98476149D01*
X150978337Y-98267300D01*
X151187176Y-98126489D01*
X151478021Y-98067753D01*
X155141450Y-98067753D01*
X155267506Y-98042679D01*
X155335176Y-97997463D01*
X157471116Y-97997463D01*
X157492027Y-98108594D01*
X157554526Y-98202834D01*
X161797166Y-102445474D01*
X161884156Y-102504911D01*
X161994667Y-102528884D01*
X162105798Y-102507973D01*
X162200038Y-102445474D01*
X164674912Y-99970600D01*
X164734349Y-99883610D01*
X164758322Y-99773099D01*
X164737411Y-99661968D01*
X164674912Y-99567728D01*
X164053827Y-98946643D01*
X167251100Y-100401480D01*
X167942699Y-100539048D01*
X169549200Y-99904418D01*
X169549200Y-90522645D01*
X169585859Y-90485986D01*
X169514014Y-90414141D01*
X169477355Y-90450800D01*
X160095582Y-90450800D01*
X159460952Y-92057301D01*
X160836175Y-95728991D01*
X160432272Y-95325088D01*
X160345282Y-95265651D01*
X160234771Y-95241678D01*
X160123640Y-95262589D01*
X160029400Y-95325088D01*
X157554526Y-97799962D01*
X157495089Y-97886952D01*
X157471116Y-97997463D01*
X155335176Y-97997463D01*
X155374371Y-97971274D01*
X155445776Y-97864409D01*
X155470850Y-97738353D01*
X155470850Y-96892218D01*
X155549044Y-96560527D01*
X155767083Y-96298617D01*
X156495781Y-95750256D01*
X156495929Y-95750090D01*
X156496132Y-95749992D01*
X157231938Y-95194746D01*
X157232752Y-95193833D01*
X157233851Y-95193292D01*
X157275498Y-95145876D01*
X157317457Y-95098802D01*
X157317860Y-95097646D01*
X157318667Y-95096727D01*
X157338979Y-95037039D01*
X157359749Y-94977434D01*
X157359679Y-94976212D01*
X157360073Y-94975053D01*
X157365310Y-94935504D01*
X157402949Y-94722704D01*
X157954999Y-91630983D01*
X158458969Y-88816482D01*
X158499884Y-88742699D01*
X159460952Y-88742699D01*
X160095582Y-90349200D01*
X169549200Y-90349200D01*
X169549200Y-80895582D01*
X167942699Y-80260952D01*
X164188808Y-81666963D01*
X161258722Y-84402499D01*
X159598520Y-88051100D01*
X159460952Y-88742699D01*
X158499884Y-88742699D01*
X158689199Y-88401312D01*
X159175071Y-88190961D01*
X159225823Y-88155871D01*
X159277121Y-88121595D01*
X159278600Y-88119381D01*
X159280789Y-88117868D01*
X159314247Y-88066032D01*
X159348526Y-88014730D01*
X159349045Y-88012120D01*
X159350489Y-88009883D01*
X159361562Y-87949193D01*
X159373600Y-87888674D01*
X159373600Y-84072613D01*
X159382687Y-83951706D01*
X159377174Y-83906495D01*
X159376920Y-83860954D01*
X159369459Y-83843221D01*
X159367130Y-83824125D01*
X159344738Y-83784470D01*
X159327074Y-83742489D01*
X159313394Y-83728961D01*
X159303935Y-83712209D01*
X159268070Y-83684140D01*
X159235687Y-83652116D01*
X158573328Y-83214868D01*
X158053940Y-82672842D01*
X157668350Y-82025807D01*
X157436445Y-81288791D01*
X157400551Y-80902230D01*
X157381361Y-80324752D01*
X157376413Y-79846429D01*
X157363904Y-79786774D01*
X157352603Y-79726831D01*
X157350737Y-79723977D01*
X157350037Y-79720639D01*
X157315643Y-79670300D01*
X157282271Y-79619257D01*
X157279454Y-79617333D01*
X157277530Y-79614518D01*
X157226486Y-79581170D01*
X157176125Y-79546786D01*
X157172787Y-79546087D01*
X157169932Y-79544222D01*
X157110024Y-79532949D01*
X157050326Y-79520452D01*
X156563611Y-79515583D01*
X155315311Y-79459439D01*
X153575896Y-79070066D01*
X152036254Y-78260931D01*
X150731546Y-77069234D01*
X149714784Y-75534838D01*
X149088740Y-73816187D01*
X148907503Y-71772310D01*
X148907503Y-70672824D01*
X148965025Y-70384818D01*
X149103246Y-70177096D01*
X149308794Y-70035554D01*
X149595851Y-69973389D01*
X150581747Y-69957812D01*
X150620714Y-69957540D01*
X150682537Y-69944794D01*
X150744472Y-69932474D01*
X150745446Y-69931823D01*
X150746592Y-69931587D01*
X150798852Y-69896138D01*
X150851337Y-69861069D01*
X150851987Y-69860096D01*
X150852956Y-69859439D01*
X150887673Y-69806688D01*
X150922742Y-69754204D01*
X150922970Y-69753056D01*
X150923614Y-69752078D01*
X150935499Y-69690068D01*
X150947816Y-69628148D01*
X150947816Y-69478742D01*
X150944626Y-69462703D01*
X150946031Y-69448549D01*
X150938175Y-69422579D01*
X150935757Y-69390428D01*
X150926672Y-69372444D01*
X150922742Y-69352686D01*
X150912310Y-69337074D01*
X150908818Y-69325529D01*
X150854142Y-69223045D01*
X150844647Y-69211457D01*
X150839038Y-69197563D01*
X150804198Y-69162091D01*
X150772684Y-69123629D01*
X150759475Y-69116555D01*
X150748978Y-69105868D01*
X150546943Y-68968227D01*
X150416859Y-68799835D01*
X150316342Y-68396987D01*
X150312868Y-68389624D01*
X150297533Y-68252602D01*
X150297412Y-68252221D01*
X150297445Y-68251822D01*
X150210813Y-67494072D01*
X150210741Y-67493846D01*
X150210760Y-67493608D01*
X149944699Y-65195309D01*
X149944644Y-65195138D01*
X149944658Y-65194961D01*
X149904447Y-64850812D01*
X157520600Y-64850812D01*
X157520600Y-64889188D01*
X157595152Y-65263988D01*
X157807460Y-65581728D01*
X158125200Y-65794036D01*
X158500000Y-65868588D01*
X158874800Y-65794036D01*
X159192540Y-65581728D01*
X159404848Y-65263988D01*
X159479400Y-64889188D01*
X159479400Y-64850812D01*
X159433460Y-64619850D01*
X161323800Y-64619850D01*
X161323800Y-65454939D01*
X161365849Y-65556454D01*
X161443545Y-65634151D01*
X161545060Y-65676200D01*
X162380150Y-65676200D01*
X162449200Y-65607150D01*
X162449200Y-64550800D01*
X162550800Y-64550800D01*
X162550800Y-65607150D01*
X162619850Y-65676200D01*
X163454940Y-65676200D01*
X163556455Y-65634151D01*
X163634151Y-65556454D01*
X163676200Y-65454939D01*
X163676200Y-64619850D01*
X163607150Y-64550800D01*
X162550800Y-64550800D01*
X162449200Y-64550800D01*
X161392850Y-64550800D01*
X161323800Y-64619850D01*
X159433460Y-64619850D01*
X159404848Y-64476012D01*
X159192540Y-64158272D01*
X158904400Y-63965742D01*
X158904400Y-63545061D01*
X161323800Y-63545061D01*
X161323800Y-64380150D01*
X161392850Y-64449200D01*
X162449200Y-64449200D01*
X162449200Y-63392850D01*
X162550800Y-63392850D01*
X162550800Y-64449200D01*
X163607150Y-64449200D01*
X163676200Y-64380150D01*
X163676200Y-63545061D01*
X163634151Y-63443546D01*
X163556455Y-63365849D01*
X163454940Y-63323800D01*
X162619850Y-63323800D01*
X162550800Y-63392850D01*
X162449200Y-63392850D01*
X162380150Y-63323800D01*
X161545060Y-63323800D01*
X161443545Y-63365849D01*
X161365849Y-63443546D01*
X161323800Y-63545061D01*
X158904400Y-63545061D01*
X158904400Y-63167508D01*
X159167508Y-62904400D01*
X164332492Y-62904400D01*
X164635600Y-63207508D01*
X164635600Y-63390982D01*
X164372796Y-63499570D01*
X164040736Y-63831051D01*
X163860805Y-64264374D01*
X163860396Y-64733568D01*
X164039570Y-65167204D01*
X164371051Y-65499264D01*
X164804374Y-65679195D01*
X165273568Y-65679604D01*
X165707204Y-65500430D01*
X166039264Y-65168949D01*
X166219195Y-64735626D01*
X166219604Y-64266432D01*
X166040430Y-63832796D01*
X165708949Y-63500736D01*
X165444400Y-63390886D01*
X165444400Y-63040000D01*
X165413617Y-62885243D01*
X165413617Y-62885242D01*
X165325954Y-62754046D01*
X164785954Y-62214046D01*
X164654757Y-62126383D01*
X164500000Y-62095600D01*
X159000000Y-62095600D01*
X158845243Y-62126383D01*
X158714046Y-62214046D01*
X158214046Y-62714046D01*
X158126383Y-62845243D01*
X158095600Y-63000000D01*
X158095600Y-63965742D01*
X157807460Y-64158272D01*
X157595152Y-64476012D01*
X157520600Y-64850812D01*
X149904447Y-64850812D01*
X149671666Y-62858564D01*
X149671556Y-62858224D01*
X149671584Y-62857865D01*
X149534896Y-61709306D01*
X149533635Y-61705433D01*
X149533853Y-61701369D01*
X149503800Y-61492279D01*
X149558793Y-61027649D01*
X149557293Y-61008588D01*
X149561075Y-60989847D01*
X149562837Y-60356392D01*
X149677709Y-60049962D01*
X150196980Y-58996512D01*
X150897056Y-58079266D01*
X151605229Y-57443960D01*
X157520430Y-57443960D01*
X157669221Y-57804061D01*
X157944490Y-58079811D01*
X158304331Y-58229230D01*
X158693960Y-58229570D01*
X159054061Y-58080779D01*
X159329811Y-57805510D01*
X159392557Y-57654400D01*
X163607382Y-57654400D01*
X163669221Y-57804061D01*
X163944490Y-58079811D01*
X164304331Y-58229230D01*
X164693960Y-58229570D01*
X164845179Y-58167087D01*
X167995600Y-61317508D01*
X167995600Y-72229438D01*
X168026383Y-72384195D01*
X168114046Y-72515392D01*
X175476571Y-79877917D01*
X174525088Y-80829400D01*
X174465651Y-80916390D01*
X174441678Y-81026901D01*
X174462589Y-81138032D01*
X174525088Y-81232272D01*
X175146173Y-81853357D01*
X171948900Y-80398520D01*
X171257301Y-80260952D01*
X169650800Y-80895582D01*
X169650800Y-90277355D01*
X169614141Y-90314014D01*
X169685986Y-90385859D01*
X169722645Y-90349200D01*
X179104418Y-90349200D01*
X179739048Y-88742699D01*
X178363825Y-85071009D01*
X178767728Y-85474912D01*
X178854718Y-85534349D01*
X178965229Y-85558322D01*
X179076360Y-85537411D01*
X179170600Y-85474912D01*
X181645474Y-83000038D01*
X181704911Y-82913048D01*
X181728884Y-82802537D01*
X181707973Y-82691406D01*
X181645474Y-82597166D01*
X177402834Y-78354526D01*
X177315844Y-78295089D01*
X177205333Y-78271116D01*
X177094202Y-78292027D01*
X176999962Y-78354526D01*
X176048479Y-79306009D01*
X168804400Y-72061930D01*
X168804400Y-64619850D01*
X170323800Y-64619850D01*
X170323800Y-65454939D01*
X170365849Y-65556454D01*
X170443545Y-65634151D01*
X170545060Y-65676200D01*
X171380150Y-65676200D01*
X171449200Y-65607150D01*
X171449200Y-64550800D01*
X171550800Y-64550800D01*
X171550800Y-65607150D01*
X171619850Y-65676200D01*
X172454940Y-65676200D01*
X172556455Y-65634151D01*
X172634151Y-65556454D01*
X172676200Y-65454939D01*
X172676200Y-64619850D01*
X172607150Y-64550800D01*
X171550800Y-64550800D01*
X171449200Y-64550800D01*
X170392850Y-64550800D01*
X170323800Y-64619850D01*
X168804400Y-64619850D01*
X168804400Y-63545061D01*
X170323800Y-63545061D01*
X170323800Y-64380150D01*
X170392850Y-64449200D01*
X171449200Y-64449200D01*
X171449200Y-63392850D01*
X171550800Y-63392850D01*
X171550800Y-64449200D01*
X172607150Y-64449200D01*
X172676200Y-64380150D01*
X172676200Y-63545061D01*
X172634151Y-63443546D01*
X172556455Y-63365849D01*
X172454940Y-63323800D01*
X171619850Y-63323800D01*
X171550800Y-63392850D01*
X171449200Y-63392850D01*
X171380150Y-63323800D01*
X170545060Y-63323800D01*
X170443545Y-63365849D01*
X170365849Y-63443546D01*
X170323800Y-63545061D01*
X168804400Y-63545061D01*
X168804400Y-61150000D01*
X168773617Y-60995243D01*
X168685954Y-60864046D01*
X165417130Y-57595222D01*
X165479230Y-57445669D01*
X165479400Y-57250000D01*
X171121412Y-57250000D01*
X171195964Y-57624800D01*
X171408272Y-57942540D01*
X171726012Y-58154848D01*
X172100812Y-58229400D01*
X172139188Y-58229400D01*
X172463068Y-58164976D01*
X173635600Y-59337508D01*
X173635600Y-63390982D01*
X173372796Y-63499570D01*
X173040736Y-63831051D01*
X172860805Y-64264374D01*
X172860396Y-64733568D01*
X173039570Y-65167204D01*
X173371051Y-65499264D01*
X173804374Y-65679195D01*
X174273568Y-65679604D01*
X174707204Y-65500430D01*
X175039264Y-65168949D01*
X175219195Y-64735626D01*
X175219604Y-64266432D01*
X175040430Y-63832796D01*
X174708949Y-63500736D01*
X174444400Y-63390886D01*
X174444400Y-59170000D01*
X174413617Y-59015243D01*
X174325954Y-58884046D01*
X173047798Y-57605890D01*
X173118588Y-57250000D01*
X173044036Y-56875200D01*
X172831728Y-56557460D01*
X172513988Y-56345152D01*
X172139188Y-56270600D01*
X172100812Y-56270600D01*
X171726012Y-56345152D01*
X171408272Y-56557460D01*
X171195964Y-56875200D01*
X171121412Y-57250000D01*
X165479400Y-57250000D01*
X165479570Y-57056040D01*
X165330779Y-56695939D01*
X165055510Y-56420189D01*
X164695669Y-56270770D01*
X164306040Y-56270430D01*
X163945939Y-56419221D01*
X163670189Y-56694490D01*
X163607443Y-56845600D01*
X159392618Y-56845600D01*
X159330779Y-56695939D01*
X159055510Y-56420189D01*
X158695669Y-56270770D01*
X158306040Y-56270430D01*
X157945939Y-56419221D01*
X157670189Y-56694490D01*
X157520770Y-57054331D01*
X157520430Y-57443960D01*
X151605229Y-57443960D01*
X151768553Y-57297442D01*
X152784778Y-56672561D01*
X155301554Y-55864998D01*
X155313532Y-55858348D01*
X155326968Y-55855675D01*
X155369352Y-55827355D01*
X155413921Y-55802609D01*
X155422442Y-55791881D01*
X155433833Y-55784270D01*
X155462153Y-55741887D01*
X155493860Y-55701968D01*
X155497627Y-55688795D01*
X155505238Y-55677405D01*
X155515182Y-55627412D01*
X155529200Y-55578397D01*
X155527639Y-55564785D01*
X155530312Y-55551349D01*
X155530312Y-45658021D01*
X155589052Y-45367172D01*
X155729864Y-45158329D01*
X155938707Y-45017518D01*
X156229559Y-44958780D01*
X165894167Y-44958048D01*
X175559098Y-44958920D01*
M02*
