M48
INCH,TZ
T1C0.016
T2C0.024
T3C0.030
T4C0.039
T5C0.039
T6C0.040
T7C0.157
T8C0.022
T9C0.028
%
G90
G05
T1
X21752Y-25492
X21752Y-26378
X21752Y-27264
X21752Y-28150
X21752Y-29035
X22146Y-41142
X22343Y-32480
X23228Y-45276
X23425Y-29626
X23622Y-45276
X23622Y-49311
X23720Y-25492
X23720Y-26378
X23720Y-27264
X23720Y-28150
X23720Y-29035
X25098Y-26378
X25394Y-30217
X25591Y-23327
X25689Y-25492
X25689Y-26378
X25689Y-27264
X25689Y-28150
X25689Y-29035
X26181Y-44783
X26181Y-45177
X26476Y-22638
X27067Y-28150
X27362Y-30217
X27657Y-25492
X27657Y-26378
X27657Y-27264
X27657Y-28150
X27657Y-29035
X29035Y-29035
X29331Y-30217
X29626Y-25492
X29626Y-26378
X29626Y-27264
X29626Y-28150
X29626Y-29035
X29724Y-34055
X30020Y-34547
X30315Y-35630
X30413Y-37598
X30610Y-29528
X30709Y-37303
X30709Y-38504
X31004Y-37008
X31299Y-29528
X31299Y-30217
X31299Y-36417
X31594Y-25492
X31594Y-26378
X31594Y-26870
X31594Y-27264
X31594Y-28150
X31594Y-29035
X32776Y-36024
X32874Y-24016
X32900Y-37050
X32972Y-30315
X33071Y-39272
X33268Y-32382
X33268Y-35630
X33366Y-36319
X33563Y-25492
X33563Y-26378
X33563Y-27264
X33563Y-28150
X33563Y-28642
X33650Y-38250
X33858Y-37303
X34055Y-41043
X34150Y-37150
X34193Y-35965
X34252Y-37598
X34449Y-21949
X34547Y-23524
X34550Y-37400
X34744Y-41240
X34900Y-34800
X35039Y-29134
X35039Y-41043
X35236Y-30217
X35335Y-41240
X35400Y-38150
X35531Y-26378
X35531Y-27264
X35531Y-28150
X35531Y-29035
X35630Y-41043
X35728Y-45177
X35827Y-41535
X35827Y-41929
X35925Y-35335
X36024Y-33366
X36122Y-38091
X36220Y-35039
X36220Y-41535
X36350Y-37850
X36516Y-29528
X36750Y-37400
X37000Y-34550
X37205Y-29528
X37598Y-32382
X38189Y-28150
T2
X28150Y-21654
X28496Y-20818
X28496Y-22489
X29331Y-20472
X29331Y-22835
X30166Y-20818
X30166Y-22489
X30512Y-21654
T3
X35024Y-24547
X36024Y-24547
X37024Y-24547
T4
X20669Y-43307
X20669Y-44307
X21669Y-43307
X21669Y-44307
X29331Y-40126
X29331Y-41126
X29331Y-42126
X37008Y-43307
X37008Y-44307
X38008Y-43307
X38008Y-44307
T5
X21043Y-22638
X24035Y-22638
T6
X20472Y-31197
X21472Y-31197
X22472Y-31197
X23472Y-31197
X24072Y-50197
X24472Y-31197
X25072Y-50197
X25472Y-31197
X26072Y-50197
X26472Y-31197
X27072Y-50197
X27472Y-31197
X28072Y-50197
X28472Y-31197
X29072Y-50197
X29472Y-31197
X30072Y-50197
X31072Y-31197
X31072Y-50197
X32072Y-31197
X33072Y-31197
X33072Y-50197
X34072Y-31197
X34072Y-50197
X35072Y-31197
X35072Y-50197
X36072Y-31197
X36072Y-50197
X37072Y-31197
X37072Y-50197
X37128Y-39232
X37128Y-40232
X37128Y-41232
X38072Y-31197
X38072Y-50197
X38100Y-35100
X38100Y-36100
X38100Y-37100
X38100Y-38100
X38128Y-39232
X38128Y-40232
X38128Y-41232
T7
X29331Y-21654
T8
X21096Y-34063
X21096Y-35637
T9
X20669Y-39390
X20669Y-40531
T0
M30
