G04 #@! TF.FileFunction,Paste,Bot*
%FSLAX46Y46*%
G04 Gerber Fmt 4.6, Leading zero omitted, Abs format (unit mm)*
G04 Created by KiCad (PCBNEW 4.0.0-rc1-stable) date 9/27/2016 10:32:03 AM*
%MOMM*%
G01*
G04 APERTURE LIST*
%ADD10C,0.100000*%
%ADD11R,1.350000X0.400000*%
%ADD12R,1.900000X1.900000*%
%ADD13R,1.600000X1.700000*%
%ADD14R,0.900000X0.500000*%
%ADD15R,0.500000X0.900000*%
%ADD16R,0.800000X0.750000*%
%ADD17R,1.000000X1.250000*%
%ADD18R,5.080000X2.540000*%
%ADD19R,2.000000X0.600000*%
%ADD20R,0.600000X1.500000*%
%ADD21R,1.400000X1.200000*%
%ADD22R,1.060000X0.650000*%
%ADD23R,1.198880X1.198880*%
%ADD24R,0.797560X0.797560*%
%ADD25R,0.750000X0.800000*%
G04 APERTURE END LIST*
D10*
D11*
X149915000Y-93219000D03*
X149915000Y-93869000D03*
X149915000Y-94519000D03*
X149915000Y-95169000D03*
X149915000Y-95819000D03*
D12*
X152565000Y-93319000D03*
X152565000Y-95719000D03*
X152565000Y-90669000D03*
D13*
X150015000Y-91119000D03*
X150015000Y-97919000D03*
D12*
X152565000Y-98369000D03*
D14*
X117750000Y-66000000D03*
X117750000Y-64500000D03*
D15*
X108500000Y-75250000D03*
X107000000Y-75250000D03*
D14*
X117750000Y-60750000D03*
X117750000Y-59250000D03*
D16*
X108500000Y-70750000D03*
X107000000Y-70750000D03*
D17*
X108750000Y-73000000D03*
X106750000Y-73000000D03*
D18*
X112500000Y-58190000D03*
D19*
X149650000Y-109700000D03*
X149650000Y-105300000D03*
X149650000Y-108200000D03*
D20*
X152650000Y-111100000D03*
X150350000Y-111100000D03*
X150350000Y-103900000D03*
X152650000Y-103900000D03*
D21*
X117600000Y-90800000D03*
X115400000Y-90800000D03*
X117600000Y-89200000D03*
X115400000Y-89200000D03*
D22*
X145650000Y-103450000D03*
X145650000Y-102500000D03*
X145650000Y-101550000D03*
X147850000Y-101550000D03*
X147850000Y-103450000D03*
D10*
G36*
X112754757Y-97853464D02*
X113143666Y-97464555D01*
X114275037Y-98595926D01*
X113886128Y-98984835D01*
X112754757Y-97853464D01*
X112754757Y-97853464D01*
G37*
G36*
X113320443Y-97287779D02*
X113709352Y-96898870D01*
X114840723Y-98030241D01*
X114451814Y-98419150D01*
X113320443Y-97287779D01*
X113320443Y-97287779D01*
G37*
G36*
X113886128Y-96722093D02*
X114275037Y-96333184D01*
X115406408Y-97464555D01*
X115017499Y-97853464D01*
X113886128Y-96722093D01*
X113886128Y-96722093D01*
G37*
G36*
X114451813Y-96156408D02*
X114840722Y-95767499D01*
X115972093Y-96898870D01*
X115583184Y-97287779D01*
X114451813Y-96156408D01*
X114451813Y-96156408D01*
G37*
G36*
X115017499Y-95590722D02*
X115406408Y-95201813D01*
X116537779Y-96333184D01*
X116148870Y-96722093D01*
X115017499Y-95590722D01*
X115017499Y-95590722D01*
G37*
G36*
X115583184Y-95025037D02*
X115972093Y-94636128D01*
X117103464Y-95767499D01*
X116714555Y-96156408D01*
X115583184Y-95025037D01*
X115583184Y-95025037D01*
G37*
G36*
X116148870Y-94459352D02*
X116537779Y-94070443D01*
X117669150Y-95201814D01*
X117280241Y-95590723D01*
X116148870Y-94459352D01*
X116148870Y-94459352D01*
G37*
G36*
X116714555Y-93893666D02*
X117103464Y-93504757D01*
X118234835Y-94636128D01*
X117845926Y-95025037D01*
X116714555Y-93893666D01*
X116714555Y-93893666D01*
G37*
G36*
X119896536Y-93504757D02*
X120285445Y-93893666D01*
X119154074Y-95025037D01*
X118765165Y-94636128D01*
X119896536Y-93504757D01*
X119896536Y-93504757D01*
G37*
G36*
X120462221Y-94070443D02*
X120851130Y-94459352D01*
X119719759Y-95590723D01*
X119330850Y-95201814D01*
X120462221Y-94070443D01*
X120462221Y-94070443D01*
G37*
G36*
X121027907Y-94636128D02*
X121416816Y-95025037D01*
X120285445Y-96156408D01*
X119896536Y-95767499D01*
X121027907Y-94636128D01*
X121027907Y-94636128D01*
G37*
G36*
X121593592Y-95201813D02*
X121982501Y-95590722D01*
X120851130Y-96722093D01*
X120462221Y-96333184D01*
X121593592Y-95201813D01*
X121593592Y-95201813D01*
G37*
G36*
X122159278Y-95767499D02*
X122548187Y-96156408D01*
X121416816Y-97287779D01*
X121027907Y-96898870D01*
X122159278Y-95767499D01*
X122159278Y-95767499D01*
G37*
G36*
X122724963Y-96333184D02*
X123113872Y-96722093D01*
X121982501Y-97853464D01*
X121593592Y-97464555D01*
X122724963Y-96333184D01*
X122724963Y-96333184D01*
G37*
G36*
X123290648Y-96898870D02*
X123679557Y-97287779D01*
X122548186Y-98419150D01*
X122159277Y-98030241D01*
X123290648Y-96898870D01*
X123290648Y-96898870D01*
G37*
G36*
X123856334Y-97464555D02*
X124245243Y-97853464D01*
X123113872Y-98984835D01*
X122724963Y-98595926D01*
X123856334Y-97464555D01*
X123856334Y-97464555D01*
G37*
G36*
X122724963Y-99904074D02*
X123113872Y-99515165D01*
X124245243Y-100646536D01*
X123856334Y-101035445D01*
X122724963Y-99904074D01*
X122724963Y-99904074D01*
G37*
G36*
X122159277Y-100469759D02*
X122548186Y-100080850D01*
X123679557Y-101212221D01*
X123290648Y-101601130D01*
X122159277Y-100469759D01*
X122159277Y-100469759D01*
G37*
G36*
X121593592Y-101035445D02*
X121982501Y-100646536D01*
X123113872Y-101777907D01*
X122724963Y-102166816D01*
X121593592Y-101035445D01*
X121593592Y-101035445D01*
G37*
G36*
X121027907Y-101601130D02*
X121416816Y-101212221D01*
X122548187Y-102343592D01*
X122159278Y-102732501D01*
X121027907Y-101601130D01*
X121027907Y-101601130D01*
G37*
G36*
X120462221Y-102166816D02*
X120851130Y-101777907D01*
X121982501Y-102909278D01*
X121593592Y-103298187D01*
X120462221Y-102166816D01*
X120462221Y-102166816D01*
G37*
G36*
X119896536Y-102732501D02*
X120285445Y-102343592D01*
X121416816Y-103474963D01*
X121027907Y-103863872D01*
X119896536Y-102732501D01*
X119896536Y-102732501D01*
G37*
G36*
X119330850Y-103298186D02*
X119719759Y-102909277D01*
X120851130Y-104040648D01*
X120462221Y-104429557D01*
X119330850Y-103298186D01*
X119330850Y-103298186D01*
G37*
G36*
X118765165Y-103863872D02*
X119154074Y-103474963D01*
X120285445Y-104606334D01*
X119896536Y-104995243D01*
X118765165Y-103863872D01*
X118765165Y-103863872D01*
G37*
G36*
X117845926Y-103474963D02*
X118234835Y-103863872D01*
X117103464Y-104995243D01*
X116714555Y-104606334D01*
X117845926Y-103474963D01*
X117845926Y-103474963D01*
G37*
G36*
X117280241Y-102909277D02*
X117669150Y-103298186D01*
X116537779Y-104429557D01*
X116148870Y-104040648D01*
X117280241Y-102909277D01*
X117280241Y-102909277D01*
G37*
G36*
X116714555Y-102343592D02*
X117103464Y-102732501D01*
X115972093Y-103863872D01*
X115583184Y-103474963D01*
X116714555Y-102343592D01*
X116714555Y-102343592D01*
G37*
G36*
X116148870Y-101777907D02*
X116537779Y-102166816D01*
X115406408Y-103298187D01*
X115017499Y-102909278D01*
X116148870Y-101777907D01*
X116148870Y-101777907D01*
G37*
G36*
X115583184Y-101212221D02*
X115972093Y-101601130D01*
X114840722Y-102732501D01*
X114451813Y-102343592D01*
X115583184Y-101212221D01*
X115583184Y-101212221D01*
G37*
G36*
X115017499Y-100646536D02*
X115406408Y-101035445D01*
X114275037Y-102166816D01*
X113886128Y-101777907D01*
X115017499Y-100646536D01*
X115017499Y-100646536D01*
G37*
G36*
X114451814Y-100080850D02*
X114840723Y-100469759D01*
X113709352Y-101601130D01*
X113320443Y-101212221D01*
X114451814Y-100080850D01*
X114451814Y-100080850D01*
G37*
G36*
X113886128Y-99515165D02*
X114275037Y-99904074D01*
X113143666Y-101035445D01*
X112754757Y-100646536D01*
X113886128Y-99515165D01*
X113886128Y-99515165D01*
G37*
G36*
X113138909Y-102974695D02*
X113775305Y-103611091D01*
X113421751Y-103964645D01*
X112785355Y-103328249D01*
X113138909Y-102974695D01*
X113138909Y-102974695D01*
G37*
G36*
X112078249Y-104035355D02*
X112714645Y-104671751D01*
X112361091Y-105025305D01*
X111724695Y-104388909D01*
X112078249Y-104035355D01*
X112078249Y-104035355D01*
G37*
D14*
X120500000Y-64500000D03*
X120500000Y-66000000D03*
D15*
X147500000Y-89750000D03*
X146000000Y-89750000D03*
X138750000Y-63500000D03*
X137250000Y-63500000D03*
X147500000Y-97750000D03*
X146000000Y-97750000D03*
X147500000Y-95750000D03*
X146000000Y-95750000D03*
X147500000Y-93750000D03*
X146000000Y-93750000D03*
X113750000Y-82000000D03*
X115250000Y-82000000D03*
X118750000Y-82000000D03*
X120250000Y-82000000D03*
X125250000Y-82000000D03*
X123750000Y-82000000D03*
X130250000Y-82000000D03*
X128750000Y-82000000D03*
X135250000Y-82000000D03*
X133750000Y-82000000D03*
X140250000Y-82000000D03*
X138750000Y-82000000D03*
X145250000Y-82000000D03*
X143750000Y-82000000D03*
D23*
X120500000Y-61049020D03*
X120500000Y-58950980D03*
D24*
X147499300Y-91750000D03*
X146000700Y-91750000D03*
X112749300Y-79750000D03*
X111250700Y-79750000D03*
X112749300Y-77500000D03*
X111250700Y-77500000D03*
X112749300Y-75250000D03*
X111250700Y-75250000D03*
X112749300Y-73000000D03*
X111250700Y-73000000D03*
X112749300Y-70750000D03*
X111250700Y-70750000D03*
X117749300Y-79750000D03*
X116250700Y-79750000D03*
X117749300Y-77500000D03*
X116250700Y-77500000D03*
X117749300Y-75250000D03*
X116250700Y-75250000D03*
X117749300Y-73000000D03*
X116250700Y-73000000D03*
X117749300Y-70750000D03*
X116250700Y-70750000D03*
X122749300Y-79750000D03*
X121250700Y-79750000D03*
X122749300Y-77500000D03*
X121250700Y-77500000D03*
X122749300Y-75250000D03*
X121250700Y-75250000D03*
X122749300Y-73000000D03*
X121250700Y-73000000D03*
X122749300Y-70750000D03*
X121250700Y-70750000D03*
X127749300Y-79750000D03*
X126250700Y-79750000D03*
X127749300Y-77500000D03*
X126250700Y-77500000D03*
X127749300Y-75250000D03*
X126250700Y-75250000D03*
X127749300Y-73000000D03*
X126250700Y-73000000D03*
X127749300Y-70750000D03*
X126250700Y-70750000D03*
X132749300Y-79750000D03*
X131250700Y-79750000D03*
X132749300Y-77500000D03*
X131250700Y-77500000D03*
X132749300Y-75250000D03*
X131250700Y-75250000D03*
X132749300Y-73000000D03*
X131250700Y-73000000D03*
X132749300Y-70750000D03*
X131250700Y-70750000D03*
X137749300Y-79750000D03*
X136250700Y-79750000D03*
X137749300Y-77500000D03*
X136250700Y-77500000D03*
X137749300Y-75250000D03*
X136250700Y-75250000D03*
X137749300Y-73000000D03*
X136250700Y-73000000D03*
X137749300Y-70750000D03*
X136250700Y-70750000D03*
X142749300Y-79750000D03*
X141250700Y-79750000D03*
X142749300Y-77500000D03*
X141250700Y-77500000D03*
X142749300Y-75250000D03*
X141250700Y-75250000D03*
X142749300Y-73000000D03*
X141250700Y-73000000D03*
X142749300Y-70750000D03*
X141250700Y-70750000D03*
X147749300Y-79750000D03*
X146250700Y-79750000D03*
X147749300Y-77500000D03*
X146250700Y-77500000D03*
X147749300Y-75250000D03*
X146250700Y-75250000D03*
X147749300Y-73000000D03*
X146250700Y-73000000D03*
X147749300Y-70750000D03*
X146250700Y-70750000D03*
D16*
X147500000Y-105250000D03*
X146000000Y-105250000D03*
X146000000Y-99750000D03*
X147500000Y-99750000D03*
D10*
G36*
X124048008Y-102421662D02*
X124578338Y-102951992D01*
X124012652Y-103517678D01*
X123482322Y-102987348D01*
X124048008Y-102421662D01*
X124048008Y-102421662D01*
G37*
G36*
X122987348Y-103482322D02*
X123517678Y-104012652D01*
X122951992Y-104578338D01*
X122421662Y-104048008D01*
X122987348Y-103482322D01*
X122987348Y-103482322D01*
G37*
D25*
X113500000Y-89250000D03*
X113500000Y-90750000D03*
D10*
G36*
X114078338Y-95048008D02*
X113548008Y-95578338D01*
X112982322Y-95012652D01*
X113512652Y-94482322D01*
X114078338Y-95048008D01*
X114078338Y-95048008D01*
G37*
G36*
X113017678Y-93987348D02*
X112487348Y-94517678D01*
X111921662Y-93951992D01*
X112451992Y-93421662D01*
X113017678Y-93987348D01*
X113017678Y-93987348D01*
G37*
D25*
X119500000Y-90750000D03*
X119500000Y-89250000D03*
X118500000Y-107750000D03*
X118500000Y-109250000D03*
X67500000Y-107750000D03*
X67500000Y-109250000D03*
X68500000Y-90750000D03*
X68500000Y-89250000D03*
D10*
G36*
X63078338Y-95048008D02*
X62548008Y-95578338D01*
X61982322Y-95012652D01*
X62512652Y-94482322D01*
X63078338Y-95048008D01*
X63078338Y-95048008D01*
G37*
G36*
X62017678Y-93987348D02*
X61487348Y-94517678D01*
X60921662Y-93951992D01*
X61451992Y-93421662D01*
X62017678Y-93987348D01*
X62017678Y-93987348D01*
G37*
D25*
X62500000Y-89250000D03*
X62500000Y-90750000D03*
D10*
G36*
X73048008Y-102421662D02*
X73578338Y-102951992D01*
X73012652Y-103517678D01*
X72482322Y-102987348D01*
X73048008Y-102421662D01*
X73048008Y-102421662D01*
G37*
G36*
X71987348Y-103482322D02*
X72517678Y-104012652D01*
X71951992Y-104578338D01*
X71421662Y-104048008D01*
X71987348Y-103482322D01*
X71987348Y-103482322D01*
G37*
D16*
X95000000Y-99750000D03*
X96500000Y-99750000D03*
X96500000Y-105250000D03*
X95000000Y-105250000D03*
D24*
X96749300Y-70750000D03*
X95250700Y-70750000D03*
X96749300Y-73000000D03*
X95250700Y-73000000D03*
X96749300Y-75250000D03*
X95250700Y-75250000D03*
X96749300Y-77500000D03*
X95250700Y-77500000D03*
X96749300Y-79750000D03*
X95250700Y-79750000D03*
X91749300Y-70750000D03*
X90250700Y-70750000D03*
X91749300Y-73000000D03*
X90250700Y-73000000D03*
X91749300Y-75250000D03*
X90250700Y-75250000D03*
X91749300Y-77500000D03*
X90250700Y-77500000D03*
X91749300Y-79750000D03*
X90250700Y-79750000D03*
X86749300Y-70750000D03*
X85250700Y-70750000D03*
X86749300Y-73000000D03*
X85250700Y-73000000D03*
X86749300Y-75250000D03*
X85250700Y-75250000D03*
X86749300Y-77500000D03*
X85250700Y-77500000D03*
X86749300Y-79750000D03*
X85250700Y-79750000D03*
X81749300Y-70750000D03*
X80250700Y-70750000D03*
X81749300Y-73000000D03*
X80250700Y-73000000D03*
X81749300Y-75250000D03*
X80250700Y-75250000D03*
X81749300Y-77500000D03*
X80250700Y-77500000D03*
X81749300Y-79750000D03*
X80250700Y-79750000D03*
X76749300Y-70750000D03*
X75250700Y-70750000D03*
X76749300Y-73000000D03*
X75250700Y-73000000D03*
X76749300Y-75250000D03*
X75250700Y-75250000D03*
X76749300Y-77500000D03*
X75250700Y-77500000D03*
X76749300Y-79750000D03*
X75250700Y-79750000D03*
X71749300Y-70750000D03*
X70250700Y-70750000D03*
X71749300Y-73000000D03*
X70250700Y-73000000D03*
X71749300Y-75250000D03*
X70250700Y-75250000D03*
X71749300Y-77500000D03*
X70250700Y-77500000D03*
X71749300Y-79750000D03*
X70250700Y-79750000D03*
X66749300Y-70750000D03*
X65250700Y-70750000D03*
X66749300Y-73000000D03*
X65250700Y-73000000D03*
X66749300Y-75250000D03*
X65250700Y-75250000D03*
X66749300Y-77500000D03*
X65250700Y-77500000D03*
X66749300Y-79750000D03*
X65250700Y-79750000D03*
X61749300Y-70750000D03*
X60250700Y-70750000D03*
X61749300Y-73000000D03*
X60250700Y-73000000D03*
X61749300Y-75250000D03*
X60250700Y-75250000D03*
X61749300Y-77500000D03*
X60250700Y-77500000D03*
X61749300Y-79750000D03*
X60250700Y-79750000D03*
X96499300Y-91750000D03*
X95000700Y-91750000D03*
D23*
X69500000Y-61049020D03*
X69500000Y-58950980D03*
D15*
X94250000Y-82000000D03*
X92750000Y-82000000D03*
X89250000Y-82000000D03*
X87750000Y-82000000D03*
X84250000Y-82000000D03*
X82750000Y-82000000D03*
X79250000Y-82000000D03*
X77750000Y-82000000D03*
X74250000Y-82000000D03*
X72750000Y-82000000D03*
X67750000Y-82000000D03*
X69250000Y-82000000D03*
X62750000Y-82000000D03*
X64250000Y-82000000D03*
X96500000Y-93750000D03*
X95000000Y-93750000D03*
X96500000Y-95750000D03*
X95000000Y-95750000D03*
X96500000Y-97750000D03*
X95000000Y-97750000D03*
X87750000Y-63500000D03*
X86250000Y-63500000D03*
X96500000Y-89750000D03*
X95000000Y-89750000D03*
D14*
X69500000Y-64500000D03*
X69500000Y-66000000D03*
D10*
G36*
X62138909Y-102974695D02*
X62775305Y-103611091D01*
X62421751Y-103964645D01*
X61785355Y-103328249D01*
X62138909Y-102974695D01*
X62138909Y-102974695D01*
G37*
G36*
X61078249Y-104035355D02*
X61714645Y-104671751D01*
X61361091Y-105025305D01*
X60724695Y-104388909D01*
X61078249Y-104035355D01*
X61078249Y-104035355D01*
G37*
G36*
X61754757Y-97853464D02*
X62143666Y-97464555D01*
X63275037Y-98595926D01*
X62886128Y-98984835D01*
X61754757Y-97853464D01*
X61754757Y-97853464D01*
G37*
G36*
X62320443Y-97287779D02*
X62709352Y-96898870D01*
X63840723Y-98030241D01*
X63451814Y-98419150D01*
X62320443Y-97287779D01*
X62320443Y-97287779D01*
G37*
G36*
X62886128Y-96722093D02*
X63275037Y-96333184D01*
X64406408Y-97464555D01*
X64017499Y-97853464D01*
X62886128Y-96722093D01*
X62886128Y-96722093D01*
G37*
G36*
X63451813Y-96156408D02*
X63840722Y-95767499D01*
X64972093Y-96898870D01*
X64583184Y-97287779D01*
X63451813Y-96156408D01*
X63451813Y-96156408D01*
G37*
G36*
X64017499Y-95590722D02*
X64406408Y-95201813D01*
X65537779Y-96333184D01*
X65148870Y-96722093D01*
X64017499Y-95590722D01*
X64017499Y-95590722D01*
G37*
G36*
X64583184Y-95025037D02*
X64972093Y-94636128D01*
X66103464Y-95767499D01*
X65714555Y-96156408D01*
X64583184Y-95025037D01*
X64583184Y-95025037D01*
G37*
G36*
X65148870Y-94459352D02*
X65537779Y-94070443D01*
X66669150Y-95201814D01*
X66280241Y-95590723D01*
X65148870Y-94459352D01*
X65148870Y-94459352D01*
G37*
G36*
X65714555Y-93893666D02*
X66103464Y-93504757D01*
X67234835Y-94636128D01*
X66845926Y-95025037D01*
X65714555Y-93893666D01*
X65714555Y-93893666D01*
G37*
G36*
X68896536Y-93504757D02*
X69285445Y-93893666D01*
X68154074Y-95025037D01*
X67765165Y-94636128D01*
X68896536Y-93504757D01*
X68896536Y-93504757D01*
G37*
G36*
X69462221Y-94070443D02*
X69851130Y-94459352D01*
X68719759Y-95590723D01*
X68330850Y-95201814D01*
X69462221Y-94070443D01*
X69462221Y-94070443D01*
G37*
G36*
X70027907Y-94636128D02*
X70416816Y-95025037D01*
X69285445Y-96156408D01*
X68896536Y-95767499D01*
X70027907Y-94636128D01*
X70027907Y-94636128D01*
G37*
G36*
X70593592Y-95201813D02*
X70982501Y-95590722D01*
X69851130Y-96722093D01*
X69462221Y-96333184D01*
X70593592Y-95201813D01*
X70593592Y-95201813D01*
G37*
G36*
X71159278Y-95767499D02*
X71548187Y-96156408D01*
X70416816Y-97287779D01*
X70027907Y-96898870D01*
X71159278Y-95767499D01*
X71159278Y-95767499D01*
G37*
G36*
X71724963Y-96333184D02*
X72113872Y-96722093D01*
X70982501Y-97853464D01*
X70593592Y-97464555D01*
X71724963Y-96333184D01*
X71724963Y-96333184D01*
G37*
G36*
X72290648Y-96898870D02*
X72679557Y-97287779D01*
X71548186Y-98419150D01*
X71159277Y-98030241D01*
X72290648Y-96898870D01*
X72290648Y-96898870D01*
G37*
G36*
X72856334Y-97464555D02*
X73245243Y-97853464D01*
X72113872Y-98984835D01*
X71724963Y-98595926D01*
X72856334Y-97464555D01*
X72856334Y-97464555D01*
G37*
G36*
X71724963Y-99904074D02*
X72113872Y-99515165D01*
X73245243Y-100646536D01*
X72856334Y-101035445D01*
X71724963Y-99904074D01*
X71724963Y-99904074D01*
G37*
G36*
X71159277Y-100469759D02*
X71548186Y-100080850D01*
X72679557Y-101212221D01*
X72290648Y-101601130D01*
X71159277Y-100469759D01*
X71159277Y-100469759D01*
G37*
G36*
X70593592Y-101035445D02*
X70982501Y-100646536D01*
X72113872Y-101777907D01*
X71724963Y-102166816D01*
X70593592Y-101035445D01*
X70593592Y-101035445D01*
G37*
G36*
X70027907Y-101601130D02*
X70416816Y-101212221D01*
X71548187Y-102343592D01*
X71159278Y-102732501D01*
X70027907Y-101601130D01*
X70027907Y-101601130D01*
G37*
G36*
X69462221Y-102166816D02*
X69851130Y-101777907D01*
X70982501Y-102909278D01*
X70593592Y-103298187D01*
X69462221Y-102166816D01*
X69462221Y-102166816D01*
G37*
G36*
X68896536Y-102732501D02*
X69285445Y-102343592D01*
X70416816Y-103474963D01*
X70027907Y-103863872D01*
X68896536Y-102732501D01*
X68896536Y-102732501D01*
G37*
G36*
X68330850Y-103298186D02*
X68719759Y-102909277D01*
X69851130Y-104040648D01*
X69462221Y-104429557D01*
X68330850Y-103298186D01*
X68330850Y-103298186D01*
G37*
G36*
X67765165Y-103863872D02*
X68154074Y-103474963D01*
X69285445Y-104606334D01*
X68896536Y-104995243D01*
X67765165Y-103863872D01*
X67765165Y-103863872D01*
G37*
G36*
X66845926Y-103474963D02*
X67234835Y-103863872D01*
X66103464Y-104995243D01*
X65714555Y-104606334D01*
X66845926Y-103474963D01*
X66845926Y-103474963D01*
G37*
G36*
X66280241Y-102909277D02*
X66669150Y-103298186D01*
X65537779Y-104429557D01*
X65148870Y-104040648D01*
X66280241Y-102909277D01*
X66280241Y-102909277D01*
G37*
G36*
X65714555Y-102343592D02*
X66103464Y-102732501D01*
X64972093Y-103863872D01*
X64583184Y-103474963D01*
X65714555Y-102343592D01*
X65714555Y-102343592D01*
G37*
G36*
X65148870Y-101777907D02*
X65537779Y-102166816D01*
X64406408Y-103298187D01*
X64017499Y-102909278D01*
X65148870Y-101777907D01*
X65148870Y-101777907D01*
G37*
G36*
X64583184Y-101212221D02*
X64972093Y-101601130D01*
X63840722Y-102732501D01*
X63451813Y-102343592D01*
X64583184Y-101212221D01*
X64583184Y-101212221D01*
G37*
G36*
X64017499Y-100646536D02*
X64406408Y-101035445D01*
X63275037Y-102166816D01*
X62886128Y-101777907D01*
X64017499Y-100646536D01*
X64017499Y-100646536D01*
G37*
G36*
X63451814Y-100080850D02*
X63840723Y-100469759D01*
X62709352Y-101601130D01*
X62320443Y-101212221D01*
X63451814Y-100080850D01*
X63451814Y-100080850D01*
G37*
G36*
X62886128Y-99515165D02*
X63275037Y-99904074D01*
X62143666Y-101035445D01*
X61754757Y-100646536D01*
X62886128Y-99515165D01*
X62886128Y-99515165D01*
G37*
D22*
X94650000Y-103450000D03*
X94650000Y-102500000D03*
X94650000Y-101550000D03*
X96850000Y-101550000D03*
X96850000Y-103450000D03*
D21*
X66600000Y-90800000D03*
X64400000Y-90800000D03*
X66600000Y-89200000D03*
X64400000Y-89200000D03*
D19*
X98650000Y-109700000D03*
X98650000Y-105300000D03*
X98650000Y-108200000D03*
D20*
X101650000Y-111100000D03*
X99350000Y-111100000D03*
X99350000Y-103900000D03*
X101650000Y-103900000D03*
D18*
X61500000Y-58190000D03*
D17*
X57750000Y-73000000D03*
X55750000Y-73000000D03*
D16*
X57500000Y-70750000D03*
X56000000Y-70750000D03*
D14*
X66750000Y-60750000D03*
X66750000Y-59250000D03*
D15*
X57500000Y-75250000D03*
X56000000Y-75250000D03*
D14*
X66750000Y-66000000D03*
X66750000Y-64500000D03*
D11*
X98915000Y-93219000D03*
X98915000Y-93869000D03*
X98915000Y-94519000D03*
X98915000Y-95169000D03*
X98915000Y-95819000D03*
D12*
X101565000Y-93319000D03*
X101565000Y-95719000D03*
X101565000Y-90669000D03*
D13*
X99015000Y-91119000D03*
X99015000Y-97919000D03*
D12*
X101565000Y-98369000D03*
M02*
