G04 #@! TF.FileFunction,Legend,Bot*
%FSLAX46Y46*%
G04 Gerber Fmt 4.6, Leading zero omitted, Abs format (unit mm)*
G04 Created by KiCad (PCBNEW 4.0.7) date 09/06/18 20:26:10*
%MOMM*%
%LPD*%
G01*
G04 APERTURE LIST*
%ADD10C,0.100000*%
%ADD11C,0.150000*%
%ADD12C,0.300000*%
%ADD13C,0.010000*%
%ADD14C,0.120000*%
%ADD15R,2.027200X2.332000*%
%ADD16O,2.027200X2.332000*%
%ADD17R,2.027200X2.027200*%
%ADD18O,2.027200X2.027200*%
%ADD19C,2.300000*%
%ADD20C,1.000000*%
%ADD21R,6.300000X3.800000*%
%ADD22C,20.000000*%
%ADD23C,8.300000*%
%ADD24C,1.824000*%
%ADD25C,0.850000*%
%ADD26R,0.900000X1.100000*%
%ADD27R,1.100000X0.900000*%
%ADD28R,2.332000X2.027200*%
%ADD29O,2.332000X2.027200*%
%ADD30R,2.000000X2.000000*%
%ADD31O,2.000000X2.000000*%
%ADD32R,0.800000X1.200000*%
G04 APERTURE END LIST*
D10*
D11*
X82778571Y-96678570D02*
X82778571Y-97011904D01*
X83302381Y-97154761D02*
X83302381Y-96678570D01*
X82302381Y-96678570D01*
X82302381Y-97154761D01*
X83302381Y-97583332D02*
X82635714Y-97583332D01*
X82730952Y-97583332D02*
X82683333Y-97630951D01*
X82635714Y-97726189D01*
X82635714Y-97869047D01*
X82683333Y-97964285D01*
X82778571Y-98011904D01*
X83302381Y-98011904D01*
X82778571Y-98011904D02*
X82683333Y-98059523D01*
X82635714Y-98154761D01*
X82635714Y-98297618D01*
X82683333Y-98392856D01*
X82778571Y-98440475D01*
X83302381Y-98440475D01*
X83254762Y-99297618D02*
X83302381Y-99202380D01*
X83302381Y-99011903D01*
X83254762Y-98916665D01*
X83159524Y-98869046D01*
X82778571Y-98869046D01*
X82683333Y-98916665D01*
X82635714Y-99011903D01*
X82635714Y-99202380D01*
X82683333Y-99297618D01*
X82778571Y-99345237D01*
X82873810Y-99345237D01*
X82969048Y-98869046D01*
X83302381Y-99773808D02*
X82635714Y-99773808D01*
X82826190Y-99773808D02*
X82730952Y-99821427D01*
X82683333Y-99869046D01*
X82635714Y-99964284D01*
X82635714Y-100059523D01*
X82635714Y-100821428D02*
X83445238Y-100821428D01*
X83540476Y-100773809D01*
X83588095Y-100726190D01*
X83635714Y-100630951D01*
X83635714Y-100488094D01*
X83588095Y-100392856D01*
X83254762Y-100821428D02*
X83302381Y-100726190D01*
X83302381Y-100535713D01*
X83254762Y-100440475D01*
X83207143Y-100392856D01*
X83111905Y-100345237D01*
X82826190Y-100345237D01*
X82730952Y-100392856D01*
X82683333Y-100440475D01*
X82635714Y-100535713D01*
X82635714Y-100726190D01*
X82683333Y-100821428D01*
X83254762Y-101678571D02*
X83302381Y-101583333D01*
X83302381Y-101392856D01*
X83254762Y-101297618D01*
X83159524Y-101249999D01*
X82778571Y-101249999D01*
X82683333Y-101297618D01*
X82635714Y-101392856D01*
X82635714Y-101583333D01*
X82683333Y-101678571D01*
X82778571Y-101726190D01*
X82873810Y-101726190D01*
X82969048Y-101249999D01*
X82635714Y-102154761D02*
X83302381Y-102154761D01*
X82730952Y-102154761D02*
X82683333Y-102202380D01*
X82635714Y-102297618D01*
X82635714Y-102440476D01*
X82683333Y-102535714D01*
X82778571Y-102583333D01*
X83302381Y-102583333D01*
X83254762Y-103488095D02*
X83302381Y-103392857D01*
X83302381Y-103202380D01*
X83254762Y-103107142D01*
X83207143Y-103059523D01*
X83111905Y-103011904D01*
X82826190Y-103011904D01*
X82730952Y-103059523D01*
X82683333Y-103107142D01*
X82635714Y-103202380D01*
X82635714Y-103392857D01*
X82683333Y-103488095D01*
X82635714Y-103821428D02*
X83302381Y-104059523D01*
X82635714Y-104297619D02*
X83302381Y-104059523D01*
X83540476Y-103964285D01*
X83588095Y-103916666D01*
X83635714Y-103821428D01*
X83302381Y-106011905D02*
X82826190Y-105678571D01*
X83302381Y-105440476D02*
X82302381Y-105440476D01*
X82302381Y-105821429D01*
X82350000Y-105916667D01*
X82397619Y-105964286D01*
X82492857Y-106011905D01*
X82635714Y-106011905D01*
X82730952Y-105964286D01*
X82778571Y-105916667D01*
X82826190Y-105821429D01*
X82826190Y-105440476D01*
X83254762Y-106821429D02*
X83302381Y-106726191D01*
X83302381Y-106535714D01*
X83254762Y-106440476D01*
X83159524Y-106392857D01*
X82778571Y-106392857D01*
X82683333Y-106440476D01*
X82635714Y-106535714D01*
X82635714Y-106726191D01*
X82683333Y-106821429D01*
X82778571Y-106869048D01*
X82873810Y-106869048D01*
X82969048Y-106392857D01*
X83254762Y-107250000D02*
X83302381Y-107345238D01*
X83302381Y-107535714D01*
X83254762Y-107630953D01*
X83159524Y-107678572D01*
X83111905Y-107678572D01*
X83016667Y-107630953D01*
X82969048Y-107535714D01*
X82969048Y-107392857D01*
X82921429Y-107297619D01*
X82826190Y-107250000D01*
X82778571Y-107250000D01*
X82683333Y-107297619D01*
X82635714Y-107392857D01*
X82635714Y-107535714D01*
X82683333Y-107630953D01*
X83302381Y-108107143D02*
X82635714Y-108107143D01*
X82302381Y-108107143D02*
X82350000Y-108059524D01*
X82397619Y-108107143D01*
X82350000Y-108154762D01*
X82302381Y-108107143D01*
X82397619Y-108107143D01*
X83254762Y-108535714D02*
X83302381Y-108630952D01*
X83302381Y-108821428D01*
X83254762Y-108916667D01*
X83159524Y-108964286D01*
X83111905Y-108964286D01*
X83016667Y-108916667D01*
X82969048Y-108821428D01*
X82969048Y-108678571D01*
X82921429Y-108583333D01*
X82826190Y-108535714D01*
X82778571Y-108535714D01*
X82683333Y-108583333D01*
X82635714Y-108678571D01*
X82635714Y-108821428D01*
X82683333Y-108916667D01*
X82635714Y-109250000D02*
X82635714Y-109630952D01*
X82302381Y-109392857D02*
X83159524Y-109392857D01*
X83254762Y-109440476D01*
X83302381Y-109535714D01*
X83302381Y-109630952D01*
X83302381Y-110107143D02*
X83254762Y-110011905D01*
X83207143Y-109964286D01*
X83111905Y-109916667D01*
X82826190Y-109916667D01*
X82730952Y-109964286D01*
X82683333Y-110011905D01*
X82635714Y-110107143D01*
X82635714Y-110250001D01*
X82683333Y-110345239D01*
X82730952Y-110392858D01*
X82826190Y-110440477D01*
X83111905Y-110440477D01*
X83207143Y-110392858D01*
X83254762Y-110345239D01*
X83302381Y-110250001D01*
X83302381Y-110107143D01*
X83302381Y-110869048D02*
X82635714Y-110869048D01*
X82826190Y-110869048D02*
X82730952Y-110916667D01*
X82683333Y-110964286D01*
X82635714Y-111059524D01*
X82635714Y-111154763D01*
X83254762Y-111440477D02*
X83302381Y-111535715D01*
X83302381Y-111726191D01*
X83254762Y-111821430D01*
X83159524Y-111869049D01*
X83111905Y-111869049D01*
X83016667Y-111821430D01*
X82969048Y-111726191D01*
X82969048Y-111583334D01*
X82921429Y-111488096D01*
X82826190Y-111440477D01*
X82778571Y-111440477D01*
X82683333Y-111488096D01*
X82635714Y-111583334D01*
X82635714Y-111726191D01*
X82683333Y-111821430D01*
X83952381Y-96916665D02*
X84761905Y-96916665D01*
X84857143Y-96964284D01*
X84904762Y-97011903D01*
X84952381Y-97107141D01*
X84952381Y-97297618D01*
X84904762Y-97392856D01*
X84857143Y-97440475D01*
X84761905Y-97488094D01*
X83952381Y-97488094D01*
X84904762Y-97916665D02*
X84952381Y-98011903D01*
X84952381Y-98202379D01*
X84904762Y-98297618D01*
X84809524Y-98345237D01*
X84761905Y-98345237D01*
X84666667Y-98297618D01*
X84619048Y-98202379D01*
X84619048Y-98059522D01*
X84571429Y-97964284D01*
X84476190Y-97916665D01*
X84428571Y-97916665D01*
X84333333Y-97964284D01*
X84285714Y-98059522D01*
X84285714Y-98202379D01*
X84333333Y-98297618D01*
X84904762Y-99154761D02*
X84952381Y-99059523D01*
X84952381Y-98869046D01*
X84904762Y-98773808D01*
X84809524Y-98726189D01*
X84428571Y-98726189D01*
X84333333Y-98773808D01*
X84285714Y-98869046D01*
X84285714Y-99059523D01*
X84333333Y-99154761D01*
X84428571Y-99202380D01*
X84523810Y-99202380D01*
X84619048Y-98726189D01*
X84952381Y-100535713D02*
X84904762Y-100440475D01*
X84857143Y-100392856D01*
X84761905Y-100345237D01*
X84476190Y-100345237D01*
X84380952Y-100392856D01*
X84333333Y-100440475D01*
X84285714Y-100535713D01*
X84285714Y-100678571D01*
X84333333Y-100773809D01*
X84380952Y-100821428D01*
X84476190Y-100869047D01*
X84761905Y-100869047D01*
X84857143Y-100821428D01*
X84904762Y-100773809D01*
X84952381Y-100678571D01*
X84952381Y-100535713D01*
X84285714Y-101297618D02*
X84952381Y-101297618D01*
X84380952Y-101297618D02*
X84333333Y-101345237D01*
X84285714Y-101440475D01*
X84285714Y-101583333D01*
X84333333Y-101678571D01*
X84428571Y-101726190D01*
X84952381Y-101726190D01*
X84952381Y-102345237D02*
X84904762Y-102249999D01*
X84809524Y-102202380D01*
X83952381Y-102202380D01*
X84285714Y-102630952D02*
X84952381Y-102869047D01*
X84285714Y-103107143D02*
X84952381Y-102869047D01*
X85190476Y-102773809D01*
X85238095Y-102726190D01*
X85285714Y-102630952D01*
X84952381Y-104250000D02*
X84285714Y-104250000D01*
X83952381Y-104250000D02*
X84000000Y-104202381D01*
X84047619Y-104250000D01*
X84000000Y-104297619D01*
X83952381Y-104250000D01*
X84047619Y-104250000D01*
X84285714Y-104726190D02*
X84952381Y-104726190D01*
X84380952Y-104726190D02*
X84333333Y-104773809D01*
X84285714Y-104869047D01*
X84285714Y-105011905D01*
X84333333Y-105107143D01*
X84428571Y-105154762D01*
X84952381Y-105154762D01*
X84904762Y-106821429D02*
X84952381Y-106726191D01*
X84952381Y-106535714D01*
X84904762Y-106440476D01*
X84857143Y-106392857D01*
X84761905Y-106345238D01*
X84476190Y-106345238D01*
X84380952Y-106392857D01*
X84333333Y-106440476D01*
X84285714Y-106535714D01*
X84285714Y-106726191D01*
X84333333Y-106821429D01*
X84952381Y-107678572D02*
X84428571Y-107678572D01*
X84333333Y-107630953D01*
X84285714Y-107535715D01*
X84285714Y-107345238D01*
X84333333Y-107250000D01*
X84904762Y-107678572D02*
X84952381Y-107583334D01*
X84952381Y-107345238D01*
X84904762Y-107250000D01*
X84809524Y-107202381D01*
X84714286Y-107202381D01*
X84619048Y-107250000D01*
X84571429Y-107345238D01*
X84571429Y-107583334D01*
X84523810Y-107678572D01*
X84904762Y-108107143D02*
X84952381Y-108202381D01*
X84952381Y-108392857D01*
X84904762Y-108488096D01*
X84809524Y-108535715D01*
X84761905Y-108535715D01*
X84666667Y-108488096D01*
X84619048Y-108392857D01*
X84619048Y-108250000D01*
X84571429Y-108154762D01*
X84476190Y-108107143D01*
X84428571Y-108107143D01*
X84333333Y-108154762D01*
X84285714Y-108250000D01*
X84285714Y-108392857D01*
X84333333Y-108488096D01*
X84904762Y-109345239D02*
X84952381Y-109250001D01*
X84952381Y-109059524D01*
X84904762Y-108964286D01*
X84809524Y-108916667D01*
X84428571Y-108916667D01*
X84333333Y-108964286D01*
X84285714Y-109059524D01*
X84285714Y-109250001D01*
X84333333Y-109345239D01*
X84428571Y-109392858D01*
X84523810Y-109392858D01*
X84619048Y-108916667D01*
X84952381Y-110726191D02*
X84904762Y-110630953D01*
X84857143Y-110583334D01*
X84761905Y-110535715D01*
X84476190Y-110535715D01*
X84380952Y-110583334D01*
X84333333Y-110630953D01*
X84285714Y-110726191D01*
X84285714Y-110869049D01*
X84333333Y-110964287D01*
X84380952Y-111011906D01*
X84476190Y-111059525D01*
X84761905Y-111059525D01*
X84857143Y-111011906D01*
X84904762Y-110964287D01*
X84952381Y-110869049D01*
X84952381Y-110726191D01*
X84285714Y-111345239D02*
X84285714Y-111726191D01*
X84952381Y-111488096D02*
X84095238Y-111488096D01*
X84000000Y-111535715D01*
X83952381Y-111630953D01*
X83952381Y-111726191D01*
X86554762Y-97988094D02*
X86602381Y-98083332D01*
X86602381Y-98273808D01*
X86554762Y-98369047D01*
X86459524Y-98416666D01*
X86411905Y-98416666D01*
X86316667Y-98369047D01*
X86269048Y-98273808D01*
X86269048Y-98130951D01*
X86221429Y-98035713D01*
X86126190Y-97988094D01*
X86078571Y-97988094D01*
X85983333Y-98035713D01*
X85935714Y-98130951D01*
X85935714Y-98273808D01*
X85983333Y-98369047D01*
X86554762Y-99273809D02*
X86602381Y-99178571D01*
X86602381Y-98988094D01*
X86554762Y-98892856D01*
X86507143Y-98845237D01*
X86411905Y-98797618D01*
X86126190Y-98797618D01*
X86030952Y-98845237D01*
X85983333Y-98892856D01*
X85935714Y-98988094D01*
X85935714Y-99178571D01*
X85983333Y-99273809D01*
X86602381Y-99702380D02*
X85602381Y-99702380D01*
X86602381Y-100130952D02*
X86078571Y-100130952D01*
X85983333Y-100083333D01*
X85935714Y-99988095D01*
X85935714Y-99845237D01*
X85983333Y-99749999D01*
X86030952Y-99702380D01*
X86554762Y-100988095D02*
X86602381Y-100892857D01*
X86602381Y-100702380D01*
X86554762Y-100607142D01*
X86459524Y-100559523D01*
X86078571Y-100559523D01*
X85983333Y-100607142D01*
X85935714Y-100702380D01*
X85935714Y-100892857D01*
X85983333Y-100988095D01*
X86078571Y-101035714D01*
X86173810Y-101035714D01*
X86269048Y-100559523D01*
X86602381Y-101892857D02*
X85602381Y-101892857D01*
X86554762Y-101892857D02*
X86602381Y-101797619D01*
X86602381Y-101607142D01*
X86554762Y-101511904D01*
X86507143Y-101464285D01*
X86411905Y-101416666D01*
X86126190Y-101416666D01*
X86030952Y-101464285D01*
X85983333Y-101511904D01*
X85935714Y-101607142D01*
X85935714Y-101797619D01*
X85983333Y-101892857D01*
X85935714Y-102797619D02*
X86602381Y-102797619D01*
X85935714Y-102369047D02*
X86459524Y-102369047D01*
X86554762Y-102416666D01*
X86602381Y-102511904D01*
X86602381Y-102654762D01*
X86554762Y-102750000D01*
X86507143Y-102797619D01*
X86602381Y-103416666D02*
X86554762Y-103321428D01*
X86459524Y-103273809D01*
X85602381Y-103273809D01*
X86602381Y-103797619D02*
X85935714Y-103797619D01*
X85602381Y-103797619D02*
X85650000Y-103750000D01*
X85697619Y-103797619D01*
X85650000Y-103845238D01*
X85602381Y-103797619D01*
X85697619Y-103797619D01*
X85935714Y-104273809D02*
X86602381Y-104273809D01*
X86030952Y-104273809D02*
X85983333Y-104321428D01*
X85935714Y-104416666D01*
X85935714Y-104559524D01*
X85983333Y-104654762D01*
X86078571Y-104702381D01*
X86602381Y-104702381D01*
X85935714Y-105607143D02*
X86745238Y-105607143D01*
X86840476Y-105559524D01*
X86888095Y-105511905D01*
X86935714Y-105416666D01*
X86935714Y-105273809D01*
X86888095Y-105178571D01*
X86554762Y-105607143D02*
X86602381Y-105511905D01*
X86602381Y-105321428D01*
X86554762Y-105226190D01*
X86507143Y-105178571D01*
X86411905Y-105130952D01*
X86126190Y-105130952D01*
X86030952Y-105178571D01*
X85983333Y-105226190D01*
X85935714Y-105321428D01*
X85935714Y-105511905D01*
X85983333Y-105607143D01*
X86554762Y-106797619D02*
X86602381Y-106892857D01*
X86602381Y-107083333D01*
X86554762Y-107178572D01*
X86459524Y-107226191D01*
X86411905Y-107226191D01*
X86316667Y-107178572D01*
X86269048Y-107083333D01*
X86269048Y-106940476D01*
X86221429Y-106845238D01*
X86126190Y-106797619D01*
X86078571Y-106797619D01*
X85983333Y-106845238D01*
X85935714Y-106940476D01*
X85935714Y-107083333D01*
X85983333Y-107178572D01*
X85935714Y-107654762D02*
X86602381Y-107654762D01*
X86030952Y-107654762D02*
X85983333Y-107702381D01*
X85935714Y-107797619D01*
X85935714Y-107940477D01*
X85983333Y-108035715D01*
X86078571Y-108083334D01*
X86602381Y-108083334D01*
X86602381Y-108988096D02*
X86078571Y-108988096D01*
X85983333Y-108940477D01*
X85935714Y-108845239D01*
X85935714Y-108654762D01*
X85983333Y-108559524D01*
X86554762Y-108988096D02*
X86602381Y-108892858D01*
X86602381Y-108654762D01*
X86554762Y-108559524D01*
X86459524Y-108511905D01*
X86364286Y-108511905D01*
X86269048Y-108559524D01*
X86221429Y-108654762D01*
X86221429Y-108892858D01*
X86173810Y-108988096D01*
X85935714Y-109321429D02*
X85935714Y-109702381D01*
X86602381Y-109464286D02*
X85745238Y-109464286D01*
X85650000Y-109511905D01*
X85602381Y-109607143D01*
X85602381Y-109702381D01*
X85935714Y-110464287D02*
X86602381Y-110464287D01*
X85935714Y-110035715D02*
X86459524Y-110035715D01*
X86554762Y-110083334D01*
X86602381Y-110178572D01*
X86602381Y-110321430D01*
X86554762Y-110416668D01*
X86507143Y-110464287D01*
D12*
X87250000Y-131535714D02*
X87321429Y-131607143D01*
X87535715Y-131678571D01*
X87678572Y-131678571D01*
X87892857Y-131607143D01*
X88035715Y-131464286D01*
X88107143Y-131321429D01*
X88178572Y-131035714D01*
X88178572Y-130821429D01*
X88107143Y-130535714D01*
X88035715Y-130392857D01*
X87892857Y-130250000D01*
X87678572Y-130178571D01*
X87535715Y-130178571D01*
X87321429Y-130250000D01*
X87250000Y-130321429D01*
X86392857Y-131678571D02*
X86535715Y-131607143D01*
X86607143Y-131535714D01*
X86678572Y-131392857D01*
X86678572Y-130964286D01*
X86607143Y-130821429D01*
X86535715Y-130750000D01*
X86392857Y-130678571D01*
X86178572Y-130678571D01*
X86035715Y-130750000D01*
X85964286Y-130821429D01*
X85892857Y-130964286D01*
X85892857Y-131392857D01*
X85964286Y-131535714D01*
X86035715Y-131607143D01*
X86178572Y-131678571D01*
X86392857Y-131678571D01*
X85250000Y-131678571D02*
X85250000Y-130678571D01*
X85250000Y-130821429D02*
X85178572Y-130750000D01*
X85035714Y-130678571D01*
X84821429Y-130678571D01*
X84678572Y-130750000D01*
X84607143Y-130892857D01*
X84607143Y-131678571D01*
X84607143Y-130892857D02*
X84535714Y-130750000D01*
X84392857Y-130678571D01*
X84178572Y-130678571D01*
X84035714Y-130750000D01*
X83964286Y-130892857D01*
X83964286Y-131678571D01*
X83250000Y-130678571D02*
X83250000Y-132178571D01*
X83250000Y-130750000D02*
X83107143Y-130678571D01*
X82821429Y-130678571D01*
X82678572Y-130750000D01*
X82607143Y-130821429D01*
X82535714Y-130964286D01*
X82535714Y-131392857D01*
X82607143Y-131535714D01*
X82678572Y-131607143D01*
X82821429Y-131678571D01*
X83107143Y-131678571D01*
X83250000Y-131607143D01*
X81678571Y-131678571D02*
X81821429Y-131607143D01*
X81892857Y-131535714D01*
X81964286Y-131392857D01*
X81964286Y-130964286D01*
X81892857Y-130821429D01*
X81821429Y-130750000D01*
X81678571Y-130678571D01*
X81464286Y-130678571D01*
X81321429Y-130750000D01*
X81250000Y-130821429D01*
X81178571Y-130964286D01*
X81178571Y-131392857D01*
X81250000Y-131535714D01*
X81321429Y-131607143D01*
X81464286Y-131678571D01*
X81678571Y-131678571D01*
X80535714Y-130678571D02*
X80535714Y-131678571D01*
X80535714Y-130821429D02*
X80464286Y-130750000D01*
X80321428Y-130678571D01*
X80107143Y-130678571D01*
X79964286Y-130750000D01*
X79892857Y-130892857D01*
X79892857Y-131678571D01*
X78607143Y-131607143D02*
X78750000Y-131678571D01*
X79035714Y-131678571D01*
X79178571Y-131607143D01*
X79250000Y-131464286D01*
X79250000Y-130892857D01*
X79178571Y-130750000D01*
X79035714Y-130678571D01*
X78750000Y-130678571D01*
X78607143Y-130750000D01*
X78535714Y-130892857D01*
X78535714Y-131035714D01*
X79250000Y-131178571D01*
X77892857Y-130678571D02*
X77892857Y-131678571D01*
X77892857Y-130821429D02*
X77821429Y-130750000D01*
X77678571Y-130678571D01*
X77464286Y-130678571D01*
X77321429Y-130750000D01*
X77250000Y-130892857D01*
X77250000Y-131678571D01*
X76750000Y-130678571D02*
X76178571Y-130678571D01*
X76535714Y-130178571D02*
X76535714Y-131464286D01*
X76464286Y-131607143D01*
X76321428Y-131678571D01*
X76178571Y-131678571D01*
X75750000Y-131607143D02*
X75607143Y-131678571D01*
X75321428Y-131678571D01*
X75178571Y-131607143D01*
X75107143Y-131464286D01*
X75107143Y-131392857D01*
X75178571Y-131250000D01*
X75321428Y-131178571D01*
X75535714Y-131178571D01*
X75678571Y-131107143D01*
X75750000Y-130964286D01*
X75750000Y-130892857D01*
X75678571Y-130750000D01*
X75535714Y-130678571D01*
X75321428Y-130678571D01*
X75178571Y-130750000D01*
X73321428Y-130678571D02*
X73321428Y-132178571D01*
X73321428Y-130750000D02*
X73178571Y-130678571D01*
X72892857Y-130678571D01*
X72750000Y-130750000D01*
X72678571Y-130821429D01*
X72607142Y-130964286D01*
X72607142Y-131392857D01*
X72678571Y-131535714D01*
X72750000Y-131607143D01*
X72892857Y-131678571D01*
X73178571Y-131678571D01*
X73321428Y-131607143D01*
X71964285Y-131678571D02*
X71964285Y-130678571D01*
X71964285Y-130964286D02*
X71892857Y-130821429D01*
X71821428Y-130750000D01*
X71678571Y-130678571D01*
X71535714Y-130678571D01*
X70821428Y-131678571D02*
X70964286Y-131607143D01*
X71035714Y-131535714D01*
X71107143Y-131392857D01*
X71107143Y-130964286D01*
X71035714Y-130821429D01*
X70964286Y-130750000D01*
X70821428Y-130678571D01*
X70607143Y-130678571D01*
X70464286Y-130750000D01*
X70392857Y-130821429D01*
X70321428Y-130964286D01*
X70321428Y-131392857D01*
X70392857Y-131535714D01*
X70464286Y-131607143D01*
X70607143Y-131678571D01*
X70821428Y-131678571D01*
X69821428Y-130678571D02*
X69464285Y-131678571D01*
X69107143Y-130678571D01*
X68535714Y-131678571D02*
X68535714Y-130678571D01*
X68535714Y-130178571D02*
X68607143Y-130250000D01*
X68535714Y-130321429D01*
X68464286Y-130250000D01*
X68535714Y-130178571D01*
X68535714Y-130321429D01*
X67178571Y-131678571D02*
X67178571Y-130178571D01*
X67178571Y-131607143D02*
X67321428Y-131678571D01*
X67607142Y-131678571D01*
X67750000Y-131607143D01*
X67821428Y-131535714D01*
X67892857Y-131392857D01*
X67892857Y-130964286D01*
X67821428Y-130821429D01*
X67750000Y-130750000D01*
X67607142Y-130678571D01*
X67321428Y-130678571D01*
X67178571Y-130750000D01*
X65892857Y-131607143D02*
X66035714Y-131678571D01*
X66321428Y-131678571D01*
X66464285Y-131607143D01*
X66535714Y-131464286D01*
X66535714Y-130892857D01*
X66464285Y-130750000D01*
X66321428Y-130678571D01*
X66035714Y-130678571D01*
X65892857Y-130750000D01*
X65821428Y-130892857D01*
X65821428Y-131035714D01*
X66535714Y-131178571D01*
X64535714Y-131678571D02*
X64535714Y-130178571D01*
X64535714Y-131607143D02*
X64678571Y-131678571D01*
X64964285Y-131678571D01*
X65107143Y-131607143D01*
X65178571Y-131535714D01*
X65250000Y-131392857D01*
X65250000Y-130964286D01*
X65178571Y-130821429D01*
X65107143Y-130750000D01*
X64964285Y-130678571D01*
X64678571Y-130678571D01*
X64535714Y-130750000D01*
X62678571Y-131678571D02*
X62678571Y-130178571D01*
X62678571Y-130750000D02*
X62535714Y-130678571D01*
X62250000Y-130678571D01*
X62107143Y-130750000D01*
X62035714Y-130821429D01*
X61964285Y-130964286D01*
X61964285Y-131392857D01*
X62035714Y-131535714D01*
X62107143Y-131607143D01*
X62250000Y-131678571D01*
X62535714Y-131678571D01*
X62678571Y-131607143D01*
X61464285Y-130678571D02*
X61107142Y-131678571D01*
X60750000Y-130678571D02*
X61107142Y-131678571D01*
X61250000Y-132035714D01*
X61321428Y-132107143D01*
X61464285Y-132178571D01*
D11*
X73707143Y-89190476D02*
X73754762Y-89142857D01*
X73802381Y-89000000D01*
X73802381Y-88904762D01*
X73754762Y-88761904D01*
X73659524Y-88666666D01*
X73564286Y-88619047D01*
X73373810Y-88571428D01*
X73230952Y-88571428D01*
X73040476Y-88619047D01*
X72945238Y-88666666D01*
X72850000Y-88761904D01*
X72802381Y-88904762D01*
X72802381Y-89000000D01*
X72850000Y-89142857D01*
X72897619Y-89190476D01*
X73802381Y-90190476D02*
X73326190Y-89857142D01*
X73802381Y-89619047D02*
X72802381Y-89619047D01*
X72802381Y-90000000D01*
X72850000Y-90095238D01*
X72897619Y-90142857D01*
X72992857Y-90190476D01*
X73135714Y-90190476D01*
X73230952Y-90142857D01*
X73278571Y-90095238D01*
X73326190Y-90000000D01*
X73326190Y-89619047D01*
X72897619Y-90571428D02*
X72850000Y-90619047D01*
X72802381Y-90714285D01*
X72802381Y-90952381D01*
X72850000Y-91047619D01*
X72897619Y-91095238D01*
X72992857Y-91142857D01*
X73088095Y-91142857D01*
X73230952Y-91095238D01*
X73802381Y-90523809D01*
X73802381Y-91142857D01*
X72802381Y-91761904D02*
X72802381Y-91857143D01*
X72850000Y-91952381D01*
X72897619Y-92000000D01*
X72992857Y-92047619D01*
X73183333Y-92095238D01*
X73421429Y-92095238D01*
X73611905Y-92047619D01*
X73707143Y-92000000D01*
X73754762Y-91952381D01*
X73802381Y-91857143D01*
X73802381Y-91761904D01*
X73754762Y-91666666D01*
X73707143Y-91619047D01*
X73611905Y-91571428D01*
X73421429Y-91523809D01*
X73183333Y-91523809D01*
X72992857Y-91571428D01*
X72897619Y-91619047D01*
X72850000Y-91666666D01*
X72802381Y-91761904D01*
X72802381Y-92428571D02*
X72802381Y-93047619D01*
X73183333Y-92714285D01*
X73183333Y-92857143D01*
X73230952Y-92952381D01*
X73278571Y-93000000D01*
X73373810Y-93047619D01*
X73611905Y-93047619D01*
X73707143Y-93000000D01*
X73754762Y-92952381D01*
X73802381Y-92857143D01*
X73802381Y-92571428D01*
X73754762Y-92476190D01*
X73707143Y-92428571D01*
X72897619Y-93428571D02*
X72850000Y-93476190D01*
X72802381Y-93571428D01*
X72802381Y-93809524D01*
X72850000Y-93904762D01*
X72897619Y-93952381D01*
X72992857Y-94000000D01*
X73088095Y-94000000D01*
X73230952Y-93952381D01*
X73802381Y-93380952D01*
X73802381Y-94000000D01*
X73802381Y-95190476D02*
X72802381Y-95190476D01*
X73183333Y-95190476D02*
X73135714Y-95285714D01*
X73135714Y-95476191D01*
X73183333Y-95571429D01*
X73230952Y-95619048D01*
X73326190Y-95666667D01*
X73611905Y-95666667D01*
X73707143Y-95619048D01*
X73754762Y-95571429D01*
X73802381Y-95476191D01*
X73802381Y-95285714D01*
X73754762Y-95190476D01*
X73802381Y-96523810D02*
X73278571Y-96523810D01*
X73183333Y-96476191D01*
X73135714Y-96380953D01*
X73135714Y-96190476D01*
X73183333Y-96095238D01*
X73754762Y-96523810D02*
X73802381Y-96428572D01*
X73802381Y-96190476D01*
X73754762Y-96095238D01*
X73659524Y-96047619D01*
X73564286Y-96047619D01*
X73469048Y-96095238D01*
X73421429Y-96190476D01*
X73421429Y-96428572D01*
X73373810Y-96523810D01*
X73135714Y-96857143D02*
X73135714Y-97238095D01*
X72802381Y-97000000D02*
X73659524Y-97000000D01*
X73754762Y-97047619D01*
X73802381Y-97142857D01*
X73802381Y-97238095D01*
X73135714Y-97428572D02*
X73135714Y-97809524D01*
X72802381Y-97571429D02*
X73659524Y-97571429D01*
X73754762Y-97619048D01*
X73802381Y-97714286D01*
X73802381Y-97809524D01*
X73754762Y-98523811D02*
X73802381Y-98428573D01*
X73802381Y-98238096D01*
X73754762Y-98142858D01*
X73659524Y-98095239D01*
X73278571Y-98095239D01*
X73183333Y-98142858D01*
X73135714Y-98238096D01*
X73135714Y-98428573D01*
X73183333Y-98523811D01*
X73278571Y-98571430D01*
X73373810Y-98571430D01*
X73469048Y-98095239D01*
X73802381Y-99000001D02*
X73135714Y-99000001D01*
X73326190Y-99000001D02*
X73230952Y-99047620D01*
X73183333Y-99095239D01*
X73135714Y-99190477D01*
X73135714Y-99285716D01*
X73135714Y-99523811D02*
X73802381Y-99761906D01*
X73135714Y-100000002D02*
X73802381Y-99761906D01*
X74040476Y-99666668D01*
X74088095Y-99619049D01*
X74135714Y-99523811D01*
X73754762Y-100428573D02*
X73802381Y-100428573D01*
X73897619Y-100380954D01*
X73945238Y-100333335D01*
X75071429Y-88952380D02*
X75071429Y-89714285D01*
X75452381Y-89333333D02*
X74690476Y-89333333D01*
X75404762Y-90904761D02*
X75452381Y-90999999D01*
X75452381Y-91190475D01*
X75404762Y-91285714D01*
X75309524Y-91333333D01*
X75261905Y-91333333D01*
X75166667Y-91285714D01*
X75119048Y-91190475D01*
X75119048Y-91047618D01*
X75071429Y-90952380D01*
X74976190Y-90904761D01*
X74928571Y-90904761D01*
X74833333Y-90952380D01*
X74785714Y-91047618D01*
X74785714Y-91190475D01*
X74833333Y-91285714D01*
X75452381Y-91761904D02*
X74785714Y-91761904D01*
X74452381Y-91761904D02*
X74500000Y-91714285D01*
X74547619Y-91761904D01*
X74500000Y-91809523D01*
X74452381Y-91761904D01*
X74547619Y-91761904D01*
X75452381Y-92666666D02*
X74452381Y-92666666D01*
X75404762Y-92666666D02*
X75452381Y-92571428D01*
X75452381Y-92380951D01*
X75404762Y-92285713D01*
X75357143Y-92238094D01*
X75261905Y-92190475D01*
X74976190Y-92190475D01*
X74880952Y-92238094D01*
X74833333Y-92285713D01*
X74785714Y-92380951D01*
X74785714Y-92571428D01*
X74833333Y-92666666D01*
X75404762Y-93523809D02*
X75452381Y-93428571D01*
X75452381Y-93238094D01*
X75404762Y-93142856D01*
X75309524Y-93095237D01*
X74928571Y-93095237D01*
X74833333Y-93142856D01*
X74785714Y-93238094D01*
X74785714Y-93428571D01*
X74833333Y-93523809D01*
X74928571Y-93571428D01*
X75023810Y-93571428D01*
X75119048Y-93095237D01*
X74785714Y-94619047D02*
X74785714Y-94999999D01*
X74452381Y-94761904D02*
X75309524Y-94761904D01*
X75404762Y-94809523D01*
X75452381Y-94904761D01*
X75452381Y-94999999D01*
X75452381Y-95476190D02*
X75404762Y-95380952D01*
X75357143Y-95333333D01*
X75261905Y-95285714D01*
X74976190Y-95285714D01*
X74880952Y-95333333D01*
X74833333Y-95380952D01*
X74785714Y-95476190D01*
X74785714Y-95619048D01*
X74833333Y-95714286D01*
X74880952Y-95761905D01*
X74976190Y-95809524D01*
X75261905Y-95809524D01*
X75357143Y-95761905D01*
X75404762Y-95714286D01*
X75452381Y-95619048D01*
X75452381Y-95476190D01*
X74785714Y-96142857D02*
X75452381Y-96333333D01*
X74976190Y-96523810D01*
X75452381Y-96714286D01*
X74785714Y-96904762D01*
X75452381Y-97714286D02*
X74928571Y-97714286D01*
X74833333Y-97666667D01*
X74785714Y-97571429D01*
X74785714Y-97380952D01*
X74833333Y-97285714D01*
X75404762Y-97714286D02*
X75452381Y-97619048D01*
X75452381Y-97380952D01*
X75404762Y-97285714D01*
X75309524Y-97238095D01*
X75214286Y-97238095D01*
X75119048Y-97285714D01*
X75071429Y-97380952D01*
X75071429Y-97619048D01*
X75023810Y-97714286D01*
X75452381Y-98190476D02*
X74785714Y-98190476D01*
X74976190Y-98190476D02*
X74880952Y-98238095D01*
X74833333Y-98285714D01*
X74785714Y-98380952D01*
X74785714Y-98476191D01*
X75452381Y-99238096D02*
X74452381Y-99238096D01*
X75404762Y-99238096D02*
X75452381Y-99142858D01*
X75452381Y-98952381D01*
X75404762Y-98857143D01*
X75357143Y-98809524D01*
X75261905Y-98761905D01*
X74976190Y-98761905D01*
X74880952Y-98809524D01*
X74833333Y-98857143D01*
X74785714Y-98952381D01*
X74785714Y-99142858D01*
X74833333Y-99238096D01*
X75404762Y-99666667D02*
X75452381Y-99761905D01*
X75452381Y-99952381D01*
X75404762Y-100047620D01*
X75309524Y-100095239D01*
X75261905Y-100095239D01*
X75166667Y-100047620D01*
X75119048Y-99952381D01*
X75119048Y-99809524D01*
X75071429Y-99714286D01*
X74976190Y-99666667D01*
X74928571Y-99666667D01*
X74833333Y-99714286D01*
X74785714Y-99809524D01*
X74785714Y-99952381D01*
X74833333Y-100047620D01*
X77102381Y-89499999D02*
X76435714Y-89499999D01*
X76530952Y-89499999D02*
X76483333Y-89547618D01*
X76435714Y-89642856D01*
X76435714Y-89785714D01*
X76483333Y-89880952D01*
X76578571Y-89928571D01*
X77102381Y-89928571D01*
X76578571Y-89928571D02*
X76483333Y-89976190D01*
X76435714Y-90071428D01*
X76435714Y-90214285D01*
X76483333Y-90309523D01*
X76578571Y-90357142D01*
X77102381Y-90357142D01*
X77054762Y-91214285D02*
X77102381Y-91119047D01*
X77102381Y-90928570D01*
X77054762Y-90833332D01*
X76959524Y-90785713D01*
X76578571Y-90785713D01*
X76483333Y-90833332D01*
X76435714Y-90928570D01*
X76435714Y-91119047D01*
X76483333Y-91214285D01*
X76578571Y-91261904D01*
X76673810Y-91261904D01*
X76769048Y-90785713D01*
X76435714Y-91547618D02*
X76435714Y-91928570D01*
X76102381Y-91690475D02*
X76959524Y-91690475D01*
X77054762Y-91738094D01*
X77102381Y-91833332D01*
X77102381Y-91928570D01*
X77102381Y-92690476D02*
X76578571Y-92690476D01*
X76483333Y-92642857D01*
X76435714Y-92547619D01*
X76435714Y-92357142D01*
X76483333Y-92261904D01*
X77054762Y-92690476D02*
X77102381Y-92595238D01*
X77102381Y-92357142D01*
X77054762Y-92261904D01*
X76959524Y-92214285D01*
X76864286Y-92214285D01*
X76769048Y-92261904D01*
X76721429Y-92357142D01*
X76721429Y-92595238D01*
X76673810Y-92690476D01*
X77102381Y-93309523D02*
X77054762Y-93214285D01*
X76959524Y-93166666D01*
X76102381Y-93166666D01*
X77102381Y-94452381D02*
X76102381Y-94452381D01*
X76483333Y-94452381D02*
X76435714Y-94547619D01*
X76435714Y-94738096D01*
X76483333Y-94833334D01*
X76530952Y-94880953D01*
X76626190Y-94928572D01*
X76911905Y-94928572D01*
X77007143Y-94880953D01*
X77054762Y-94833334D01*
X77102381Y-94738096D01*
X77102381Y-94547619D01*
X77054762Y-94452381D01*
X77102381Y-95357143D02*
X76435714Y-95357143D01*
X76626190Y-95357143D02*
X76530952Y-95404762D01*
X76483333Y-95452381D01*
X76435714Y-95547619D01*
X76435714Y-95642858D01*
X77102381Y-96404763D02*
X76578571Y-96404763D01*
X76483333Y-96357144D01*
X76435714Y-96261906D01*
X76435714Y-96071429D01*
X76483333Y-95976191D01*
X77054762Y-96404763D02*
X77102381Y-96309525D01*
X77102381Y-96071429D01*
X77054762Y-95976191D01*
X76959524Y-95928572D01*
X76864286Y-95928572D01*
X76769048Y-95976191D01*
X76721429Y-96071429D01*
X76721429Y-96309525D01*
X76673810Y-96404763D01*
X77054762Y-97309525D02*
X77102381Y-97214287D01*
X77102381Y-97023810D01*
X77054762Y-96928572D01*
X77007143Y-96880953D01*
X76911905Y-96833334D01*
X76626190Y-96833334D01*
X76530952Y-96880953D01*
X76483333Y-96928572D01*
X76435714Y-97023810D01*
X76435714Y-97214287D01*
X76483333Y-97309525D01*
X77102381Y-97738096D02*
X76102381Y-97738096D01*
X76721429Y-97833334D02*
X77102381Y-98119049D01*
X76435714Y-98119049D02*
X76816667Y-97738096D01*
X77054762Y-98928573D02*
X77102381Y-98833335D01*
X77102381Y-98642858D01*
X77054762Y-98547620D01*
X76959524Y-98500001D01*
X76578571Y-98500001D01*
X76483333Y-98547620D01*
X76435714Y-98642858D01*
X76435714Y-98833335D01*
X76483333Y-98928573D01*
X76578571Y-98976192D01*
X76673810Y-98976192D01*
X76769048Y-98500001D01*
X76435714Y-99261906D02*
X76435714Y-99642858D01*
X76102381Y-99404763D02*
X76959524Y-99404763D01*
X77054762Y-99452382D01*
X77102381Y-99547620D01*
X77102381Y-99642858D01*
X88874996Y-118557738D02*
X88217853Y-118557738D01*
X88546425Y-119707738D02*
X88546425Y-118557738D01*
X87670235Y-119707738D02*
X87779759Y-119652976D01*
X87834520Y-119598214D01*
X87889282Y-119488690D01*
X87889282Y-119160119D01*
X87834520Y-119050595D01*
X87779759Y-118995833D01*
X87670235Y-118941071D01*
X87505949Y-118941071D01*
X87396425Y-118995833D01*
X87341663Y-119050595D01*
X87286901Y-119160119D01*
X87286901Y-119488690D01*
X87341663Y-119598214D01*
X87396425Y-119652976D01*
X87505949Y-119707738D01*
X87670235Y-119707738D01*
X85424997Y-119707738D02*
X85424997Y-118557738D01*
X85424997Y-119652976D02*
X85534521Y-119707738D01*
X85753569Y-119707738D01*
X85863093Y-119652976D01*
X85917854Y-119598214D01*
X85972616Y-119488690D01*
X85972616Y-119160119D01*
X85917854Y-119050595D01*
X85863093Y-118995833D01*
X85753569Y-118941071D01*
X85534521Y-118941071D01*
X85424997Y-118995833D01*
X84713093Y-119707738D02*
X84822617Y-119652976D01*
X84877378Y-119598214D01*
X84932140Y-119488690D01*
X84932140Y-119160119D01*
X84877378Y-119050595D01*
X84822617Y-118995833D01*
X84713093Y-118941071D01*
X84548807Y-118941071D01*
X84439283Y-118995833D01*
X84384521Y-119050595D01*
X84329759Y-119160119D01*
X84329759Y-119488690D01*
X84384521Y-119598214D01*
X84439283Y-119652976D01*
X84548807Y-119707738D01*
X84713093Y-119707738D01*
X83946426Y-118941071D02*
X83727379Y-119707738D01*
X83508331Y-119160119D01*
X83289283Y-119707738D01*
X83070236Y-118941071D01*
X82632140Y-118941071D02*
X82632140Y-119707738D01*
X82632140Y-119050595D02*
X82577379Y-118995833D01*
X82467855Y-118941071D01*
X82303569Y-118941071D01*
X82194045Y-118995833D01*
X82139283Y-119105357D01*
X82139283Y-119707738D01*
X81427379Y-119707738D02*
X81536903Y-119652976D01*
X81591664Y-119543452D01*
X81591664Y-118557738D01*
X80824998Y-119707738D02*
X80934522Y-119652976D01*
X80989283Y-119598214D01*
X81044045Y-119488690D01*
X81044045Y-119160119D01*
X80989283Y-119050595D01*
X80934522Y-118995833D01*
X80824998Y-118941071D01*
X80660712Y-118941071D01*
X80551188Y-118995833D01*
X80496426Y-119050595D01*
X80441664Y-119160119D01*
X80441664Y-119488690D01*
X80496426Y-119598214D01*
X80551188Y-119652976D01*
X80660712Y-119707738D01*
X80824998Y-119707738D01*
X79455950Y-119707738D02*
X79455950Y-119105357D01*
X79510712Y-118995833D01*
X79620236Y-118941071D01*
X79839284Y-118941071D01*
X79948807Y-118995833D01*
X79455950Y-119652976D02*
X79565474Y-119707738D01*
X79839284Y-119707738D01*
X79948807Y-119652976D01*
X80003569Y-119543452D01*
X80003569Y-119433929D01*
X79948807Y-119324405D01*
X79839284Y-119269643D01*
X79565474Y-119269643D01*
X79455950Y-119214881D01*
X78415474Y-119707738D02*
X78415474Y-118557738D01*
X78415474Y-119652976D02*
X78524998Y-119707738D01*
X78744046Y-119707738D01*
X78853570Y-119652976D01*
X78908331Y-119598214D01*
X78963093Y-119488690D01*
X78963093Y-119160119D01*
X78908331Y-119050595D01*
X78853570Y-118995833D01*
X78744046Y-118941071D01*
X78524998Y-118941071D01*
X78415474Y-118995833D01*
X76498808Y-119652976D02*
X76608332Y-119707738D01*
X76827380Y-119707738D01*
X76936904Y-119652976D01*
X76991665Y-119598214D01*
X77046427Y-119488690D01*
X77046427Y-119160119D01*
X76991665Y-119050595D01*
X76936904Y-118995833D01*
X76827380Y-118941071D01*
X76608332Y-118941071D01*
X76498808Y-118995833D01*
X75841666Y-119707738D02*
X75951190Y-119652976D01*
X76005951Y-119598214D01*
X76060713Y-119488690D01*
X76060713Y-119160119D01*
X76005951Y-119050595D01*
X75951190Y-118995833D01*
X75841666Y-118941071D01*
X75677380Y-118941071D01*
X75567856Y-118995833D01*
X75513094Y-119050595D01*
X75458332Y-119160119D01*
X75458332Y-119488690D01*
X75513094Y-119598214D01*
X75567856Y-119652976D01*
X75677380Y-119707738D01*
X75841666Y-119707738D01*
X74472618Y-119707738D02*
X74472618Y-118557738D01*
X74472618Y-119652976D02*
X74582142Y-119707738D01*
X74801190Y-119707738D01*
X74910714Y-119652976D01*
X74965475Y-119598214D01*
X75020237Y-119488690D01*
X75020237Y-119160119D01*
X74965475Y-119050595D01*
X74910714Y-118995833D01*
X74801190Y-118941071D01*
X74582142Y-118941071D01*
X74472618Y-118995833D01*
X73486904Y-119652976D02*
X73596428Y-119707738D01*
X73815476Y-119707738D01*
X73924999Y-119652976D01*
X73979761Y-119543452D01*
X73979761Y-119105357D01*
X73924999Y-118995833D01*
X73815476Y-118941071D01*
X73596428Y-118941071D01*
X73486904Y-118995833D01*
X73432142Y-119105357D01*
X73432142Y-119214881D01*
X73979761Y-119324405D01*
X72227381Y-118941071D02*
X71789286Y-118941071D01*
X72063095Y-118557738D02*
X72063095Y-119543452D01*
X72008334Y-119652976D01*
X71898810Y-119707738D01*
X71789286Y-119707738D01*
X71241667Y-119707738D02*
X71351191Y-119652976D01*
X71405952Y-119598214D01*
X71460714Y-119488690D01*
X71460714Y-119160119D01*
X71405952Y-119050595D01*
X71351191Y-118995833D01*
X71241667Y-118941071D01*
X71077381Y-118941071D01*
X70967857Y-118995833D01*
X70913095Y-119050595D01*
X70858333Y-119160119D01*
X70858333Y-119488690D01*
X70913095Y-119598214D01*
X70967857Y-119652976D01*
X71077381Y-119707738D01*
X71241667Y-119707738D01*
X69653572Y-118941071D02*
X69215477Y-118941071D01*
X69489286Y-118557738D02*
X69489286Y-119543452D01*
X69434525Y-119652976D01*
X69325001Y-119707738D01*
X69215477Y-119707738D01*
X68832143Y-119707738D02*
X68832143Y-118557738D01*
X68339286Y-119707738D02*
X68339286Y-119105357D01*
X68394048Y-118995833D01*
X68503572Y-118941071D01*
X68667858Y-118941071D01*
X68777382Y-118995833D01*
X68832143Y-119050595D01*
X67791667Y-119707738D02*
X67791667Y-118941071D01*
X67791667Y-118557738D02*
X67846429Y-118612500D01*
X67791667Y-118667262D01*
X67736906Y-118612500D01*
X67791667Y-118557738D01*
X67791667Y-118667262D01*
X67298810Y-119652976D02*
X67189287Y-119707738D01*
X66970239Y-119707738D01*
X66860715Y-119652976D01*
X66805953Y-119543452D01*
X66805953Y-119488690D01*
X66860715Y-119379167D01*
X66970239Y-119324405D01*
X67134525Y-119324405D01*
X67244048Y-119269643D01*
X67298810Y-119160119D01*
X67298810Y-119105357D01*
X67244048Y-118995833D01*
X67134525Y-118941071D01*
X66970239Y-118941071D01*
X66860715Y-118995833D01*
X65436906Y-119707738D02*
X65436906Y-118557738D01*
X65436906Y-118995833D02*
X65327383Y-118941071D01*
X65108335Y-118941071D01*
X64998811Y-118995833D01*
X64944049Y-119050595D01*
X64889287Y-119160119D01*
X64889287Y-119488690D01*
X64944049Y-119598214D01*
X64998811Y-119652976D01*
X65108335Y-119707738D01*
X65327383Y-119707738D01*
X65436906Y-119652976D01*
X63903573Y-119707738D02*
X63903573Y-119105357D01*
X63958335Y-118995833D01*
X64067859Y-118941071D01*
X64286907Y-118941071D01*
X64396430Y-118995833D01*
X63903573Y-119652976D02*
X64013097Y-119707738D01*
X64286907Y-119707738D01*
X64396430Y-119652976D01*
X64451192Y-119543452D01*
X64451192Y-119433929D01*
X64396430Y-119324405D01*
X64286907Y-119269643D01*
X64013097Y-119269643D01*
X63903573Y-119214881D01*
X62863097Y-119707738D02*
X62863097Y-118557738D01*
X62863097Y-119652976D02*
X62972621Y-119707738D01*
X63191669Y-119707738D01*
X63301193Y-119652976D01*
X63355954Y-119598214D01*
X63410716Y-119488690D01*
X63410716Y-119160119D01*
X63355954Y-119050595D01*
X63301193Y-118995833D01*
X63191669Y-118941071D01*
X62972621Y-118941071D01*
X62863097Y-118995833D01*
X61822621Y-118941071D02*
X61822621Y-119872024D01*
X61877383Y-119981548D01*
X61932145Y-120036310D01*
X62041669Y-120091071D01*
X62205955Y-120091071D01*
X62315478Y-120036310D01*
X61822621Y-119652976D02*
X61932145Y-119707738D01*
X62151193Y-119707738D01*
X62260717Y-119652976D01*
X62315478Y-119598214D01*
X62370240Y-119488690D01*
X62370240Y-119160119D01*
X62315478Y-119050595D01*
X62260717Y-118995833D01*
X62151193Y-118941071D01*
X61932145Y-118941071D01*
X61822621Y-118995833D01*
X60836907Y-119652976D02*
X60946431Y-119707738D01*
X61165479Y-119707738D01*
X61275002Y-119652976D01*
X61329764Y-119543452D01*
X61329764Y-119105357D01*
X61275002Y-118995833D01*
X61165479Y-118941071D01*
X60946431Y-118941071D01*
X60836907Y-118995833D01*
X60782145Y-119105357D01*
X60782145Y-119214881D01*
X61329764Y-119324405D01*
X60234527Y-119652976D02*
X60234527Y-119707738D01*
X60289288Y-119817262D01*
X60344050Y-119872024D01*
X90572615Y-121582738D02*
X90572615Y-120980357D01*
X90627377Y-120870833D01*
X90736901Y-120816071D01*
X90955949Y-120816071D01*
X91065472Y-120870833D01*
X90572615Y-121527976D02*
X90682139Y-121582738D01*
X90955949Y-121582738D01*
X91065472Y-121527976D01*
X91120234Y-121418452D01*
X91120234Y-121308929D01*
X91065472Y-121199405D01*
X90955949Y-121144643D01*
X90682139Y-121144643D01*
X90572615Y-121089881D01*
X90024996Y-120816071D02*
X90024996Y-121582738D01*
X90024996Y-120925595D02*
X89970235Y-120870833D01*
X89860711Y-120816071D01*
X89696425Y-120816071D01*
X89586901Y-120870833D01*
X89532139Y-120980357D01*
X89532139Y-121582738D01*
X88491663Y-121582738D02*
X88491663Y-120432738D01*
X88491663Y-121527976D02*
X88601187Y-121582738D01*
X88820235Y-121582738D01*
X88929759Y-121527976D01*
X88984520Y-121473214D01*
X89039282Y-121363690D01*
X89039282Y-121035119D01*
X88984520Y-120925595D01*
X88929759Y-120870833D01*
X88820235Y-120816071D01*
X88601187Y-120816071D01*
X88491663Y-120870833D01*
X87232140Y-120816071D02*
X86794045Y-120816071D01*
X87067854Y-121582738D02*
X87067854Y-120597024D01*
X87013093Y-120487500D01*
X86903569Y-120432738D01*
X86794045Y-120432738D01*
X86246426Y-121582738D02*
X86355950Y-121527976D01*
X86410711Y-121473214D01*
X86465473Y-121363690D01*
X86465473Y-121035119D01*
X86410711Y-120925595D01*
X86355950Y-120870833D01*
X86246426Y-120816071D01*
X86082140Y-120816071D01*
X85972616Y-120870833D01*
X85917854Y-120925595D01*
X85863092Y-121035119D01*
X85863092Y-121363690D01*
X85917854Y-121473214D01*
X85972616Y-121527976D01*
X86082140Y-121582738D01*
X86246426Y-121582738D01*
X85370235Y-121582738D02*
X85370235Y-120816071D01*
X85370235Y-121035119D02*
X85315474Y-120925595D01*
X85260712Y-120870833D01*
X85151188Y-120816071D01*
X85041664Y-120816071D01*
X83782140Y-121582738D02*
X83782140Y-120816071D01*
X83782140Y-120925595D02*
X83727379Y-120870833D01*
X83617855Y-120816071D01*
X83453569Y-120816071D01*
X83344045Y-120870833D01*
X83289283Y-120980357D01*
X83289283Y-121582738D01*
X83289283Y-120980357D02*
X83234521Y-120870833D01*
X83124998Y-120816071D01*
X82960712Y-120816071D01*
X82851188Y-120870833D01*
X82796426Y-120980357D01*
X82796426Y-121582738D01*
X82084522Y-121582738D02*
X82194046Y-121527976D01*
X82248807Y-121473214D01*
X82303569Y-121363690D01*
X82303569Y-121035119D01*
X82248807Y-120925595D01*
X82194046Y-120870833D01*
X82084522Y-120816071D01*
X81920236Y-120816071D01*
X81810712Y-120870833D01*
X81755950Y-120925595D01*
X81701188Y-121035119D01*
X81701188Y-121363690D01*
X81755950Y-121473214D01*
X81810712Y-121527976D01*
X81920236Y-121582738D01*
X82084522Y-121582738D01*
X81208331Y-121582738D02*
X81208331Y-120816071D01*
X81208331Y-121035119D02*
X81153570Y-120925595D01*
X81098808Y-120870833D01*
X80989284Y-120816071D01*
X80879760Y-120816071D01*
X80058331Y-121527976D02*
X80167855Y-121582738D01*
X80386903Y-121582738D01*
X80496426Y-121527976D01*
X80551188Y-121418452D01*
X80551188Y-120980357D01*
X80496426Y-120870833D01*
X80386903Y-120816071D01*
X80167855Y-120816071D01*
X80058331Y-120870833D01*
X80003569Y-120980357D01*
X80003569Y-121089881D01*
X80551188Y-121199405D01*
X78141665Y-121582738D02*
X78141665Y-120432738D01*
X78141665Y-121527976D02*
X78251189Y-121582738D01*
X78470237Y-121582738D01*
X78579761Y-121527976D01*
X78634522Y-121473214D01*
X78689284Y-121363690D01*
X78689284Y-121035119D01*
X78634522Y-120925595D01*
X78579761Y-120870833D01*
X78470237Y-120816071D01*
X78251189Y-120816071D01*
X78141665Y-120870833D01*
X77155951Y-121527976D02*
X77265475Y-121582738D01*
X77484523Y-121582738D01*
X77594046Y-121527976D01*
X77648808Y-121418452D01*
X77648808Y-120980357D01*
X77594046Y-120870833D01*
X77484523Y-120816071D01*
X77265475Y-120816071D01*
X77155951Y-120870833D01*
X77101189Y-120980357D01*
X77101189Y-121089881D01*
X77648808Y-121199405D01*
X76772618Y-120816071D02*
X76334523Y-120816071D01*
X76608332Y-120432738D02*
X76608332Y-121418452D01*
X76553571Y-121527976D01*
X76444047Y-121582738D01*
X76334523Y-121582738D01*
X75458332Y-121582738D02*
X75458332Y-120980357D01*
X75513094Y-120870833D01*
X75622618Y-120816071D01*
X75841666Y-120816071D01*
X75951189Y-120870833D01*
X75458332Y-121527976D02*
X75567856Y-121582738D01*
X75841666Y-121582738D01*
X75951189Y-121527976D01*
X76005951Y-121418452D01*
X76005951Y-121308929D01*
X75951189Y-121199405D01*
X75841666Y-121144643D01*
X75567856Y-121144643D01*
X75458332Y-121089881D01*
X74910713Y-121582738D02*
X74910713Y-120816071D01*
X74910713Y-120432738D02*
X74965475Y-120487500D01*
X74910713Y-120542262D01*
X74855952Y-120487500D01*
X74910713Y-120432738D01*
X74910713Y-120542262D01*
X74198809Y-121582738D02*
X74308333Y-121527976D01*
X74363094Y-121418452D01*
X74363094Y-120432738D01*
X73815475Y-121527976D02*
X73705952Y-121582738D01*
X73486904Y-121582738D01*
X73377380Y-121527976D01*
X73322618Y-121418452D01*
X73322618Y-121363690D01*
X73377380Y-121254167D01*
X73486904Y-121199405D01*
X73651190Y-121199405D01*
X73760713Y-121144643D01*
X73815475Y-121035119D01*
X73815475Y-120980357D01*
X73760713Y-120870833D01*
X73651190Y-120816071D01*
X73486904Y-120816071D01*
X73377380Y-120870833D01*
X71789286Y-121582738D02*
X71898810Y-121527976D01*
X71953571Y-121473214D01*
X72008333Y-121363690D01*
X72008333Y-121035119D01*
X71953571Y-120925595D01*
X71898810Y-120870833D01*
X71789286Y-120816071D01*
X71625000Y-120816071D01*
X71515476Y-120870833D01*
X71460714Y-120925595D01*
X71405952Y-121035119D01*
X71405952Y-121363690D01*
X71460714Y-121473214D01*
X71515476Y-121527976D01*
X71625000Y-121582738D01*
X71789286Y-121582738D01*
X70913095Y-120816071D02*
X70913095Y-121582738D01*
X70913095Y-120925595D02*
X70858334Y-120870833D01*
X70748810Y-120816071D01*
X70584524Y-120816071D01*
X70475000Y-120870833D01*
X70420238Y-120980357D01*
X70420238Y-121582738D01*
X68996429Y-121582738D02*
X68996429Y-120432738D01*
X68503572Y-121582738D02*
X68503572Y-120980357D01*
X68558334Y-120870833D01*
X68667858Y-120816071D01*
X68832144Y-120816071D01*
X68941668Y-120870833D01*
X68996429Y-120925595D01*
X67791668Y-121582738D02*
X67901192Y-121527976D01*
X67955953Y-121473214D01*
X68010715Y-121363690D01*
X68010715Y-121035119D01*
X67955953Y-120925595D01*
X67901192Y-120870833D01*
X67791668Y-120816071D01*
X67627382Y-120816071D01*
X67517858Y-120870833D01*
X67463096Y-120925595D01*
X67408334Y-121035119D01*
X67408334Y-121363690D01*
X67463096Y-121473214D01*
X67517858Y-121527976D01*
X67627382Y-121582738D01*
X67791668Y-121582738D01*
X67025001Y-120816071D02*
X66805954Y-121582738D01*
X66586906Y-121035119D01*
X66367858Y-121582738D01*
X66148811Y-120816071D01*
X64834525Y-121582738D02*
X64834525Y-120816071D01*
X64834525Y-120432738D02*
X64889287Y-120487500D01*
X64834525Y-120542262D01*
X64779764Y-120487500D01*
X64834525Y-120432738D01*
X64834525Y-120542262D01*
X64451192Y-120816071D02*
X64013097Y-120816071D01*
X64286906Y-120432738D02*
X64286906Y-121418452D01*
X64232145Y-121527976D01*
X64122621Y-121582738D01*
X64013097Y-121582738D01*
X62863097Y-120816071D02*
X62644050Y-121582738D01*
X62425002Y-121035119D01*
X62205954Y-121582738D01*
X61986907Y-120816071D01*
X61384526Y-121582738D02*
X61494050Y-121527976D01*
X61548811Y-121473214D01*
X61603573Y-121363690D01*
X61603573Y-121035119D01*
X61548811Y-120925595D01*
X61494050Y-120870833D01*
X61384526Y-120816071D01*
X61220240Y-120816071D01*
X61110716Y-120870833D01*
X61055954Y-120925595D01*
X61001192Y-121035119D01*
X61001192Y-121363690D01*
X61055954Y-121473214D01*
X61110716Y-121527976D01*
X61220240Y-121582738D01*
X61384526Y-121582738D01*
X60508335Y-121582738D02*
X60508335Y-120816071D01*
X60508335Y-121035119D02*
X60453574Y-120925595D01*
X60398812Y-120870833D01*
X60289288Y-120816071D01*
X60179764Y-120816071D01*
X59796430Y-121582738D02*
X59796430Y-120432738D01*
X59686907Y-121144643D02*
X59358335Y-121582738D01*
X59358335Y-120816071D02*
X59796430Y-121254167D01*
X58920240Y-121527976D02*
X58810717Y-121582738D01*
X58591669Y-121582738D01*
X58482145Y-121527976D01*
X58427383Y-121418452D01*
X58427383Y-121363690D01*
X58482145Y-121254167D01*
X58591669Y-121199405D01*
X58755955Y-121199405D01*
X58865478Y-121144643D01*
X58920240Y-121035119D01*
X58920240Y-120980357D01*
X58865478Y-120870833D01*
X58755955Y-120816071D01*
X58591669Y-120816071D01*
X58482145Y-120870833D01*
X57879765Y-121527976D02*
X57879765Y-121582738D01*
X57934526Y-121692262D01*
X57989288Y-121747024D01*
X79510712Y-122691071D02*
X79510712Y-123841071D01*
X79510712Y-122745833D02*
X79401189Y-122691071D01*
X79182141Y-122691071D01*
X79072617Y-122745833D01*
X79017855Y-122800595D01*
X78963093Y-122910119D01*
X78963093Y-123238690D01*
X79017855Y-123348214D01*
X79072617Y-123402976D01*
X79182141Y-123457738D01*
X79401189Y-123457738D01*
X79510712Y-123402976D01*
X78305951Y-123457738D02*
X78415475Y-123402976D01*
X78470236Y-123293452D01*
X78470236Y-122307738D01*
X77429760Y-123402976D02*
X77539284Y-123457738D01*
X77758332Y-123457738D01*
X77867855Y-123402976D01*
X77922617Y-123293452D01*
X77922617Y-122855357D01*
X77867855Y-122745833D01*
X77758332Y-122691071D01*
X77539284Y-122691071D01*
X77429760Y-122745833D01*
X77374998Y-122855357D01*
X77374998Y-122964881D01*
X77922617Y-123074405D01*
X76389284Y-123457738D02*
X76389284Y-122855357D01*
X76444046Y-122745833D01*
X76553570Y-122691071D01*
X76772618Y-122691071D01*
X76882141Y-122745833D01*
X76389284Y-123402976D02*
X76498808Y-123457738D01*
X76772618Y-123457738D01*
X76882141Y-123402976D01*
X76936903Y-123293452D01*
X76936903Y-123183929D01*
X76882141Y-123074405D01*
X76772618Y-123019643D01*
X76498808Y-123019643D01*
X76389284Y-122964881D01*
X75896427Y-123402976D02*
X75786904Y-123457738D01*
X75567856Y-123457738D01*
X75458332Y-123402976D01*
X75403570Y-123293452D01*
X75403570Y-123238690D01*
X75458332Y-123129167D01*
X75567856Y-123074405D01*
X75732142Y-123074405D01*
X75841665Y-123019643D01*
X75896427Y-122910119D01*
X75896427Y-122855357D01*
X75841665Y-122745833D01*
X75732142Y-122691071D01*
X75567856Y-122691071D01*
X75458332Y-122745833D01*
X74472618Y-123402976D02*
X74582142Y-123457738D01*
X74801190Y-123457738D01*
X74910713Y-123402976D01*
X74965475Y-123293452D01*
X74965475Y-122855357D01*
X74910713Y-122745833D01*
X74801190Y-122691071D01*
X74582142Y-122691071D01*
X74472618Y-122745833D01*
X74417856Y-122855357D01*
X74417856Y-122964881D01*
X74965475Y-123074405D01*
X73158333Y-122691071D02*
X72884524Y-123457738D01*
X72610714Y-122691071D01*
X72172619Y-123457738D02*
X72172619Y-122691071D01*
X72172619Y-122307738D02*
X72227381Y-122362500D01*
X72172619Y-122417262D01*
X72117858Y-122362500D01*
X72172619Y-122307738D01*
X72172619Y-122417262D01*
X71679762Y-123402976D02*
X71570239Y-123457738D01*
X71351191Y-123457738D01*
X71241667Y-123402976D01*
X71186905Y-123293452D01*
X71186905Y-123238690D01*
X71241667Y-123129167D01*
X71351191Y-123074405D01*
X71515477Y-123074405D01*
X71625000Y-123019643D01*
X71679762Y-122910119D01*
X71679762Y-122855357D01*
X71625000Y-122745833D01*
X71515477Y-122691071D01*
X71351191Y-122691071D01*
X71241667Y-122745833D01*
X70694048Y-123457738D02*
X70694048Y-122691071D01*
X70694048Y-122307738D02*
X70748810Y-122362500D01*
X70694048Y-122417262D01*
X70639287Y-122362500D01*
X70694048Y-122307738D01*
X70694048Y-122417262D01*
X70310715Y-122691071D02*
X69872620Y-122691071D01*
X70146429Y-122307738D02*
X70146429Y-123293452D01*
X70091668Y-123402976D01*
X69982144Y-123457738D01*
X69872620Y-123457738D01*
X69489286Y-123348214D02*
X69434525Y-123402976D01*
X69489286Y-123457738D01*
X69544048Y-123402976D01*
X69489286Y-123348214D01*
X69489286Y-123457738D01*
X69489286Y-122745833D02*
X69434525Y-122800595D01*
X69489286Y-122855357D01*
X69544048Y-122800595D01*
X69489286Y-122745833D01*
X69489286Y-122855357D01*
X98211902Y-125332738D02*
X98211902Y-124182738D01*
X97719045Y-125332738D02*
X97719045Y-124730357D01*
X97773807Y-124620833D01*
X97883331Y-124566071D01*
X98047617Y-124566071D01*
X98157141Y-124620833D01*
X98211902Y-124675595D01*
X97335712Y-124566071D02*
X96897617Y-124566071D01*
X97171426Y-124182738D02*
X97171426Y-125168452D01*
X97116665Y-125277976D01*
X97007141Y-125332738D01*
X96897617Y-125332738D01*
X96678569Y-124566071D02*
X96240474Y-124566071D01*
X96514283Y-124182738D02*
X96514283Y-125168452D01*
X96459522Y-125277976D01*
X96349998Y-125332738D01*
X96240474Y-125332738D01*
X95857140Y-124566071D02*
X95857140Y-125716071D01*
X95857140Y-124620833D02*
X95747617Y-124566071D01*
X95528569Y-124566071D01*
X95419045Y-124620833D01*
X95364283Y-124675595D01*
X95309521Y-124785119D01*
X95309521Y-125113690D01*
X95364283Y-125223214D01*
X95419045Y-125277976D01*
X95528569Y-125332738D01*
X95747617Y-125332738D01*
X95857140Y-125277976D01*
X94871426Y-125277976D02*
X94761903Y-125332738D01*
X94542855Y-125332738D01*
X94433331Y-125277976D01*
X94378569Y-125168452D01*
X94378569Y-125113690D01*
X94433331Y-125004167D01*
X94542855Y-124949405D01*
X94707141Y-124949405D01*
X94816664Y-124894643D01*
X94871426Y-124785119D01*
X94871426Y-124730357D01*
X94816664Y-124620833D01*
X94707141Y-124566071D01*
X94542855Y-124566071D01*
X94433331Y-124620833D01*
X93885712Y-125223214D02*
X93830951Y-125277976D01*
X93885712Y-125332738D01*
X93940474Y-125277976D01*
X93885712Y-125223214D01*
X93885712Y-125332738D01*
X93885712Y-124620833D02*
X93830951Y-124675595D01*
X93885712Y-124730357D01*
X93940474Y-124675595D01*
X93885712Y-124620833D01*
X93885712Y-124730357D01*
X92516665Y-124127976D02*
X93502379Y-125606548D01*
X91311903Y-124127976D02*
X92297617Y-125606548D01*
X90435712Y-124566071D02*
X90435712Y-125497024D01*
X90490474Y-125606548D01*
X90545236Y-125661310D01*
X90654760Y-125716071D01*
X90819046Y-125716071D01*
X90928569Y-125661310D01*
X90435712Y-125277976D02*
X90545236Y-125332738D01*
X90764284Y-125332738D01*
X90873808Y-125277976D01*
X90928569Y-125223214D01*
X90983331Y-125113690D01*
X90983331Y-124785119D01*
X90928569Y-124675595D01*
X90873808Y-124620833D01*
X90764284Y-124566071D01*
X90545236Y-124566071D01*
X90435712Y-124620833D01*
X89888093Y-125332738D02*
X89888093Y-124566071D01*
X89888093Y-124182738D02*
X89942855Y-124237500D01*
X89888093Y-124292262D01*
X89833332Y-124237500D01*
X89888093Y-124182738D01*
X89888093Y-124292262D01*
X89504760Y-124566071D02*
X89066665Y-124566071D01*
X89340474Y-124182738D02*
X89340474Y-125168452D01*
X89285713Y-125277976D01*
X89176189Y-125332738D01*
X89066665Y-125332738D01*
X88683331Y-125332738D02*
X88683331Y-124182738D01*
X88190474Y-125332738D02*
X88190474Y-124730357D01*
X88245236Y-124620833D01*
X88354760Y-124566071D01*
X88519046Y-124566071D01*
X88628570Y-124620833D01*
X88683331Y-124675595D01*
X87149998Y-124566071D02*
X87149998Y-125332738D01*
X87642855Y-124566071D02*
X87642855Y-125168452D01*
X87588094Y-125277976D01*
X87478570Y-125332738D01*
X87314284Y-125332738D01*
X87204760Y-125277976D01*
X87149998Y-125223214D01*
X86602379Y-125332738D02*
X86602379Y-124182738D01*
X86602379Y-124620833D02*
X86492856Y-124566071D01*
X86273808Y-124566071D01*
X86164284Y-124620833D01*
X86109522Y-124675595D01*
X86054760Y-124785119D01*
X86054760Y-125113690D01*
X86109522Y-125223214D01*
X86164284Y-125277976D01*
X86273808Y-125332738D01*
X86492856Y-125332738D01*
X86602379Y-125277976D01*
X85561903Y-125223214D02*
X85507142Y-125277976D01*
X85561903Y-125332738D01*
X85616665Y-125277976D01*
X85561903Y-125223214D01*
X85561903Y-125332738D01*
X84521427Y-125277976D02*
X84630951Y-125332738D01*
X84849999Y-125332738D01*
X84959523Y-125277976D01*
X85014284Y-125223214D01*
X85069046Y-125113690D01*
X85069046Y-124785119D01*
X85014284Y-124675595D01*
X84959523Y-124620833D01*
X84849999Y-124566071D01*
X84630951Y-124566071D01*
X84521427Y-124620833D01*
X83864285Y-125332738D02*
X83973809Y-125277976D01*
X84028570Y-125223214D01*
X84083332Y-125113690D01*
X84083332Y-124785119D01*
X84028570Y-124675595D01*
X83973809Y-124620833D01*
X83864285Y-124566071D01*
X83699999Y-124566071D01*
X83590475Y-124620833D01*
X83535713Y-124675595D01*
X83480951Y-124785119D01*
X83480951Y-125113690D01*
X83535713Y-125223214D01*
X83590475Y-125277976D01*
X83699999Y-125332738D01*
X83864285Y-125332738D01*
X82988094Y-125332738D02*
X82988094Y-124566071D01*
X82988094Y-124675595D02*
X82933333Y-124620833D01*
X82823809Y-124566071D01*
X82659523Y-124566071D01*
X82549999Y-124620833D01*
X82495237Y-124730357D01*
X82495237Y-125332738D01*
X82495237Y-124730357D02*
X82440475Y-124620833D01*
X82330952Y-124566071D01*
X82166666Y-124566071D01*
X82057142Y-124620833D01*
X82002380Y-124730357D01*
X82002380Y-125332738D01*
X80633333Y-124127976D02*
X81619047Y-125606548D01*
X80249999Y-125332738D02*
X80249999Y-124566071D01*
X80249999Y-124785119D02*
X80195238Y-124675595D01*
X80140476Y-124620833D01*
X80030952Y-124566071D01*
X79921428Y-124566071D01*
X79045237Y-124566071D02*
X79045237Y-125497024D01*
X79099999Y-125606548D01*
X79154761Y-125661310D01*
X79264285Y-125716071D01*
X79428571Y-125716071D01*
X79538094Y-125661310D01*
X79045237Y-125277976D02*
X79154761Y-125332738D01*
X79373809Y-125332738D01*
X79483333Y-125277976D01*
X79538094Y-125223214D01*
X79592856Y-125113690D01*
X79592856Y-124785119D01*
X79538094Y-124675595D01*
X79483333Y-124620833D01*
X79373809Y-124566071D01*
X79154761Y-124566071D01*
X79045237Y-124620833D01*
X78333333Y-125332738D02*
X78442857Y-125277976D01*
X78497618Y-125168452D01*
X78497618Y-124182738D01*
X77457142Y-125277976D02*
X77566666Y-125332738D01*
X77785714Y-125332738D01*
X77895237Y-125277976D01*
X77949999Y-125168452D01*
X77949999Y-124730357D01*
X77895237Y-124620833D01*
X77785714Y-124566071D01*
X77566666Y-124566071D01*
X77457142Y-124620833D01*
X77402380Y-124730357D01*
X77402380Y-124839881D01*
X77949999Y-124949405D01*
X76909523Y-124566071D02*
X76909523Y-125332738D01*
X76909523Y-124675595D02*
X76854762Y-124620833D01*
X76745238Y-124566071D01*
X76580952Y-124566071D01*
X76471428Y-124620833D01*
X76416666Y-124730357D01*
X76416666Y-125332738D01*
X75869047Y-124566071D02*
X75869047Y-125332738D01*
X75869047Y-124675595D02*
X75814286Y-124620833D01*
X75704762Y-124566071D01*
X75540476Y-124566071D01*
X75430952Y-124620833D01*
X75376190Y-124730357D01*
X75376190Y-125332738D01*
X74007143Y-124127976D02*
X74992857Y-125606548D01*
X73459524Y-125332738D02*
X73569048Y-125277976D01*
X73623809Y-125223214D01*
X73678571Y-125113690D01*
X73678571Y-124785119D01*
X73623809Y-124675595D01*
X73569048Y-124620833D01*
X73459524Y-124566071D01*
X73295238Y-124566071D01*
X73185714Y-124620833D01*
X73130952Y-124675595D01*
X73076190Y-124785119D01*
X73076190Y-125113690D01*
X73130952Y-125223214D01*
X73185714Y-125277976D01*
X73295238Y-125332738D01*
X73459524Y-125332738D01*
X72747619Y-124566071D02*
X72309524Y-124566071D01*
X72583333Y-124182738D02*
X72583333Y-125168452D01*
X72528572Y-125277976D01*
X72419048Y-125332738D01*
X72309524Y-125332738D01*
X72090476Y-124566071D02*
X71652381Y-124566071D01*
X71926190Y-124182738D02*
X71926190Y-125168452D01*
X71871429Y-125277976D01*
X71761905Y-125332738D01*
X71652381Y-125332738D01*
X70776190Y-125332738D02*
X70776190Y-124730357D01*
X70830952Y-124620833D01*
X70940476Y-124566071D01*
X71159524Y-124566071D01*
X71269047Y-124620833D01*
X70776190Y-125277976D02*
X70885714Y-125332738D01*
X71159524Y-125332738D01*
X71269047Y-125277976D01*
X71323809Y-125168452D01*
X71323809Y-125058929D01*
X71269047Y-124949405D01*
X71159524Y-124894643D01*
X70885714Y-124894643D01*
X70776190Y-124839881D01*
X70338095Y-124566071D02*
X70119048Y-125332738D01*
X69900000Y-124785119D01*
X69680952Y-125332738D01*
X69461905Y-124566071D01*
X68530952Y-125332738D02*
X68530952Y-124730357D01*
X68585714Y-124620833D01*
X68695238Y-124566071D01*
X68914286Y-124566071D01*
X69023809Y-124620833D01*
X68530952Y-125277976D02*
X68640476Y-125332738D01*
X68914286Y-125332738D01*
X69023809Y-125277976D01*
X69078571Y-125168452D01*
X69078571Y-125058929D01*
X69023809Y-124949405D01*
X68914286Y-124894643D01*
X68640476Y-124894643D01*
X68530952Y-124839881D01*
X67983333Y-124894643D02*
X67107143Y-124894643D01*
X66559523Y-125332738D02*
X66559523Y-124182738D01*
X66559523Y-124620833D02*
X66450000Y-124566071D01*
X66230952Y-124566071D01*
X66121428Y-124620833D01*
X66066666Y-124675595D01*
X66011904Y-124785119D01*
X66011904Y-125113690D01*
X66066666Y-125223214D01*
X66121428Y-125277976D01*
X66230952Y-125332738D01*
X66450000Y-125332738D01*
X66559523Y-125277976D01*
X65026190Y-125332738D02*
X65026190Y-124730357D01*
X65080952Y-124620833D01*
X65190476Y-124566071D01*
X65409524Y-124566071D01*
X65519047Y-124620833D01*
X65026190Y-125277976D02*
X65135714Y-125332738D01*
X65409524Y-125332738D01*
X65519047Y-125277976D01*
X65573809Y-125168452D01*
X65573809Y-125058929D01*
X65519047Y-124949405D01*
X65409524Y-124894643D01*
X65135714Y-124894643D01*
X65026190Y-124839881D01*
X63985714Y-125332738D02*
X63985714Y-124182738D01*
X63985714Y-125277976D02*
X64095238Y-125332738D01*
X64314286Y-125332738D01*
X64423810Y-125277976D01*
X64478571Y-125223214D01*
X64533333Y-125113690D01*
X64533333Y-124785119D01*
X64478571Y-124675595D01*
X64423810Y-124620833D01*
X64314286Y-124566071D01*
X64095238Y-124566071D01*
X63985714Y-124620833D01*
X62945238Y-124566071D02*
X62945238Y-125497024D01*
X63000000Y-125606548D01*
X63054762Y-125661310D01*
X63164286Y-125716071D01*
X63328572Y-125716071D01*
X63438095Y-125661310D01*
X62945238Y-125277976D02*
X63054762Y-125332738D01*
X63273810Y-125332738D01*
X63383334Y-125277976D01*
X63438095Y-125223214D01*
X63492857Y-125113690D01*
X63492857Y-124785119D01*
X63438095Y-124675595D01*
X63383334Y-124620833D01*
X63273810Y-124566071D01*
X63054762Y-124566071D01*
X62945238Y-124620833D01*
X61959524Y-125277976D02*
X62069048Y-125332738D01*
X62288096Y-125332738D01*
X62397619Y-125277976D01*
X62452381Y-125168452D01*
X62452381Y-124730357D01*
X62397619Y-124620833D01*
X62288096Y-124566071D01*
X62069048Y-124566071D01*
X61959524Y-124620833D01*
X61904762Y-124730357D01*
X61904762Y-124839881D01*
X62452381Y-124949405D01*
X61466667Y-125277976D02*
X61357144Y-125332738D01*
X61138096Y-125332738D01*
X61028572Y-125277976D01*
X60973810Y-125168452D01*
X60973810Y-125113690D01*
X61028572Y-125004167D01*
X61138096Y-124949405D01*
X61302382Y-124949405D01*
X61411905Y-124894643D01*
X61466667Y-124785119D01*
X61466667Y-124730357D01*
X61411905Y-124620833D01*
X61302382Y-124566071D01*
X61138096Y-124566071D01*
X61028572Y-124620833D01*
X60480953Y-124894643D02*
X59604763Y-124894643D01*
X59111905Y-124292262D02*
X59057143Y-124237500D01*
X58947620Y-124182738D01*
X58673810Y-124182738D01*
X58564286Y-124237500D01*
X58509524Y-124292262D01*
X58454763Y-124401786D01*
X58454763Y-124511310D01*
X58509524Y-124675595D01*
X59166667Y-125332738D01*
X58454763Y-125332738D01*
X57742858Y-124182738D02*
X57633334Y-124182738D01*
X57523810Y-124237500D01*
X57469048Y-124292262D01*
X57414286Y-124401786D01*
X57359525Y-124620833D01*
X57359525Y-124894643D01*
X57414286Y-125113690D01*
X57469048Y-125223214D01*
X57523810Y-125277976D01*
X57633334Y-125332738D01*
X57742858Y-125332738D01*
X57852382Y-125277976D01*
X57907144Y-125223214D01*
X57961905Y-125113690D01*
X58016667Y-124894643D01*
X58016667Y-124620833D01*
X57961905Y-124401786D01*
X57907144Y-124292262D01*
X57852382Y-124237500D01*
X57742858Y-124182738D01*
X56264287Y-125332738D02*
X56921429Y-125332738D01*
X56592858Y-125332738D02*
X56592858Y-124182738D01*
X56702382Y-124347024D01*
X56811906Y-124456548D01*
X56921429Y-124511310D01*
X55607144Y-124675595D02*
X55716668Y-124620833D01*
X55771429Y-124566071D01*
X55826191Y-124456548D01*
X55826191Y-124401786D01*
X55771429Y-124292262D01*
X55716668Y-124237500D01*
X55607144Y-124182738D01*
X55388096Y-124182738D01*
X55278572Y-124237500D01*
X55223810Y-124292262D01*
X55169049Y-124401786D01*
X55169049Y-124456548D01*
X55223810Y-124566071D01*
X55278572Y-124620833D01*
X55388096Y-124675595D01*
X55607144Y-124675595D01*
X55716668Y-124730357D01*
X55771429Y-124785119D01*
X55826191Y-124894643D01*
X55826191Y-125113690D01*
X55771429Y-125223214D01*
X55716668Y-125277976D01*
X55607144Y-125332738D01*
X55388096Y-125332738D01*
X55278572Y-125277976D01*
X55223810Y-125223214D01*
X55169049Y-125113690D01*
X55169049Y-124894643D01*
X55223810Y-124785119D01*
X55278572Y-124730357D01*
X55388096Y-124675595D01*
X53854763Y-124127976D02*
X54840477Y-125606548D01*
X53580953Y-124566071D02*
X53361906Y-125332738D01*
X53142858Y-124785119D01*
X52923810Y-125332738D01*
X52704763Y-124566071D01*
X52266667Y-125332738D02*
X52266667Y-124566071D01*
X52266667Y-124182738D02*
X52321429Y-124237500D01*
X52266667Y-124292262D01*
X52211906Y-124237500D01*
X52266667Y-124182738D01*
X52266667Y-124292262D01*
X51719048Y-125332738D02*
X51719048Y-124182738D01*
X51609525Y-124894643D02*
X51280953Y-125332738D01*
X51280953Y-124566071D02*
X51719048Y-125004167D01*
X50788096Y-125332738D02*
X50788096Y-124566071D01*
X50788096Y-124182738D02*
X50842858Y-124237500D01*
X50788096Y-124292262D01*
X50733335Y-124237500D01*
X50788096Y-124182738D01*
X50788096Y-124292262D01*
X75261904Y-59500000D02*
X75357142Y-59452381D01*
X75499999Y-59452381D01*
X75642857Y-59500000D01*
X75738095Y-59595238D01*
X75785714Y-59690476D01*
X75833333Y-59880952D01*
X75833333Y-60023810D01*
X75785714Y-60214286D01*
X75738095Y-60309524D01*
X75642857Y-60404762D01*
X75499999Y-60452381D01*
X75404761Y-60452381D01*
X75261904Y-60404762D01*
X75214285Y-60357143D01*
X75214285Y-60023810D01*
X75404761Y-60023810D01*
X74785714Y-60452381D02*
X74785714Y-59452381D01*
X74214285Y-60452381D01*
X74214285Y-59452381D01*
X73738095Y-60452381D02*
X73738095Y-59452381D01*
X73500000Y-59452381D01*
X73357142Y-59500000D01*
X73261904Y-59595238D01*
X73214285Y-59690476D01*
X73166666Y-59880952D01*
X73166666Y-60023810D01*
X73214285Y-60214286D01*
X73261904Y-60309524D01*
X73357142Y-60404762D01*
X73500000Y-60452381D01*
X73738095Y-60452381D01*
X88642859Y-66057143D02*
X88690478Y-66104762D01*
X88833335Y-66152381D01*
X88928573Y-66152381D01*
X89071431Y-66104762D01*
X89166669Y-66009524D01*
X89214288Y-65914286D01*
X89261907Y-65723810D01*
X89261907Y-65580952D01*
X89214288Y-65390476D01*
X89166669Y-65295238D01*
X89071431Y-65200000D01*
X88928573Y-65152381D01*
X88833335Y-65152381D01*
X88690478Y-65200000D01*
X88642859Y-65247619D01*
X87785716Y-65485714D02*
X87785716Y-66152381D01*
X88214288Y-65485714D02*
X88214288Y-66009524D01*
X88166669Y-66104762D01*
X88071431Y-66152381D01*
X87928573Y-66152381D01*
X87833335Y-66104762D01*
X87785716Y-66057143D01*
X87452383Y-65485714D02*
X87071431Y-65485714D01*
X87309526Y-65152381D02*
X87309526Y-66009524D01*
X87261907Y-66104762D01*
X87166669Y-66152381D01*
X87071431Y-66152381D01*
X85690477Y-65152381D02*
X85690477Y-65866667D01*
X85738097Y-66009524D01*
X85833335Y-66104762D01*
X85976192Y-66152381D01*
X86071430Y-66152381D01*
X85214287Y-66152381D02*
X85214287Y-65152381D01*
X84833334Y-65152381D01*
X84738096Y-65200000D01*
X84690477Y-65247619D01*
X84642858Y-65342857D01*
X84642858Y-65485714D01*
X84690477Y-65580952D01*
X84738096Y-65628571D01*
X84833334Y-65676190D01*
X85214287Y-65676190D01*
X83690477Y-66152381D02*
X84261906Y-66152381D01*
X83976192Y-66152381D02*
X83976192Y-65152381D01*
X84071430Y-65295238D01*
X84166668Y-65390476D01*
X84261906Y-65438095D01*
X83261906Y-65771429D02*
X82500001Y-65771429D01*
X81738096Y-65152381D02*
X81738096Y-65866667D01*
X81785716Y-66009524D01*
X81880954Y-66104762D01*
X82023811Y-66152381D01*
X82119049Y-66152381D01*
X81261906Y-66152381D02*
X81261906Y-65152381D01*
X80880953Y-65152381D01*
X80785715Y-65200000D01*
X80738096Y-65247619D01*
X80690477Y-65342857D01*
X80690477Y-65485714D01*
X80738096Y-65580952D01*
X80785715Y-65628571D01*
X80880953Y-65676190D01*
X81261906Y-65676190D01*
X80357144Y-65152381D02*
X79690477Y-65152381D01*
X80119049Y-66152381D01*
X78690477Y-65485714D02*
X78309525Y-65485714D01*
X78547620Y-65152381D02*
X78547620Y-66009524D01*
X78500001Y-66104762D01*
X78404763Y-66152381D01*
X78309525Y-66152381D01*
X77833334Y-66152381D02*
X77928572Y-66104762D01*
X77976191Y-66057143D01*
X78023810Y-65961905D01*
X78023810Y-65676190D01*
X77976191Y-65580952D01*
X77928572Y-65533333D01*
X77833334Y-65485714D01*
X77690476Y-65485714D01*
X77595238Y-65533333D01*
X77547619Y-65580952D01*
X77500000Y-65676190D01*
X77500000Y-65961905D01*
X77547619Y-66057143D01*
X77595238Y-66104762D01*
X77690476Y-66152381D01*
X77833334Y-66152381D01*
X75880952Y-66152381D02*
X75880952Y-65152381D01*
X75880952Y-66104762D02*
X75976190Y-66152381D01*
X76166667Y-66152381D01*
X76261905Y-66104762D01*
X76309524Y-66057143D01*
X76357143Y-65961905D01*
X76357143Y-65676190D01*
X76309524Y-65580952D01*
X76261905Y-65533333D01*
X76166667Y-65485714D01*
X75976190Y-65485714D01*
X75880952Y-65533333D01*
X75404762Y-66152381D02*
X75404762Y-65485714D01*
X75404762Y-65152381D02*
X75452381Y-65200000D01*
X75404762Y-65247619D01*
X75357143Y-65200000D01*
X75404762Y-65152381D01*
X75404762Y-65247619D01*
X74976191Y-66104762D02*
X74880953Y-66152381D01*
X74690477Y-66152381D01*
X74595238Y-66104762D01*
X74547619Y-66009524D01*
X74547619Y-65961905D01*
X74595238Y-65866667D01*
X74690477Y-65819048D01*
X74833334Y-65819048D01*
X74928572Y-65771429D01*
X74976191Y-65676190D01*
X74976191Y-65628571D01*
X74928572Y-65533333D01*
X74833334Y-65485714D01*
X74690477Y-65485714D01*
X74595238Y-65533333D01*
X73690476Y-66104762D02*
X73785714Y-66152381D01*
X73976191Y-66152381D01*
X74071429Y-66104762D01*
X74119048Y-66057143D01*
X74166667Y-65961905D01*
X74166667Y-65676190D01*
X74119048Y-65580952D01*
X74071429Y-65533333D01*
X73976191Y-65485714D01*
X73785714Y-65485714D01*
X73690476Y-65533333D01*
X73119048Y-66152381D02*
X73214286Y-66104762D01*
X73261905Y-66057143D01*
X73309524Y-65961905D01*
X73309524Y-65676190D01*
X73261905Y-65580952D01*
X73214286Y-65533333D01*
X73119048Y-65485714D01*
X72976190Y-65485714D01*
X72880952Y-65533333D01*
X72833333Y-65580952D01*
X72785714Y-65676190D01*
X72785714Y-65961905D01*
X72833333Y-66057143D01*
X72880952Y-66104762D01*
X72976190Y-66152381D01*
X73119048Y-66152381D01*
X72357143Y-65485714D02*
X72357143Y-66152381D01*
X72357143Y-65580952D02*
X72309524Y-65533333D01*
X72214286Y-65485714D01*
X72071428Y-65485714D01*
X71976190Y-65533333D01*
X71928571Y-65628571D01*
X71928571Y-66152381D01*
X71452381Y-65485714D02*
X71452381Y-66152381D01*
X71452381Y-65580952D02*
X71404762Y-65533333D01*
X71309524Y-65485714D01*
X71166666Y-65485714D01*
X71071428Y-65533333D01*
X71023809Y-65628571D01*
X71023809Y-66152381D01*
X70166666Y-66104762D02*
X70261904Y-66152381D01*
X70452381Y-66152381D01*
X70547619Y-66104762D01*
X70595238Y-66009524D01*
X70595238Y-65628571D01*
X70547619Y-65533333D01*
X70452381Y-65485714D01*
X70261904Y-65485714D01*
X70166666Y-65533333D01*
X70119047Y-65628571D01*
X70119047Y-65723810D01*
X70595238Y-65819048D01*
X69261904Y-66104762D02*
X69357142Y-66152381D01*
X69547619Y-66152381D01*
X69642857Y-66104762D01*
X69690476Y-66057143D01*
X69738095Y-65961905D01*
X69738095Y-65676190D01*
X69690476Y-65580952D01*
X69642857Y-65533333D01*
X69547619Y-65485714D01*
X69357142Y-65485714D01*
X69261904Y-65533333D01*
X68976190Y-65485714D02*
X68595238Y-65485714D01*
X68833333Y-65152381D02*
X68833333Y-66009524D01*
X68785714Y-66104762D01*
X68690476Y-66152381D01*
X68595238Y-66152381D01*
X67023808Y-66152381D02*
X67499999Y-66152381D01*
X67499999Y-65152381D01*
X66690475Y-65628571D02*
X66357141Y-65628571D01*
X66214284Y-66152381D02*
X66690475Y-66152381D01*
X66690475Y-65152381D01*
X66214284Y-65152381D01*
X65785713Y-66152381D02*
X65785713Y-65152381D01*
X65547618Y-65152381D01*
X65404760Y-65200000D01*
X65309522Y-65295238D01*
X65261903Y-65390476D01*
X65214284Y-65580952D01*
X65214284Y-65723810D01*
X65261903Y-65914286D01*
X65309522Y-66009524D01*
X65404760Y-66104762D01*
X65547618Y-66152381D01*
X65785713Y-66152381D01*
X64023808Y-66152381D02*
X64023808Y-65485714D01*
X64023808Y-65580952D02*
X63976189Y-65533333D01*
X63880951Y-65485714D01*
X63738093Y-65485714D01*
X63642855Y-65533333D01*
X63595236Y-65628571D01*
X63595236Y-66152381D01*
X63595236Y-65628571D02*
X63547617Y-65533333D01*
X63452379Y-65485714D01*
X63309522Y-65485714D01*
X63214284Y-65533333D01*
X63166665Y-65628571D01*
X63166665Y-66152381D01*
X62261903Y-66152381D02*
X62261903Y-65628571D01*
X62309522Y-65533333D01*
X62404760Y-65485714D01*
X62595237Y-65485714D01*
X62690475Y-65533333D01*
X62261903Y-66104762D02*
X62357141Y-66152381D01*
X62595237Y-66152381D01*
X62690475Y-66104762D01*
X62738094Y-66009524D01*
X62738094Y-65914286D01*
X62690475Y-65819048D01*
X62595237Y-65771429D01*
X62357141Y-65771429D01*
X62261903Y-65723810D01*
X61928570Y-65485714D02*
X61547618Y-65485714D01*
X61785713Y-65152381D02*
X61785713Y-66009524D01*
X61738094Y-66104762D01*
X61642856Y-66152381D01*
X61547618Y-66152381D01*
X61214284Y-66152381D02*
X61214284Y-65485714D01*
X61214284Y-65676190D02*
X61166665Y-65580952D01*
X61119046Y-65533333D01*
X61023808Y-65485714D01*
X60928569Y-65485714D01*
X60595236Y-66152381D02*
X60595236Y-65485714D01*
X60595236Y-65152381D02*
X60642855Y-65200000D01*
X60595236Y-65247619D01*
X60547617Y-65200000D01*
X60595236Y-65152381D01*
X60595236Y-65247619D01*
X60214284Y-66152381D02*
X59690474Y-65485714D01*
X60214284Y-65485714D02*
X59690474Y-66152381D01*
X85023811Y-67707143D02*
X85071430Y-67754762D01*
X85214287Y-67802381D01*
X85309525Y-67802381D01*
X85452383Y-67754762D01*
X85547621Y-67659524D01*
X85595240Y-67564286D01*
X85642859Y-67373810D01*
X85642859Y-67230952D01*
X85595240Y-67040476D01*
X85547621Y-66945238D01*
X85452383Y-66850000D01*
X85309525Y-66802381D01*
X85214287Y-66802381D01*
X85071430Y-66850000D01*
X85023811Y-66897619D01*
X84166668Y-67135714D02*
X84166668Y-67802381D01*
X84595240Y-67135714D02*
X84595240Y-67659524D01*
X84547621Y-67754762D01*
X84452383Y-67802381D01*
X84309525Y-67802381D01*
X84214287Y-67754762D01*
X84166668Y-67707143D01*
X83833335Y-67135714D02*
X83452383Y-67135714D01*
X83690478Y-66802381D02*
X83690478Y-67659524D01*
X83642859Y-67754762D01*
X83547621Y-67802381D01*
X83452383Y-67802381D01*
X82071429Y-66802381D02*
X82071429Y-67516667D01*
X82119049Y-67659524D01*
X82214287Y-67754762D01*
X82357144Y-67802381D01*
X82452382Y-67802381D01*
X81595239Y-67802381D02*
X81595239Y-66802381D01*
X81214286Y-66802381D01*
X81119048Y-66850000D01*
X81071429Y-66897619D01*
X81023810Y-66992857D01*
X81023810Y-67135714D01*
X81071429Y-67230952D01*
X81119048Y-67278571D01*
X81214286Y-67326190D01*
X81595239Y-67326190D01*
X80452382Y-67230952D02*
X80547620Y-67183333D01*
X80595239Y-67135714D01*
X80642858Y-67040476D01*
X80642858Y-66992857D01*
X80595239Y-66897619D01*
X80547620Y-66850000D01*
X80452382Y-66802381D01*
X80261905Y-66802381D01*
X80166667Y-66850000D01*
X80119048Y-66897619D01*
X80071429Y-66992857D01*
X80071429Y-67040476D01*
X80119048Y-67135714D01*
X80166667Y-67183333D01*
X80261905Y-67230952D01*
X80452382Y-67230952D01*
X80547620Y-67278571D01*
X80595239Y-67326190D01*
X80642858Y-67421429D01*
X80642858Y-67611905D01*
X80595239Y-67707143D01*
X80547620Y-67754762D01*
X80452382Y-67802381D01*
X80261905Y-67802381D01*
X80166667Y-67754762D01*
X80119048Y-67707143D01*
X80071429Y-67611905D01*
X80071429Y-67421429D01*
X80119048Y-67326190D01*
X80166667Y-67278571D01*
X80261905Y-67230952D01*
X79023810Y-67135714D02*
X78642858Y-67135714D01*
X78880953Y-66802381D02*
X78880953Y-67659524D01*
X78833334Y-67754762D01*
X78738096Y-67802381D01*
X78642858Y-67802381D01*
X78166667Y-67802381D02*
X78261905Y-67754762D01*
X78309524Y-67707143D01*
X78357143Y-67611905D01*
X78357143Y-67326190D01*
X78309524Y-67230952D01*
X78261905Y-67183333D01*
X78166667Y-67135714D01*
X78023809Y-67135714D01*
X77928571Y-67183333D01*
X77880952Y-67230952D01*
X77833333Y-67326190D01*
X77833333Y-67611905D01*
X77880952Y-67707143D01*
X77928571Y-67754762D01*
X78023809Y-67802381D01*
X78166667Y-67802381D01*
X76214285Y-67802381D02*
X76214285Y-66802381D01*
X76214285Y-67754762D02*
X76309523Y-67802381D01*
X76500000Y-67802381D01*
X76595238Y-67754762D01*
X76642857Y-67707143D01*
X76690476Y-67611905D01*
X76690476Y-67326190D01*
X76642857Y-67230952D01*
X76595238Y-67183333D01*
X76500000Y-67135714D01*
X76309523Y-67135714D01*
X76214285Y-67183333D01*
X75738095Y-67802381D02*
X75738095Y-67135714D01*
X75738095Y-66802381D02*
X75785714Y-66850000D01*
X75738095Y-66897619D01*
X75690476Y-66850000D01*
X75738095Y-66802381D01*
X75738095Y-66897619D01*
X75309524Y-67754762D02*
X75214286Y-67802381D01*
X75023810Y-67802381D01*
X74928571Y-67754762D01*
X74880952Y-67659524D01*
X74880952Y-67611905D01*
X74928571Y-67516667D01*
X75023810Y-67469048D01*
X75166667Y-67469048D01*
X75261905Y-67421429D01*
X75309524Y-67326190D01*
X75309524Y-67278571D01*
X75261905Y-67183333D01*
X75166667Y-67135714D01*
X75023810Y-67135714D01*
X74928571Y-67183333D01*
X74023809Y-67754762D02*
X74119047Y-67802381D01*
X74309524Y-67802381D01*
X74404762Y-67754762D01*
X74452381Y-67707143D01*
X74500000Y-67611905D01*
X74500000Y-67326190D01*
X74452381Y-67230952D01*
X74404762Y-67183333D01*
X74309524Y-67135714D01*
X74119047Y-67135714D01*
X74023809Y-67183333D01*
X73452381Y-67802381D02*
X73547619Y-67754762D01*
X73595238Y-67707143D01*
X73642857Y-67611905D01*
X73642857Y-67326190D01*
X73595238Y-67230952D01*
X73547619Y-67183333D01*
X73452381Y-67135714D01*
X73309523Y-67135714D01*
X73214285Y-67183333D01*
X73166666Y-67230952D01*
X73119047Y-67326190D01*
X73119047Y-67611905D01*
X73166666Y-67707143D01*
X73214285Y-67754762D01*
X73309523Y-67802381D01*
X73452381Y-67802381D01*
X72690476Y-67135714D02*
X72690476Y-67802381D01*
X72690476Y-67230952D02*
X72642857Y-67183333D01*
X72547619Y-67135714D01*
X72404761Y-67135714D01*
X72309523Y-67183333D01*
X72261904Y-67278571D01*
X72261904Y-67802381D01*
X71785714Y-67135714D02*
X71785714Y-67802381D01*
X71785714Y-67230952D02*
X71738095Y-67183333D01*
X71642857Y-67135714D01*
X71499999Y-67135714D01*
X71404761Y-67183333D01*
X71357142Y-67278571D01*
X71357142Y-67802381D01*
X70499999Y-67754762D02*
X70595237Y-67802381D01*
X70785714Y-67802381D01*
X70880952Y-67754762D01*
X70928571Y-67659524D01*
X70928571Y-67278571D01*
X70880952Y-67183333D01*
X70785714Y-67135714D01*
X70595237Y-67135714D01*
X70499999Y-67183333D01*
X70452380Y-67278571D01*
X70452380Y-67373810D01*
X70928571Y-67469048D01*
X69595237Y-67754762D02*
X69690475Y-67802381D01*
X69880952Y-67802381D01*
X69976190Y-67754762D01*
X70023809Y-67707143D01*
X70071428Y-67611905D01*
X70071428Y-67326190D01*
X70023809Y-67230952D01*
X69976190Y-67183333D01*
X69880952Y-67135714D01*
X69690475Y-67135714D01*
X69595237Y-67183333D01*
X69309523Y-67135714D02*
X68928571Y-67135714D01*
X69166666Y-66802381D02*
X69166666Y-67659524D01*
X69119047Y-67754762D01*
X69023809Y-67802381D01*
X68928571Y-67802381D01*
X67833332Y-67802381D02*
X67833332Y-66802381D01*
X67833332Y-67183333D02*
X67738094Y-67135714D01*
X67547617Y-67135714D01*
X67452379Y-67183333D01*
X67404760Y-67230952D01*
X67357141Y-67326190D01*
X67357141Y-67611905D01*
X67404760Y-67707143D01*
X67452379Y-67754762D01*
X67547617Y-67802381D01*
X67738094Y-67802381D01*
X67833332Y-67754762D01*
X66499998Y-67135714D02*
X66499998Y-67802381D01*
X66928570Y-67135714D02*
X66928570Y-67659524D01*
X66880951Y-67754762D01*
X66785713Y-67802381D01*
X66642855Y-67802381D01*
X66547617Y-67754762D01*
X66499998Y-67707143D01*
X66119046Y-67135714D02*
X65595236Y-67135714D01*
X66119046Y-67802381D01*
X65595236Y-67802381D01*
X65309522Y-67135714D02*
X64785712Y-67135714D01*
X65309522Y-67802381D01*
X64785712Y-67802381D01*
X64023807Y-67754762D02*
X64119045Y-67802381D01*
X64309522Y-67802381D01*
X64404760Y-67754762D01*
X64452379Y-67659524D01*
X64452379Y-67278571D01*
X64404760Y-67183333D01*
X64309522Y-67135714D01*
X64119045Y-67135714D01*
X64023807Y-67183333D01*
X63976188Y-67278571D01*
X63976188Y-67373810D01*
X64452379Y-67469048D01*
X63547617Y-67802381D02*
X63547617Y-67135714D01*
X63547617Y-67326190D02*
X63499998Y-67230952D01*
X63452379Y-67183333D01*
X63357141Y-67135714D01*
X63261902Y-67135714D01*
X84880954Y-69357143D02*
X84928573Y-69404762D01*
X85071430Y-69452381D01*
X85166668Y-69452381D01*
X85309526Y-69404762D01*
X85404764Y-69309524D01*
X85452383Y-69214286D01*
X85500002Y-69023810D01*
X85500002Y-68880952D01*
X85452383Y-68690476D01*
X85404764Y-68595238D01*
X85309526Y-68500000D01*
X85166668Y-68452381D01*
X85071430Y-68452381D01*
X84928573Y-68500000D01*
X84880954Y-68547619D01*
X84023811Y-68785714D02*
X84023811Y-69452381D01*
X84452383Y-68785714D02*
X84452383Y-69309524D01*
X84404764Y-69404762D01*
X84309526Y-69452381D01*
X84166668Y-69452381D01*
X84071430Y-69404762D01*
X84023811Y-69357143D01*
X83690478Y-68785714D02*
X83309526Y-68785714D01*
X83547621Y-68452381D02*
X83547621Y-69309524D01*
X83500002Y-69404762D01*
X83404764Y-69452381D01*
X83309526Y-69452381D01*
X81928572Y-68452381D02*
X81928572Y-69166667D01*
X81976192Y-69309524D01*
X82071430Y-69404762D01*
X82214287Y-69452381D01*
X82309525Y-69452381D01*
X81452382Y-69452381D02*
X81452382Y-68452381D01*
X81071429Y-68452381D01*
X80976191Y-68500000D01*
X80928572Y-68547619D01*
X80880953Y-68642857D01*
X80880953Y-68785714D01*
X80928572Y-68880952D01*
X80976191Y-68928571D01*
X81071429Y-68976190D01*
X81452382Y-68976190D01*
X80404763Y-69452381D02*
X80214287Y-69452381D01*
X80119048Y-69404762D01*
X80071429Y-69357143D01*
X79976191Y-69214286D01*
X79928572Y-69023810D01*
X79928572Y-68642857D01*
X79976191Y-68547619D01*
X80023810Y-68500000D01*
X80119048Y-68452381D01*
X80309525Y-68452381D01*
X80404763Y-68500000D01*
X80452382Y-68547619D01*
X80500001Y-68642857D01*
X80500001Y-68880952D01*
X80452382Y-68976190D01*
X80404763Y-69023810D01*
X80309525Y-69071429D01*
X80119048Y-69071429D01*
X80023810Y-69023810D01*
X79976191Y-68976190D01*
X79928572Y-68880952D01*
X78880953Y-68785714D02*
X78500001Y-68785714D01*
X78738096Y-68452381D02*
X78738096Y-69309524D01*
X78690477Y-69404762D01*
X78595239Y-69452381D01*
X78500001Y-69452381D01*
X78023810Y-69452381D02*
X78119048Y-69404762D01*
X78166667Y-69357143D01*
X78214286Y-69261905D01*
X78214286Y-68976190D01*
X78166667Y-68880952D01*
X78119048Y-68833333D01*
X78023810Y-68785714D01*
X77880952Y-68785714D01*
X77785714Y-68833333D01*
X77738095Y-68880952D01*
X77690476Y-68976190D01*
X77690476Y-69261905D01*
X77738095Y-69357143D01*
X77785714Y-69404762D01*
X77880952Y-69452381D01*
X78023810Y-69452381D01*
X76071428Y-69452381D02*
X76071428Y-68452381D01*
X76071428Y-69404762D02*
X76166666Y-69452381D01*
X76357143Y-69452381D01*
X76452381Y-69404762D01*
X76500000Y-69357143D01*
X76547619Y-69261905D01*
X76547619Y-68976190D01*
X76500000Y-68880952D01*
X76452381Y-68833333D01*
X76357143Y-68785714D01*
X76166666Y-68785714D01*
X76071428Y-68833333D01*
X75595238Y-69452381D02*
X75595238Y-68785714D01*
X75595238Y-68452381D02*
X75642857Y-68500000D01*
X75595238Y-68547619D01*
X75547619Y-68500000D01*
X75595238Y-68452381D01*
X75595238Y-68547619D01*
X75166667Y-69404762D02*
X75071429Y-69452381D01*
X74880953Y-69452381D01*
X74785714Y-69404762D01*
X74738095Y-69309524D01*
X74738095Y-69261905D01*
X74785714Y-69166667D01*
X74880953Y-69119048D01*
X75023810Y-69119048D01*
X75119048Y-69071429D01*
X75166667Y-68976190D01*
X75166667Y-68928571D01*
X75119048Y-68833333D01*
X75023810Y-68785714D01*
X74880953Y-68785714D01*
X74785714Y-68833333D01*
X73880952Y-69404762D02*
X73976190Y-69452381D01*
X74166667Y-69452381D01*
X74261905Y-69404762D01*
X74309524Y-69357143D01*
X74357143Y-69261905D01*
X74357143Y-68976190D01*
X74309524Y-68880952D01*
X74261905Y-68833333D01*
X74166667Y-68785714D01*
X73976190Y-68785714D01*
X73880952Y-68833333D01*
X73309524Y-69452381D02*
X73404762Y-69404762D01*
X73452381Y-69357143D01*
X73500000Y-69261905D01*
X73500000Y-68976190D01*
X73452381Y-68880952D01*
X73404762Y-68833333D01*
X73309524Y-68785714D01*
X73166666Y-68785714D01*
X73071428Y-68833333D01*
X73023809Y-68880952D01*
X72976190Y-68976190D01*
X72976190Y-69261905D01*
X73023809Y-69357143D01*
X73071428Y-69404762D01*
X73166666Y-69452381D01*
X73309524Y-69452381D01*
X72547619Y-68785714D02*
X72547619Y-69452381D01*
X72547619Y-68880952D02*
X72500000Y-68833333D01*
X72404762Y-68785714D01*
X72261904Y-68785714D01*
X72166666Y-68833333D01*
X72119047Y-68928571D01*
X72119047Y-69452381D01*
X71642857Y-68785714D02*
X71642857Y-69452381D01*
X71642857Y-68880952D02*
X71595238Y-68833333D01*
X71500000Y-68785714D01*
X71357142Y-68785714D01*
X71261904Y-68833333D01*
X71214285Y-68928571D01*
X71214285Y-69452381D01*
X70357142Y-69404762D02*
X70452380Y-69452381D01*
X70642857Y-69452381D01*
X70738095Y-69404762D01*
X70785714Y-69309524D01*
X70785714Y-68928571D01*
X70738095Y-68833333D01*
X70642857Y-68785714D01*
X70452380Y-68785714D01*
X70357142Y-68833333D01*
X70309523Y-68928571D01*
X70309523Y-69023810D01*
X70785714Y-69119048D01*
X69452380Y-69404762D02*
X69547618Y-69452381D01*
X69738095Y-69452381D01*
X69833333Y-69404762D01*
X69880952Y-69357143D01*
X69928571Y-69261905D01*
X69928571Y-68976190D01*
X69880952Y-68880952D01*
X69833333Y-68833333D01*
X69738095Y-68785714D01*
X69547618Y-68785714D01*
X69452380Y-68833333D01*
X69166666Y-68785714D02*
X68785714Y-68785714D01*
X69023809Y-68452381D02*
X69023809Y-69309524D01*
X68976190Y-69404762D01*
X68880952Y-69452381D01*
X68785714Y-69452381D01*
X67214284Y-69452381D02*
X67690475Y-69452381D01*
X67690475Y-68452381D01*
X66880951Y-68928571D02*
X66547617Y-68928571D01*
X66404760Y-69452381D02*
X66880951Y-69452381D01*
X66880951Y-68452381D01*
X66404760Y-68452381D01*
X65976189Y-69452381D02*
X65976189Y-68452381D01*
X65738094Y-68452381D01*
X65595236Y-68500000D01*
X65499998Y-68595238D01*
X65452379Y-68690476D01*
X65404760Y-68880952D01*
X65404760Y-69023810D01*
X65452379Y-69214286D01*
X65499998Y-69309524D01*
X65595236Y-69404762D01*
X65738094Y-69452381D01*
X65976189Y-69452381D01*
X64547617Y-68785714D02*
X64547617Y-69452381D01*
X64785713Y-68404762D02*
X65023808Y-69119048D01*
X64404760Y-69119048D01*
X63499998Y-69452381D02*
X64071427Y-69452381D01*
X63785713Y-69452381D02*
X63785713Y-68452381D01*
X63880951Y-68595238D01*
X63976189Y-68690476D01*
X64071427Y-68738095D01*
X89000002Y-71007143D02*
X89047621Y-71054762D01*
X89190478Y-71102381D01*
X89285716Y-71102381D01*
X89428574Y-71054762D01*
X89523812Y-70959524D01*
X89571431Y-70864286D01*
X89619050Y-70673810D01*
X89619050Y-70530952D01*
X89571431Y-70340476D01*
X89523812Y-70245238D01*
X89428574Y-70150000D01*
X89285716Y-70102381D01*
X89190478Y-70102381D01*
X89047621Y-70150000D01*
X89000002Y-70197619D01*
X88142859Y-70435714D02*
X88142859Y-71102381D01*
X88571431Y-70435714D02*
X88571431Y-70959524D01*
X88523812Y-71054762D01*
X88428574Y-71102381D01*
X88285716Y-71102381D01*
X88190478Y-71054762D01*
X88142859Y-71007143D01*
X87809526Y-70435714D02*
X87428574Y-70435714D01*
X87666669Y-70102381D02*
X87666669Y-70959524D01*
X87619050Y-71054762D01*
X87523812Y-71102381D01*
X87428574Y-71102381D01*
X86047620Y-70102381D02*
X86047620Y-70816667D01*
X86095240Y-70959524D01*
X86190478Y-71054762D01*
X86333335Y-71102381D01*
X86428573Y-71102381D01*
X85571430Y-71102381D02*
X85571430Y-70102381D01*
X85190477Y-70102381D01*
X85095239Y-70150000D01*
X85047620Y-70197619D01*
X85000001Y-70292857D01*
X85000001Y-70435714D01*
X85047620Y-70530952D01*
X85095239Y-70578571D01*
X85190477Y-70626190D01*
X85571430Y-70626190D01*
X84047620Y-71102381D02*
X84619049Y-71102381D01*
X84333335Y-71102381D02*
X84333335Y-70102381D01*
X84428573Y-70245238D01*
X84523811Y-70340476D01*
X84619049Y-70388095D01*
X83428573Y-70102381D02*
X83333334Y-70102381D01*
X83238096Y-70150000D01*
X83190477Y-70197619D01*
X83142858Y-70292857D01*
X83095239Y-70483333D01*
X83095239Y-70721429D01*
X83142858Y-70911905D01*
X83190477Y-71007143D01*
X83238096Y-71054762D01*
X83333334Y-71102381D01*
X83428573Y-71102381D01*
X83523811Y-71054762D01*
X83571430Y-71007143D01*
X83619049Y-70911905D01*
X83666668Y-70721429D01*
X83666668Y-70483333D01*
X83619049Y-70292857D01*
X83571430Y-70197619D01*
X83523811Y-70150000D01*
X83428573Y-70102381D01*
X82047620Y-70435714D02*
X81666668Y-70435714D01*
X81904763Y-70102381D02*
X81904763Y-70959524D01*
X81857144Y-71054762D01*
X81761906Y-71102381D01*
X81666668Y-71102381D01*
X81190477Y-71102381D02*
X81285715Y-71054762D01*
X81333334Y-71007143D01*
X81380953Y-70911905D01*
X81380953Y-70626190D01*
X81333334Y-70530952D01*
X81285715Y-70483333D01*
X81190477Y-70435714D01*
X81047619Y-70435714D01*
X80952381Y-70483333D01*
X80904762Y-70530952D01*
X80857143Y-70626190D01*
X80857143Y-70911905D01*
X80904762Y-71007143D01*
X80952381Y-71054762D01*
X81047619Y-71102381D01*
X81190477Y-71102381D01*
X79238095Y-71102381D02*
X79238095Y-70102381D01*
X79238095Y-71054762D02*
X79333333Y-71102381D01*
X79523810Y-71102381D01*
X79619048Y-71054762D01*
X79666667Y-71007143D01*
X79714286Y-70911905D01*
X79714286Y-70626190D01*
X79666667Y-70530952D01*
X79619048Y-70483333D01*
X79523810Y-70435714D01*
X79333333Y-70435714D01*
X79238095Y-70483333D01*
X78761905Y-71102381D02*
X78761905Y-70435714D01*
X78761905Y-70102381D02*
X78809524Y-70150000D01*
X78761905Y-70197619D01*
X78714286Y-70150000D01*
X78761905Y-70102381D01*
X78761905Y-70197619D01*
X78333334Y-71054762D02*
X78238096Y-71102381D01*
X78047620Y-71102381D01*
X77952381Y-71054762D01*
X77904762Y-70959524D01*
X77904762Y-70911905D01*
X77952381Y-70816667D01*
X78047620Y-70769048D01*
X78190477Y-70769048D01*
X78285715Y-70721429D01*
X78333334Y-70626190D01*
X78333334Y-70578571D01*
X78285715Y-70483333D01*
X78190477Y-70435714D01*
X78047620Y-70435714D01*
X77952381Y-70483333D01*
X77047619Y-71054762D02*
X77142857Y-71102381D01*
X77333334Y-71102381D01*
X77428572Y-71054762D01*
X77476191Y-71007143D01*
X77523810Y-70911905D01*
X77523810Y-70626190D01*
X77476191Y-70530952D01*
X77428572Y-70483333D01*
X77333334Y-70435714D01*
X77142857Y-70435714D01*
X77047619Y-70483333D01*
X76476191Y-71102381D02*
X76571429Y-71054762D01*
X76619048Y-71007143D01*
X76666667Y-70911905D01*
X76666667Y-70626190D01*
X76619048Y-70530952D01*
X76571429Y-70483333D01*
X76476191Y-70435714D01*
X76333333Y-70435714D01*
X76238095Y-70483333D01*
X76190476Y-70530952D01*
X76142857Y-70626190D01*
X76142857Y-70911905D01*
X76190476Y-71007143D01*
X76238095Y-71054762D01*
X76333333Y-71102381D01*
X76476191Y-71102381D01*
X75714286Y-70435714D02*
X75714286Y-71102381D01*
X75714286Y-70530952D02*
X75666667Y-70483333D01*
X75571429Y-70435714D01*
X75428571Y-70435714D01*
X75333333Y-70483333D01*
X75285714Y-70578571D01*
X75285714Y-71102381D01*
X74809524Y-70435714D02*
X74809524Y-71102381D01*
X74809524Y-70530952D02*
X74761905Y-70483333D01*
X74666667Y-70435714D01*
X74523809Y-70435714D01*
X74428571Y-70483333D01*
X74380952Y-70578571D01*
X74380952Y-71102381D01*
X73523809Y-71054762D02*
X73619047Y-71102381D01*
X73809524Y-71102381D01*
X73904762Y-71054762D01*
X73952381Y-70959524D01*
X73952381Y-70578571D01*
X73904762Y-70483333D01*
X73809524Y-70435714D01*
X73619047Y-70435714D01*
X73523809Y-70483333D01*
X73476190Y-70578571D01*
X73476190Y-70673810D01*
X73952381Y-70769048D01*
X72619047Y-71054762D02*
X72714285Y-71102381D01*
X72904762Y-71102381D01*
X73000000Y-71054762D01*
X73047619Y-71007143D01*
X73095238Y-70911905D01*
X73095238Y-70626190D01*
X73047619Y-70530952D01*
X73000000Y-70483333D01*
X72904762Y-70435714D01*
X72714285Y-70435714D01*
X72619047Y-70483333D01*
X72333333Y-70435714D02*
X71952381Y-70435714D01*
X72190476Y-70102381D02*
X72190476Y-70959524D01*
X72142857Y-71054762D01*
X72047619Y-71102381D01*
X71952381Y-71102381D01*
X70857142Y-71102381D02*
X70857142Y-70102381D01*
X69809523Y-71102381D02*
X70142857Y-70626190D01*
X70380952Y-71102381D02*
X70380952Y-70102381D01*
X69999999Y-70102381D01*
X69904761Y-70150000D01*
X69857142Y-70197619D01*
X69809523Y-70292857D01*
X69809523Y-70435714D01*
X69857142Y-70530952D01*
X69904761Y-70578571D01*
X69999999Y-70626190D01*
X70380952Y-70626190D01*
X68761904Y-70435714D02*
X68380952Y-70435714D01*
X68619047Y-70102381D02*
X68619047Y-70959524D01*
X68571428Y-71054762D01*
X68476190Y-71102381D01*
X68380952Y-71102381D01*
X68047618Y-71102381D02*
X68047618Y-70435714D01*
X68047618Y-70626190D02*
X67999999Y-70530952D01*
X67952380Y-70483333D01*
X67857142Y-70435714D01*
X67761903Y-70435714D01*
X66999998Y-71102381D02*
X66999998Y-70578571D01*
X67047617Y-70483333D01*
X67142855Y-70435714D01*
X67333332Y-70435714D01*
X67428570Y-70483333D01*
X66999998Y-71054762D02*
X67095236Y-71102381D01*
X67333332Y-71102381D01*
X67428570Y-71054762D01*
X67476189Y-70959524D01*
X67476189Y-70864286D01*
X67428570Y-70769048D01*
X67333332Y-70721429D01*
X67095236Y-70721429D01*
X66999998Y-70673810D01*
X66523808Y-70435714D02*
X66523808Y-71102381D01*
X66523808Y-70530952D02*
X66476189Y-70483333D01*
X66380951Y-70435714D01*
X66238093Y-70435714D01*
X66142855Y-70483333D01*
X66095236Y-70578571D01*
X66095236Y-71102381D01*
X65666665Y-71054762D02*
X65571427Y-71102381D01*
X65380951Y-71102381D01*
X65285712Y-71054762D01*
X65238093Y-70959524D01*
X65238093Y-70911905D01*
X65285712Y-70816667D01*
X65380951Y-70769048D01*
X65523808Y-70769048D01*
X65619046Y-70721429D01*
X65666665Y-70626190D01*
X65666665Y-70578571D01*
X65619046Y-70483333D01*
X65523808Y-70435714D01*
X65380951Y-70435714D01*
X65285712Y-70483333D01*
X64809522Y-71102381D02*
X64809522Y-70435714D01*
X64809522Y-70530952D02*
X64761903Y-70483333D01*
X64666665Y-70435714D01*
X64523807Y-70435714D01*
X64428569Y-70483333D01*
X64380950Y-70578571D01*
X64380950Y-71102381D01*
X64380950Y-70578571D02*
X64333331Y-70483333D01*
X64238093Y-70435714D01*
X64095236Y-70435714D01*
X63999998Y-70483333D01*
X63952379Y-70578571D01*
X63952379Y-71102381D01*
X63476189Y-71102381D02*
X63476189Y-70435714D01*
X63476189Y-70102381D02*
X63523808Y-70150000D01*
X63476189Y-70197619D01*
X63428570Y-70150000D01*
X63476189Y-70102381D01*
X63476189Y-70197619D01*
X63142856Y-70435714D02*
X62761904Y-70435714D01*
X62999999Y-70102381D02*
X62999999Y-70959524D01*
X62952380Y-71054762D01*
X62857142Y-71102381D01*
X62761904Y-71102381D01*
X61190474Y-71102381D02*
X61666665Y-71102381D01*
X61666665Y-70102381D01*
X60857141Y-70578571D02*
X60523807Y-70578571D01*
X60380950Y-71102381D02*
X60857141Y-71102381D01*
X60857141Y-70102381D01*
X60380950Y-70102381D01*
X59952379Y-71102381D02*
X59952379Y-70102381D01*
X59714284Y-70102381D01*
X59571426Y-70150000D01*
X59476188Y-70245238D01*
X59428569Y-70340476D01*
X59380950Y-70530952D01*
X59380950Y-70673810D01*
X59428569Y-70864286D01*
X59476188Y-70959524D01*
X59571426Y-71054762D01*
X59714284Y-71102381D01*
X59952379Y-71102381D01*
X87119049Y-72657143D02*
X87166668Y-72704762D01*
X87309525Y-72752381D01*
X87404763Y-72752381D01*
X87547621Y-72704762D01*
X87642859Y-72609524D01*
X87690478Y-72514286D01*
X87738097Y-72323810D01*
X87738097Y-72180952D01*
X87690478Y-71990476D01*
X87642859Y-71895238D01*
X87547621Y-71800000D01*
X87404763Y-71752381D01*
X87309525Y-71752381D01*
X87166668Y-71800000D01*
X87119049Y-71847619D01*
X86261906Y-72085714D02*
X86261906Y-72752381D01*
X86690478Y-72085714D02*
X86690478Y-72609524D01*
X86642859Y-72704762D01*
X86547621Y-72752381D01*
X86404763Y-72752381D01*
X86309525Y-72704762D01*
X86261906Y-72657143D01*
X85928573Y-72085714D02*
X85547621Y-72085714D01*
X85785716Y-71752381D02*
X85785716Y-72609524D01*
X85738097Y-72704762D01*
X85642859Y-72752381D01*
X85547621Y-72752381D01*
X84166667Y-71752381D02*
X84166667Y-72466667D01*
X84214287Y-72609524D01*
X84309525Y-72704762D01*
X84452382Y-72752381D01*
X84547620Y-72752381D01*
X83690477Y-72752381D02*
X83690477Y-71752381D01*
X83309524Y-71752381D01*
X83214286Y-71800000D01*
X83166667Y-71847619D01*
X83119048Y-71942857D01*
X83119048Y-72085714D01*
X83166667Y-72180952D01*
X83214286Y-72228571D01*
X83309524Y-72276190D01*
X83690477Y-72276190D01*
X82166667Y-72752381D02*
X82738096Y-72752381D01*
X82452382Y-72752381D02*
X82452382Y-71752381D01*
X82547620Y-71895238D01*
X82642858Y-71990476D01*
X82738096Y-72038095D01*
X81214286Y-72752381D02*
X81785715Y-72752381D01*
X81500001Y-72752381D02*
X81500001Y-71752381D01*
X81595239Y-71895238D01*
X81690477Y-71990476D01*
X81785715Y-72038095D01*
X80166667Y-72085714D02*
X79785715Y-72085714D01*
X80023810Y-71752381D02*
X80023810Y-72609524D01*
X79976191Y-72704762D01*
X79880953Y-72752381D01*
X79785715Y-72752381D01*
X79309524Y-72752381D02*
X79404762Y-72704762D01*
X79452381Y-72657143D01*
X79500000Y-72561905D01*
X79500000Y-72276190D01*
X79452381Y-72180952D01*
X79404762Y-72133333D01*
X79309524Y-72085714D01*
X79166666Y-72085714D01*
X79071428Y-72133333D01*
X79023809Y-72180952D01*
X78976190Y-72276190D01*
X78976190Y-72561905D01*
X79023809Y-72657143D01*
X79071428Y-72704762D01*
X79166666Y-72752381D01*
X79309524Y-72752381D01*
X77357142Y-72752381D02*
X77357142Y-71752381D01*
X77357142Y-72704762D02*
X77452380Y-72752381D01*
X77642857Y-72752381D01*
X77738095Y-72704762D01*
X77785714Y-72657143D01*
X77833333Y-72561905D01*
X77833333Y-72276190D01*
X77785714Y-72180952D01*
X77738095Y-72133333D01*
X77642857Y-72085714D01*
X77452380Y-72085714D01*
X77357142Y-72133333D01*
X76880952Y-72752381D02*
X76880952Y-72085714D01*
X76880952Y-71752381D02*
X76928571Y-71800000D01*
X76880952Y-71847619D01*
X76833333Y-71800000D01*
X76880952Y-71752381D01*
X76880952Y-71847619D01*
X76452381Y-72704762D02*
X76357143Y-72752381D01*
X76166667Y-72752381D01*
X76071428Y-72704762D01*
X76023809Y-72609524D01*
X76023809Y-72561905D01*
X76071428Y-72466667D01*
X76166667Y-72419048D01*
X76309524Y-72419048D01*
X76404762Y-72371429D01*
X76452381Y-72276190D01*
X76452381Y-72228571D01*
X76404762Y-72133333D01*
X76309524Y-72085714D01*
X76166667Y-72085714D01*
X76071428Y-72133333D01*
X75166666Y-72704762D02*
X75261904Y-72752381D01*
X75452381Y-72752381D01*
X75547619Y-72704762D01*
X75595238Y-72657143D01*
X75642857Y-72561905D01*
X75642857Y-72276190D01*
X75595238Y-72180952D01*
X75547619Y-72133333D01*
X75452381Y-72085714D01*
X75261904Y-72085714D01*
X75166666Y-72133333D01*
X74595238Y-72752381D02*
X74690476Y-72704762D01*
X74738095Y-72657143D01*
X74785714Y-72561905D01*
X74785714Y-72276190D01*
X74738095Y-72180952D01*
X74690476Y-72133333D01*
X74595238Y-72085714D01*
X74452380Y-72085714D01*
X74357142Y-72133333D01*
X74309523Y-72180952D01*
X74261904Y-72276190D01*
X74261904Y-72561905D01*
X74309523Y-72657143D01*
X74357142Y-72704762D01*
X74452380Y-72752381D01*
X74595238Y-72752381D01*
X73833333Y-72085714D02*
X73833333Y-72752381D01*
X73833333Y-72180952D02*
X73785714Y-72133333D01*
X73690476Y-72085714D01*
X73547618Y-72085714D01*
X73452380Y-72133333D01*
X73404761Y-72228571D01*
X73404761Y-72752381D01*
X72928571Y-72085714D02*
X72928571Y-72752381D01*
X72928571Y-72180952D02*
X72880952Y-72133333D01*
X72785714Y-72085714D01*
X72642856Y-72085714D01*
X72547618Y-72133333D01*
X72499999Y-72228571D01*
X72499999Y-72752381D01*
X71642856Y-72704762D02*
X71738094Y-72752381D01*
X71928571Y-72752381D01*
X72023809Y-72704762D01*
X72071428Y-72609524D01*
X72071428Y-72228571D01*
X72023809Y-72133333D01*
X71928571Y-72085714D01*
X71738094Y-72085714D01*
X71642856Y-72133333D01*
X71595237Y-72228571D01*
X71595237Y-72323810D01*
X72071428Y-72419048D01*
X70738094Y-72704762D02*
X70833332Y-72752381D01*
X71023809Y-72752381D01*
X71119047Y-72704762D01*
X71166666Y-72657143D01*
X71214285Y-72561905D01*
X71214285Y-72276190D01*
X71166666Y-72180952D01*
X71119047Y-72133333D01*
X71023809Y-72085714D01*
X70833332Y-72085714D01*
X70738094Y-72133333D01*
X70452380Y-72085714D02*
X70071428Y-72085714D01*
X70309523Y-71752381D02*
X70309523Y-72609524D01*
X70261904Y-72704762D01*
X70166666Y-72752381D01*
X70071428Y-72752381D01*
X68976189Y-72752381D02*
X68976189Y-71752381D01*
X67928570Y-72752381D02*
X68261904Y-72276190D01*
X68499999Y-72752381D02*
X68499999Y-71752381D01*
X68119046Y-71752381D01*
X68023808Y-71800000D01*
X67976189Y-71847619D01*
X67928570Y-71942857D01*
X67928570Y-72085714D01*
X67976189Y-72180952D01*
X68023808Y-72228571D01*
X68119046Y-72276190D01*
X68499999Y-72276190D01*
X66738094Y-72752381D02*
X66738094Y-72085714D01*
X66738094Y-72276190D02*
X66690475Y-72180952D01*
X66642856Y-72133333D01*
X66547618Y-72085714D01*
X66452379Y-72085714D01*
X65738093Y-72704762D02*
X65833331Y-72752381D01*
X66023808Y-72752381D01*
X66119046Y-72704762D01*
X66166665Y-72609524D01*
X66166665Y-72228571D01*
X66119046Y-72133333D01*
X66023808Y-72085714D01*
X65833331Y-72085714D01*
X65738093Y-72133333D01*
X65690474Y-72228571D01*
X65690474Y-72323810D01*
X66166665Y-72419048D01*
X64833331Y-72704762D02*
X64928569Y-72752381D01*
X65119046Y-72752381D01*
X65214284Y-72704762D01*
X65261903Y-72657143D01*
X65309522Y-72561905D01*
X65309522Y-72276190D01*
X65261903Y-72180952D01*
X65214284Y-72133333D01*
X65119046Y-72085714D01*
X64928569Y-72085714D01*
X64833331Y-72133333D01*
X64023807Y-72704762D02*
X64119045Y-72752381D01*
X64309522Y-72752381D01*
X64404760Y-72704762D01*
X64452379Y-72609524D01*
X64452379Y-72228571D01*
X64404760Y-72133333D01*
X64309522Y-72085714D01*
X64119045Y-72085714D01*
X64023807Y-72133333D01*
X63976188Y-72228571D01*
X63976188Y-72323810D01*
X64452379Y-72419048D01*
X63547617Y-72752381D02*
X63547617Y-72085714D01*
X63547617Y-71752381D02*
X63595236Y-71800000D01*
X63547617Y-71847619D01*
X63499998Y-71800000D01*
X63547617Y-71752381D01*
X63547617Y-71847619D01*
X63166665Y-72085714D02*
X62928570Y-72752381D01*
X62690474Y-72085714D01*
X61928569Y-72704762D02*
X62023807Y-72752381D01*
X62214284Y-72752381D01*
X62309522Y-72704762D01*
X62357141Y-72609524D01*
X62357141Y-72228571D01*
X62309522Y-72133333D01*
X62214284Y-72085714D01*
X62023807Y-72085714D01*
X61928569Y-72133333D01*
X61880950Y-72228571D01*
X61880950Y-72323810D01*
X62357141Y-72419048D01*
X61452379Y-72752381D02*
X61452379Y-72085714D01*
X61452379Y-72276190D02*
X61404760Y-72180952D01*
X61357141Y-72133333D01*
X61261903Y-72085714D01*
X61166664Y-72085714D01*
X70406000Y-92849000D02*
X70787000Y-92849000D01*
X70787000Y-92849000D02*
X70787000Y-96151000D01*
X70787000Y-96151000D02*
X70406000Y-96151000D01*
X70500000Y-94500000D02*
G75*
G03X70500000Y-94500000I-10000000J0D01*
G01*
D13*
G36*
X94218708Y-133680639D02*
X94007273Y-133702080D01*
X93816800Y-133736499D01*
X93780415Y-133745435D01*
X93709870Y-133762856D01*
X93649575Y-133777230D01*
X93597236Y-133791194D01*
X93550559Y-133807386D01*
X93507247Y-133828445D01*
X93465006Y-133857007D01*
X93421540Y-133895712D01*
X93374556Y-133947197D01*
X93321758Y-134014100D01*
X93260851Y-134099059D01*
X93189540Y-134204713D01*
X93105531Y-134333698D01*
X93006527Y-134488654D01*
X92890235Y-134672218D01*
X92754359Y-134887027D01*
X92666079Y-135026333D01*
X91934187Y-136179917D01*
X91947645Y-136301396D01*
X91957585Y-136368840D01*
X91973348Y-136452187D01*
X91992424Y-136540601D01*
X92012303Y-136623243D01*
X92030474Y-136689276D01*
X92044429Y-136727865D01*
X92047522Y-136732577D01*
X92060173Y-136716895D01*
X92093369Y-136668528D01*
X92145081Y-136590604D01*
X92213283Y-136486252D01*
X92295945Y-136358601D01*
X92391042Y-136210778D01*
X92496546Y-136045914D01*
X92610428Y-135867136D01*
X92707086Y-135714807D01*
X92827762Y-135525041D01*
X92943059Y-135345155D01*
X93050767Y-135178502D01*
X93148678Y-135028432D01*
X93234585Y-134898296D01*
X93306277Y-134791446D01*
X93361547Y-134711231D01*
X93398187Y-134661004D01*
X93412134Y-134645011D01*
X93496436Y-134596915D01*
X93578957Y-134589196D01*
X93632501Y-134604381D01*
X93652659Y-134614364D01*
X93674283Y-134629782D01*
X93700236Y-134654157D01*
X93733376Y-134691010D01*
X93776565Y-134743866D01*
X93832663Y-134816247D01*
X93904530Y-134911675D01*
X93995026Y-135033672D01*
X94107013Y-135185762D01*
X94129943Y-135216972D01*
X94215557Y-135333528D01*
X93457270Y-136518722D01*
X92698984Y-137703917D01*
X92777427Y-137773926D01*
X92955032Y-137910798D01*
X93165237Y-138036163D01*
X93398964Y-138145917D01*
X93647132Y-138235960D01*
X93900662Y-138302191D01*
X93981003Y-138317609D01*
X94118661Y-138334680D01*
X94283455Y-138344322D01*
X94460850Y-138346563D01*
X94636311Y-138341428D01*
X94795303Y-138328946D01*
X94888584Y-138315926D01*
X95168117Y-138249645D01*
X95442115Y-138151811D01*
X95701995Y-138026537D01*
X95939175Y-137877933D01*
X96136488Y-137718121D01*
X96189519Y-137667661D01*
X96215861Y-137635306D01*
X96220172Y-137610708D01*
X96207111Y-137583520D01*
X96201200Y-137574378D01*
X96179163Y-137542621D01*
X96136198Y-137482308D01*
X96076354Y-137399062D01*
X96003680Y-137298506D01*
X95922226Y-137186264D01*
X95878552Y-137126257D01*
X95770598Y-136976352D01*
X95686649Y-136855190D01*
X95624340Y-136758396D01*
X95581309Y-136681594D01*
X95555193Y-136620407D01*
X95543628Y-136570462D01*
X95544252Y-136527380D01*
X95547067Y-136512439D01*
X95561855Y-136478665D01*
X95595086Y-136418405D01*
X95642957Y-136337543D01*
X95701664Y-136241963D01*
X95767403Y-136137549D01*
X95836373Y-136030186D01*
X95904769Y-135925757D01*
X95968788Y-135830147D01*
X96024627Y-135749239D01*
X96068483Y-135688918D01*
X96096552Y-135655068D01*
X96104497Y-135650027D01*
X96120624Y-135669038D01*
X96158275Y-135717837D01*
X96214108Y-135791954D01*
X96284780Y-135886917D01*
X96366947Y-135998256D01*
X96457267Y-136121498D01*
X96467492Y-136135501D01*
X96558139Y-136258475D01*
X96641024Y-136368603D01*
X96712850Y-136461688D01*
X96770319Y-136533533D01*
X96810133Y-136579941D01*
X96828992Y-136596715D01*
X96829745Y-136596489D01*
X96848213Y-136558217D01*
X96865492Y-136485847D01*
X96880704Y-136387613D01*
X96892972Y-136271749D01*
X96901416Y-136146490D01*
X96905160Y-136020069D01*
X96903496Y-135904750D01*
X96876145Y-135620663D01*
X96816756Y-135357967D01*
X96808921Y-135337184D01*
X95863670Y-135337184D01*
X95847599Y-135367251D01*
X95811118Y-135428637D01*
X95756756Y-135517389D01*
X95687043Y-135629554D01*
X95604506Y-135761179D01*
X95511675Y-135908312D01*
X95411079Y-136067000D01*
X95305246Y-136233291D01*
X95196705Y-136403231D01*
X95087986Y-136572868D01*
X94981617Y-136738249D01*
X94880127Y-136895422D01*
X94786045Y-137040433D01*
X94701900Y-137169330D01*
X94630220Y-137278161D01*
X94573535Y-137362971D01*
X94534374Y-137419810D01*
X94515370Y-137444625D01*
X94442502Y-137490179D01*
X94362660Y-137502571D01*
X94288599Y-137480710D01*
X94267599Y-137465792D01*
X94244264Y-137438976D01*
X94202032Y-137383965D01*
X94145738Y-137307616D01*
X94080216Y-137216790D01*
X94010302Y-137118346D01*
X93940830Y-137019144D01*
X93876635Y-136926042D01*
X93822551Y-136845901D01*
X93783414Y-136785579D01*
X93764059Y-136751937D01*
X93763513Y-136750612D01*
X93772448Y-136727986D01*
X93801828Y-136673629D01*
X93849220Y-136591432D01*
X93912192Y-136485286D01*
X93988312Y-136359080D01*
X94075148Y-136216704D01*
X94170269Y-136062049D01*
X94271243Y-135899005D01*
X94375638Y-135731462D01*
X94481021Y-135563311D01*
X94584962Y-135398440D01*
X94685027Y-135240742D01*
X94778786Y-135094105D01*
X94863807Y-134962419D01*
X94937656Y-134849576D01*
X94997904Y-134759466D01*
X95042117Y-134695977D01*
X95067864Y-134663002D01*
X95069674Y-134661208D01*
X95150920Y-134612523D01*
X95242103Y-134600195D01*
X95331474Y-134624226D01*
X95385079Y-134661208D01*
X95422487Y-134701430D01*
X95474499Y-134765162D01*
X95536494Y-134845880D01*
X95603853Y-134937059D01*
X95671956Y-135032174D01*
X95736184Y-135124699D01*
X95791916Y-135208109D01*
X95834532Y-135275879D01*
X95859414Y-135321485D01*
X95863670Y-135337184D01*
X96808921Y-135337184D01*
X96722473Y-135107894D01*
X96590440Y-134861675D01*
X96535952Y-134776545D01*
X96349969Y-134534639D01*
X96131646Y-134317094D01*
X95884863Y-134126354D01*
X95613498Y-133964860D01*
X95321431Y-133835058D01*
X95012540Y-133739390D01*
X94827956Y-133700637D01*
X94644133Y-133679272D01*
X94436023Y-133672822D01*
X94218708Y-133680639D01*
X94218708Y-133680639D01*
G37*
X94218708Y-133680639D02*
X94007273Y-133702080D01*
X93816800Y-133736499D01*
X93780415Y-133745435D01*
X93709870Y-133762856D01*
X93649575Y-133777230D01*
X93597236Y-133791194D01*
X93550559Y-133807386D01*
X93507247Y-133828445D01*
X93465006Y-133857007D01*
X93421540Y-133895712D01*
X93374556Y-133947197D01*
X93321758Y-134014100D01*
X93260851Y-134099059D01*
X93189540Y-134204713D01*
X93105531Y-134333698D01*
X93006527Y-134488654D01*
X92890235Y-134672218D01*
X92754359Y-134887027D01*
X92666079Y-135026333D01*
X91934187Y-136179917D01*
X91947645Y-136301396D01*
X91957585Y-136368840D01*
X91973348Y-136452187D01*
X91992424Y-136540601D01*
X92012303Y-136623243D01*
X92030474Y-136689276D01*
X92044429Y-136727865D01*
X92047522Y-136732577D01*
X92060173Y-136716895D01*
X92093369Y-136668528D01*
X92145081Y-136590604D01*
X92213283Y-136486252D01*
X92295945Y-136358601D01*
X92391042Y-136210778D01*
X92496546Y-136045914D01*
X92610428Y-135867136D01*
X92707086Y-135714807D01*
X92827762Y-135525041D01*
X92943059Y-135345155D01*
X93050767Y-135178502D01*
X93148678Y-135028432D01*
X93234585Y-134898296D01*
X93306277Y-134791446D01*
X93361547Y-134711231D01*
X93398187Y-134661004D01*
X93412134Y-134645011D01*
X93496436Y-134596915D01*
X93578957Y-134589196D01*
X93632501Y-134604381D01*
X93652659Y-134614364D01*
X93674283Y-134629782D01*
X93700236Y-134654157D01*
X93733376Y-134691010D01*
X93776565Y-134743866D01*
X93832663Y-134816247D01*
X93904530Y-134911675D01*
X93995026Y-135033672D01*
X94107013Y-135185762D01*
X94129943Y-135216972D01*
X94215557Y-135333528D01*
X93457270Y-136518722D01*
X92698984Y-137703917D01*
X92777427Y-137773926D01*
X92955032Y-137910798D01*
X93165237Y-138036163D01*
X93398964Y-138145917D01*
X93647132Y-138235960D01*
X93900662Y-138302191D01*
X93981003Y-138317609D01*
X94118661Y-138334680D01*
X94283455Y-138344322D01*
X94460850Y-138346563D01*
X94636311Y-138341428D01*
X94795303Y-138328946D01*
X94888584Y-138315926D01*
X95168117Y-138249645D01*
X95442115Y-138151811D01*
X95701995Y-138026537D01*
X95939175Y-137877933D01*
X96136488Y-137718121D01*
X96189519Y-137667661D01*
X96215861Y-137635306D01*
X96220172Y-137610708D01*
X96207111Y-137583520D01*
X96201200Y-137574378D01*
X96179163Y-137542621D01*
X96136198Y-137482308D01*
X96076354Y-137399062D01*
X96003680Y-137298506D01*
X95922226Y-137186264D01*
X95878552Y-137126257D01*
X95770598Y-136976352D01*
X95686649Y-136855190D01*
X95624340Y-136758396D01*
X95581309Y-136681594D01*
X95555193Y-136620407D01*
X95543628Y-136570462D01*
X95544252Y-136527380D01*
X95547067Y-136512439D01*
X95561855Y-136478665D01*
X95595086Y-136418405D01*
X95642957Y-136337543D01*
X95701664Y-136241963D01*
X95767403Y-136137549D01*
X95836373Y-136030186D01*
X95904769Y-135925757D01*
X95968788Y-135830147D01*
X96024627Y-135749239D01*
X96068483Y-135688918D01*
X96096552Y-135655068D01*
X96104497Y-135650027D01*
X96120624Y-135669038D01*
X96158275Y-135717837D01*
X96214108Y-135791954D01*
X96284780Y-135886917D01*
X96366947Y-135998256D01*
X96457267Y-136121498D01*
X96467492Y-136135501D01*
X96558139Y-136258475D01*
X96641024Y-136368603D01*
X96712850Y-136461688D01*
X96770319Y-136533533D01*
X96810133Y-136579941D01*
X96828992Y-136596715D01*
X96829745Y-136596489D01*
X96848213Y-136558217D01*
X96865492Y-136485847D01*
X96880704Y-136387613D01*
X96892972Y-136271749D01*
X96901416Y-136146490D01*
X96905160Y-136020069D01*
X96903496Y-135904750D01*
X96876145Y-135620663D01*
X96816756Y-135357967D01*
X96808921Y-135337184D01*
X95863670Y-135337184D01*
X95847599Y-135367251D01*
X95811118Y-135428637D01*
X95756756Y-135517389D01*
X95687043Y-135629554D01*
X95604506Y-135761179D01*
X95511675Y-135908312D01*
X95411079Y-136067000D01*
X95305246Y-136233291D01*
X95196705Y-136403231D01*
X95087986Y-136572868D01*
X94981617Y-136738249D01*
X94880127Y-136895422D01*
X94786045Y-137040433D01*
X94701900Y-137169330D01*
X94630220Y-137278161D01*
X94573535Y-137362971D01*
X94534374Y-137419810D01*
X94515370Y-137444625D01*
X94442502Y-137490179D01*
X94362660Y-137502571D01*
X94288599Y-137480710D01*
X94267599Y-137465792D01*
X94244264Y-137438976D01*
X94202032Y-137383965D01*
X94145738Y-137307616D01*
X94080216Y-137216790D01*
X94010302Y-137118346D01*
X93940830Y-137019144D01*
X93876635Y-136926042D01*
X93822551Y-136845901D01*
X93783414Y-136785579D01*
X93764059Y-136751937D01*
X93763513Y-136750612D01*
X93772448Y-136727986D01*
X93801828Y-136673629D01*
X93849220Y-136591432D01*
X93912192Y-136485286D01*
X93988312Y-136359080D01*
X94075148Y-136216704D01*
X94170269Y-136062049D01*
X94271243Y-135899005D01*
X94375638Y-135731462D01*
X94481021Y-135563311D01*
X94584962Y-135398440D01*
X94685027Y-135240742D01*
X94778786Y-135094105D01*
X94863807Y-134962419D01*
X94937656Y-134849576D01*
X94997904Y-134759466D01*
X95042117Y-134695977D01*
X95067864Y-134663002D01*
X95069674Y-134661208D01*
X95150920Y-134612523D01*
X95242103Y-134600195D01*
X95331474Y-134624226D01*
X95385079Y-134661208D01*
X95422487Y-134701430D01*
X95474499Y-134765162D01*
X95536494Y-134845880D01*
X95603853Y-134937059D01*
X95671956Y-135032174D01*
X95736184Y-135124699D01*
X95791916Y-135208109D01*
X95834532Y-135275879D01*
X95859414Y-135321485D01*
X95863670Y-135337184D01*
X96808921Y-135337184D01*
X96722473Y-135107894D01*
X96590440Y-134861675D01*
X96535952Y-134776545D01*
X96349969Y-134534639D01*
X96131646Y-134317094D01*
X95884863Y-134126354D01*
X95613498Y-133964860D01*
X95321431Y-133835058D01*
X95012540Y-133739390D01*
X94827956Y-133700637D01*
X94644133Y-133679272D01*
X94436023Y-133672822D01*
X94218708Y-133680639D01*
G36*
X81187886Y-135051312D02*
X81098935Y-135056844D01*
X81032524Y-135065911D01*
X80983712Y-135078998D01*
X80947557Y-135096594D01*
X80919119Y-135119183D01*
X80915926Y-135122317D01*
X80891716Y-135150484D01*
X80876790Y-135182850D01*
X80868951Y-135229968D01*
X80866003Y-135302392D01*
X80865667Y-135363680D01*
X80865667Y-135554785D01*
X81951211Y-135566083D01*
X81995814Y-135625759D01*
X82014984Y-135656370D01*
X82028313Y-135693608D01*
X82037171Y-135746081D01*
X82042926Y-135822393D01*
X82046946Y-135931152D01*
X82047480Y-135950639D01*
X82049949Y-136082016D01*
X82048570Y-136178558D01*
X82042249Y-136247676D01*
X82029891Y-136296779D01*
X82010402Y-136333275D01*
X81986962Y-136360372D01*
X81972131Y-136373073D01*
X81952706Y-136382908D01*
X81923522Y-136390242D01*
X81879414Y-136395440D01*
X81815217Y-136398865D01*
X81725766Y-136400883D01*
X81605896Y-136401858D01*
X81450443Y-136402155D01*
X81394834Y-136402167D01*
X80844500Y-136402167D01*
X80844500Y-136541843D01*
X80856506Y-136674372D01*
X80891485Y-136778700D01*
X80947886Y-136850493D01*
X80957803Y-136857982D01*
X80978887Y-136868132D01*
X81012264Y-136875882D01*
X81061805Y-136881278D01*
X81131382Y-136884370D01*
X81224866Y-136885205D01*
X81346129Y-136883830D01*
X81499042Y-136880295D01*
X81687475Y-136874647D01*
X81853741Y-136869077D01*
X81995598Y-136863244D01*
X82102351Y-136855313D01*
X82181227Y-136842870D01*
X82239455Y-136823503D01*
X82284263Y-136794797D01*
X82322879Y-136754339D01*
X82362529Y-136699716D01*
X82362988Y-136699043D01*
X82389938Y-136655250D01*
X82410988Y-136608607D01*
X82426845Y-136553384D01*
X82438219Y-136483850D01*
X82445817Y-136394274D01*
X82450349Y-136278926D01*
X82452523Y-136132074D01*
X82453049Y-135970706D01*
X82452508Y-135790643D01*
X82450175Y-135647185D01*
X82445126Y-135534610D01*
X82436439Y-135447197D01*
X82423190Y-135379226D01*
X82404454Y-135324977D01*
X82379309Y-135278728D01*
X82346831Y-135234760D01*
X82331228Y-135216118D01*
X82289384Y-135168747D01*
X82250814Y-135131922D01*
X82209564Y-135104222D01*
X82159677Y-135084227D01*
X82095198Y-135070515D01*
X82010170Y-135061665D01*
X81898639Y-135056256D01*
X81754648Y-135052867D01*
X81639386Y-135051054D01*
X81453170Y-135048904D01*
X81304317Y-135048827D01*
X81187886Y-135051312D01*
X81187886Y-135051312D01*
G37*
X81187886Y-135051312D02*
X81098935Y-135056844D01*
X81032524Y-135065911D01*
X80983712Y-135078998D01*
X80947557Y-135096594D01*
X80919119Y-135119183D01*
X80915926Y-135122317D01*
X80891716Y-135150484D01*
X80876790Y-135182850D01*
X80868951Y-135229968D01*
X80866003Y-135302392D01*
X80865667Y-135363680D01*
X80865667Y-135554785D01*
X81951211Y-135566083D01*
X81995814Y-135625759D01*
X82014984Y-135656370D01*
X82028313Y-135693608D01*
X82037171Y-135746081D01*
X82042926Y-135822393D01*
X82046946Y-135931152D01*
X82047480Y-135950639D01*
X82049949Y-136082016D01*
X82048570Y-136178558D01*
X82042249Y-136247676D01*
X82029891Y-136296779D01*
X82010402Y-136333275D01*
X81986962Y-136360372D01*
X81972131Y-136373073D01*
X81952706Y-136382908D01*
X81923522Y-136390242D01*
X81879414Y-136395440D01*
X81815217Y-136398865D01*
X81725766Y-136400883D01*
X81605896Y-136401858D01*
X81450443Y-136402155D01*
X81394834Y-136402167D01*
X80844500Y-136402167D01*
X80844500Y-136541843D01*
X80856506Y-136674372D01*
X80891485Y-136778700D01*
X80947886Y-136850493D01*
X80957803Y-136857982D01*
X80978887Y-136868132D01*
X81012264Y-136875882D01*
X81061805Y-136881278D01*
X81131382Y-136884370D01*
X81224866Y-136885205D01*
X81346129Y-136883830D01*
X81499042Y-136880295D01*
X81687475Y-136874647D01*
X81853741Y-136869077D01*
X81995598Y-136863244D01*
X82102351Y-136855313D01*
X82181227Y-136842870D01*
X82239455Y-136823503D01*
X82284263Y-136794797D01*
X82322879Y-136754339D01*
X82362529Y-136699716D01*
X82362988Y-136699043D01*
X82389938Y-136655250D01*
X82410988Y-136608607D01*
X82426845Y-136553384D01*
X82438219Y-136483850D01*
X82445817Y-136394274D01*
X82450349Y-136278926D01*
X82452523Y-136132074D01*
X82453049Y-135970706D01*
X82452508Y-135790643D01*
X82450175Y-135647185D01*
X82445126Y-135534610D01*
X82436439Y-135447197D01*
X82423190Y-135379226D01*
X82404454Y-135324977D01*
X82379309Y-135278728D01*
X82346831Y-135234760D01*
X82331228Y-135216118D01*
X82289384Y-135168747D01*
X82250814Y-135131922D01*
X82209564Y-135104222D01*
X82159677Y-135084227D01*
X82095198Y-135070515D01*
X82010170Y-135061665D01*
X81898639Y-135056256D01*
X81754648Y-135052867D01*
X81639386Y-135051054D01*
X81453170Y-135048904D01*
X81304317Y-135048827D01*
X81187886Y-135051312D01*
G36*
X90822242Y-134467240D02*
X90733537Y-134503385D01*
X90654950Y-134565906D01*
X90634175Y-134590416D01*
X90613745Y-134625698D01*
X90579400Y-134694821D01*
X90533531Y-134792554D01*
X90478527Y-134913669D01*
X90416776Y-135052937D01*
X90350667Y-135205130D01*
X90312316Y-135294802D01*
X90040893Y-135933064D01*
X89787155Y-135294522D01*
X89714407Y-135112447D01*
X89654658Y-134965568D01*
X89605881Y-134849504D01*
X89566046Y-134759874D01*
X89533124Y-134692298D01*
X89505088Y-134642396D01*
X89479908Y-134605786D01*
X89455557Y-134578089D01*
X89455223Y-134577754D01*
X89365158Y-134509283D01*
X89274999Y-134482918D01*
X89186136Y-134498457D01*
X89099959Y-134555698D01*
X89027929Y-134639723D01*
X89013846Y-134660371D01*
X89001655Y-134681500D01*
X88990772Y-134706873D01*
X88980611Y-134740257D01*
X88970586Y-134785415D01*
X88960113Y-134846113D01*
X88948605Y-134926114D01*
X88935477Y-135029183D01*
X88920144Y-135159085D01*
X88902020Y-135319585D01*
X88880521Y-135514446D01*
X88855059Y-135747435D01*
X88853629Y-135760541D01*
X88831268Y-135966134D01*
X88810357Y-136159631D01*
X88791341Y-136336813D01*
X88774668Y-136493465D01*
X88760784Y-136625366D01*
X88750134Y-136728301D01*
X88743167Y-136798051D01*
X88740327Y-136830399D01*
X88740286Y-136831485D01*
X88743519Y-136847805D01*
X88758617Y-136858263D01*
X88792713Y-136863811D01*
X88852941Y-136865403D01*
X88946434Y-136863993D01*
X88977792Y-136863235D01*
X89215917Y-136857250D01*
X89271477Y-136222250D01*
X89285746Y-136060491D01*
X89299189Y-135910593D01*
X89311277Y-135778254D01*
X89321482Y-135669174D01*
X89329276Y-135589050D01*
X89334131Y-135543582D01*
X89334977Y-135537286D01*
X89344771Y-135539435D01*
X89368390Y-135581136D01*
X89405654Y-135661987D01*
X89456385Y-135781588D01*
X89520405Y-135939541D01*
X89562263Y-136045286D01*
X89635641Y-136230316D01*
X89696906Y-136379570D01*
X89748613Y-136496986D01*
X89793319Y-136586498D01*
X89833579Y-136652042D01*
X89871950Y-136697553D01*
X89910987Y-136726967D01*
X89953247Y-136744220D01*
X90001285Y-136753247D01*
X90023516Y-136755507D01*
X90134304Y-136746352D01*
X90228246Y-136700610D01*
X90293105Y-136630719D01*
X90307400Y-136601052D01*
X90334583Y-136537609D01*
X90372369Y-136446136D01*
X90418474Y-136332377D01*
X90470612Y-136202076D01*
X90526499Y-136060980D01*
X90583851Y-135914834D01*
X90640382Y-135769381D01*
X90693808Y-135630368D01*
X90741844Y-135503538D01*
X90749395Y-135483372D01*
X90756430Y-135488016D01*
X90765345Y-135529426D01*
X90775308Y-135602118D01*
X90785484Y-135700613D01*
X90789589Y-135747955D01*
X90800085Y-135874489D01*
X90812980Y-136028446D01*
X90827031Y-136195073D01*
X90840995Y-136359616D01*
X90849601Y-136460375D01*
X90884509Y-136867833D01*
X91113838Y-136867833D01*
X91222329Y-136866411D01*
X91293425Y-136861771D01*
X91331981Y-136853351D01*
X91342890Y-136841375D01*
X91340441Y-136797464D01*
X91333958Y-136718282D01*
X91323967Y-136608765D01*
X91310993Y-136473850D01*
X91295560Y-136318476D01*
X91278194Y-136147580D01*
X91259420Y-135966098D01*
X91239762Y-135778970D01*
X91219745Y-135591131D01*
X91199895Y-135407520D01*
X91180736Y-135233073D01*
X91162794Y-135072729D01*
X91146592Y-134931424D01*
X91132657Y-134814097D01*
X91121512Y-134725684D01*
X91113684Y-134671124D01*
X91110537Y-134655917D01*
X91063175Y-134572585D01*
X90995727Y-134505629D01*
X90920537Y-134466740D01*
X90907601Y-134463710D01*
X90822242Y-134467240D01*
X90822242Y-134467240D01*
G37*
X90822242Y-134467240D02*
X90733537Y-134503385D01*
X90654950Y-134565906D01*
X90634175Y-134590416D01*
X90613745Y-134625698D01*
X90579400Y-134694821D01*
X90533531Y-134792554D01*
X90478527Y-134913669D01*
X90416776Y-135052937D01*
X90350667Y-135205130D01*
X90312316Y-135294802D01*
X90040893Y-135933064D01*
X89787155Y-135294522D01*
X89714407Y-135112447D01*
X89654658Y-134965568D01*
X89605881Y-134849504D01*
X89566046Y-134759874D01*
X89533124Y-134692298D01*
X89505088Y-134642396D01*
X89479908Y-134605786D01*
X89455557Y-134578089D01*
X89455223Y-134577754D01*
X89365158Y-134509283D01*
X89274999Y-134482918D01*
X89186136Y-134498457D01*
X89099959Y-134555698D01*
X89027929Y-134639723D01*
X89013846Y-134660371D01*
X89001655Y-134681500D01*
X88990772Y-134706873D01*
X88980611Y-134740257D01*
X88970586Y-134785415D01*
X88960113Y-134846113D01*
X88948605Y-134926114D01*
X88935477Y-135029183D01*
X88920144Y-135159085D01*
X88902020Y-135319585D01*
X88880521Y-135514446D01*
X88855059Y-135747435D01*
X88853629Y-135760541D01*
X88831268Y-135966134D01*
X88810357Y-136159631D01*
X88791341Y-136336813D01*
X88774668Y-136493465D01*
X88760784Y-136625366D01*
X88750134Y-136728301D01*
X88743167Y-136798051D01*
X88740327Y-136830399D01*
X88740286Y-136831485D01*
X88743519Y-136847805D01*
X88758617Y-136858263D01*
X88792713Y-136863811D01*
X88852941Y-136865403D01*
X88946434Y-136863993D01*
X88977792Y-136863235D01*
X89215917Y-136857250D01*
X89271477Y-136222250D01*
X89285746Y-136060491D01*
X89299189Y-135910593D01*
X89311277Y-135778254D01*
X89321482Y-135669174D01*
X89329276Y-135589050D01*
X89334131Y-135543582D01*
X89334977Y-135537286D01*
X89344771Y-135539435D01*
X89368390Y-135581136D01*
X89405654Y-135661987D01*
X89456385Y-135781588D01*
X89520405Y-135939541D01*
X89562263Y-136045286D01*
X89635641Y-136230316D01*
X89696906Y-136379570D01*
X89748613Y-136496986D01*
X89793319Y-136586498D01*
X89833579Y-136652042D01*
X89871950Y-136697553D01*
X89910987Y-136726967D01*
X89953247Y-136744220D01*
X90001285Y-136753247D01*
X90023516Y-136755507D01*
X90134304Y-136746352D01*
X90228246Y-136700610D01*
X90293105Y-136630719D01*
X90307400Y-136601052D01*
X90334583Y-136537609D01*
X90372369Y-136446136D01*
X90418474Y-136332377D01*
X90470612Y-136202076D01*
X90526499Y-136060980D01*
X90583851Y-135914834D01*
X90640382Y-135769381D01*
X90693808Y-135630368D01*
X90741844Y-135503538D01*
X90749395Y-135483372D01*
X90756430Y-135488016D01*
X90765345Y-135529426D01*
X90775308Y-135602118D01*
X90785484Y-135700613D01*
X90789589Y-135747955D01*
X90800085Y-135874489D01*
X90812980Y-136028446D01*
X90827031Y-136195073D01*
X90840995Y-136359616D01*
X90849601Y-136460375D01*
X90884509Y-136867833D01*
X91113838Y-136867833D01*
X91222329Y-136866411D01*
X91293425Y-136861771D01*
X91331981Y-136853351D01*
X91342890Y-136841375D01*
X91340441Y-136797464D01*
X91333958Y-136718282D01*
X91323967Y-136608765D01*
X91310993Y-136473850D01*
X91295560Y-136318476D01*
X91278194Y-136147580D01*
X91259420Y-135966098D01*
X91239762Y-135778970D01*
X91219745Y-135591131D01*
X91199895Y-135407520D01*
X91180736Y-135233073D01*
X91162794Y-135072729D01*
X91146592Y-134931424D01*
X91132657Y-134814097D01*
X91121512Y-134725684D01*
X91113684Y-134671124D01*
X91110537Y-134655917D01*
X91063175Y-134572585D01*
X90995727Y-134505629D01*
X90920537Y-134466740D01*
X90907601Y-134463710D01*
X90822242Y-134467240D01*
G36*
X88125834Y-136867833D02*
X88323389Y-136867833D01*
X88411013Y-136866410D01*
X88481972Y-136862593D01*
X88526090Y-136857062D01*
X88535056Y-136853722D01*
X88538091Y-136830184D01*
X88540901Y-136768815D01*
X88543417Y-136674119D01*
X88545566Y-136550600D01*
X88547276Y-136402759D01*
X88548477Y-136235101D01*
X88549097Y-136052128D01*
X88549167Y-135964722D01*
X88549167Y-135089833D01*
X88125834Y-135089833D01*
X88125834Y-136867833D01*
X88125834Y-136867833D01*
G37*
X88125834Y-136867833D02*
X88323389Y-136867833D01*
X88411013Y-136866410D01*
X88481972Y-136862593D01*
X88526090Y-136857062D01*
X88535056Y-136853722D01*
X88538091Y-136830184D01*
X88540901Y-136768815D01*
X88543417Y-136674119D01*
X88545566Y-136550600D01*
X88547276Y-136402759D01*
X88548477Y-136235101D01*
X88549097Y-136052128D01*
X88549167Y-135964722D01*
X88549167Y-135089833D01*
X88125834Y-135089833D01*
X88125834Y-136867833D01*
G36*
X86375306Y-135116240D02*
X86347133Y-135147393D01*
X86329859Y-135179249D01*
X86320797Y-135222955D01*
X86317258Y-135289661D01*
X86316617Y-135359656D01*
X86316084Y-135544917D01*
X87414422Y-135566083D01*
X87457133Y-135639252D01*
X87480066Y-135701634D01*
X87497708Y-135794406D01*
X87509118Y-135905849D01*
X87513351Y-136024241D01*
X87509467Y-136137865D01*
X87502389Y-136201982D01*
X87494192Y-136253382D01*
X87483647Y-136293862D01*
X87466047Y-136324728D01*
X87436682Y-136347281D01*
X87390846Y-136362826D01*
X87323830Y-136372666D01*
X87230928Y-136378105D01*
X87107431Y-136380446D01*
X86948631Y-136380992D01*
X86855834Y-136381000D01*
X86305500Y-136381000D01*
X86305500Y-136540801D01*
X86314307Y-136672858D01*
X86341274Y-136768687D01*
X86387220Y-136830678D01*
X86410161Y-136846039D01*
X86444452Y-136852848D01*
X86517649Y-136858533D01*
X86626335Y-136862972D01*
X86767094Y-136866046D01*
X86936511Y-136867634D01*
X87029398Y-136867833D01*
X87203473Y-136867602D01*
X87340500Y-136866697D01*
X87445762Y-136864802D01*
X87524543Y-136861602D01*
X87582125Y-136856780D01*
X87623793Y-136850021D01*
X87654829Y-136841009D01*
X87680518Y-136829427D01*
X87681664Y-136828824D01*
X87742578Y-136781221D01*
X87804190Y-136707068D01*
X87824209Y-136676302D01*
X87893000Y-136562789D01*
X87892802Y-135979770D01*
X87892603Y-135396750D01*
X87831314Y-135289898D01*
X87778144Y-135215211D01*
X87712404Y-135146562D01*
X87679864Y-135120565D01*
X87589703Y-135058083D01*
X86433463Y-135058083D01*
X86375306Y-135116240D01*
X86375306Y-135116240D01*
G37*
X86375306Y-135116240D02*
X86347133Y-135147393D01*
X86329859Y-135179249D01*
X86320797Y-135222955D01*
X86317258Y-135289661D01*
X86316617Y-135359656D01*
X86316084Y-135544917D01*
X87414422Y-135566083D01*
X87457133Y-135639252D01*
X87480066Y-135701634D01*
X87497708Y-135794406D01*
X87509118Y-135905849D01*
X87513351Y-136024241D01*
X87509467Y-136137865D01*
X87502389Y-136201982D01*
X87494192Y-136253382D01*
X87483647Y-136293862D01*
X87466047Y-136324728D01*
X87436682Y-136347281D01*
X87390846Y-136362826D01*
X87323830Y-136372666D01*
X87230928Y-136378105D01*
X87107431Y-136380446D01*
X86948631Y-136380992D01*
X86855834Y-136381000D01*
X86305500Y-136381000D01*
X86305500Y-136540801D01*
X86314307Y-136672858D01*
X86341274Y-136768687D01*
X86387220Y-136830678D01*
X86410161Y-136846039D01*
X86444452Y-136852848D01*
X86517649Y-136858533D01*
X86626335Y-136862972D01*
X86767094Y-136866046D01*
X86936511Y-136867634D01*
X87029398Y-136867833D01*
X87203473Y-136867602D01*
X87340500Y-136866697D01*
X87445762Y-136864802D01*
X87524543Y-136861602D01*
X87582125Y-136856780D01*
X87623793Y-136850021D01*
X87654829Y-136841009D01*
X87680518Y-136829427D01*
X87681664Y-136828824D01*
X87742578Y-136781221D01*
X87804190Y-136707068D01*
X87824209Y-136676302D01*
X87893000Y-136562789D01*
X87892802Y-135979770D01*
X87892603Y-135396750D01*
X87831314Y-135289898D01*
X87778144Y-135215211D01*
X87712404Y-135146562D01*
X87679864Y-135120565D01*
X87589703Y-135058083D01*
X86433463Y-135058083D01*
X86375306Y-135116240D01*
G36*
X85411209Y-135055851D02*
X85213789Y-135060100D01*
X85054110Y-135064193D01*
X84927598Y-135069186D01*
X84829677Y-135076136D01*
X84755773Y-135086099D01*
X84701311Y-135100134D01*
X84661716Y-135119295D01*
X84632414Y-135144641D01*
X84608829Y-135177228D01*
X84586386Y-135218113D01*
X84569965Y-135250182D01*
X84545949Y-135302191D01*
X84529737Y-135354611D01*
X84519412Y-135418465D01*
X84513059Y-135504774D01*
X84509536Y-135597806D01*
X84508303Y-135745474D01*
X84515784Y-135859235D01*
X84533604Y-135946920D01*
X84563389Y-136016359D01*
X84606766Y-136075380D01*
X84609296Y-136078170D01*
X84646860Y-136121099D01*
X84658264Y-136146375D01*
X84645923Y-136167579D01*
X84628119Y-136184003D01*
X84587412Y-136229660D01*
X84558738Y-136287354D01*
X84540356Y-136364514D01*
X84530526Y-136468566D01*
X84527504Y-136606937D01*
X84527500Y-136613153D01*
X84527500Y-136867833D01*
X84904288Y-136867833D01*
X84911686Y-136675450D01*
X84915966Y-136584497D01*
X84924495Y-136516360D01*
X84942740Y-136467745D01*
X84976169Y-136435356D01*
X85030251Y-136415898D01*
X85110453Y-136406077D01*
X85222243Y-136402598D01*
X85365213Y-136402167D01*
X85711402Y-136402167D01*
X85717409Y-136629708D01*
X85723417Y-136857250D01*
X85908625Y-136863366D01*
X86093834Y-136869481D01*
X86093834Y-135534333D01*
X85712834Y-135534333D01*
X85712834Y-135936500D01*
X85321995Y-135936500D01*
X85183880Y-135936229D01*
X85082102Y-135935021D01*
X85010668Y-135932280D01*
X84963582Y-135927413D01*
X84934852Y-135919823D01*
X84918482Y-135908918D01*
X84909245Y-135895558D01*
X84893865Y-135840127D01*
X84888126Y-135761545D01*
X84891874Y-135677844D01*
X84904953Y-135607057D01*
X84911898Y-135588246D01*
X84936462Y-135534333D01*
X85712834Y-135534333D01*
X86093834Y-135534333D01*
X86093834Y-135041185D01*
X85411209Y-135055851D01*
X85411209Y-135055851D01*
G37*
X85411209Y-135055851D02*
X85213789Y-135060100D01*
X85054110Y-135064193D01*
X84927598Y-135069186D01*
X84829677Y-135076136D01*
X84755773Y-135086099D01*
X84701311Y-135100134D01*
X84661716Y-135119295D01*
X84632414Y-135144641D01*
X84608829Y-135177228D01*
X84586386Y-135218113D01*
X84569965Y-135250182D01*
X84545949Y-135302191D01*
X84529737Y-135354611D01*
X84519412Y-135418465D01*
X84513059Y-135504774D01*
X84509536Y-135597806D01*
X84508303Y-135745474D01*
X84515784Y-135859235D01*
X84533604Y-135946920D01*
X84563389Y-136016359D01*
X84606766Y-136075380D01*
X84609296Y-136078170D01*
X84646860Y-136121099D01*
X84658264Y-136146375D01*
X84645923Y-136167579D01*
X84628119Y-136184003D01*
X84587412Y-136229660D01*
X84558738Y-136287354D01*
X84540356Y-136364514D01*
X84530526Y-136468566D01*
X84527504Y-136606937D01*
X84527500Y-136613153D01*
X84527500Y-136867833D01*
X84904288Y-136867833D01*
X84911686Y-136675450D01*
X84915966Y-136584497D01*
X84924495Y-136516360D01*
X84942740Y-136467745D01*
X84976169Y-136435356D01*
X85030251Y-136415898D01*
X85110453Y-136406077D01*
X85222243Y-136402598D01*
X85365213Y-136402167D01*
X85711402Y-136402167D01*
X85717409Y-136629708D01*
X85723417Y-136857250D01*
X85908625Y-136863366D01*
X86093834Y-136869481D01*
X86093834Y-135534333D01*
X85712834Y-135534333D01*
X85712834Y-135936500D01*
X85321995Y-135936500D01*
X85183880Y-135936229D01*
X85082102Y-135935021D01*
X85010668Y-135932280D01*
X84963582Y-135927413D01*
X84934852Y-135919823D01*
X84918482Y-135908918D01*
X84909245Y-135895558D01*
X84893865Y-135840127D01*
X84888126Y-135761545D01*
X84891874Y-135677844D01*
X84904953Y-135607057D01*
X84911898Y-135588246D01*
X84936462Y-135534333D01*
X85712834Y-135534333D01*
X86093834Y-135534333D01*
X86093834Y-135041185D01*
X85411209Y-135055851D01*
G36*
X83402470Y-135025875D02*
X83266319Y-135028375D01*
X83141709Y-135032565D01*
X83036280Y-135038403D01*
X82957670Y-135045846D01*
X82913517Y-135054851D01*
X82912862Y-135055120D01*
X82819384Y-135114238D01*
X82733162Y-135205675D01*
X82678581Y-135290639D01*
X82664596Y-135319079D01*
X82653693Y-135349600D01*
X82645404Y-135387835D01*
X82639262Y-135439414D01*
X82634801Y-135509971D01*
X82631554Y-135605137D01*
X82629055Y-135730544D01*
X82626835Y-135891824D01*
X82626504Y-135918872D01*
X82625249Y-136103960D01*
X82626193Y-136262524D01*
X82629240Y-136390751D01*
X82634293Y-136484825D01*
X82641255Y-136540933D01*
X82642334Y-136545384D01*
X82694875Y-136669611D01*
X82776531Y-136769629D01*
X82845376Y-136819538D01*
X82872428Y-136833984D01*
X82900011Y-136845156D01*
X82933686Y-136853461D01*
X82979011Y-136859308D01*
X83041547Y-136863105D01*
X83126853Y-136865261D01*
X83240487Y-136866184D01*
X83388011Y-136866282D01*
X83479750Y-136866143D01*
X83636747Y-136865068D01*
X83779082Y-136862571D01*
X83900923Y-136858865D01*
X83996434Y-136854160D01*
X84059781Y-136848671D01*
X84082565Y-136844210D01*
X84154516Y-136803641D01*
X84212516Y-136740746D01*
X84265687Y-136645633D01*
X84265710Y-136645583D01*
X84280425Y-136612890D01*
X84291905Y-136581226D01*
X84300548Y-136545047D01*
X84306752Y-136498810D01*
X84310916Y-136436972D01*
X84313440Y-136353989D01*
X84314720Y-136244318D01*
X84315156Y-136102415D01*
X84315160Y-135984320D01*
X83892500Y-135984320D01*
X83891420Y-136115991D01*
X83887227Y-136211822D01*
X83878491Y-136278270D01*
X83863784Y-136321795D01*
X83841678Y-136348855D01*
X83810743Y-136365909D01*
X83807834Y-136367039D01*
X83776521Y-136370926D01*
X83710972Y-136373727D01*
X83619275Y-136375270D01*
X83509518Y-136375383D01*
X83443709Y-136374765D01*
X83302531Y-136371721D01*
X83199616Y-136366581D01*
X83130929Y-136358986D01*
X83092435Y-136348579D01*
X83083876Y-136342871D01*
X83072710Y-136318771D01*
X83064722Y-136269260D01*
X83059578Y-136189806D01*
X83056945Y-136075877D01*
X83056417Y-135969363D01*
X83056255Y-135823258D01*
X83058999Y-135714080D01*
X83069494Y-135636468D01*
X83092585Y-135585062D01*
X83133117Y-135554500D01*
X83195934Y-135539421D01*
X83285882Y-135534463D01*
X83407805Y-135534265D01*
X83449550Y-135534333D01*
X83562617Y-135535192D01*
X83662308Y-135537555D01*
X83740131Y-135541099D01*
X83787594Y-135545504D01*
X83796302Y-135547482D01*
X83831647Y-135569857D01*
X83857677Y-135609552D01*
X83875572Y-135671929D01*
X83886512Y-135762348D01*
X83891679Y-135886169D01*
X83892500Y-135984320D01*
X84315160Y-135984320D01*
X84315162Y-135957667D01*
X84314843Y-135782557D01*
X84313848Y-135644413D01*
X84311858Y-135537872D01*
X84308555Y-135457567D01*
X84303621Y-135398134D01*
X84296738Y-135354208D01*
X84287588Y-135320423D01*
X84275851Y-135291415D01*
X84275620Y-135290917D01*
X84221318Y-135203741D01*
X84147488Y-135123855D01*
X84067588Y-135064743D01*
X84033998Y-135048798D01*
X83989005Y-135040248D01*
X83909723Y-135033647D01*
X83803790Y-135028953D01*
X83678845Y-135026121D01*
X83542525Y-135025110D01*
X83402470Y-135025875D01*
X83402470Y-135025875D01*
G37*
X83402470Y-135025875D02*
X83266319Y-135028375D01*
X83141709Y-135032565D01*
X83036280Y-135038403D01*
X82957670Y-135045846D01*
X82913517Y-135054851D01*
X82912862Y-135055120D01*
X82819384Y-135114238D01*
X82733162Y-135205675D01*
X82678581Y-135290639D01*
X82664596Y-135319079D01*
X82653693Y-135349600D01*
X82645404Y-135387835D01*
X82639262Y-135439414D01*
X82634801Y-135509971D01*
X82631554Y-135605137D01*
X82629055Y-135730544D01*
X82626835Y-135891824D01*
X82626504Y-135918872D01*
X82625249Y-136103960D01*
X82626193Y-136262524D01*
X82629240Y-136390751D01*
X82634293Y-136484825D01*
X82641255Y-136540933D01*
X82642334Y-136545384D01*
X82694875Y-136669611D01*
X82776531Y-136769629D01*
X82845376Y-136819538D01*
X82872428Y-136833984D01*
X82900011Y-136845156D01*
X82933686Y-136853461D01*
X82979011Y-136859308D01*
X83041547Y-136863105D01*
X83126853Y-136865261D01*
X83240487Y-136866184D01*
X83388011Y-136866282D01*
X83479750Y-136866143D01*
X83636747Y-136865068D01*
X83779082Y-136862571D01*
X83900923Y-136858865D01*
X83996434Y-136854160D01*
X84059781Y-136848671D01*
X84082565Y-136844210D01*
X84154516Y-136803641D01*
X84212516Y-136740746D01*
X84265687Y-136645633D01*
X84265710Y-136645583D01*
X84280425Y-136612890D01*
X84291905Y-136581226D01*
X84300548Y-136545047D01*
X84306752Y-136498810D01*
X84310916Y-136436972D01*
X84313440Y-136353989D01*
X84314720Y-136244318D01*
X84315156Y-136102415D01*
X84315160Y-135984320D01*
X83892500Y-135984320D01*
X83891420Y-136115991D01*
X83887227Y-136211822D01*
X83878491Y-136278270D01*
X83863784Y-136321795D01*
X83841678Y-136348855D01*
X83810743Y-136365909D01*
X83807834Y-136367039D01*
X83776521Y-136370926D01*
X83710972Y-136373727D01*
X83619275Y-136375270D01*
X83509518Y-136375383D01*
X83443709Y-136374765D01*
X83302531Y-136371721D01*
X83199616Y-136366581D01*
X83130929Y-136358986D01*
X83092435Y-136348579D01*
X83083876Y-136342871D01*
X83072710Y-136318771D01*
X83064722Y-136269260D01*
X83059578Y-136189806D01*
X83056945Y-136075877D01*
X83056417Y-135969363D01*
X83056255Y-135823258D01*
X83058999Y-135714080D01*
X83069494Y-135636468D01*
X83092585Y-135585062D01*
X83133117Y-135554500D01*
X83195934Y-135539421D01*
X83285882Y-135534463D01*
X83407805Y-135534265D01*
X83449550Y-135534333D01*
X83562617Y-135535192D01*
X83662308Y-135537555D01*
X83740131Y-135541099D01*
X83787594Y-135545504D01*
X83796302Y-135547482D01*
X83831647Y-135569857D01*
X83857677Y-135609552D01*
X83875572Y-135671929D01*
X83886512Y-135762348D01*
X83891679Y-135886169D01*
X83892500Y-135984320D01*
X84315160Y-135984320D01*
X84315162Y-135957667D01*
X84314843Y-135782557D01*
X84313848Y-135644413D01*
X84311858Y-135537872D01*
X84308555Y-135457567D01*
X84303621Y-135398134D01*
X84296738Y-135354208D01*
X84287588Y-135320423D01*
X84275851Y-135291415D01*
X84275620Y-135290917D01*
X84221318Y-135203741D01*
X84147488Y-135123855D01*
X84067588Y-135064743D01*
X84033998Y-135048798D01*
X83989005Y-135040248D01*
X83909723Y-135033647D01*
X83803790Y-135028953D01*
X83678845Y-135026121D01*
X83542525Y-135025110D01*
X83402470Y-135025875D01*
G36*
X80230667Y-135682500D02*
X79511000Y-135682500D01*
X79511000Y-135068667D01*
X79066041Y-135068667D01*
X79071562Y-135962958D01*
X79077084Y-136857250D01*
X79511000Y-136869314D01*
X79511000Y-136211667D01*
X80230667Y-136211667D01*
X80230667Y-136867833D01*
X80654000Y-136867833D01*
X80654000Y-135068667D01*
X80230667Y-135068667D01*
X80230667Y-135682500D01*
X80230667Y-135682500D01*
G37*
X80230667Y-135682500D02*
X79511000Y-135682500D01*
X79511000Y-135068667D01*
X79066041Y-135068667D01*
X79071562Y-135962958D01*
X79077084Y-136857250D01*
X79511000Y-136869314D01*
X79511000Y-136211667D01*
X80230667Y-136211667D01*
X80230667Y-136867833D01*
X80654000Y-136867833D01*
X80654000Y-135068667D01*
X80230667Y-135068667D01*
X80230667Y-135682500D01*
G36*
X78452667Y-136867833D02*
X78854834Y-136867833D01*
X78854834Y-135089833D01*
X78452667Y-135089833D01*
X78452667Y-136867833D01*
X78452667Y-136867833D01*
G37*
X78452667Y-136867833D02*
X78854834Y-136867833D01*
X78854834Y-135089833D01*
X78452667Y-135089833D01*
X78452667Y-136867833D01*
G36*
X76727695Y-135181552D02*
X76678686Y-135238141D01*
X76642383Y-135296080D01*
X76617183Y-135362633D01*
X76601488Y-135445062D01*
X76593694Y-135550633D01*
X76592203Y-135686608D01*
X76593740Y-135789344D01*
X76598439Y-135937484D01*
X76606919Y-136051151D01*
X76621300Y-136138172D01*
X76643702Y-136206374D01*
X76676245Y-136263585D01*
X76721048Y-136317633D01*
X76742915Y-136340158D01*
X76804924Y-136402167D01*
X77817667Y-136402167D01*
X77817667Y-136867833D01*
X78198667Y-136867833D01*
X78198667Y-135534241D01*
X77828250Y-135534241D01*
X77814856Y-135957667D01*
X77018470Y-135957667D01*
X76991862Y-135893430D01*
X76980027Y-135839134D01*
X76975524Y-135762488D01*
X76977879Y-135679439D01*
X76986617Y-135605937D01*
X77001266Y-135557930D01*
X77001862Y-135556937D01*
X77029005Y-135547967D01*
X77097196Y-135541192D01*
X77205203Y-135536679D01*
X77351792Y-135534494D01*
X77422041Y-135534287D01*
X77828250Y-135534241D01*
X78198667Y-135534241D01*
X78198667Y-135089833D01*
X76815577Y-135089833D01*
X76727695Y-135181552D01*
X76727695Y-135181552D01*
G37*
X76727695Y-135181552D02*
X76678686Y-135238141D01*
X76642383Y-135296080D01*
X76617183Y-135362633D01*
X76601488Y-135445062D01*
X76593694Y-135550633D01*
X76592203Y-135686608D01*
X76593740Y-135789344D01*
X76598439Y-135937484D01*
X76606919Y-136051151D01*
X76621300Y-136138172D01*
X76643702Y-136206374D01*
X76676245Y-136263585D01*
X76721048Y-136317633D01*
X76742915Y-136340158D01*
X76804924Y-136402167D01*
X77817667Y-136402167D01*
X77817667Y-136867833D01*
X78198667Y-136867833D01*
X78198667Y-135534241D01*
X77828250Y-135534241D01*
X77814856Y-135957667D01*
X77018470Y-135957667D01*
X76991862Y-135893430D01*
X76980027Y-135839134D01*
X76975524Y-135762488D01*
X76977879Y-135679439D01*
X76986617Y-135605937D01*
X77001266Y-135557930D01*
X77001862Y-135556937D01*
X77029005Y-135547967D01*
X77097196Y-135541192D01*
X77205203Y-135536679D01*
X77351792Y-135534494D01*
X77422041Y-135534287D01*
X77828250Y-135534241D01*
X78198667Y-135534241D01*
X78198667Y-135089833D01*
X76815577Y-135089833D01*
X76727695Y-135181552D01*
G36*
X92702699Y-133857927D02*
X92631808Y-133907338D01*
X92592132Y-133978186D01*
X92579291Y-134071479D01*
X92606974Y-134152954D01*
X92659435Y-134211479D01*
X92741459Y-134256474D01*
X92827536Y-134260487D01*
X92911170Y-134223532D01*
X92927487Y-134210844D01*
X92983849Y-134140646D01*
X93005801Y-134061723D01*
X93005601Y-134060028D01*
X92956206Y-134060028D01*
X92934966Y-134126653D01*
X92891418Y-134181033D01*
X92831129Y-134214266D01*
X92759662Y-134217445D01*
X92732126Y-134209463D01*
X92713905Y-134196252D01*
X92720071Y-134171919D01*
X92744958Y-134135380D01*
X92787390Y-134086862D01*
X92814020Y-134077313D01*
X92824636Y-134106787D01*
X92824834Y-134114917D01*
X92834553Y-134155438D01*
X92846000Y-134169083D01*
X92858361Y-134157818D01*
X92865592Y-134108838D01*
X92867167Y-134053916D01*
X92867167Y-133999750D01*
X92824834Y-133999750D01*
X92807187Y-134025607D01*
X92782500Y-134031500D01*
X92748024Y-134018265D01*
X92740167Y-133999750D01*
X92757814Y-133973893D01*
X92782500Y-133968000D01*
X92816977Y-133981235D01*
X92824834Y-133999750D01*
X92867167Y-133999750D01*
X92867167Y-133925667D01*
X92792420Y-133925667D01*
X92729674Y-133937784D01*
X92700535Y-133971024D01*
X92708292Y-134020719D01*
X92715839Y-134034304D01*
X92729537Y-134077486D01*
X92714054Y-134116222D01*
X92681698Y-134148867D01*
X92653577Y-134140012D01*
X92633289Y-134093431D01*
X92631239Y-134024817D01*
X92652308Y-133957364D01*
X92690161Y-133909413D01*
X92698669Y-133904053D01*
X92770050Y-133884487D01*
X92845920Y-133891457D01*
X92906679Y-133922956D01*
X92909500Y-133925667D01*
X92949573Y-133990064D01*
X92956206Y-134060028D01*
X93005601Y-134060028D01*
X92996519Y-133983207D01*
X92959175Y-133914229D01*
X92896943Y-133863921D01*
X92812999Y-133841414D01*
X92798931Y-133841000D01*
X92702699Y-133857927D01*
X92702699Y-133857927D01*
G37*
X92702699Y-133857927D02*
X92631808Y-133907338D01*
X92592132Y-133978186D01*
X92579291Y-134071479D01*
X92606974Y-134152954D01*
X92659435Y-134211479D01*
X92741459Y-134256474D01*
X92827536Y-134260487D01*
X92911170Y-134223532D01*
X92927487Y-134210844D01*
X92983849Y-134140646D01*
X93005801Y-134061723D01*
X93005601Y-134060028D01*
X92956206Y-134060028D01*
X92934966Y-134126653D01*
X92891418Y-134181033D01*
X92831129Y-134214266D01*
X92759662Y-134217445D01*
X92732126Y-134209463D01*
X92713905Y-134196252D01*
X92720071Y-134171919D01*
X92744958Y-134135380D01*
X92787390Y-134086862D01*
X92814020Y-134077313D01*
X92824636Y-134106787D01*
X92824834Y-134114917D01*
X92834553Y-134155438D01*
X92846000Y-134169083D01*
X92858361Y-134157818D01*
X92865592Y-134108838D01*
X92867167Y-134053916D01*
X92867167Y-133999750D01*
X92824834Y-133999750D01*
X92807187Y-134025607D01*
X92782500Y-134031500D01*
X92748024Y-134018265D01*
X92740167Y-133999750D01*
X92757814Y-133973893D01*
X92782500Y-133968000D01*
X92816977Y-133981235D01*
X92824834Y-133999750D01*
X92867167Y-133999750D01*
X92867167Y-133925667D01*
X92792420Y-133925667D01*
X92729674Y-133937784D01*
X92700535Y-133971024D01*
X92708292Y-134020719D01*
X92715839Y-134034304D01*
X92729537Y-134077486D01*
X92714054Y-134116222D01*
X92681698Y-134148867D01*
X92653577Y-134140012D01*
X92633289Y-134093431D01*
X92631239Y-134024817D01*
X92652308Y-133957364D01*
X92690161Y-133909413D01*
X92698669Y-133904053D01*
X92770050Y-133884487D01*
X92845920Y-133891457D01*
X92906679Y-133922956D01*
X92909500Y-133925667D01*
X92949573Y-133990064D01*
X92956206Y-134060028D01*
X93005601Y-134060028D01*
X92996519Y-133983207D01*
X92959175Y-133914229D01*
X92896943Y-133863921D01*
X92812999Y-133841414D01*
X92798931Y-133841000D01*
X92702699Y-133857927D01*
G36*
X56579338Y-134870659D02*
X56465651Y-134874688D01*
X56374667Y-134882929D01*
X56296613Y-134896148D01*
X56249250Y-134907491D01*
X55998139Y-134993848D01*
X55773826Y-135112364D01*
X55577248Y-135261683D01*
X55409345Y-135440446D01*
X55271054Y-135647296D01*
X55163316Y-135880874D01*
X55087067Y-136139824D01*
X55043246Y-136422788D01*
X55032167Y-136668281D01*
X55032167Y-136867833D01*
X57662756Y-136867833D01*
X57650735Y-136984313D01*
X57614128Y-137142806D01*
X57539570Y-137297603D01*
X57431177Y-137440277D01*
X57424579Y-137447326D01*
X57278861Y-137572287D01*
X57112766Y-137664875D01*
X56932566Y-137724916D01*
X56744536Y-137752235D01*
X56554948Y-137746660D01*
X56370077Y-137708017D01*
X56196196Y-137636132D01*
X56039579Y-137530831D01*
X55990986Y-137487007D01*
X55898376Y-137397000D01*
X55518188Y-137397000D01*
X55396616Y-137397700D01*
X55291137Y-137399645D01*
X55208438Y-137402602D01*
X55155204Y-137406336D01*
X55138000Y-137410277D01*
X55150283Y-137453893D01*
X55183255Y-137521179D01*
X55231102Y-137602794D01*
X55288010Y-137689398D01*
X55348167Y-137771650D01*
X55405274Y-137839688D01*
X55586996Y-138007937D01*
X55789349Y-138141664D01*
X56013936Y-138241484D01*
X56262363Y-138308012D01*
X56536235Y-138341861D01*
X56729900Y-138346617D01*
X56839458Y-138344880D01*
X56937663Y-138342193D01*
X57014668Y-138338904D01*
X57060630Y-138335360D01*
X57064167Y-138334840D01*
X57321127Y-138271753D01*
X57559031Y-138173346D01*
X57774737Y-138042041D01*
X57965101Y-137880257D01*
X58126982Y-137690414D01*
X58257235Y-137474933D01*
X58299020Y-137383905D01*
X58381849Y-137138839D01*
X58431490Y-136881344D01*
X58448358Y-136618338D01*
X58432867Y-136356738D01*
X58409661Y-136232833D01*
X57654554Y-136232833D01*
X55811970Y-136232833D01*
X55826435Y-136164042D01*
X55879650Y-136007102D01*
X55967949Y-135858602D01*
X56084084Y-135727499D01*
X56220808Y-135622751D01*
X56297551Y-135581709D01*
X56414997Y-135543240D01*
X56558583Y-135519740D01*
X56714648Y-135511756D01*
X56869532Y-135519834D01*
X57009573Y-135544521D01*
X57036734Y-135552144D01*
X57212155Y-135626757D01*
X57364344Y-135735405D01*
X57489799Y-135874668D01*
X57585021Y-136041128D01*
X57614510Y-136116443D01*
X57654554Y-136232833D01*
X58409661Y-136232833D01*
X58385431Y-136103463D01*
X58306463Y-135865431D01*
X58196379Y-135649559D01*
X58195081Y-135647469D01*
X58045544Y-135439119D01*
X57876199Y-135265205D01*
X57682862Y-135122577D01*
X57461350Y-135008083D01*
X57240009Y-134928166D01*
X57161752Y-134905831D01*
X57092325Y-134890163D01*
X57020982Y-134879950D01*
X56936981Y-134873977D01*
X56829577Y-134871032D01*
X56725500Y-134870072D01*
X56579338Y-134870659D01*
X56579338Y-134870659D01*
G37*
X56579338Y-134870659D02*
X56465651Y-134874688D01*
X56374667Y-134882929D01*
X56296613Y-134896148D01*
X56249250Y-134907491D01*
X55998139Y-134993848D01*
X55773826Y-135112364D01*
X55577248Y-135261683D01*
X55409345Y-135440446D01*
X55271054Y-135647296D01*
X55163316Y-135880874D01*
X55087067Y-136139824D01*
X55043246Y-136422788D01*
X55032167Y-136668281D01*
X55032167Y-136867833D01*
X57662756Y-136867833D01*
X57650735Y-136984313D01*
X57614128Y-137142806D01*
X57539570Y-137297603D01*
X57431177Y-137440277D01*
X57424579Y-137447326D01*
X57278861Y-137572287D01*
X57112766Y-137664875D01*
X56932566Y-137724916D01*
X56744536Y-137752235D01*
X56554948Y-137746660D01*
X56370077Y-137708017D01*
X56196196Y-137636132D01*
X56039579Y-137530831D01*
X55990986Y-137487007D01*
X55898376Y-137397000D01*
X55518188Y-137397000D01*
X55396616Y-137397700D01*
X55291137Y-137399645D01*
X55208438Y-137402602D01*
X55155204Y-137406336D01*
X55138000Y-137410277D01*
X55150283Y-137453893D01*
X55183255Y-137521179D01*
X55231102Y-137602794D01*
X55288010Y-137689398D01*
X55348167Y-137771650D01*
X55405274Y-137839688D01*
X55586996Y-138007937D01*
X55789349Y-138141664D01*
X56013936Y-138241484D01*
X56262363Y-138308012D01*
X56536235Y-138341861D01*
X56729900Y-138346617D01*
X56839458Y-138344880D01*
X56937663Y-138342193D01*
X57014668Y-138338904D01*
X57060630Y-138335360D01*
X57064167Y-138334840D01*
X57321127Y-138271753D01*
X57559031Y-138173346D01*
X57774737Y-138042041D01*
X57965101Y-137880257D01*
X58126982Y-137690414D01*
X58257235Y-137474933D01*
X58299020Y-137383905D01*
X58381849Y-137138839D01*
X58431490Y-136881344D01*
X58448358Y-136618338D01*
X58432867Y-136356738D01*
X58409661Y-136232833D01*
X57654554Y-136232833D01*
X55811970Y-136232833D01*
X55826435Y-136164042D01*
X55879650Y-136007102D01*
X55967949Y-135858602D01*
X56084084Y-135727499D01*
X56220808Y-135622751D01*
X56297551Y-135581709D01*
X56414997Y-135543240D01*
X56558583Y-135519740D01*
X56714648Y-135511756D01*
X56869532Y-135519834D01*
X57009573Y-135544521D01*
X57036734Y-135552144D01*
X57212155Y-135626757D01*
X57364344Y-135735405D01*
X57489799Y-135874668D01*
X57585021Y-136041128D01*
X57614510Y-136116443D01*
X57654554Y-136232833D01*
X58409661Y-136232833D01*
X58385431Y-136103463D01*
X58306463Y-135865431D01*
X58196379Y-135649559D01*
X58195081Y-135647469D01*
X58045544Y-135439119D01*
X57876199Y-135265205D01*
X57682862Y-135122577D01*
X57461350Y-135008083D01*
X57240009Y-134928166D01*
X57161752Y-134905831D01*
X57092325Y-134890163D01*
X57020982Y-134879950D01*
X56936981Y-134873977D01*
X56829577Y-134871032D01*
X56725500Y-134870072D01*
X56579338Y-134870659D01*
G36*
X66970167Y-138287048D02*
X67314125Y-138281232D01*
X67658084Y-138275417D01*
X67668667Y-136419015D01*
X67679250Y-134562614D01*
X68374204Y-135381849D01*
X69069157Y-136201083D01*
X68665246Y-136206832D01*
X68261334Y-136212581D01*
X68261334Y-136867833D01*
X69635021Y-136867833D01*
X70168251Y-137497542D01*
X70289634Y-137640641D01*
X70405238Y-137776460D01*
X70511560Y-137900920D01*
X70605101Y-138009942D01*
X70682358Y-138099446D01*
X70739832Y-138165353D01*
X70774020Y-138203585D01*
X70776870Y-138206625D01*
X70852259Y-138286000D01*
X71250130Y-138286000D01*
X71374656Y-138285418D01*
X71483240Y-138283797D01*
X71569344Y-138281329D01*
X71626433Y-138278201D01*
X71647971Y-138274604D01*
X71648000Y-138274462D01*
X71634588Y-138257229D01*
X71595376Y-138209500D01*
X71531900Y-138133103D01*
X71445696Y-138029865D01*
X71338300Y-137901614D01*
X71211250Y-137750178D01*
X71066081Y-137577385D01*
X70904329Y-137385062D01*
X70727531Y-137175037D01*
X70537223Y-136949138D01*
X70334942Y-136709192D01*
X70122222Y-136457027D01*
X69900602Y-136194471D01*
X69708740Y-135967295D01*
X67769480Y-133671667D01*
X66970167Y-133671667D01*
X66970167Y-138287048D01*
X66970167Y-138287048D01*
G37*
X66970167Y-138287048D02*
X67314125Y-138281232D01*
X67658084Y-138275417D01*
X67668667Y-136419015D01*
X67679250Y-134562614D01*
X68374204Y-135381849D01*
X69069157Y-136201083D01*
X68665246Y-136206832D01*
X68261334Y-136212581D01*
X68261334Y-136867833D01*
X69635021Y-136867833D01*
X70168251Y-137497542D01*
X70289634Y-137640641D01*
X70405238Y-137776460D01*
X70511560Y-137900920D01*
X70605101Y-138009942D01*
X70682358Y-138099446D01*
X70739832Y-138165353D01*
X70774020Y-138203585D01*
X70776870Y-138206625D01*
X70852259Y-138286000D01*
X71250130Y-138286000D01*
X71374656Y-138285418D01*
X71483240Y-138283797D01*
X71569344Y-138281329D01*
X71626433Y-138278201D01*
X71647971Y-138274604D01*
X71648000Y-138274462D01*
X71634588Y-138257229D01*
X71595376Y-138209500D01*
X71531900Y-138133103D01*
X71445696Y-138029865D01*
X71338300Y-137901614D01*
X71211250Y-137750178D01*
X71066081Y-137577385D01*
X70904329Y-137385062D01*
X70727531Y-137175037D01*
X70537223Y-136949138D01*
X70334942Y-136709192D01*
X70122222Y-136457027D01*
X69900602Y-136194471D01*
X69708740Y-135967295D01*
X67769480Y-133671667D01*
X66970167Y-133671667D01*
X66970167Y-138287048D01*
G36*
X65425000Y-134920500D02*
X64366667Y-134920500D01*
X64366667Y-135619000D01*
X65425000Y-135619000D01*
X65425000Y-136283520D01*
X65424808Y-136471863D01*
X65424038Y-136623239D01*
X65422407Y-136743014D01*
X65419626Y-136836553D01*
X65415411Y-136909221D01*
X65409475Y-136966385D01*
X65401533Y-137013408D01*
X65391298Y-137055658D01*
X65382178Y-137086683D01*
X65317840Y-137228162D01*
X65219676Y-137357257D01*
X65096102Y-137464329D01*
X65005691Y-137517772D01*
X64950966Y-137542877D01*
X64900444Y-137560133D01*
X64843602Y-137571334D01*
X64769919Y-137578274D01*
X64668872Y-137582748D01*
X64615375Y-137584334D01*
X64345500Y-137591751D01*
X64345500Y-138286000D01*
X64604792Y-138284317D01*
X64721190Y-138281136D01*
X64836934Y-138273813D01*
X64937280Y-138263501D01*
X64998103Y-138253544D01*
X65127004Y-138215135D01*
X65269642Y-138155777D01*
X65410249Y-138083226D01*
X65533056Y-138005242D01*
X65585106Y-137964726D01*
X65761169Y-137791942D01*
X65901447Y-137602485D01*
X66011226Y-137388625D01*
X66052707Y-137280583D01*
X66111878Y-137111250D01*
X66119346Y-136365125D01*
X66126815Y-135619000D01*
X66483334Y-135619000D01*
X66483334Y-134920500D01*
X66123500Y-134920500D01*
X66123500Y-133671667D01*
X65425000Y-133671667D01*
X65425000Y-134920500D01*
X65425000Y-134920500D01*
G37*
X65425000Y-134920500D02*
X64366667Y-134920500D01*
X64366667Y-135619000D01*
X65425000Y-135619000D01*
X65425000Y-136283520D01*
X65424808Y-136471863D01*
X65424038Y-136623239D01*
X65422407Y-136743014D01*
X65419626Y-136836553D01*
X65415411Y-136909221D01*
X65409475Y-136966385D01*
X65401533Y-137013408D01*
X65391298Y-137055658D01*
X65382178Y-137086683D01*
X65317840Y-137228162D01*
X65219676Y-137357257D01*
X65096102Y-137464329D01*
X65005691Y-137517772D01*
X64950966Y-137542877D01*
X64900444Y-137560133D01*
X64843602Y-137571334D01*
X64769919Y-137578274D01*
X64668872Y-137582748D01*
X64615375Y-137584334D01*
X64345500Y-137591751D01*
X64345500Y-138286000D01*
X64604792Y-138284317D01*
X64721190Y-138281136D01*
X64836934Y-138273813D01*
X64937280Y-138263501D01*
X64998103Y-138253544D01*
X65127004Y-138215135D01*
X65269642Y-138155777D01*
X65410249Y-138083226D01*
X65533056Y-138005242D01*
X65585106Y-137964726D01*
X65761169Y-137791942D01*
X65901447Y-137602485D01*
X66011226Y-137388625D01*
X66052707Y-137280583D01*
X66111878Y-137111250D01*
X66119346Y-136365125D01*
X66126815Y-135619000D01*
X66483334Y-135619000D01*
X66483334Y-134920500D01*
X66123500Y-134920500D01*
X66123500Y-133671667D01*
X65425000Y-133671667D01*
X65425000Y-134920500D01*
G36*
X62237006Y-134897675D02*
X62020776Y-134953458D01*
X61812923Y-135041402D01*
X61623977Y-135157391D01*
X61520981Y-135241553D01*
X61381895Y-135368999D01*
X61265528Y-135262646D01*
X61075552Y-135114457D01*
X60865076Y-135000141D01*
X60736381Y-134949535D01*
X60655497Y-134923267D01*
X60584931Y-134906105D01*
X60511219Y-134896167D01*
X60420893Y-134891574D01*
X60313250Y-134890455D01*
X60151874Y-134894685D01*
X60017646Y-134910040D01*
X59896115Y-134939816D01*
X59772827Y-134987308D01*
X59668931Y-135037343D01*
X59457042Y-135168627D01*
X59274137Y-135330655D01*
X59121254Y-135522375D01*
X59022904Y-135693083D01*
X58991497Y-135757600D01*
X58964877Y-135816456D01*
X58942647Y-135873701D01*
X58924410Y-135933386D01*
X58909767Y-135999560D01*
X58898323Y-136076274D01*
X58889679Y-136167576D01*
X58883438Y-136277517D01*
X58879202Y-136410147D01*
X58876574Y-136569516D01*
X58875157Y-136759673D01*
X58874552Y-136984669D01*
X58874381Y-137206500D01*
X58873917Y-138275417D01*
X59228459Y-138281220D01*
X59583000Y-138287023D01*
X59583000Y-137285542D01*
X59583161Y-137034137D01*
X59583907Y-136821128D01*
X59585637Y-136642580D01*
X59588747Y-136494555D01*
X59593635Y-136373117D01*
X59600697Y-136274330D01*
X59610332Y-136194257D01*
X59622937Y-136128963D01*
X59638909Y-136074509D01*
X59658645Y-136026961D01*
X59682542Y-135982382D01*
X59710998Y-135936835D01*
X59720596Y-135922223D01*
X59828577Y-135795522D01*
X59961918Y-135701712D01*
X60117433Y-135642419D01*
X60291941Y-135619271D01*
X60313953Y-135619000D01*
X60482521Y-135638922D01*
X60636561Y-135696874D01*
X60770949Y-135790134D01*
X60880565Y-135915981D01*
X60884738Y-135922223D01*
X60914657Y-135968842D01*
X60939895Y-136013299D01*
X60960852Y-136059530D01*
X60977924Y-136111472D01*
X60991509Y-136173060D01*
X61002003Y-136248232D01*
X61009804Y-136340923D01*
X61015310Y-136455071D01*
X61018918Y-136594611D01*
X61021024Y-136763480D01*
X61022027Y-136965614D01*
X61022323Y-137204951D01*
X61022334Y-137285542D01*
X61022334Y-138287023D01*
X61376875Y-138281220D01*
X61731417Y-138275417D01*
X61742000Y-137206500D01*
X61744431Y-136966051D01*
X61746677Y-136764165D01*
X61748919Y-136597075D01*
X61751340Y-136461013D01*
X61754120Y-136352209D01*
X61757442Y-136266896D01*
X61761487Y-136201306D01*
X61766438Y-136151670D01*
X61772475Y-136114221D01*
X61779781Y-136085191D01*
X61788538Y-136060810D01*
X61798323Y-136038615D01*
X61869634Y-135921236D01*
X61967478Y-135810221D01*
X62078303Y-135719797D01*
X62132734Y-135687576D01*
X62264183Y-135640690D01*
X62413840Y-135620646D01*
X62566644Y-135628103D01*
X62704428Y-135662536D01*
X62826855Y-135727531D01*
X62943432Y-135823668D01*
X63042648Y-135940136D01*
X63097484Y-136031750D01*
X63149584Y-136137583D01*
X63155613Y-137211792D01*
X63161642Y-138286000D01*
X63879834Y-138286000D01*
X63879834Y-137250695D01*
X63879667Y-136989129D01*
X63878885Y-136765808D01*
X63877068Y-136576643D01*
X63873794Y-136417545D01*
X63868643Y-136284425D01*
X63861195Y-136173197D01*
X63851027Y-136079770D01*
X63837721Y-136000056D01*
X63820854Y-135929967D01*
X63800006Y-135865415D01*
X63774756Y-135802310D01*
X63744683Y-135736565D01*
X63718434Y-135682500D01*
X63665723Y-135581448D01*
X63613815Y-135498832D01*
X63552776Y-135421097D01*
X63472676Y-135334689D01*
X63437506Y-135299094D01*
X63344144Y-135209072D01*
X63265120Y-135142495D01*
X63187919Y-135090080D01*
X63100026Y-135042547D01*
X63075500Y-135030618D01*
X62892746Y-134957410D01*
X62701033Y-134906038D01*
X62516216Y-134880373D01*
X62451084Y-134878166D01*
X62237006Y-134897675D01*
X62237006Y-134897675D01*
G37*
X62237006Y-134897675D02*
X62020776Y-134953458D01*
X61812923Y-135041402D01*
X61623977Y-135157391D01*
X61520981Y-135241553D01*
X61381895Y-135368999D01*
X61265528Y-135262646D01*
X61075552Y-135114457D01*
X60865076Y-135000141D01*
X60736381Y-134949535D01*
X60655497Y-134923267D01*
X60584931Y-134906105D01*
X60511219Y-134896167D01*
X60420893Y-134891574D01*
X60313250Y-134890455D01*
X60151874Y-134894685D01*
X60017646Y-134910040D01*
X59896115Y-134939816D01*
X59772827Y-134987308D01*
X59668931Y-135037343D01*
X59457042Y-135168627D01*
X59274137Y-135330655D01*
X59121254Y-135522375D01*
X59022904Y-135693083D01*
X58991497Y-135757600D01*
X58964877Y-135816456D01*
X58942647Y-135873701D01*
X58924410Y-135933386D01*
X58909767Y-135999560D01*
X58898323Y-136076274D01*
X58889679Y-136167576D01*
X58883438Y-136277517D01*
X58879202Y-136410147D01*
X58876574Y-136569516D01*
X58875157Y-136759673D01*
X58874552Y-136984669D01*
X58874381Y-137206500D01*
X58873917Y-138275417D01*
X59228459Y-138281220D01*
X59583000Y-138287023D01*
X59583000Y-137285542D01*
X59583161Y-137034137D01*
X59583907Y-136821128D01*
X59585637Y-136642580D01*
X59588747Y-136494555D01*
X59593635Y-136373117D01*
X59600697Y-136274330D01*
X59610332Y-136194257D01*
X59622937Y-136128963D01*
X59638909Y-136074509D01*
X59658645Y-136026961D01*
X59682542Y-135982382D01*
X59710998Y-135936835D01*
X59720596Y-135922223D01*
X59828577Y-135795522D01*
X59961918Y-135701712D01*
X60117433Y-135642419D01*
X60291941Y-135619271D01*
X60313953Y-135619000D01*
X60482521Y-135638922D01*
X60636561Y-135696874D01*
X60770949Y-135790134D01*
X60880565Y-135915981D01*
X60884738Y-135922223D01*
X60914657Y-135968842D01*
X60939895Y-136013299D01*
X60960852Y-136059530D01*
X60977924Y-136111472D01*
X60991509Y-136173060D01*
X61002003Y-136248232D01*
X61009804Y-136340923D01*
X61015310Y-136455071D01*
X61018918Y-136594611D01*
X61021024Y-136763480D01*
X61022027Y-136965614D01*
X61022323Y-137204951D01*
X61022334Y-137285542D01*
X61022334Y-138287023D01*
X61376875Y-138281220D01*
X61731417Y-138275417D01*
X61742000Y-137206500D01*
X61744431Y-136966051D01*
X61746677Y-136764165D01*
X61748919Y-136597075D01*
X61751340Y-136461013D01*
X61754120Y-136352209D01*
X61757442Y-136266896D01*
X61761487Y-136201306D01*
X61766438Y-136151670D01*
X61772475Y-136114221D01*
X61779781Y-136085191D01*
X61788538Y-136060810D01*
X61798323Y-136038615D01*
X61869634Y-135921236D01*
X61967478Y-135810221D01*
X62078303Y-135719797D01*
X62132734Y-135687576D01*
X62264183Y-135640690D01*
X62413840Y-135620646D01*
X62566644Y-135628103D01*
X62704428Y-135662536D01*
X62826855Y-135727531D01*
X62943432Y-135823668D01*
X63042648Y-135940136D01*
X63097484Y-136031750D01*
X63149584Y-136137583D01*
X63155613Y-137211792D01*
X63161642Y-138286000D01*
X63879834Y-138286000D01*
X63879834Y-137250695D01*
X63879667Y-136989129D01*
X63878885Y-136765808D01*
X63877068Y-136576643D01*
X63873794Y-136417545D01*
X63868643Y-136284425D01*
X63861195Y-136173197D01*
X63851027Y-136079770D01*
X63837721Y-136000056D01*
X63820854Y-135929967D01*
X63800006Y-135865415D01*
X63774756Y-135802310D01*
X63744683Y-135736565D01*
X63718434Y-135682500D01*
X63665723Y-135581448D01*
X63613815Y-135498832D01*
X63552776Y-135421097D01*
X63472676Y-135334689D01*
X63437506Y-135299094D01*
X63344144Y-135209072D01*
X63265120Y-135142495D01*
X63187919Y-135090080D01*
X63100026Y-135042547D01*
X63075500Y-135030618D01*
X62892746Y-134957410D01*
X62701033Y-134906038D01*
X62516216Y-134880373D01*
X62451084Y-134878166D01*
X62237006Y-134897675D01*
G36*
X53926820Y-135349125D02*
X53920917Y-137026583D01*
X53864605Y-137146707D01*
X53776407Y-137292544D01*
X53661840Y-137416298D01*
X53529613Y-137508814D01*
X53511162Y-137518275D01*
X53458068Y-137542683D01*
X53408958Y-137559607D01*
X53353727Y-137570715D01*
X53282267Y-137577674D01*
X53184473Y-137582154D01*
X53111292Y-137584285D01*
X52830834Y-137591653D01*
X52830834Y-138286000D01*
X53100709Y-138284442D01*
X53289444Y-138278170D01*
X53442884Y-138261397D01*
X53525964Y-138244727D01*
X53746374Y-138169335D01*
X53952204Y-138057111D01*
X54139099Y-137912304D01*
X54302707Y-137739159D01*
X54438672Y-137541926D01*
X54542642Y-137324852D01*
X54579246Y-137217083D01*
X54586118Y-137191308D01*
X54592140Y-137161402D01*
X54597386Y-137124454D01*
X54601926Y-137077553D01*
X54605833Y-137017785D01*
X54609178Y-136942240D01*
X54612032Y-136848006D01*
X54614469Y-136732170D01*
X54616559Y-136591822D01*
X54618374Y-136424049D01*
X54619986Y-136225940D01*
X54621467Y-135994583D01*
X54622888Y-135727066D01*
X54624321Y-135420478D01*
X54624498Y-135380875D01*
X54632083Y-133671667D01*
X53932722Y-133671667D01*
X53926820Y-135349125D01*
X53926820Y-135349125D01*
G37*
X53926820Y-135349125D02*
X53920917Y-137026583D01*
X53864605Y-137146707D01*
X53776407Y-137292544D01*
X53661840Y-137416298D01*
X53529613Y-137508814D01*
X53511162Y-137518275D01*
X53458068Y-137542683D01*
X53408958Y-137559607D01*
X53353727Y-137570715D01*
X53282267Y-137577674D01*
X53184473Y-137582154D01*
X53111292Y-137584285D01*
X52830834Y-137591653D01*
X52830834Y-138286000D01*
X53100709Y-138284442D01*
X53289444Y-138278170D01*
X53442884Y-138261397D01*
X53525964Y-138244727D01*
X53746374Y-138169335D01*
X53952204Y-138057111D01*
X54139099Y-137912304D01*
X54302707Y-137739159D01*
X54438672Y-137541926D01*
X54542642Y-137324852D01*
X54579246Y-137217083D01*
X54586118Y-137191308D01*
X54592140Y-137161402D01*
X54597386Y-137124454D01*
X54601926Y-137077553D01*
X54605833Y-137017785D01*
X54609178Y-136942240D01*
X54612032Y-136848006D01*
X54614469Y-136732170D01*
X54616559Y-136591822D01*
X54618374Y-136424049D01*
X54619986Y-136225940D01*
X54621467Y-135994583D01*
X54622888Y-135727066D01*
X54624321Y-135420478D01*
X54624498Y-135380875D01*
X54632083Y-133671667D01*
X53932722Y-133671667D01*
X53926820Y-135349125D01*
G36*
X53096172Y-133677376D02*
X53007700Y-133708839D01*
X52932193Y-133765675D01*
X52877143Y-133846077D01*
X52850037Y-133948235D01*
X52848473Y-133981817D01*
X52867353Y-134086424D01*
X52918941Y-134173317D01*
X52995654Y-134237780D01*
X53089911Y-134275099D01*
X53194132Y-134280559D01*
X53288113Y-134255245D01*
X53368873Y-134198661D01*
X53426227Y-134115814D01*
X53456302Y-134018000D01*
X53455648Y-133956073D01*
X53378475Y-133956073D01*
X53371553Y-134044878D01*
X53332861Y-134120297D01*
X53266829Y-134174470D01*
X53177889Y-134199536D01*
X53158335Y-134200363D01*
X53090565Y-134192472D01*
X53033390Y-134172433D01*
X53025923Y-134167798D01*
X52960132Y-134100491D01*
X52928308Y-134021585D01*
X52927792Y-133939803D01*
X52955924Y-133863871D01*
X53010046Y-133802513D01*
X53087496Y-133764454D01*
X53151349Y-133756333D01*
X53241973Y-133766552D01*
X53304996Y-133800916D01*
X53349198Y-133861743D01*
X53378475Y-133956073D01*
X53455648Y-133956073D01*
X53455230Y-133916511D01*
X53429947Y-133841422D01*
X53364499Y-133753309D01*
X53282061Y-133697803D01*
X53190123Y-133673094D01*
X53096172Y-133677376D01*
X53096172Y-133677376D01*
G37*
X53096172Y-133677376D02*
X53007700Y-133708839D01*
X52932193Y-133765675D01*
X52877143Y-133846077D01*
X52850037Y-133948235D01*
X52848473Y-133981817D01*
X52867353Y-134086424D01*
X52918941Y-134173317D01*
X52995654Y-134237780D01*
X53089911Y-134275099D01*
X53194132Y-134280559D01*
X53288113Y-134255245D01*
X53368873Y-134198661D01*
X53426227Y-134115814D01*
X53456302Y-134018000D01*
X53455648Y-133956073D01*
X53378475Y-133956073D01*
X53371553Y-134044878D01*
X53332861Y-134120297D01*
X53266829Y-134174470D01*
X53177889Y-134199536D01*
X53158335Y-134200363D01*
X53090565Y-134192472D01*
X53033390Y-134172433D01*
X53025923Y-134167798D01*
X52960132Y-134100491D01*
X52928308Y-134021585D01*
X52927792Y-133939803D01*
X52955924Y-133863871D01*
X53010046Y-133802513D01*
X53087496Y-133764454D01*
X53151349Y-133756333D01*
X53241973Y-133766552D01*
X53304996Y-133800916D01*
X53349198Y-133861743D01*
X53378475Y-133956073D01*
X53455648Y-133956073D01*
X53455230Y-133916511D01*
X53429947Y-133841422D01*
X53364499Y-133753309D01*
X53282061Y-133697803D01*
X53190123Y-133673094D01*
X53096172Y-133677376D01*
G36*
X53123586Y-133829474D02*
X53066543Y-133856318D01*
X53030459Y-133896646D01*
X53022463Y-133942905D01*
X53044471Y-133982670D01*
X53054131Y-134012618D01*
X53032528Y-134059338D01*
X53031453Y-134060987D01*
X53008390Y-134099205D01*
X53010354Y-134113836D01*
X53036489Y-134116167D01*
X53075993Y-134098988D01*
X53106000Y-134063250D01*
X53139357Y-134024359D01*
X53173077Y-134010333D01*
X53204054Y-134024909D01*
X53211834Y-134063250D01*
X53223139Y-134106161D01*
X53244551Y-134116167D01*
X53262013Y-134108955D01*
X53270886Y-134081712D01*
X53272727Y-134026025D01*
X53271009Y-133973292D01*
X53268305Y-133911555D01*
X53211834Y-133911555D01*
X53196801Y-133954065D01*
X53158069Y-133966920D01*
X53108580Y-133948876D01*
X53090617Y-133921133D01*
X53093955Y-133906866D01*
X53122978Y-133888155D01*
X53164840Y-133884144D01*
X53200522Y-133894077D01*
X53211834Y-133911555D01*
X53268305Y-133911555D01*
X53264750Y-133830417D01*
X53194461Y-133823672D01*
X53123586Y-133829474D01*
X53123586Y-133829474D01*
G37*
X53123586Y-133829474D02*
X53066543Y-133856318D01*
X53030459Y-133896646D01*
X53022463Y-133942905D01*
X53044471Y-133982670D01*
X53054131Y-134012618D01*
X53032528Y-134059338D01*
X53031453Y-134060987D01*
X53008390Y-134099205D01*
X53010354Y-134113836D01*
X53036489Y-134116167D01*
X53075993Y-134098988D01*
X53106000Y-134063250D01*
X53139357Y-134024359D01*
X53173077Y-134010333D01*
X53204054Y-134024909D01*
X53211834Y-134063250D01*
X53223139Y-134106161D01*
X53244551Y-134116167D01*
X53262013Y-134108955D01*
X53270886Y-134081712D01*
X53272727Y-134026025D01*
X53271009Y-133973292D01*
X53268305Y-133911555D01*
X53211834Y-133911555D01*
X53196801Y-133954065D01*
X53158069Y-133966920D01*
X53108580Y-133948876D01*
X53090617Y-133921133D01*
X53093955Y-133906866D01*
X53122978Y-133888155D01*
X53164840Y-133884144D01*
X53200522Y-133894077D01*
X53211834Y-133911555D01*
X53268305Y-133911555D01*
X53264750Y-133830417D01*
X53194461Y-133823672D01*
X53123586Y-133829474D01*
D11*
X62762000Y-75365000D02*
G75*
G02X62889000Y-75492000I0J-127000D01*
G01*
X61111000Y-75492000D02*
G75*
G02X61238000Y-75365000I127000J0D01*
G01*
X61238000Y-76635000D02*
G75*
G02X61111000Y-76508000I0J127000D01*
G01*
X62889000Y-76508000D02*
G75*
G02X62762000Y-76635000I-127000J0D01*
G01*
X62889000Y-75492000D02*
X62889000Y-76508000D01*
X61111000Y-76508000D02*
X61111000Y-75492000D01*
X62762000Y-75365000D02*
X61238000Y-75365000D01*
X61238000Y-76635000D02*
X62762000Y-76635000D01*
X67762000Y-75365000D02*
G75*
G02X67889000Y-75492000I0J-127000D01*
G01*
X66111000Y-75492000D02*
G75*
G02X66238000Y-75365000I127000J0D01*
G01*
X66238000Y-76635000D02*
G75*
G02X66111000Y-76508000I0J127000D01*
G01*
X67889000Y-76508000D02*
G75*
G02X67762000Y-76635000I-127000J0D01*
G01*
X67889000Y-75492000D02*
X67889000Y-76508000D01*
X66111000Y-76508000D02*
X66111000Y-75492000D01*
X67762000Y-75365000D02*
X66238000Y-75365000D01*
X66238000Y-76635000D02*
X67762000Y-76635000D01*
X72762000Y-75365000D02*
G75*
G02X72889000Y-75492000I0J-127000D01*
G01*
X71111000Y-75492000D02*
G75*
G02X71238000Y-75365000I127000J0D01*
G01*
X71238000Y-76635000D02*
G75*
G02X71111000Y-76508000I0J127000D01*
G01*
X72889000Y-76508000D02*
G75*
G02X72762000Y-76635000I-127000J0D01*
G01*
X72889000Y-75492000D02*
X72889000Y-76508000D01*
X71111000Y-76508000D02*
X71111000Y-75492000D01*
X72762000Y-75365000D02*
X71238000Y-75365000D01*
X71238000Y-76635000D02*
X72762000Y-76635000D01*
X77762000Y-75365000D02*
G75*
G02X77889000Y-75492000I0J-127000D01*
G01*
X76111000Y-75492000D02*
G75*
G02X76238000Y-75365000I127000J0D01*
G01*
X76238000Y-76635000D02*
G75*
G02X76111000Y-76508000I0J127000D01*
G01*
X77889000Y-76508000D02*
G75*
G02X77762000Y-76635000I-127000J0D01*
G01*
X77889000Y-75492000D02*
X77889000Y-76508000D01*
X76111000Y-76508000D02*
X76111000Y-75492000D01*
X77762000Y-75365000D02*
X76238000Y-75365000D01*
X76238000Y-76635000D02*
X77762000Y-76635000D01*
X82762000Y-75365000D02*
G75*
G02X82889000Y-75492000I0J-127000D01*
G01*
X81111000Y-75492000D02*
G75*
G02X81238000Y-75365000I127000J0D01*
G01*
X81238000Y-76635000D02*
G75*
G02X81111000Y-76508000I0J127000D01*
G01*
X82889000Y-76508000D02*
G75*
G02X82762000Y-76635000I-127000J0D01*
G01*
X82889000Y-75492000D02*
X82889000Y-76508000D01*
X81111000Y-76508000D02*
X81111000Y-75492000D01*
X82762000Y-75365000D02*
X81238000Y-75365000D01*
X81238000Y-76635000D02*
X82762000Y-76635000D01*
X87512000Y-75365000D02*
G75*
G02X87639000Y-75492000I0J-127000D01*
G01*
X85861000Y-75492000D02*
G75*
G02X85988000Y-75365000I127000J0D01*
G01*
X85988000Y-76635000D02*
G75*
G02X85861000Y-76508000I0J127000D01*
G01*
X87639000Y-76508000D02*
G75*
G02X87512000Y-76635000I-127000J0D01*
G01*
X87639000Y-75492000D02*
X87639000Y-76508000D01*
X85861000Y-76508000D02*
X85861000Y-75492000D01*
X87512000Y-75365000D02*
X85988000Y-75365000D01*
X85988000Y-76635000D02*
X87512000Y-76635000D01*
X92762000Y-75365000D02*
G75*
G02X92889000Y-75492000I0J-127000D01*
G01*
X91111000Y-75492000D02*
G75*
G02X91238000Y-75365000I127000J0D01*
G01*
X91238000Y-76635000D02*
G75*
G02X91111000Y-76508000I0J127000D01*
G01*
X92889000Y-76508000D02*
G75*
G02X92762000Y-76635000I-127000J0D01*
G01*
X92889000Y-75492000D02*
X92889000Y-76508000D01*
X91111000Y-76508000D02*
X91111000Y-75492000D01*
X92762000Y-75365000D02*
X91238000Y-75365000D01*
X91238000Y-76635000D02*
X92762000Y-76635000D01*
X64738000Y-58135000D02*
G75*
G02X64611000Y-58008000I0J127000D01*
G01*
X66389000Y-58008000D02*
G75*
G02X66262000Y-58135000I-127000J0D01*
G01*
X66262000Y-56865000D02*
G75*
G02X66389000Y-56992000I0J-127000D01*
G01*
X64611000Y-56992000D02*
G75*
G02X64738000Y-56865000I127000J0D01*
G01*
X64611000Y-58008000D02*
X64611000Y-56992000D01*
X66389000Y-56992000D02*
X66389000Y-58008000D01*
X64738000Y-58135000D02*
X66262000Y-58135000D01*
X66262000Y-56865000D02*
X64738000Y-56865000D01*
X54615000Y-81488000D02*
G75*
G02X54742000Y-81361000I127000J0D01*
G01*
X54742000Y-83139000D02*
G75*
G02X54615000Y-83012000I0J127000D01*
G01*
X55885000Y-83012000D02*
G75*
G02X55758000Y-83139000I-127000J0D01*
G01*
X55758000Y-81361000D02*
G75*
G02X55885000Y-81488000I0J-127000D01*
G01*
X54742000Y-81361000D02*
X55758000Y-81361000D01*
X55758000Y-83139000D02*
X54742000Y-83139000D01*
X54615000Y-81488000D02*
X54615000Y-83012000D01*
X55885000Y-83012000D02*
X55885000Y-81488000D01*
X82865000Y-58488000D02*
G75*
G02X82992000Y-58361000I127000J0D01*
G01*
X82992000Y-60139000D02*
G75*
G02X82865000Y-60012000I0J127000D01*
G01*
X84135000Y-60012000D02*
G75*
G02X84008000Y-60139000I-127000J0D01*
G01*
X84008000Y-58361000D02*
G75*
G02X84135000Y-58488000I0J-127000D01*
G01*
X82992000Y-58361000D02*
X84008000Y-58361000D01*
X84008000Y-60139000D02*
X82992000Y-60139000D01*
X82865000Y-58488000D02*
X82865000Y-60012000D01*
X84135000Y-60012000D02*
X84135000Y-58488000D01*
X88365000Y-58488000D02*
G75*
G02X88492000Y-58361000I127000J0D01*
G01*
X88492000Y-60139000D02*
G75*
G02X88365000Y-60012000I0J127000D01*
G01*
X89635000Y-60012000D02*
G75*
G02X89508000Y-60139000I-127000J0D01*
G01*
X89508000Y-58361000D02*
G75*
G02X89635000Y-58488000I0J-127000D01*
G01*
X88492000Y-58361000D02*
X89508000Y-58361000D01*
X89508000Y-60139000D02*
X88492000Y-60139000D01*
X88365000Y-58488000D02*
X88365000Y-60012000D01*
X89635000Y-60012000D02*
X89635000Y-58488000D01*
D14*
X73170000Y-100590000D02*
X75830000Y-100590000D01*
X73170000Y-105730000D02*
X73170000Y-100590000D01*
X75830000Y-105730000D02*
X75830000Y-100590000D01*
X73170000Y-105730000D02*
X75830000Y-105730000D01*
X73170000Y-107000000D02*
X73170000Y-108330000D01*
X73170000Y-108330000D02*
X74500000Y-108330000D01*
X78000000Y-106320000D02*
X77000000Y-106320000D01*
X77000000Y-107680000D02*
X78000000Y-107680000D01*
X78000000Y-103820000D02*
X77000000Y-103820000D01*
X77000000Y-105180000D02*
X78000000Y-105180000D01*
D11*
X71731571Y-93714286D02*
X71779190Y-93857143D01*
X71826810Y-93904762D01*
X71922048Y-93952381D01*
X72064905Y-93952381D01*
X72160143Y-93904762D01*
X72207762Y-93857143D01*
X72255381Y-93761905D01*
X72255381Y-93380952D01*
X71255381Y-93380952D01*
X71255381Y-93714286D01*
X71303000Y-93809524D01*
X71350619Y-93857143D01*
X71445857Y-93904762D01*
X71541095Y-93904762D01*
X71636333Y-93857143D01*
X71683952Y-93809524D01*
X71731571Y-93714286D01*
X71731571Y-93380952D01*
X71255381Y-94238095D02*
X71255381Y-94809524D01*
X72255381Y-94523809D02*
X71255381Y-94523809D01*
X72255381Y-95666667D02*
X72255381Y-95095238D01*
X72255381Y-95380952D02*
X71255381Y-95380952D01*
X71398238Y-95285714D01*
X71493476Y-95190476D01*
X71541095Y-95095238D01*
X62833333Y-76849381D02*
X62833333Y-77563667D01*
X62880953Y-77706524D01*
X62976191Y-77801762D01*
X63119048Y-77849381D01*
X63214286Y-77849381D01*
X62357143Y-77849381D02*
X62357143Y-76849381D01*
X61976190Y-76849381D01*
X61880952Y-76897000D01*
X61833333Y-76944619D01*
X61785714Y-77039857D01*
X61785714Y-77182714D01*
X61833333Y-77277952D01*
X61880952Y-77325571D01*
X61976190Y-77373190D01*
X62357143Y-77373190D01*
X60833333Y-77849381D02*
X61404762Y-77849381D01*
X61119048Y-77849381D02*
X61119048Y-76849381D01*
X61214286Y-76992238D01*
X61309524Y-77087476D01*
X61404762Y-77135095D01*
X67833333Y-76849381D02*
X67833333Y-77563667D01*
X67880953Y-77706524D01*
X67976191Y-77801762D01*
X68119048Y-77849381D01*
X68214286Y-77849381D01*
X67357143Y-77849381D02*
X67357143Y-76849381D01*
X66976190Y-76849381D01*
X66880952Y-76897000D01*
X66833333Y-76944619D01*
X66785714Y-77039857D01*
X66785714Y-77182714D01*
X66833333Y-77277952D01*
X66880952Y-77325571D01*
X66976190Y-77373190D01*
X67357143Y-77373190D01*
X66404762Y-76944619D02*
X66357143Y-76897000D01*
X66261905Y-76849381D01*
X66023809Y-76849381D01*
X65928571Y-76897000D01*
X65880952Y-76944619D01*
X65833333Y-77039857D01*
X65833333Y-77135095D01*
X65880952Y-77277952D01*
X66452381Y-77849381D01*
X65833333Y-77849381D01*
X72833333Y-76849381D02*
X72833333Y-77563667D01*
X72880953Y-77706524D01*
X72976191Y-77801762D01*
X73119048Y-77849381D01*
X73214286Y-77849381D01*
X72357143Y-77849381D02*
X72357143Y-76849381D01*
X71976190Y-76849381D01*
X71880952Y-76897000D01*
X71833333Y-76944619D01*
X71785714Y-77039857D01*
X71785714Y-77182714D01*
X71833333Y-77277952D01*
X71880952Y-77325571D01*
X71976190Y-77373190D01*
X72357143Y-77373190D01*
X71452381Y-76849381D02*
X70833333Y-76849381D01*
X71166667Y-77230333D01*
X71023809Y-77230333D01*
X70928571Y-77277952D01*
X70880952Y-77325571D01*
X70833333Y-77420810D01*
X70833333Y-77658905D01*
X70880952Y-77754143D01*
X70928571Y-77801762D01*
X71023809Y-77849381D01*
X71309524Y-77849381D01*
X71404762Y-77801762D01*
X71452381Y-77754143D01*
X77833333Y-76849381D02*
X77833333Y-77563667D01*
X77880953Y-77706524D01*
X77976191Y-77801762D01*
X78119048Y-77849381D01*
X78214286Y-77849381D01*
X77357143Y-77849381D02*
X77357143Y-76849381D01*
X76976190Y-76849381D01*
X76880952Y-76897000D01*
X76833333Y-76944619D01*
X76785714Y-77039857D01*
X76785714Y-77182714D01*
X76833333Y-77277952D01*
X76880952Y-77325571D01*
X76976190Y-77373190D01*
X77357143Y-77373190D01*
X75928571Y-77182714D02*
X75928571Y-77849381D01*
X76166667Y-76801762D02*
X76404762Y-77516048D01*
X75785714Y-77516048D01*
X82833333Y-76849381D02*
X82833333Y-77563667D01*
X82880953Y-77706524D01*
X82976191Y-77801762D01*
X83119048Y-77849381D01*
X83214286Y-77849381D01*
X82357143Y-77849381D02*
X82357143Y-76849381D01*
X81976190Y-76849381D01*
X81880952Y-76897000D01*
X81833333Y-76944619D01*
X81785714Y-77039857D01*
X81785714Y-77182714D01*
X81833333Y-77277952D01*
X81880952Y-77325571D01*
X81976190Y-77373190D01*
X82357143Y-77373190D01*
X80880952Y-76849381D02*
X81357143Y-76849381D01*
X81404762Y-77325571D01*
X81357143Y-77277952D01*
X81261905Y-77230333D01*
X81023809Y-77230333D01*
X80928571Y-77277952D01*
X80880952Y-77325571D01*
X80833333Y-77420810D01*
X80833333Y-77658905D01*
X80880952Y-77754143D01*
X80928571Y-77801762D01*
X81023809Y-77849381D01*
X81261905Y-77849381D01*
X81357143Y-77801762D01*
X81404762Y-77754143D01*
X87583333Y-76849381D02*
X87583333Y-77563667D01*
X87630953Y-77706524D01*
X87726191Y-77801762D01*
X87869048Y-77849381D01*
X87964286Y-77849381D01*
X87107143Y-77849381D02*
X87107143Y-76849381D01*
X86726190Y-76849381D01*
X86630952Y-76897000D01*
X86583333Y-76944619D01*
X86535714Y-77039857D01*
X86535714Y-77182714D01*
X86583333Y-77277952D01*
X86630952Y-77325571D01*
X86726190Y-77373190D01*
X87107143Y-77373190D01*
X85678571Y-76849381D02*
X85869048Y-76849381D01*
X85964286Y-76897000D01*
X86011905Y-76944619D01*
X86107143Y-77087476D01*
X86154762Y-77277952D01*
X86154762Y-77658905D01*
X86107143Y-77754143D01*
X86059524Y-77801762D01*
X85964286Y-77849381D01*
X85773809Y-77849381D01*
X85678571Y-77801762D01*
X85630952Y-77754143D01*
X85583333Y-77658905D01*
X85583333Y-77420810D01*
X85630952Y-77325571D01*
X85678571Y-77277952D01*
X85773809Y-77230333D01*
X85964286Y-77230333D01*
X86059524Y-77277952D01*
X86107143Y-77325571D01*
X86154762Y-77420810D01*
X92833333Y-76849381D02*
X92833333Y-77563667D01*
X92880953Y-77706524D01*
X92976191Y-77801762D01*
X93119048Y-77849381D01*
X93214286Y-77849381D01*
X92357143Y-77849381D02*
X92357143Y-76849381D01*
X91976190Y-76849381D01*
X91880952Y-76897000D01*
X91833333Y-76944619D01*
X91785714Y-77039857D01*
X91785714Y-77182714D01*
X91833333Y-77277952D01*
X91880952Y-77325571D01*
X91976190Y-77373190D01*
X92357143Y-77373190D01*
X91452381Y-76849381D02*
X90785714Y-76849381D01*
X91214286Y-77849381D01*
X66333333Y-55555381D02*
X66333333Y-56269667D01*
X66380953Y-56412524D01*
X66476191Y-56507762D01*
X66619048Y-56555381D01*
X66714286Y-56555381D01*
X65857143Y-56555381D02*
X65857143Y-55555381D01*
X65476190Y-55555381D01*
X65380952Y-55603000D01*
X65333333Y-55650619D01*
X65285714Y-55745857D01*
X65285714Y-55888714D01*
X65333333Y-55983952D01*
X65380952Y-56031571D01*
X65476190Y-56079190D01*
X65857143Y-56079190D01*
X64714286Y-55983952D02*
X64809524Y-55936333D01*
X64857143Y-55888714D01*
X64904762Y-55793476D01*
X64904762Y-55745857D01*
X64857143Y-55650619D01*
X64809524Y-55603000D01*
X64714286Y-55555381D01*
X64523809Y-55555381D01*
X64428571Y-55603000D01*
X64380952Y-55650619D01*
X64333333Y-55745857D01*
X64333333Y-55793476D01*
X64380952Y-55888714D01*
X64428571Y-55936333D01*
X64523809Y-55983952D01*
X64714286Y-55983952D01*
X64809524Y-56031571D01*
X64857143Y-56079190D01*
X64904762Y-56174429D01*
X64904762Y-56364905D01*
X64857143Y-56460143D01*
X64809524Y-56507762D01*
X64714286Y-56555381D01*
X64523809Y-56555381D01*
X64428571Y-56507762D01*
X64380952Y-56460143D01*
X64333333Y-56364905D01*
X64333333Y-56174429D01*
X64380952Y-56079190D01*
X64428571Y-56031571D01*
X64523809Y-55983952D01*
X56099381Y-81416667D02*
X56813667Y-81416667D01*
X56956524Y-81369047D01*
X57051762Y-81273809D01*
X57099381Y-81130952D01*
X57099381Y-81035714D01*
X57099381Y-81892857D02*
X56099381Y-81892857D01*
X56099381Y-82273810D01*
X56147000Y-82369048D01*
X56194619Y-82416667D01*
X56289857Y-82464286D01*
X56432714Y-82464286D01*
X56527952Y-82416667D01*
X56575571Y-82369048D01*
X56623190Y-82273810D01*
X56623190Y-81892857D01*
X57099381Y-82940476D02*
X57099381Y-83130952D01*
X57051762Y-83226191D01*
X57004143Y-83273810D01*
X56861286Y-83369048D01*
X56670810Y-83416667D01*
X56289857Y-83416667D01*
X56194619Y-83369048D01*
X56147000Y-83321429D01*
X56099381Y-83226191D01*
X56099381Y-83035714D01*
X56147000Y-82940476D01*
X56194619Y-82892857D01*
X56289857Y-82845238D01*
X56527952Y-82845238D01*
X56623190Y-82892857D01*
X56670810Y-82940476D01*
X56718429Y-83035714D01*
X56718429Y-83226191D01*
X56670810Y-83321429D01*
X56623190Y-83369048D01*
X56527952Y-83416667D01*
X84349381Y-57940477D02*
X85063667Y-57940477D01*
X85206524Y-57892857D01*
X85301762Y-57797619D01*
X85349381Y-57654762D01*
X85349381Y-57559524D01*
X85349381Y-58416667D02*
X84349381Y-58416667D01*
X84349381Y-58797620D01*
X84397000Y-58892858D01*
X84444619Y-58940477D01*
X84539857Y-58988096D01*
X84682714Y-58988096D01*
X84777952Y-58940477D01*
X84825571Y-58892858D01*
X84873190Y-58797620D01*
X84873190Y-58416667D01*
X85349381Y-59940477D02*
X85349381Y-59369048D01*
X85349381Y-59654762D02*
X84349381Y-59654762D01*
X84492238Y-59559524D01*
X84587476Y-59464286D01*
X84635095Y-59369048D01*
X84349381Y-60559524D02*
X84349381Y-60654763D01*
X84397000Y-60750001D01*
X84444619Y-60797620D01*
X84539857Y-60845239D01*
X84730333Y-60892858D01*
X84968429Y-60892858D01*
X85158905Y-60845239D01*
X85254143Y-60797620D01*
X85301762Y-60750001D01*
X85349381Y-60654763D01*
X85349381Y-60559524D01*
X85301762Y-60464286D01*
X85254143Y-60416667D01*
X85158905Y-60369048D01*
X84968429Y-60321429D01*
X84730333Y-60321429D01*
X84539857Y-60369048D01*
X84444619Y-60416667D01*
X84397000Y-60464286D01*
X84349381Y-60559524D01*
X89849381Y-57940477D02*
X90563667Y-57940477D01*
X90706524Y-57892857D01*
X90801762Y-57797619D01*
X90849381Y-57654762D01*
X90849381Y-57559524D01*
X90849381Y-58416667D02*
X89849381Y-58416667D01*
X89849381Y-58797620D01*
X89897000Y-58892858D01*
X89944619Y-58940477D01*
X90039857Y-58988096D01*
X90182714Y-58988096D01*
X90277952Y-58940477D01*
X90325571Y-58892858D01*
X90373190Y-58797620D01*
X90373190Y-58416667D01*
X90849381Y-59940477D02*
X90849381Y-59369048D01*
X90849381Y-59654762D02*
X89849381Y-59654762D01*
X89992238Y-59559524D01*
X90087476Y-59464286D01*
X90135095Y-59369048D01*
X90849381Y-60892858D02*
X90849381Y-60321429D01*
X90849381Y-60607143D02*
X89849381Y-60607143D01*
X89992238Y-60511905D01*
X90087476Y-60416667D01*
X90135095Y-60321429D01*
X74833333Y-108782381D02*
X74833333Y-109496667D01*
X74880953Y-109639524D01*
X74976191Y-109734762D01*
X75119048Y-109782381D01*
X75214286Y-109782381D01*
X73833333Y-109782381D02*
X74404762Y-109782381D01*
X74119048Y-109782381D02*
X74119048Y-108782381D01*
X74214286Y-108925238D01*
X74309524Y-109020476D01*
X74404762Y-109068095D01*
X80892857Y-107452381D02*
X81226191Y-106976190D01*
X81464286Y-107452381D02*
X81464286Y-106452381D01*
X81083333Y-106452381D01*
X80988095Y-106500000D01*
X80940476Y-106547619D01*
X80892857Y-106642857D01*
X80892857Y-106785714D01*
X80940476Y-106880952D01*
X80988095Y-106928571D01*
X81083333Y-106976190D01*
X81464286Y-106976190D01*
X79940476Y-107452381D02*
X80511905Y-107452381D01*
X80226191Y-107452381D02*
X80226191Y-106452381D01*
X80321429Y-106595238D01*
X80416667Y-106690476D01*
X80511905Y-106738095D01*
X79369048Y-106880952D02*
X79464286Y-106833333D01*
X79511905Y-106785714D01*
X79559524Y-106690476D01*
X79559524Y-106642857D01*
X79511905Y-106547619D01*
X79464286Y-106500000D01*
X79369048Y-106452381D01*
X79178571Y-106452381D01*
X79083333Y-106500000D01*
X79035714Y-106547619D01*
X78988095Y-106642857D01*
X78988095Y-106690476D01*
X79035714Y-106785714D01*
X79083333Y-106833333D01*
X79178571Y-106880952D01*
X79369048Y-106880952D01*
X79464286Y-106928571D01*
X79511905Y-106976190D01*
X79559524Y-107071429D01*
X79559524Y-107261905D01*
X79511905Y-107357143D01*
X79464286Y-107404762D01*
X79369048Y-107452381D01*
X79178571Y-107452381D01*
X79083333Y-107404762D01*
X79035714Y-107357143D01*
X78988095Y-107261905D01*
X78988095Y-107071429D01*
X79035714Y-106976190D01*
X79083333Y-106928571D01*
X79178571Y-106880952D01*
X80892857Y-104952381D02*
X81226191Y-104476190D01*
X81464286Y-104952381D02*
X81464286Y-103952381D01*
X81083333Y-103952381D01*
X80988095Y-104000000D01*
X80940476Y-104047619D01*
X80892857Y-104142857D01*
X80892857Y-104285714D01*
X80940476Y-104380952D01*
X80988095Y-104428571D01*
X81083333Y-104476190D01*
X81464286Y-104476190D01*
X79940476Y-104952381D02*
X80511905Y-104952381D01*
X80226191Y-104952381D02*
X80226191Y-103952381D01*
X80321429Y-104095238D01*
X80416667Y-104190476D01*
X80511905Y-104238095D01*
X79464286Y-104952381D02*
X79273810Y-104952381D01*
X79178571Y-104904762D01*
X79130952Y-104857143D01*
X79035714Y-104714286D01*
X78988095Y-104523810D01*
X78988095Y-104142857D01*
X79035714Y-104047619D01*
X79083333Y-104000000D01*
X79178571Y-103952381D01*
X79369048Y-103952381D01*
X79464286Y-104000000D01*
X79511905Y-104047619D01*
X79559524Y-104142857D01*
X79559524Y-104380952D01*
X79511905Y-104476190D01*
X79464286Y-104523810D01*
X79369048Y-104571429D01*
X79178571Y-104571429D01*
X79083333Y-104523810D01*
X79035714Y-104476190D01*
X78988095Y-104380952D01*
%LPC*%
X62127000Y-75492000D02*
X61873000Y-75492000D01*
X61873000Y-76508000D02*
X62127000Y-76508000D01*
X61873000Y-75492000D02*
X61873000Y-76508000D01*
X62000000Y-76508000D02*
X62000000Y-75492000D01*
X62127000Y-75492000D02*
X62127000Y-76508000D01*
X67127000Y-75492000D02*
X66873000Y-75492000D01*
X66873000Y-76508000D02*
X67127000Y-76508000D01*
X66873000Y-75492000D02*
X66873000Y-76508000D01*
X67000000Y-76508000D02*
X67000000Y-75492000D01*
X67127000Y-75492000D02*
X67127000Y-76508000D01*
X72127000Y-75492000D02*
X71873000Y-75492000D01*
X71873000Y-76508000D02*
X72127000Y-76508000D01*
X71873000Y-75492000D02*
X71873000Y-76508000D01*
X72000000Y-76508000D02*
X72000000Y-75492000D01*
X72127000Y-75492000D02*
X72127000Y-76508000D01*
X77127000Y-75492000D02*
X76873000Y-75492000D01*
X76873000Y-76508000D02*
X77127000Y-76508000D01*
X76873000Y-75492000D02*
X76873000Y-76508000D01*
X77000000Y-76508000D02*
X77000000Y-75492000D01*
X77127000Y-75492000D02*
X77127000Y-76508000D01*
X82127000Y-75492000D02*
X81873000Y-75492000D01*
X81873000Y-76508000D02*
X82127000Y-76508000D01*
X81873000Y-75492000D02*
X81873000Y-76508000D01*
X82000000Y-76508000D02*
X82000000Y-75492000D01*
X82127000Y-75492000D02*
X82127000Y-76508000D01*
X86877000Y-75492000D02*
X86623000Y-75492000D01*
X86623000Y-76508000D02*
X86877000Y-76508000D01*
X86623000Y-75492000D02*
X86623000Y-76508000D01*
X86750000Y-76508000D02*
X86750000Y-75492000D01*
X86877000Y-75492000D02*
X86877000Y-76508000D01*
X92127000Y-75492000D02*
X91873000Y-75492000D01*
X91873000Y-76508000D02*
X92127000Y-76508000D01*
X91873000Y-75492000D02*
X91873000Y-76508000D01*
X92000000Y-76508000D02*
X92000000Y-75492000D01*
X92127000Y-75492000D02*
X92127000Y-76508000D01*
X65373000Y-58008000D02*
X65627000Y-58008000D01*
X65627000Y-56992000D02*
X65373000Y-56992000D01*
X65627000Y-58008000D02*
X65627000Y-56992000D01*
X65500000Y-56992000D02*
X65500000Y-58008000D01*
X65373000Y-58008000D02*
X65373000Y-56992000D01*
X54742000Y-82123000D02*
X54742000Y-82377000D01*
X55758000Y-82377000D02*
X55758000Y-82123000D01*
X54742000Y-82377000D02*
X55758000Y-82377000D01*
X55758000Y-82250000D02*
X54742000Y-82250000D01*
X54742000Y-82123000D02*
X55758000Y-82123000D01*
X82992000Y-59123000D02*
X82992000Y-59377000D01*
X84008000Y-59377000D02*
X84008000Y-59123000D01*
X82992000Y-59377000D02*
X84008000Y-59377000D01*
X84008000Y-59250000D02*
X82992000Y-59250000D01*
X82992000Y-59123000D02*
X84008000Y-59123000D01*
X88492000Y-59123000D02*
X88492000Y-59377000D01*
X89508000Y-59377000D02*
X89508000Y-59123000D01*
X88492000Y-59377000D02*
X89508000Y-59377000D01*
X89508000Y-59250000D02*
X88492000Y-59250000D01*
X88492000Y-59123000D02*
X89508000Y-59123000D01*
D15*
X61144000Y-127500000D03*
D16*
X63684000Y-127500000D03*
X66224000Y-127500000D03*
X68764000Y-127500000D03*
X71304000Y-127500000D03*
X73844000Y-127500000D03*
X76384000Y-127500000D03*
X78924000Y-127500000D03*
D15*
X84004000Y-127500000D03*
D16*
X86544000Y-127500000D03*
X89084000Y-127500000D03*
X91624000Y-127500000D03*
X94164000Y-127500000D03*
X96704000Y-127500000D03*
D15*
X52000000Y-79240000D03*
D16*
X54540000Y-79240000D03*
X57080000Y-79240000D03*
X59620000Y-79240000D03*
X62160000Y-79240000D03*
X64700000Y-79240000D03*
X67240000Y-79240000D03*
X69780000Y-79240000D03*
X72320000Y-79240000D03*
X74860000Y-79240000D03*
D15*
X78924000Y-79240000D03*
D16*
X81464000Y-79240000D03*
X84004000Y-79240000D03*
X86544000Y-79240000D03*
X89084000Y-79240000D03*
X91624000Y-79240000D03*
X94164000Y-79240000D03*
X96704000Y-79240000D03*
D17*
X94304513Y-104730013D03*
D18*
X96844513Y-104730013D03*
X94304513Y-102190013D03*
X96844513Y-102190013D03*
X94304513Y-99650013D03*
X96844513Y-99650013D03*
D19*
X61049840Y-57500000D03*
X53450160Y-57500000D03*
D20*
X52500000Y-102950000D03*
X52500000Y-100050000D03*
D21*
X60500000Y-82500000D03*
D22*
X60500000Y-94500000D03*
D21*
X60500000Y-106500000D03*
D23*
X74500000Y-55000000D03*
D20*
X77500000Y-55000000D03*
X76621320Y-57121320D03*
X74500000Y-58000000D03*
X72378680Y-57121320D03*
X71500000Y-55000000D03*
X72378680Y-52878680D03*
X74500000Y-52000000D03*
X76621320Y-52878680D03*
D24*
X88960000Y-62350000D03*
X91500000Y-62350000D03*
X94040000Y-62350000D03*
D25*
X53585000Y-86519000D03*
X53585000Y-90519000D03*
D26*
X62400000Y-76000000D03*
X61600000Y-76000000D03*
X67400000Y-76000000D03*
X66600000Y-76000000D03*
X72400000Y-76000000D03*
X71600000Y-76000000D03*
X77400000Y-76000000D03*
X76600000Y-76000000D03*
X82400000Y-76000000D03*
X81600000Y-76000000D03*
X87150000Y-76000000D03*
X86350000Y-76000000D03*
X92400000Y-76000000D03*
X91600000Y-76000000D03*
X65100000Y-57500000D03*
X65900000Y-57500000D03*
D27*
X55250000Y-81850000D03*
X55250000Y-82650000D03*
X83500000Y-58850000D03*
X83500000Y-59650000D03*
X89000000Y-58850000D03*
X89000000Y-59650000D03*
D28*
X96774000Y-89154000D03*
D29*
X96774000Y-91694000D03*
X96774000Y-94234000D03*
X96774000Y-96774000D03*
D30*
X74500000Y-107000000D03*
D31*
X74500000Y-104460000D03*
X74500000Y-101920000D03*
D30*
X52500000Y-110000000D03*
D31*
X55040000Y-110000000D03*
X52500000Y-112540000D03*
X55040000Y-112540000D03*
D30*
X94000000Y-110000000D03*
D31*
X96540000Y-110000000D03*
X94000000Y-112540000D03*
X96540000Y-112540000D03*
D32*
X76750000Y-107000000D03*
X78250000Y-107000000D03*
X76750000Y-104500000D03*
X78250000Y-104500000D03*
M02*
