M48
INCH,TZ
T1C0.016
T2C0.020
T3C0.022
T4C0.024
T5C0.028
T6C0.030
T7C0.039
T8C0.040
T9C0.157
%
G90
G05
T1
X22047Y-30512
X22638Y-34744
X23031Y-31890
X23236Y-36912
X23486Y-39762
X23720Y-31890
X23886Y-40212
X24016Y-37402
X24016Y-43898
X24114Y-40453
X24213Y-35728
X24311Y-37697
X24409Y-43898
X24409Y-44291
X24606Y-43406
X24705Y-28740
X24705Y-29626
X24705Y-30512
X24705Y-31398
X24836Y-40512
X24902Y-43602
X25000Y-32579
X25197Y-31496
X25197Y-43406
X25295Y-39272
X25336Y-37162
X25492Y-43602
X25686Y-39762
X25689Y-25886
X25787Y-24311
X25984Y-39961
X26043Y-38327
X26086Y-39512
X26181Y-43406
X26378Y-39665
X26575Y-43406
X26586Y-40612
X26673Y-27854
X26673Y-28740
X26673Y-29626
X26673Y-30512
X26673Y-31004
X26870Y-38681
X26969Y-34744
X26969Y-37992
X27165Y-41634
X27264Y-32677
X27336Y-39412
X27362Y-26378
X27461Y-38386
X27953Y-41142
X28642Y-27854
X28642Y-28740
X28642Y-29232
X28642Y-29626
X28642Y-30512
X28642Y-31398
X28937Y-31890
X28937Y-32579
X28937Y-38780
X29035Y-40846
X29232Y-39370
X29528Y-39665
X29626Y-31890
X29823Y-39961
X29921Y-37992
X30217Y-36909
X30610Y-27854
X30610Y-28740
X30610Y-29626
X30610Y-30512
X30610Y-31398
X30906Y-32579
X31201Y-31398
X32579Y-27854
X32579Y-28740
X32579Y-29626
X32579Y-30512
X32579Y-31398
X32874Y-32579
X33169Y-30512
X33563Y-25000
X34449Y-51378
X34547Y-27854
X34547Y-28740
X34547Y-29626
X34547Y-30512
X34547Y-31398
X34843Y-32579
X35138Y-28740
X36516Y-27854
X36516Y-28740
X36516Y-29626
X36516Y-30512
X36516Y-31398
X36614Y-47638
X36614Y-51673
X36811Y-31988
X37008Y-47638
X37894Y-34843
X38091Y-43504
X38484Y-27854
X38484Y-28740
X38484Y-29626
X38484Y-30512
X38484Y-31398
X42126Y-30512
X42717Y-34744
X43110Y-31890
X43315Y-36912
X43565Y-39762
X43799Y-31890
X43965Y-40212
X44094Y-37402
X44094Y-43898
X44193Y-40453
X44291Y-35728
X44390Y-37697
X44488Y-43898
X44488Y-44291
X44685Y-43406
X44783Y-28740
X44783Y-29626
X44783Y-30512
X44783Y-31398
X44915Y-40512
X44980Y-43602
X45079Y-32579
X45276Y-31496
X45276Y-43406
X45374Y-39272
X45415Y-37162
X45571Y-43602
X45765Y-39762
X45768Y-25886
X45866Y-24311
X46063Y-39961
X46122Y-38327
X46165Y-39512
X46260Y-43406
X46457Y-39665
X46654Y-43406
X46665Y-40612
X46752Y-27854
X46752Y-28740
X46752Y-29626
X46752Y-30512
X46752Y-31004
X46949Y-38681
X47047Y-34744
X47047Y-37992
X47244Y-41634
X47343Y-32677
X47415Y-39412
X47441Y-26378
X47539Y-38386
X48031Y-41142
X48720Y-27854
X48720Y-28740
X48720Y-29232
X48720Y-29626
X48720Y-30512
X48720Y-31398
X49016Y-31890
X49016Y-32579
X49016Y-38780
X49114Y-40846
X49311Y-39370
X49606Y-39665
X49705Y-31890
X49902Y-39961
X50000Y-37992
X50295Y-36909
X50689Y-27854
X50689Y-28740
X50689Y-29626
X50689Y-30512
X50689Y-31398
X50984Y-32579
X51280Y-31398
X52657Y-27854
X52657Y-28740
X52657Y-29626
X52657Y-30512
X52657Y-31398
X52953Y-32579
X53248Y-30512
X53642Y-25000
X54528Y-51378
X54626Y-27854
X54626Y-28740
X54626Y-29626
X54626Y-30512
X54626Y-31398
X54921Y-32579
X55217Y-28740
X56594Y-27854
X56594Y-28740
X56594Y-29626
X56594Y-30512
X56594Y-31398
X56693Y-47638
X56693Y-51673
X56890Y-31988
X57087Y-47638
X57972Y-34843
X58169Y-43504
X58563Y-27854
X58563Y-28740
X58563Y-29626
X58563Y-30512
X58563Y-31398
T2
X40650Y-25295
X40650Y-25591
X40650Y-25886
X40650Y-33169
X40650Y-33465
X40650Y-33760
X40650Y-44193
X40650Y-44488
X40650Y-44783
X40650Y-57579
X40650Y-57874
X40650Y-58169
X41240Y-25295
X41240Y-25591
X41240Y-25886
X41240Y-33169
X41240Y-33465
X41240Y-33760
X41240Y-44193
X41240Y-44488
X41240Y-44783
X41240Y-57579
X41240Y-57874
X41240Y-58169
T3
X39140Y-36425
X39140Y-38000
X59219Y-36425
X59219Y-38000
T4
X21850Y-46161
X22196Y-45326
X22196Y-46997
X23031Y-44980
X23031Y-47343
X23867Y-45326
X23867Y-46997
X24213Y-46161
X29724Y-24016
X30070Y-23181
X30070Y-24851
X30906Y-22835
X30906Y-25197
X31741Y-23181
X31741Y-24851
X32087Y-24016
X37598Y-46161
X37944Y-45326
X37944Y-46997
X38780Y-44980
X38780Y-47343
X39615Y-45326
X39615Y-46997
X39961Y-46161
X41929Y-46161
X42275Y-45326
X42275Y-46997
X43110Y-44980
X43110Y-47343
X43945Y-45326
X43945Y-46997
X44291Y-46161
X49803Y-24016
X50149Y-23181
X50149Y-24851
X50984Y-22835
X50984Y-25197
X51819Y-23181
X51819Y-24851
X52165Y-24016
X57677Y-46161
X58023Y-45326
X58023Y-46997
X58858Y-44980
X58858Y-47343
X59693Y-45326
X59693Y-46997
X60039Y-46161
T5
X39567Y-41752
X39567Y-42894
X59646Y-41752
X59646Y-42894
T6
X23213Y-26909
X24213Y-26909
X25213Y-26909
X43291Y-26909
X44291Y-26909
X45291Y-26909
T7
X36197Y-24803
X39197Y-24803
X56276Y-24803
X59276Y-24803
T8
X22108Y-41594
X22108Y-42594
X22108Y-43594
X22136Y-37462
X22136Y-38462
X22136Y-39462
X22136Y-40462
X22164Y-33559
X22164Y-52559
X23108Y-41594
X23108Y-42594
X23108Y-43594
X23164Y-33559
X23164Y-52559
X24164Y-33559
X24164Y-52559
X25164Y-33559
X25164Y-52559
X26164Y-33559
X26164Y-52559
X27164Y-33559
X27164Y-52559
X28164Y-33559
X29164Y-33559
X29164Y-52559
X30164Y-52559
X30764Y-33559
X31164Y-52559
X31764Y-33559
X32164Y-52559
X32764Y-33559
X33164Y-52559
X33764Y-33559
X34164Y-52559
X34764Y-33559
X35164Y-52559
X35764Y-33559
X36164Y-52559
X36764Y-33559
X37764Y-33559
X38764Y-33559
X39764Y-33559
X42187Y-41594
X42187Y-42594
X42187Y-43594
X42215Y-37462
X42215Y-38462
X42215Y-39462
X42215Y-40462
X42243Y-33559
X42243Y-52559
X43187Y-41594
X43187Y-42594
X43187Y-43594
X43243Y-33559
X43243Y-52559
X44243Y-33559
X44243Y-52559
X45243Y-33559
X45243Y-52559
X46243Y-33559
X46243Y-52559
X47243Y-33559
X47243Y-52559
X48243Y-33559
X49243Y-33559
X49243Y-52559
X50243Y-52559
X50843Y-33559
X51243Y-52559
X51843Y-33559
X52243Y-52559
X52843Y-33559
X53243Y-52559
X53843Y-33559
X54243Y-52559
X54843Y-33559
X55243Y-52559
X55843Y-33559
X56243Y-52559
X56843Y-33559
X57843Y-33559
X58843Y-33559
X59843Y-33559
T9
X23031Y-46161
X30906Y-24016
X38780Y-46161
X43110Y-46161
X50984Y-24016
X58858Y-46161
T0
M30
