G04 #@! TF.FileFunction,Soldermask,Top*
%FSLAX46Y46*%
G04 Gerber Fmt 4.6, Leading zero omitted, Abs format (unit mm)*
G04 Created by KiCad (PCBNEW 4.0.0-rc1-stable) date 9/27/2016 10:32:03 AM*
%MOMM*%
G01*
G04 APERTURE LIST*
%ADD10C,0.100000*%
%ADD11C,0.150000*%
%ADD12R,2.332000X2.027200*%
%ADD13O,2.332000X2.027200*%
%ADD14R,1.100000X0.900000*%
%ADD15R,0.900000X1.100000*%
%ADD16C,0.850000*%
%ADD17C,1.824000*%
%ADD18C,8.300000*%
%ADD19C,1.000000*%
%ADD20R,6.300000X3.800000*%
%ADD21C,20.000000*%
%ADD22R,2.027200X2.027200*%
%ADD23O,2.027200X2.027200*%
%ADD24R,2.027200X2.332000*%
%ADD25O,2.027200X2.332000*%
%ADD26C,0.800000*%
%ADD27C,2.300000*%
G04 APERTURE END LIST*
D10*
D11*
X115508000Y-65123000D02*
X115508000Y-65377000D01*
X114492000Y-65377000D02*
X114492000Y-65123000D01*
X115508000Y-65377000D02*
X114492000Y-65377000D01*
X114492000Y-65250000D02*
X115508000Y-65250000D01*
X115508000Y-65123000D02*
X114492000Y-65123000D01*
X121008000Y-65123000D02*
X121008000Y-65377000D01*
X119992000Y-65377000D02*
X119992000Y-65123000D01*
X121008000Y-65377000D02*
X119992000Y-65377000D01*
X119992000Y-65250000D02*
X121008000Y-65250000D01*
X121008000Y-65123000D02*
X119992000Y-65123000D01*
X149258000Y-88123000D02*
X149258000Y-88377000D01*
X148242000Y-88377000D02*
X148242000Y-88123000D01*
X149258000Y-88377000D02*
X148242000Y-88377000D01*
X148242000Y-88250000D02*
X149258000Y-88250000D01*
X149258000Y-88123000D02*
X148242000Y-88123000D01*
X138627000Y-64008000D02*
X138373000Y-64008000D01*
X138373000Y-62992000D02*
X138627000Y-62992000D01*
X138373000Y-64008000D02*
X138373000Y-62992000D01*
X138500000Y-62992000D02*
X138500000Y-64008000D01*
X138627000Y-64008000D02*
X138627000Y-62992000D01*
X111873000Y-81492000D02*
X112127000Y-81492000D01*
X112127000Y-82508000D02*
X111873000Y-82508000D01*
X112127000Y-81492000D02*
X112127000Y-82508000D01*
X112000000Y-82508000D02*
X112000000Y-81492000D01*
X111873000Y-81492000D02*
X111873000Y-82508000D01*
X117123000Y-81492000D02*
X117377000Y-81492000D01*
X117377000Y-82508000D02*
X117123000Y-82508000D01*
X117377000Y-81492000D02*
X117377000Y-82508000D01*
X117250000Y-82508000D02*
X117250000Y-81492000D01*
X117123000Y-81492000D02*
X117123000Y-82508000D01*
X121873000Y-81492000D02*
X122127000Y-81492000D01*
X122127000Y-82508000D02*
X121873000Y-82508000D01*
X122127000Y-81492000D02*
X122127000Y-82508000D01*
X122000000Y-82508000D02*
X122000000Y-81492000D01*
X121873000Y-81492000D02*
X121873000Y-82508000D01*
X126873000Y-81492000D02*
X127127000Y-81492000D01*
X127127000Y-82508000D02*
X126873000Y-82508000D01*
X127127000Y-81492000D02*
X127127000Y-82508000D01*
X127000000Y-82508000D02*
X127000000Y-81492000D01*
X126873000Y-81492000D02*
X126873000Y-82508000D01*
X131873000Y-81492000D02*
X132127000Y-81492000D01*
X132127000Y-82508000D02*
X131873000Y-82508000D01*
X132127000Y-81492000D02*
X132127000Y-82508000D01*
X132000000Y-82508000D02*
X132000000Y-81492000D01*
X131873000Y-81492000D02*
X131873000Y-82508000D01*
X136873000Y-81492000D02*
X137127000Y-81492000D01*
X137127000Y-82508000D02*
X136873000Y-82508000D01*
X137127000Y-81492000D02*
X137127000Y-82508000D01*
X137000000Y-82508000D02*
X137000000Y-81492000D01*
X136873000Y-81492000D02*
X136873000Y-82508000D01*
X141873000Y-81492000D02*
X142127000Y-81492000D01*
X142127000Y-82508000D02*
X141873000Y-82508000D01*
X142127000Y-81492000D02*
X142127000Y-82508000D01*
X142000000Y-82508000D02*
X142000000Y-81492000D01*
X141873000Y-81492000D02*
X141873000Y-82508000D01*
X90873000Y-81492000D02*
X91127000Y-81492000D01*
X91127000Y-82508000D02*
X90873000Y-82508000D01*
X91127000Y-81492000D02*
X91127000Y-82508000D01*
X91000000Y-82508000D02*
X91000000Y-81492000D01*
X90873000Y-81492000D02*
X90873000Y-82508000D01*
X85873000Y-81492000D02*
X86127000Y-81492000D01*
X86127000Y-82508000D02*
X85873000Y-82508000D01*
X86127000Y-81492000D02*
X86127000Y-82508000D01*
X86000000Y-82508000D02*
X86000000Y-81492000D01*
X85873000Y-81492000D02*
X85873000Y-82508000D01*
X80873000Y-81492000D02*
X81127000Y-81492000D01*
X81127000Y-82508000D02*
X80873000Y-82508000D01*
X81127000Y-81492000D02*
X81127000Y-82508000D01*
X81000000Y-82508000D02*
X81000000Y-81492000D01*
X80873000Y-81492000D02*
X80873000Y-82508000D01*
X75873000Y-81492000D02*
X76127000Y-81492000D01*
X76127000Y-82508000D02*
X75873000Y-82508000D01*
X76127000Y-81492000D02*
X76127000Y-82508000D01*
X76000000Y-82508000D02*
X76000000Y-81492000D01*
X75873000Y-81492000D02*
X75873000Y-82508000D01*
X70873000Y-81492000D02*
X71127000Y-81492000D01*
X71127000Y-82508000D02*
X70873000Y-82508000D01*
X71127000Y-81492000D02*
X71127000Y-82508000D01*
X71000000Y-82508000D02*
X71000000Y-81492000D01*
X70873000Y-81492000D02*
X70873000Y-82508000D01*
X66123000Y-81492000D02*
X66377000Y-81492000D01*
X66377000Y-82508000D02*
X66123000Y-82508000D01*
X66377000Y-81492000D02*
X66377000Y-82508000D01*
X66250000Y-82508000D02*
X66250000Y-81492000D01*
X66123000Y-81492000D02*
X66123000Y-82508000D01*
X60873000Y-81492000D02*
X61127000Y-81492000D01*
X61127000Y-82508000D02*
X60873000Y-82508000D01*
X61127000Y-81492000D02*
X61127000Y-82508000D01*
X61000000Y-82508000D02*
X61000000Y-81492000D01*
X60873000Y-81492000D02*
X60873000Y-82508000D01*
X87627000Y-64008000D02*
X87373000Y-64008000D01*
X87373000Y-62992000D02*
X87627000Y-62992000D01*
X87373000Y-64008000D02*
X87373000Y-62992000D01*
X87500000Y-62992000D02*
X87500000Y-64008000D01*
X87627000Y-64008000D02*
X87627000Y-62992000D01*
X98258000Y-88123000D02*
X98258000Y-88377000D01*
X97242000Y-88377000D02*
X97242000Y-88123000D01*
X98258000Y-88377000D02*
X97242000Y-88377000D01*
X97242000Y-88250000D02*
X98258000Y-88250000D01*
X98258000Y-88123000D02*
X97242000Y-88123000D01*
X70008000Y-65123000D02*
X70008000Y-65377000D01*
X68992000Y-65377000D02*
X68992000Y-65123000D01*
X70008000Y-65377000D02*
X68992000Y-65377000D01*
X68992000Y-65250000D02*
X70008000Y-65250000D01*
X70008000Y-65123000D02*
X68992000Y-65123000D01*
X64508000Y-65123000D02*
X64508000Y-65377000D01*
X63492000Y-65377000D02*
X63492000Y-65123000D01*
X64508000Y-65377000D02*
X63492000Y-65377000D01*
X63492000Y-65250000D02*
X64508000Y-65250000D01*
X64508000Y-65123000D02*
X63492000Y-65123000D01*
D12*
X107226000Y-95154000D03*
D13*
X107226000Y-97694000D03*
X107226000Y-100234000D03*
X107226000Y-102774000D03*
D14*
X115000000Y-64850000D03*
X115000000Y-65650000D03*
X120500000Y-64850000D03*
X120500000Y-65650000D03*
X148750000Y-87850000D03*
X148750000Y-88650000D03*
D15*
X138900000Y-63500000D03*
X138100000Y-63500000D03*
X111600000Y-82000000D03*
X112400000Y-82000000D03*
X116850000Y-82000000D03*
X117650000Y-82000000D03*
X121600000Y-82000000D03*
X122400000Y-82000000D03*
X126600000Y-82000000D03*
X127400000Y-82000000D03*
X131600000Y-82000000D03*
X132400000Y-82000000D03*
X136600000Y-82000000D03*
X137400000Y-82000000D03*
X141600000Y-82000000D03*
X142400000Y-82000000D03*
D16*
X150415000Y-92519000D03*
X150415000Y-96519000D03*
D17*
X115040000Y-68350000D03*
X112500000Y-68350000D03*
X109960000Y-68350000D03*
D18*
X129500000Y-61000000D03*
D19*
X126500000Y-61000000D03*
X127378680Y-63121320D03*
X129500000Y-64000000D03*
X131621320Y-63121320D03*
X132500000Y-61000000D03*
X131621320Y-58878680D03*
X129500000Y-58000000D03*
X127378680Y-58878680D03*
D18*
X149500000Y-117250000D03*
D19*
X146500000Y-117250000D03*
X147378680Y-119371320D03*
X149500000Y-120250000D03*
X151621320Y-119371320D03*
X152500000Y-117250000D03*
X151621320Y-115128680D03*
X149500000Y-114250000D03*
X147378680Y-115128680D03*
D18*
X109500000Y-117250000D03*
D19*
X106500000Y-117250000D03*
X107378680Y-119371320D03*
X109500000Y-120250000D03*
X111621320Y-119371320D03*
X112500000Y-117250000D03*
X111621320Y-115128680D03*
X109500000Y-114250000D03*
X107378680Y-115128680D03*
D20*
X143500000Y-88500000D03*
D21*
X143500000Y-100500000D03*
D20*
X143500000Y-112500000D03*
D19*
X151500000Y-108950000D03*
X151500000Y-106050000D03*
D22*
X109695487Y-110730013D03*
D23*
X107155487Y-110730013D03*
X109695487Y-108190013D03*
X107155487Y-108190013D03*
X109695487Y-105650013D03*
X107155487Y-105650013D03*
D24*
X125076000Y-85240000D03*
D25*
X122536000Y-85240000D03*
X119996000Y-85240000D03*
X117456000Y-85240000D03*
X114916000Y-85240000D03*
X112376000Y-85240000D03*
X109836000Y-85240000D03*
X107296000Y-85240000D03*
D24*
X152000000Y-85240000D03*
D25*
X149460000Y-85240000D03*
X146920000Y-85240000D03*
X144380000Y-85240000D03*
X141840000Y-85240000D03*
X139300000Y-85240000D03*
X136760000Y-85240000D03*
X134220000Y-85240000D03*
X131680000Y-85240000D03*
X129140000Y-85240000D03*
D24*
X119996000Y-133500000D03*
D25*
X117456000Y-133500000D03*
X114916000Y-133500000D03*
X112376000Y-133500000D03*
X109836000Y-133500000D03*
X107296000Y-133500000D03*
D24*
X142856000Y-133500000D03*
D25*
X140316000Y-133500000D03*
X137776000Y-133500000D03*
X135236000Y-133500000D03*
X132696000Y-133500000D03*
X130156000Y-133500000D03*
X127616000Y-133500000D03*
X125076000Y-133500000D03*
D24*
X91856000Y-133500000D03*
D25*
X89316000Y-133500000D03*
X86776000Y-133500000D03*
X84236000Y-133500000D03*
X81696000Y-133500000D03*
X79156000Y-133500000D03*
X76616000Y-133500000D03*
X74076000Y-133500000D03*
D24*
X68996000Y-133500000D03*
D25*
X66456000Y-133500000D03*
X63916000Y-133500000D03*
X61376000Y-133500000D03*
X58836000Y-133500000D03*
X56296000Y-133500000D03*
D24*
X101000000Y-85240000D03*
D25*
X98460000Y-85240000D03*
X95920000Y-85240000D03*
X93380000Y-85240000D03*
X90840000Y-85240000D03*
X88300000Y-85240000D03*
X85760000Y-85240000D03*
X83220000Y-85240000D03*
X80680000Y-85240000D03*
X78140000Y-85240000D03*
D24*
X74076000Y-85240000D03*
D25*
X71536000Y-85240000D03*
X68996000Y-85240000D03*
X66456000Y-85240000D03*
X63916000Y-85240000D03*
X61376000Y-85240000D03*
X58836000Y-85240000D03*
X56296000Y-85240000D03*
D22*
X58695487Y-110730013D03*
D23*
X56155487Y-110730013D03*
X58695487Y-108190013D03*
X56155487Y-108190013D03*
X58695487Y-105650013D03*
X56155487Y-105650013D03*
D19*
X100500000Y-108950000D03*
X100500000Y-106050000D03*
D20*
X92500000Y-88500000D03*
D21*
X92500000Y-100500000D03*
D20*
X92500000Y-112500000D03*
D18*
X58500000Y-117250000D03*
D19*
X55500000Y-117250000D03*
X56378680Y-119371320D03*
X58500000Y-120250000D03*
X60621320Y-119371320D03*
X61500000Y-117250000D03*
X60621320Y-115128680D03*
X58500000Y-114250000D03*
X56378680Y-115128680D03*
D18*
X98500000Y-117250000D03*
D19*
X95500000Y-117250000D03*
X96378680Y-119371320D03*
X98500000Y-120250000D03*
X100621320Y-119371320D03*
X101500000Y-117250000D03*
X100621320Y-115128680D03*
X98500000Y-114250000D03*
X96378680Y-115128680D03*
D18*
X78500000Y-61000000D03*
D19*
X75500000Y-61000000D03*
X76378680Y-63121320D03*
X78500000Y-64000000D03*
X80621320Y-63121320D03*
X81500000Y-61000000D03*
X80621320Y-58878680D03*
X78500000Y-58000000D03*
X76378680Y-58878680D03*
D17*
X64040000Y-68350000D03*
X61500000Y-68350000D03*
X58960000Y-68350000D03*
D16*
X99415000Y-92519000D03*
X99415000Y-96519000D03*
D15*
X90600000Y-82000000D03*
X91400000Y-82000000D03*
X85600000Y-82000000D03*
X86400000Y-82000000D03*
X80600000Y-82000000D03*
X81400000Y-82000000D03*
X75600000Y-82000000D03*
X76400000Y-82000000D03*
X70600000Y-82000000D03*
X71400000Y-82000000D03*
X65850000Y-82000000D03*
X66650000Y-82000000D03*
X60600000Y-82000000D03*
X61400000Y-82000000D03*
X87900000Y-63500000D03*
X87100000Y-63500000D03*
D14*
X97750000Y-87850000D03*
X97750000Y-88650000D03*
X69500000Y-64850000D03*
X69500000Y-65650000D03*
X64000000Y-64850000D03*
X64000000Y-65650000D03*
D12*
X56226000Y-95154000D03*
D13*
X56226000Y-97694000D03*
X56226000Y-100234000D03*
X56226000Y-102774000D03*
D26*
X103250000Y-65000000D03*
X104750000Y-65000000D03*
X103250000Y-64250000D03*
X103250000Y-65750000D03*
X104750000Y-65750000D03*
X104750000Y-64250000D03*
X103250000Y-147000000D03*
X104750000Y-147000000D03*
X103250000Y-146250000D03*
X103250000Y-147750000D03*
X104750000Y-147750000D03*
X104750000Y-146250000D03*
X103250000Y-113000000D03*
X104750000Y-113000000D03*
X103250000Y-112250000D03*
X103250000Y-113750000D03*
X104750000Y-113750000D03*
X104750000Y-112250000D03*
X103250000Y-85000000D03*
X104750000Y-85000000D03*
X103250000Y-84250000D03*
X103250000Y-85750000D03*
X104750000Y-85750000D03*
X104750000Y-84250000D03*
D27*
X91940000Y-63000000D03*
X99560000Y-63000000D03*
X142940000Y-63000000D03*
X150560000Y-63000000D03*
M02*
