<?xml version="1.0" encoding="UTF-8" standalone="no"?>
<!-- Created with Inkscape (http://www.inkscape.org/) -->

<svg
   xmlns:dc="http://purl.org/dc/elements/1.1/"
   xmlns:cc="http://creativecommons.org/ns#"
   xmlns:rdf="http://www.w3.org/1999/02/22-rdf-syntax-ns#"
   xmlns:svg="http://www.w3.org/2000/svg"
   xmlns="http://www.w3.org/2000/svg"
   xmlns:sodipodi="http://sodipodi.sourceforge.net/DTD/sodipodi-0.dtd"
   xmlns:inkscape="http://www.inkscape.org/namespaces/inkscape"
   width="210mm"
   height="297mm"
   viewBox="0 0 210 297"
   version="1.1"
   id="svg8"
   inkscape:version="0.92.3 (2405546, 2018-03-11)"
   sodipodi:docname="makey-soldering-kit-outline.svg">
  <defs
     id="defs2" />
  <sodipodi:namedview
     id="base"
     pagecolor="#ffffff"
     bordercolor="#666666"
     borderopacity="1.0"
     inkscape:pageopacity="0.0"
     inkscape:pageshadow="2"
     inkscape:zoom="2"
     inkscape:cx="20.38848"
     inkscape:cy="182.80001"
     inkscape:document-units="mm"
     inkscape:current-layer="layer1"
     showgrid="false"
     inkscape:window-width="1920"
     inkscape:window-height="996"
     inkscape:window-x="-8"
     inkscape:window-y="-8"
     inkscape:window-maximized="1" />
  <metadata
     id="metadata5">
    <rdf:RDF>
      <cc:Work
         rdf:about="">
        <dc:format>image/svg+xml</dc:format>
        <dc:type
           rdf:resource="http://purl.org/dc/dcmitype/StillImage" />
        <dc:title></dc:title>
      </cc:Work>
    </rdf:RDF>
  </metadata>
  <g
     inkscape:label="Layer 1"
     inkscape:groupmode="layer"
     id="layer1">
    <path
       style="fill:none;fill-opacity:1;stroke:#000000;stroke-width:0.02008259;stroke-linecap:round;stroke-linejoin:round;stroke-miterlimit:4;stroke-dasharray:none;stroke-dashoffset:0;stroke-opacity:1"
       d="m 2.3264287,260.6416 v 0.0965 0.0557 l -0.041185,4.1e-4 -1.0390386,0.0164 c -0.55388457,0.009 -0.99826225,0.46036 -0.99824564,1.01433 v 1.16808 c 0,1.67369 0.22078286,2.71151 0.85625554,3.97025 1.2083672,2.39352 3.3966584,3.95135 5.9624105,4.17968 0.3436667,0.0305 0.8861302,0.0539 1.3073294,0.0588 h 0.00121 l 0.5001031,0.005 c 0.00235,0.15394 0.00189,0.35654 0.00508,0.49111 0.00555,0.23579 0.011987,0.43825 0.020008,0.60207 0.00801,0.16382 0.0016,0.23254 0.040791,0.4393 0.2182897,1.15105 0.9651758,2.10305 1.97884,2.62095 -0.0065,0.0449 -0.0098,0.0903 -0.0102,0.13572 v 2.07847 1.82155 c -0.458712,0.0371 -0.835012,0.37824 -0.9166593,0.83116 l -0.5232452,2.92215 c -0.2877298,1.60731 -0.5379937,3.01127 -0.5624699,3.15008 l -0.039613,0.22396 c -0.00243,0.0159 -0.00456,0.0316 -0.00629,0.0475 l -0.7495671,0.56563 -0.7734931,0.58207 c -0.2545868,0.19161 -0.4043482,0.49171 -0.4043975,0.81035 v 0.59308 0.3079 h -3.7654851 c -0.5601766,4e-5 -1.0142754,0.45415 -1.0143276,1.01434 v 5.29404 c 5.22e-5,0.56016 0.454151,1.01425 1.0143276,1.01432 h 34.1384362 c 0.560176,-7e-5 1.014275,-0.45416 1.014327,-1.01432 v -5.29404 c -5.2e-5,-0.56019 -0.454151,-1.0143 -1.014327,-1.01434 h -3.765091 v -0.3079 -0.59308 c -5.1e-5,-0.31864 -0.149813,-0.61874 -0.4044,-0.81035 l -0.773492,-0.58207 -0.748783,-0.56483 c -0.002,-0.0168 -0.0045,-0.0336 -0.0075,-0.0501 l -0.03963,-0.22201 -8.34e-4,-0.003 c -0.0045,-0.026 -0.08539,-0.47865 -0.104334,-0.58521 0.103348,0.0167 0.208667,0.0175 0.312221,0.003 l 0.165918,-0.0251 h 0.0051 c -0.106773,0.0167 0.350684,-0.0309 0.66759,-0.0487 2.539321,-0.14165 4.87258,-1.30077 6.14088,-3.21478 0.165153,-0.24922 0.318201,-0.53816 0.460093,-0.82959 0.141894,-0.29144 0.253364,-0.49138 0.338503,-0.84409 l 0.03256,-0.13533 c 0.04959,-0.20718 0.03271,-0.4247 -0.04824,-0.6217 0.01949,-0.0852 0.08825,-0.38586 0.08825,-0.38594 0,-0.13107 -0.0037,-0.0873 -0.0047,-0.0984 -9.78e-4,-0.0107 -0.0019,-0.0196 -0.0027,-0.0289 -0.002,-0.0189 -0.0041,-0.0407 -0.0071,-0.0679 -0.0059,-0.0544 -0.01443,-0.12935 -0.02509,-0.22359 -0.02132,-0.18856 -0.05173,-0.45317 -0.08825,-0.76995 -0.07303,-0.63355 -0.170715,-1.47491 -0.269859,-2.32441 -0.198291,-1.69896 -0.383251,-3.29594 -0.427147,-3.61054 -0.0088,-0.0627 -0.01267,-0.1272 -0.04747,-0.26124 -0.03477,-0.13397 -0.133808,-0.39584 -0.362036,-0.59187 -0.212816,-0.18281 -0.137222,-0.13293 -0.181211,-0.24897 v 0 -0.1012 -0.0572 h 0.01093 l 1.008835,-0.0164 c 0.554187,-0.009 0.998512,-0.46125 0.997855,-1.0155 l -0.0016,-1.21829 v 0 c -8.35e-4,-0.86426 -0.01395,-1.38487 -0.112174,-1.8486 -0.334331,-1.57839 -1.107858,-3.0246 -2.229089,-4.15187 -1.49757,-1.50562 -3.365452,-2.16154 -5.914166,-2.16398 h -8.34e-4 -0.588355 c -0.02344,4e-4 -0.04685,8.9e-4 -0.07021,0.004 -0.04295,-0.1124 -0.08123,-0.23707 -0.129441,-0.33222 -0.327619,-0.64651 -0.848185,-1.14839 -1.463049,-1.49796 0.03653,-0.1204 0.05036,-0.24644 0.04079,-0.37184 l -0.04157,-0.52795 c -0.110508,-1.40116 -0.535013,-2.70337 -1.176715,-3.86708 v -7.10069 c 0.154595,-0.18268 0.239621,-0.41415 0.24005,-0.65346 v -5.05987 -5.06105 c -5.5e-5,-0.56017 -0.454152,-1.01428 -1.014327,-1.01432 l -9.87923,-8.9e-4 -9.8789083,7.6e-4 c -0.5601745,5e-5 -1.0142728,0.45414 -1.0143272,1.01433 v 5.50859 4.6033 c -0.5120523,0.13592 -2.3247699,0.69896 -2.6024993,0.83507 -1.5597732,0.7816 -2.7413468,2.04432 -3.332062,3.61369 l -3.917e-4,8.9e-4 -0.14395134,0.384 c -0.085076,0.22743 -0.0857723,0.47778 -0.001965,0.70565 -0.0650183,0.16407 -0.0861088,0.34226 -0.061189,0.51698 l 0.0368705,0.25652 c -0.004296,-0.0303 0.0615678,0.5086 0.13924454,1.17004 0.077936,0.66364 0.1786683,1.52508 0.2780967,2.38009 0.099428,0.85502 0.1976518,1.70369 0.2710365,2.34128 0.036692,0.3188 0.067055,0.58477 0.088253,0.77192 0.0106,0.0936 0.018852,0.16757 0.024319,0.2173 0.00184,0.0168 0.00277,0.0261 0.00392,0.0369 -5.042e-4,-0.0136 -0.00118,-0.0144 -0.00118,-0.0632 0,0.3883 0.2092897,0.6387 0.3275189,0.748 0.1182296,0.10933 0.1935144,0.14285 0.2498554,0.17022 0.07346,0.0415 0.050469,0.0444 0.055699,0.1044 -3.516e-4,0.0429 0,0 0,0 z"
       id="path2080"
       inkscape:connector-curvature="0"
       sodipodi:nodetypes="ccccccsccccccsccccccccccccccccccccccccccccccccccccccscccscccccccccccccccccccsccccccccccccccccccccccccccsssscccscccc" />
    <path
       style="fill:none;fill-opacity:1;stroke:#000000;stroke-width:0.02008259;stroke-linecap:round;stroke-linejoin:round;stroke-miterlimit:4;stroke-dasharray:none;stroke-dashoffset:0;stroke-opacity:1"
       d="m 1.6945337,259.68215 c 0.00111,0.0299 0.0026,0.0224 0.00275,0.0239 2.09e-4,0.003 -2.489e-4,-8.9e-4 -7.817e-4,-0.007 -3.476e-4,-0.003 -0.00141,-0.012 -0.00196,-0.0177 z"
       id="path2078"
       inkscape:connector-curvature="0"
       sodipodi:nodetypes="ccccc" />
  </g>
</svg>
