999
Inkscape export via "Better Better DXF Output" (http://tim.cexx.org/?p=590)
  0
SECTION
  2
HEADER
  9
$ACADVER
  1
AC1014
  9
$HANDSEED
  5
FFFF
  0
ENDSEC
  0
SECTION
  2
TABLES
  0
TABLE
  2
VPORT
  5
8
330
0
100
AcDbSymbolTable
 70
     4
  0
VPORT
  5
2E
330
8
100
AcDbSymbolTableRecord
100
AcDbViewportTableRecord
  2
*ACTIVE
 70
     0
 10
0.0
 20
0.0
 11
1.0
 21
1.0
 12
4.25
 22
5.5
 13
0.0
 23
0.0
 14
10.0
 24
10.0
 15
10.0
 25
10.0
 16
0.0
 26
0.0
 36
1.0
 17
0.0
 27
0.0
 37
0.0
 40
11
 41
1.24
 42
50.0
 43
0.0
 44
0.0
 50
0.0
 51
0.0
 71
     0
 72
   100
 73
     1
 74
     3
 75
     0
 76
     0
 77
     0
 78
     0
  0
ENDTAB
  0
TABLE
  2
LTYPE
  5
5
330
0
100
AcDbSymbolTable
 70
     1
  0
LTYPE
  5
14
330
5
100
AcDbSymbolTableRecord
100
AcDbLinetypeTableRecord
  2
BYBLOCK
 70
     0
  3

 72
    65
 73
     0
 40
0.0
  0
LTYPE
  5
15
330
5
100
AcDbSymbolTableRecord
100
AcDbLinetypeTableRecord
  2
BYLAYER
 70
     0
  3

 72
    65
 73
     0
 40
0.0
  0
LTYPE
  5
16
330
5
100
AcDbSymbolTableRecord
100
AcDbLinetypeTableRecord
  2
CONTINUOUS
 70
     0
  3
Solid line
 72
    65
 73
     0
 40
0.0
  0
ENDTAB
  0
TABLE
  2
STYLE
  5
3
330
0
100
AcDbSymbolTable
 70
     1
  0
STYLE
  5
11
330
3
100
AcDbSymbolTableRecord
100
AcDbTextStyleTableRecord
  2
STANDARD
 70
     0
 40
0.0
 41
1.0
 50
0.0
 71
     0
 42
2.5
  3
txt
  4

  0
ENDTAB
  0
TABLE
  2
VIEW
  5
6
330
0
100
AcDbSymbolTable
 70
     0
  0
ENDTAB
  0
TABLE
  2
UCS
  5
7
330
0
100
AcDbSymbolTable
 70
     0
  0
ENDTAB
  0
TABLE
  2
APPID
  5
9
330
0
100
AcDbSymbolTable
 70
     2
  0
APPID
  5
12
330
9
100
AcDbSymbolTableRecord
100
AcDbRegAppTableRecord
  2
ACAD
 70
     0
  0
ENDTAB
  0
TABLE
  2
DIMSTYLE
  5
A
330
0
100
AcDbSymbolTable
 70
     1
  0
DIMSTYLE
105
27
330
A
100
AcDbSymbolTableRecord
100
AcDbDimStyleTableRecord
  2
ISO-25
 70
     0
  3

  4

  5

  6

  7

 40
1.0
 41
2.5
 42
0.625
 43
3.75
 44
1.25
 45
0.0
 46
0.0
 47
0.0
 48
0.0
140
2.5
141
2.5
142
0.0
143
0.03937007874016
144
1.0
145
0.0
146
1.0
147
0.625
 71
     0
 72
     0
 73
     0
 74
     0
 75
     0
 76
     0
 77
     1
 78
     8
170
     0
171
     3
172
     1
173
     0
174
     0
175
     0
176
     0
177
     0
178
     0
270
     2
271
     2
272
     2
273
     2
274
     3
340
11
275
     0
280
     0
281
     0
282
     0
283
     0
284
     8
285
     0
286
     0
287
     3
288
     0
  0
ENDTAB
  0
TABLE
  2
BLOCK_RECORD
  5
1
330
0
100
AcDbSymbolTable
 70
     1
  0
BLOCK_RECORD
  5
1F
330
1
100
AcDbSymbolTableRecord
100
AcDbBlockTableRecord
  2
*MODEL_SPACE
  0
BLOCK_RECORD
  5
1B
330
1
100
AcDbSymbolTableRecord
100
AcDbBlockTableRecord
  2
*PAPER_SPACE
  0
ENDTAB
0
TABLE
2
LAYER
5
2
330
0
100
AcDbSymbolTable
70
1
0
LAYER
5
10
330
2
100
AcDbSymbolTableRecord
100
AcDbLayerTableRecord
2
Layer 1
70
0
62
7
6
CONTINUOUS
0
ENDTAB
0
ENDSEC
  0
SECTION
  2
BLOCKS
  0
BLOCK
  5
20
330
1F
100
AcDbEntity
  8
0
100
AcDbBlockBegin
  2
*MODEL_SPACE
 70
     0
 10
0.0
 20
0.0
 30
0.0
  3
*MODEL_SPACE
  1

  0
ENDBLK
  5
21
330
1F
100
AcDbEntity
  8
0
100
AcDbBlockEnd
  0
BLOCK
  5
1C
330
1B
100
AcDbEntity
 67
     1
  8
0
100
AcDbBlockBegin
  2
*PAPER_SPACE
  1

  0
ENDBLK
  5
1D
330
1B
100
AcDbEntity
 67
     1
  8
0
100
AcDbBlockEnd
  0
ENDSEC
  0
SECTION
  2
ENTITIES
0
LINE
8
Layer 1
62
4
5
100
100
AcDbEntity
100
AcDbLine
10
2.117316
20
35.524858
30
0.0
11
2.117316
21
35.430130
31
0.0
0
LINE
8
Layer 1
62
4
5
101
100
AcDbEntity
100
AcDbLine
10
2.117316
20
35.430130
30
0.0
11
2.117316
21
35.375452
31
0.0
0
LINE
8
Layer 1
62
4
5
102
100
AcDbEntity
100
AcDbLine
10
2.117316
20
35.375452
30
0.0
11
2.076887
21
35.375170
31
0.0
0
LINE
8
Layer 1
62
4
5
103
100
AcDbEntity
100
AcDbLine
10
2.076887
20
35.375170
30
0.0
11
1.056923
21
35.359055
31
0.0
0
LINE
8
Layer 1
62
4
5
104
100
AcDbEntity
100
AcDbLine
10
1.056923
20
35.359055
30
0.0
11
0.674428
21
35.276221
31
0.0
0
LINE
8
Layer 1
62
4
5
105
100
AcDbEntity
100
AcDbLine
10
0.674428
20
35.276221
30
0.0
11
0.363063
21
35.061813
31
0.0
0
LINE
8
Layer 1
62
4
5
106
100
AcDbEntity
100
AcDbLine
10
0.363063
20
35.061813
30
0.0
11
0.153648
21
34.747100
31
0.0
0
LINE
8
Layer 1
62
4
5
107
100
AcDbEntity
100
AcDbLine
10
0.153648
20
34.747100
30
0.0
11
0.077003
21
34.363347
31
0.0
0
LINE
8
Layer 1
62
4
5
108
100
AcDbEntity
100
AcDbLine
10
0.077003
20
34.363347
30
0.0
11
0.077003
21
33.216709
31
0.0
0
LINE
8
Layer 1
62
4
5
109
100
AcDbEntity
100
AcDbLine
10
0.077003
20
33.216709
30
0.0
11
0.263344
21
31.115277
31
0.0
0
LINE
8
Layer 1
62
4
5
10a
100
AcDbEntity
100
AcDbLine
10
0.263344
20
31.115277
30
0.0
11
0.917539
21
29.319344
31
0.0
0
LINE
8
Layer 1
62
4
5
10b
100
AcDbEntity
100
AcDbLine
10
0.917539
20
29.319344
30
0.0
11
1.978300
21
27.718549
31
0.0
0
LINE
8
Layer 1
62
4
5
10c
100
AcDbEntity
100
AcDbLine
10
1.978300
20
27.718549
30
0.0
11
3.344342
21
26.470829
31
0.0
0
LINE
8
Layer 1
62
4
5
10d
100
AcDbEntity
100
AcDbLine
10
3.344342
20
26.470829
30
0.0
11
4.960221
21
25.621629
31
0.0
0
LINE
8
Layer 1
62
4
5
10e
100
AcDbEntity
100
AcDbLine
10
4.960221
20
25.621629
30
0.0
11
6.770494
21
25.216395
31
0.0
0
LINE
8
Layer 1
62
4
5
10f
100
AcDbEntity
100
AcDbLine
10
6.770494
20
25.216395
30
0.0
11
8.053823
21
25.158675
31
0.0
0
LINE
8
Layer 1
62
4
5
110
100
AcDbEntity
100
AcDbLine
10
8.053823
20
25.158675
30
0.0
11
8.055009
21
25.158675
31
0.0
0
LINE
8
Layer 1
62
4
5
111
100
AcDbEntity
100
AcDbLine
10
8.055009
20
25.158675
30
0.0
11
8.545931
21
25.153764
31
0.0
0
LINE
8
Layer 1
62
4
5
112
100
AcDbEntity
100
AcDbLine
10
8.545931
20
25.153764
30
0.0
11
8.550918
21
24.671669
31
0.0
0
LINE
8
Layer 1
62
4
5
113
100
AcDbEntity
100
AcDbLine
10
8.550918
20
24.671669
30
0.0
11
8.570558
21
24.080651
31
0.0
0
LINE
8
Layer 1
62
4
5
114
100
AcDbEntity
100
AcDbLine
10
8.570558
20
24.080651
30
0.0
11
8.610600
21
23.649415
31
0.0
0
LINE
8
Layer 1
62
4
5
115
100
AcDbEntity
100
AcDbLine
10
8.610600
20
23.649415
30
0.0
11
8.864588
21
22.842218
31
0.0
0
LINE
8
Layer 1
62
4
5
116
100
AcDbEntity
100
AcDbLine
10
8.864588
20
22.842218
30
0.0
11
9.289066
21
22.129926
31
0.0
0
LINE
8
Layer 1
62
4
5
117
100
AcDbEntity
100
AcDbLine
10
9.289066
20
22.129926
30
0.0
11
9.859940
21
21.534170
31
0.0
0
LINE
8
Layer 1
62
4
5
118
100
AcDbEntity
100
AcDbLine
10
9.859940
20
21.534170
30
0.0
11
10.553113
21
21.076581
31
0.0
0
LINE
8
Layer 1
62
4
5
119
100
AcDbEntity
100
AcDbLine
10
10.553113
20
21.076581
30
0.0
11
10.543100
21
20.943353
31
0.0
0
LINE
8
Layer 1
62
4
5
11a
100
AcDbEntity
100
AcDbLine
10
10.543100
20
20.943353
30
0.0
11
10.543100
21
18.903038
31
0.0
0
LINE
8
Layer 1
62
4
5
11b
100
AcDbEntity
100
AcDbLine
10
10.543100
20
18.903038
30
0.0
11
10.543100
21
17.114926
31
0.0
0
LINE
8
Layer 1
62
4
5
11c
100
AcDbEntity
100
AcDbLine
10
10.543100
20
17.114926
30
0.0
11
9.954380
21
16.860047
31
0.0
0
LINE
8
Layer 1
62
4
5
11d
100
AcDbEntity
100
AcDbLine
10
9.954380
20
16.860047
30
0.0
11
9.643268
21
16.299025
31
0.0
0
LINE
8
Layer 1
62
4
5
11e
100
AcDbEntity
100
AcDbLine
10
9.643268
20
16.299025
30
0.0
11
9.129628
21
13.430518
31
0.0
0
LINE
8
Layer 1
62
4
5
11f
100
AcDbEntity
100
AcDbLine
10
9.129628
20
13.430518
30
0.0
11
8.577484
21
10.338268
31
0.0
0
LINE
8
Layer 1
62
4
5
120
100
AcDbEntity
100
AcDbLine
10
8.577484
20
10.338268
30
0.0
11
8.538599
21
10.118420
31
0.0
0
LINE
8
Layer 1
62
4
5
121
100
AcDbEntity
100
AcDbLine
10
8.538599
20
10.118420
30
0.0
11
8.532424
21
10.071791
31
0.0
0
LINE
8
Layer 1
62
4
5
122
100
AcDbEntity
100
AcDbLine
10
8.532424
20
10.071791
30
0.0
11
7.796617
21
9.516545
31
0.0
0
LINE
8
Layer 1
62
4
5
123
100
AcDbEntity
100
AcDbLine
10
7.796617
20
9.516545
30
0.0
11
7.037323
21
8.945160
31
0.0
0
LINE
8
Layer 1
62
4
5
124
100
AcDbEntity
100
AcDbLine
10
7.037323
20
8.945160
30
0.0
11
6.745137
21
8.594185
31
0.0
0
LINE
8
Layer 1
62
4
5
125
100
AcDbEntity
100
AcDbLine
10
6.745137
20
8.594185
30
0.0
11
6.640350
21
8.149686
31
0.0
0
LINE
8
Layer 1
62
4
5
126
100
AcDbEntity
100
AcDbLine
10
6.640350
20
8.149686
30
0.0
11
6.640350
21
7.567495
31
0.0
0
LINE
8
Layer 1
62
4
5
127
100
AcDbEntity
100
AcDbLine
10
6.640350
20
7.567495
30
0.0
11
6.640350
21
7.265247
31
0.0
0
LINE
8
Layer 1
62
4
5
128
100
AcDbEntity
100
AcDbLine
10
6.640350
20
7.265247
30
0.0
11
2.943990
21
7.265247
31
0.0
0
LINE
8
Layer 1
62
4
5
129
100
AcDbEntity
100
AcDbLine
10
2.943990
20
7.265247
30
0.0
11
2.556432
21
7.186980
31
0.0
0
LINE
8
Layer 1
62
4
5
12a
100
AcDbEntity
100
AcDbLine
10
2.556432
20
7.186980
30
0.0
11
2.239946
21
6.973587
31
0.0
0
LINE
8
Layer 1
62
4
5
12b
100
AcDbEntity
100
AcDbLine
10
2.239946
20
6.973587
30
0.0
11
2.026556
21
6.657095
31
0.0
0
LINE
8
Layer 1
62
4
5
12c
100
AcDbEntity
100
AcDbLine
10
2.026556
20
6.657095
30
0.0
11
1.948284
21
6.269527
31
0.0
0
LINE
8
Layer 1
62
4
5
12d
100
AcDbEntity
100
AcDbLine
10
1.948284
20
6.269527
30
0.0
11
1.948284
21
1.072673
31
0.0
0
LINE
8
Layer 1
62
4
5
12e
100
AcDbEntity
100
AcDbLine
10
1.948284
20
1.072673
30
0.0
11
2.026556
21
0.685126
31
0.0
0
LINE
8
Layer 1
62
4
5
12f
100
AcDbEntity
100
AcDbLine
10
2.026556
20
0.685126
30
0.0
11
2.239946
21
0.368646
31
0.0
0
LINE
8
Layer 1
62
4
5
130
100
AcDbEntity
100
AcDbLine
10
2.239946
20
0.368646
30
0.0
11
2.556432
21
0.155255
31
0.0
0
LINE
8
Layer 1
62
4
5
131
100
AcDbEntity
100
AcDbLine
10
2.556432
20
0.155255
30
0.0
11
2.943990
21
0.076973
31
0.0
0
LINE
8
Layer 1
62
4
5
132
100
AcDbEntity
100
AcDbLine
10
2.943990
20
0.076973
30
0.0
11
36.455723
21
0.076973
31
0.0
0
LINE
8
Layer 1
62
4
5
133
100
AcDbEntity
100
AcDbLine
10
36.455723
20
0.076973
30
0.0
11
36.843281
21
0.155255
31
0.0
0
LINE
8
Layer 1
62
4
5
134
100
AcDbEntity
100
AcDbLine
10
36.843281
20
0.155255
30
0.0
11
37.159767
21
0.368646
31
0.0
0
LINE
8
Layer 1
62
4
5
135
100
AcDbEntity
100
AcDbLine
10
37.159767
20
0.368646
30
0.0
11
37.373159
21
0.685126
31
0.0
0
LINE
8
Layer 1
62
4
5
136
100
AcDbEntity
100
AcDbLine
10
37.373159
20
0.685126
30
0.0
11
37.451431
21
1.072673
31
0.0
0
LINE
8
Layer 1
62
4
5
137
100
AcDbEntity
100
AcDbLine
10
37.451431
20
1.072673
30
0.0
11
37.451431
21
6.269527
31
0.0
0
LINE
8
Layer 1
62
4
5
138
100
AcDbEntity
100
AcDbLine
10
37.451431
20
6.269527
30
0.0
11
37.373159
21
6.657095
31
0.0
0
LINE
8
Layer 1
62
4
5
139
100
AcDbEntity
100
AcDbLine
10
37.373159
20
6.657095
30
0.0
11
37.159767
21
6.973587
31
0.0
0
LINE
8
Layer 1
62
4
5
13a
100
AcDbEntity
100
AcDbLine
10
37.159767
20
6.973587
30
0.0
11
36.843281
21
7.186980
31
0.0
0
LINE
8
Layer 1
62
4
5
13b
100
AcDbEntity
100
AcDbLine
10
36.843281
20
7.186980
30
0.0
11
36.455723
21
7.265247
31
0.0
0
LINE
8
Layer 1
62
4
5
13c
100
AcDbEntity
100
AcDbLine
10
36.455723
20
7.265247
30
0.0
11
32.759752
21
7.265247
31
0.0
0
LINE
8
Layer 1
62
4
5
13d
100
AcDbEntity
100
AcDbLine
10
32.759752
20
7.265247
30
0.0
11
32.759752
21
7.567495
31
0.0
0
LINE
8
Layer 1
62
4
5
13e
100
AcDbEntity
100
AcDbLine
10
32.759752
20
7.567495
30
0.0
11
32.759752
21
8.149686
31
0.0
0
LINE
8
Layer 1
62
4
5
13f
100
AcDbEntity
100
AcDbLine
10
32.759752
20
8.149686
30
0.0
11
32.654962
21
8.594185
31
0.0
0
LINE
8
Layer 1
62
4
5
140
100
AcDbEntity
100
AcDbLine
10
32.654962
20
8.594185
30
0.0
11
32.362775
21
8.945160
31
0.0
0
LINE
8
Layer 1
62
4
5
141
100
AcDbEntity
100
AcDbLine
10
32.362775
20
8.945160
30
0.0
11
31.603482
21
9.516545
31
0.0
0
LINE
8
Layer 1
62
4
5
142
100
AcDbEntity
100
AcDbLine
10
31.603482
20
9.516545
30
0.0
11
30.868445
21
10.071007
31
0.0
0
LINE
8
Layer 1
62
4
5
143
100
AcDbEntity
100
AcDbLine
10
30.868445
20
10.071007
30
0.0
11
30.861079
21
10.120187
31
0.0
0
LINE
8
Layer 1
62
4
5
144
100
AcDbEntity
100
AcDbLine
10
30.861079
20
10.120187
30
0.0
11
30.822178
21
10.338122
31
0.0
0
LINE
8
Layer 1
62
4
5
145
100
AcDbEntity
100
AcDbLine
10
30.822178
20
10.338122
30
0.0
11
30.821331
21
10.341057
31
0.0
0
LINE
8
Layer 1
62
4
5
146
100
AcDbEntity
100
AcDbLine
10
30.821331
20
10.341057
30
0.0
11
30.718912
21
10.915523
31
0.0
0
LINE
8
Layer 1
62
4
5
147
100
AcDbEntity
100
AcDbLine
10
30.718912
20
10.915523
30
0.0
11
31.025400
21
10.912588
31
0.0
0
LINE
8
Layer 1
62
4
5
148
100
AcDbEntity
100
AcDbLine
10
31.025400
20
10.912588
30
0.0
11
31.188273
21
10.937226
31
0.0
0
LINE
8
Layer 1
62
4
5
149
100
AcDbEntity
100
AcDbLine
10
31.188273
20
10.937226
30
0.0
11
31.193269
21
10.937226
31
0.0
0
LINE
8
Layer 1
62
4
5
14a
100
AcDbEntity
100
AcDbLine
10
31.193269
20
10.937226
30
0.0
11
31.364973
21
10.948428
31
0.0
0
LINE
8
Layer 1
62
4
5
14b
100
AcDbEntity
100
AcDbLine
10
31.364973
20
10.948428
30
0.0
11
31.848603
21
10.985032
31
0.0
0
LINE
8
Layer 1
62
4
5
14c
100
AcDbEntity
100
AcDbLine
10
31.848603
20
10.985032
30
0.0
11
33.667030
21
11.272565
31
0.0
0
LINE
8
Layer 1
62
4
5
14d
100
AcDbEntity
100
AcDbLine
10
33.667030
20
11.272565
30
0.0
11
35.330560
21
11.910481
31
0.0
0
LINE
8
Layer 1
62
4
5
14e
100
AcDbEntity
100
AcDbLine
10
35.330560
20
11.910481
30
0.0
11
36.760148
21
12.874612
31
0.0
0
LINE
8
Layer 1
62
4
5
14f
100
AcDbEntity
100
AcDbLine
10
36.760148
20
12.874612
30
0.0
11
37.876751
21
14.140795
31
0.0
0
LINE
8
Layer 1
62
4
5
150
100
AcDbEntity
100
AcDbLine
10
37.876751
20
14.140795
30
0.0
11
38.328397
21
14.955156
31
0.0
0
LINE
8
Layer 1
62
4
5
151
100
AcDbEntity
100
AcDbLine
10
38.328397
20
14.955156
30
0.0
11
38.660685
21
15.783752
31
0.0
0
LINE
8
Layer 1
62
4
5
152
100
AcDbEntity
100
AcDbLine
10
38.660685
20
15.783752
30
0.0
11
38.692650
21
15.916597
31
0.0
0
LINE
8
Layer 1
62
4
5
153
100
AcDbEntity
100
AcDbLine
10
38.692650
20
15.916597
30
0.0
11
38.645293
21
16.526885
31
0.0
0
LINE
8
Layer 1
62
4
5
154
100
AcDbEntity
100
AcDbLine
10
38.645293
20
16.526885
30
0.0
11
38.731924
21
16.905740
31
0.0
0
LINE
8
Layer 1
62
4
5
155
100
AcDbEntity
100
AcDbLine
10
38.731924
20
16.905740
30
0.0
11
38.727324
21
17.002334
31
0.0
0
LINE
8
Layer 1
62
4
5
156
100
AcDbEntity
100
AcDbLine
10
38.727324
20
17.002334
30
0.0
11
38.724784
21
17.030703
31
0.0
0
LINE
8
Layer 1
62
4
5
157
100
AcDbEntity
100
AcDbLine
10
38.724784
20
17.030703
30
0.0
11
38.717813
21
17.097355
31
0.0
0
LINE
8
Layer 1
62
4
5
158
100
AcDbEntity
100
AcDbLine
10
38.717813
20
17.097355
30
0.0
11
38.693175
21
17.316842
31
0.0
0
LINE
8
Layer 1
62
4
5
159
100
AcDbEntity
100
AcDbLine
10
38.693175
20
17.316842
30
0.0
11
38.606544
21
18.072656
31
0.0
0
LINE
8
Layer 1
62
4
5
15a
100
AcDbEntity
100
AcDbLine
10
38.606544
20
18.072656
30
0.0
11
38.341639
21
20.354394
31
0.0
0
LINE
8
Layer 1
62
4
5
15b
100
AcDbEntity
100
AcDbLine
10
38.341639
20
20.354394
30
0.0
11
37.922333
21
23.898654
31
0.0
0
LINE
8
Layer 1
62
4
5
15c
100
AcDbEntity
100
AcDbLine
10
37.922333
20
23.898654
30
0.0
11
37.875735
21
24.155098
31
0.0
0
LINE
8
Layer 1
62
4
5
15d
100
AcDbEntity
100
AcDbLine
10
37.875735
20
24.155098
30
0.0
11
37.520344
21
24.736103
31
0.0
0
LINE
8
Layer 1
62
4
5
15e
100
AcDbEntity
100
AcDbLine
10
37.520344
20
24.736103
30
0.0
11
37.342459
21
24.980502
31
0.0
0
LINE
8
Layer 1
62
4
5
15f
100
AcDbEntity
100
AcDbLine
10
37.342459
20
24.980502
30
0.0
11
37.342459
21
24.980502
31
0.0
0
LINE
8
Layer 1
62
4
5
160
100
AcDbEntity
100
AcDbLine
10
37.342459
20
24.980502
30
0.0
11
37.342459
21
25.079844
31
0.0
0
LINE
8
Layer 1
62
4
5
161
100
AcDbEntity
100
AcDbLine
10
37.342459
20
25.079844
30
0.0
11
37.342459
21
25.135995
31
0.0
0
LINE
8
Layer 1
62
4
5
162
100
AcDbEntity
100
AcDbLine
10
37.342459
20
25.135995
30
0.0
11
37.353184
21
25.135995
31
0.0
0
LINE
8
Layer 1
62
4
5
163
100
AcDbEntity
100
AcDbLine
10
37.353184
20
25.135995
30
0.0
11
38.343499
21
25.152082
31
0.0
0
LINE
8
Layer 1
62
4
5
164
100
AcDbEntity
100
AcDbLine
10
38.343499
20
25.152082
30
0.0
11
38.726148
21
25.235057
31
0.0
0
LINE
8
Layer 1
62
4
5
165
100
AcDbEntity
100
AcDbLine
10
38.726148
20
25.235057
30
0.0
11
39.037515
21
25.449796
31
0.0
0
LINE
8
Layer 1
62
4
5
166
100
AcDbEntity
100
AcDbLine
10
39.037515
20
25.449796
30
0.0
11
39.246757
21
25.764892
31
0.0
0
LINE
8
Layer 1
62
4
5
167
100
AcDbEntity
100
AcDbLine
10
39.246757
20
25.764892
30
0.0
11
39.323035
21
26.148942
31
0.0
0
LINE
8
Layer 1
62
4
5
168
100
AcDbEntity
100
AcDbLine
10
39.323035
20
26.148942
30
0.0
11
39.321342
21
27.344864
31
0.0
0
LINE
8
Layer 1
62
4
5
169
100
AcDbEntity
100
AcDbLine
10
39.321342
20
27.344864
30
0.0
11
39.321342
21
27.344864
31
0.0
0
LINE
8
Layer 1
62
4
5
16a
100
AcDbEntity
100
AcDbLine
10
39.321342
20
27.344864
30
0.0
11
39.211227
21
29.159530
31
0.0
0
LINE
8
Layer 1
62
4
5
16b
100
AcDbEntity
100
AcDbLine
10
39.211227
20
29.159530
30
0.0
11
38.885648
21
30.294397
31
0.0
0
LINE
8
Layer 1
62
4
5
16c
100
AcDbEntity
100
AcDbLine
10
38.885648
20
30.294397
30
0.0
11
38.406813
21
31.363419
31
0.0
0
LINE
8
Layer 1
62
4
5
16d
100
AcDbEntity
100
AcDbLine
10
38.406813
20
31.363419
30
0.0
11
37.783143
21
32.349409
31
0.0
0
LINE
8
Layer 1
62
4
5
16e
100
AcDbEntity
100
AcDbLine
10
37.783143
20
32.349409
30
0.0
11
37.023057
21
33.235180
31
0.0
0
LINE
8
Layer 1
62
4
5
16f
100
AcDbEntity
100
AcDbLine
10
37.023057
20
33.235180
30
0.0
11
35.847578
21
34.190281
31
0.0
0
LINE
8
Layer 1
62
4
5
170
100
AcDbEntity
100
AcDbLine
10
35.847578
20
34.190281
30
0.0
11
34.507204
21
34.850652
31
0.0
0
LINE
8
Layer 1
62
4
5
171
100
AcDbEntity
100
AcDbLine
10
34.507204
20
34.850652
30
0.0
11
32.973358
21
35.234350
31
0.0
0
LINE
8
Layer 1
62
4
5
172
100
AcDbEntity
100
AcDbLine
10
32.973358
20
35.234350
30
0.0
11
31.217464
21
35.359433
31
0.0
0
LINE
8
Layer 1
62
4
5
173
100
AcDbEntity
100
AcDbLine
10
31.217464
20
35.359433
30
0.0
11
31.216617
21
35.359433
31
0.0
0
LINE
8
Layer 1
62
4
5
174
100
AcDbEntity
100
AcDbLine
10
31.216617
20
35.359433
30
0.0
11
30.639063
21
35.359433
31
0.0
0
LINE
8
Layer 1
62
4
5
175
100
AcDbEntity
100
AcDbLine
10
30.639063
20
35.359433
30
0.0
11
30.570142
21
35.355510
31
0.0
0
LINE
8
Layer 1
62
4
5
176
100
AcDbEntity
100
AcDbLine
10
30.570142
20
35.355510
30
0.0
11
30.443077
21
35.681632
31
0.0
0
LINE
8
Layer 1
62
4
5
177
100
AcDbEntity
100
AcDbLine
10
30.443077
20
35.681632
30
0.0
11
29.830720
21
36.526171
31
0.0
0
LINE
8
Layer 1
62
4
5
178
100
AcDbEntity
100
AcDbLine
10
29.830720
20
36.526171
30
0.0
11
29.006885
21
37.152092
31
0.0
0
LINE
8
Layer 1
62
4
5
179
100
AcDbEntity
100
AcDbLine
10
29.006885
20
37.152092
30
0.0
11
29.046926
21
37.517107
31
0.0
0
LINE
8
Layer 1
62
4
5
17a
100
AcDbEntity
100
AcDbLine
10
29.046926
20
37.517107
30
0.0
11
29.006120
21
38.035365
31
0.0
0
LINE
8
Layer 1
62
4
5
17b
100
AcDbEntity
100
AcDbLine
10
29.006120
20
38.035365
30
0.0
11
28.624104
21
40.020819
31
0.0
0
LINE
8
Layer 1
62
4
5
17c
100
AcDbEntity
100
AcDbLine
10
28.624104
20
40.020819
30
0.0
11
27.851005
21
41.831455
31
0.0
0
LINE
8
Layer 1
62
4
5
17d
100
AcDbEntity
100
AcDbLine
10
27.851005
20
41.831455
30
0.0
11
27.851005
21
48.801790
31
0.0
0
LINE
8
Layer 1
62
4
5
17e
100
AcDbEntity
100
AcDbLine
10
27.851005
20
48.801790
30
0.0
11
28.086649
21
49.443256
31
0.0
0
LINE
8
Layer 1
62
4
5
17f
100
AcDbEntity
100
AcDbLine
10
28.086649
20
49.443256
30
0.0
11
28.086649
21
54.410237
31
0.0
0
LINE
8
Layer 1
62
4
5
180
100
AcDbEntity
100
AcDbLine
10
28.086649
20
54.410237
30
0.0
11
28.086649
21
59.378378
31
0.0
0
LINE
8
Layer 1
62
4
5
181
100
AcDbEntity
100
AcDbLine
10
28.086649
20
59.378378
30
0.0
11
28.008375
21
59.765934
31
0.0
0
LINE
8
Layer 1
62
4
5
182
100
AcDbEntity
100
AcDbLine
10
28.008375
20
59.765934
30
0.0
11
27.794985
21
60.082420
31
0.0
0
LINE
8
Layer 1
62
4
5
183
100
AcDbEntity
100
AcDbLine
10
27.794985
20
60.082420
30
0.0
11
27.478499
21
60.295811
31
0.0
0
LINE
8
Layer 1
62
4
5
184
100
AcDbEntity
100
AcDbLine
10
27.478499
20
60.295811
30
0.0
11
27.090942
21
60.374077
31
0.0
0
LINE
8
Layer 1
62
4
5
185
100
AcDbEntity
100
AcDbLine
10
27.090942
20
60.374077
30
0.0
11
17.393072
21
60.374952
31
0.0
0
LINE
8
Layer 1
62
4
5
186
100
AcDbEntity
100
AcDbLine
10
17.393072
20
60.374952
30
0.0
11
7.695519
21
60.374218
31
0.0
0
LINE
8
Layer 1
62
4
5
187
100
AcDbEntity
100
AcDbLine
10
7.695519
20
60.374218
30
0.0
11
7.307962
21
60.295949
31
0.0
0
LINE
8
Layer 1
62
4
5
188
100
AcDbEntity
100
AcDbLine
10
7.307962
20
60.295949
30
0.0
11
6.991476
21
60.082560
31
0.0
0
LINE
8
Layer 1
62
4
5
189
100
AcDbEntity
100
AcDbLine
10
6.991476
20
60.082560
30
0.0
11
6.778085
21
59.766074
31
0.0
0
LINE
8
Layer 1
62
4
5
18a
100
AcDbEntity
100
AcDbLine
10
6.778085
20
59.766074
30
0.0
11
6.699812
21
59.378509
31
0.0
0
LINE
8
Layer 1
62
4
5
18b
100
AcDbEntity
100
AcDbLine
10
6.699812
20
59.378509
30
0.0
11
6.699812
21
53.971046
31
0.0
0
LINE
8
Layer 1
62
4
5
18c
100
AcDbEntity
100
AcDbLine
10
6.699812
20
53.971046
30
0.0
11
6.699812
21
49.452251
31
0.0
0
LINE
8
Layer 1
62
4
5
18d
100
AcDbEntity
100
AcDbLine
10
6.699812
20
49.452251
30
0.0
11
4.145089
21
48.632511
31
0.0
0
LINE
8
Layer 1
62
4
5
18e
100
AcDbEntity
100
AcDbLine
10
4.145089
20
48.632511
30
0.0
11
3.069607
21
47.971194
31
0.0
0
LINE
8
Layer 1
62
4
5
18f
100
AcDbEntity
100
AcDbLine
10
3.069607
20
47.971194
30
0.0
11
2.152917
21
47.148827
31
0.0
0
LINE
8
Layer 1
62
4
5
190
100
AcDbEntity
100
AcDbLine
10
2.152917
20
47.148827
30
0.0
11
1.414590
21
46.181464
31
0.0
0
LINE
8
Layer 1
62
4
5
191
100
AcDbEntity
100
AcDbLine
10
1.414590
20
46.181464
30
0.0
11
0.874196
21
45.085161
31
0.0
0
LINE
8
Layer 1
62
4
5
192
100
AcDbEntity
100
AcDbLine
10
0.874196
20
45.085161
30
0.0
11
0.873812
21
45.084314
31
0.0
0
LINE
8
Layer 1
62
4
5
193
100
AcDbEntity
100
AcDbLine
10
0.873812
20
45.084314
30
0.0
11
0.732503
21
44.707364
31
0.0
0
LINE
8
Layer 1
62
4
5
194
100
AcDbEntity
100
AcDbLine
10
0.732503
20
44.707364
30
0.0
11
0.730576
21
44.014669
31
0.0
0
LINE
8
Layer 1
62
4
5
195
100
AcDbEntity
100
AcDbLine
10
0.730576
20
44.014669
30
0.0
11
0.670510
21
43.507180
31
0.0
0
LINE
8
Layer 1
62
4
5
196
100
AcDbEntity
100
AcDbLine
10
0.670510
20
43.507180
30
0.0
11
0.706704
21
43.255367
31
0.0
0
LINE
8
Layer 1
62
4
5
197
100
AcDbEntity
100
AcDbLine
10
0.706704
20
43.255367
30
0.0
11
0.843392
21
42.106808
31
0.0
0
LINE
8
Layer 1
62
4
5
198
100
AcDbEntity
100
AcDbLine
10
0.843392
20
42.106808
30
0.0
11
1.116384
21
39.770411
31
0.0
0
LINE
8
Layer 1
62
4
5
199
100
AcDbEntity
100
AcDbLine
10
1.116384
20
39.770411
30
0.0
11
1.382445
21
37.472112
31
0.0
0
LINE
8
Layer 1
62
4
5
19a
100
AcDbEntity
100
AcDbLine
10
1.382445
20
37.472112
30
0.0
11
1.469077
21
36.714362
31
0.0
0
LINE
8
Layer 1
62
4
5
19b
100
AcDbEntity
100
AcDbLine
10
1.469077
20
36.714362
30
0.0
11
1.492950
21
36.501050
31
0.0
0
LINE
8
Layer 1
62
4
5
19c
100
AcDbEntity
100
AcDbLine
10
1.492950
20
36.501050
30
0.0
11
1.496798
21
36.464827
31
0.0
0
LINE
8
Layer 1
62
4
5
19d
100
AcDbEntity
100
AcDbLine
10
1.496798
20
36.464827
30
0.0
11
1.495641
21
36.526868
31
0.0
0
LINE
8
Layer 1
62
4
5
19e
100
AcDbEntity
100
AcDbLine
10
1.495641
20
36.526868
30
0.0
11
1.612872
21
36.057030
31
0.0
0
LINE
8
Layer 1
62
4
5
19f
100
AcDbEntity
100
AcDbLine
10
1.612872
20
36.057030
30
0.0
11
1.817147
21
35.792599
31
0.0
0
LINE
8
Layer 1
62
4
5
1a0
100
AcDbEntity
100
AcDbLine
10
1.817147
20
35.792599
30
0.0
11
2.062416
21
35.625504
31
0.0
0
LINE
8
Layer 1
62
4
5
1a1
100
AcDbEntity
100
AcDbLine
10
2.062416
20
35.625504
30
0.0
11
2.117092
21
35.523020
31
0.0
0
LINE
8
Layer 1
62
4
5
1a2
100
AcDbEntity
100
AcDbLine
10
2.117092
20
35.523020
30
0.0
11
2.117092
21
35.523020
31
0.0
0
LINE
8
Layer 1
62
4
5
1a3
100
AcDbEntity
100
AcDbLine
10
2.117092
20
35.523020
30
0.0
11
2.117316
21
35.524858
31
0.0
0
LINE
8
Layer 1
62
4
5
1a4
100
AcDbEntity
100
AcDbLine
10
1.497021
20
36.466695
30
0.0
11
1.499722
21
36.443243
31
0.0
0
LINE
8
Layer 1
62
4
5
1a5
100
AcDbEntity
100
AcDbLine
10
1.499722
20
36.443243
30
0.0
11
1.498954
21
36.450101
31
0.0
0
LINE
8
Layer 1
62
4
5
1a6
100
AcDbEntity
100
AcDbLine
10
1.498954
20
36.450101
30
0.0
11
1.497030
21
36.467486
31
0.0
0
LINE
8
Layer 1
62
4
5
1a7
100
AcDbEntity
100
AcDbLine
10
1.497030
20
36.467486
30
0.0
11
1.497021
21
36.466695
31
0.0
  0
ENDSEC
  0
SECTION
  2
OBJECTS
  0
DICTIONARY
  5
C
330
0
100
AcDbDictionary
  3
ACAD_GROUP
350
D
  3
ACAD_MLINESTYLE
350
17
  0
DICTIONARY
  5
D
330
C
100
AcDbDictionary
  0
DICTIONARY
  5
1A
330
C
100
AcDbDictionary
  0
DICTIONARY
  5
17
330
C
100
AcDbDictionary
  3
STANDARD
350
18
  0
DICTIONARY
  5
19
330
C
100
AcDbDictionary
  0
ENDSEC
  0
EOF
