<?xml version="1.0" encoding="UTF-8" standalone="no"?>
<!-- Created with Inkscape (http://www.inkscape.org/) -->

<svg
   xmlns:dc="http://purl.org/dc/elements/1.1/"
   xmlns:cc="http://creativecommons.org/ns#"
   xmlns:rdf="http://www.w3.org/1999/02/22-rdf-syntax-ns#"
   xmlns:svg="http://www.w3.org/2000/svg"
   xmlns="http://www.w3.org/2000/svg"
   xmlns:sodipodi="http://sodipodi.sourceforge.net/DTD/sodipodi-0.dtd"
   xmlns:inkscape="http://www.inkscape.org/namespaces/inkscape"
   width="210mm"
   height="297mm"
   viewBox="0 0 210 297"
   version="1.1"
   id="svg8"
   inkscape:version="0.92.2 (5c3e80d, 2017-08-06)"
   sodipodi:docname="makey-floating-pcb.svg">
  <defs
     id="defs2" />
  <sodipodi:namedview
     id="base"
     pagecolor="#ffffff"
     bordercolor="#666666"
     borderopacity="1.0"
     inkscape:pageopacity="0.0"
     inkscape:pageshadow="2"
     inkscape:zoom="2.998889"
     inkscape:cx="72.443902"
     inkscape:cy="22.400593"
     inkscape:document-units="mm"
     inkscape:current-layer="layer1"
     showgrid="false"
     inkscape:window-width="1920"
     inkscape:window-height="996"
     inkscape:window-x="-8"
     inkscape:window-y="-8"
     inkscape:window-maximized="1" />
  <metadata
     id="metadata5">
    <rdf:RDF>
      <cc:Work
         rdf:about="">
        <dc:format>image/svg+xml</dc:format>
        <dc:type
           rdf:resource="http://purl.org/dc/dcmitype/StillImage" />
        <dc:title></dc:title>
      </cc:Work>
    </rdf:RDF>
  </metadata>
  <g
     inkscape:label="Layer 1"
     inkscape:groupmode="layer"
     id="layer1">
    <path
       sodipodi:type="inkscape:offset"
       inkscape:radius="0"
       inkscape:original="M 56.052734 260.34766 C 55.567069 260.34726 55.165794 260.36658 55.003906 260.39648 C 53.510073 260.6722 52.445211 261.2208 51.427734 262.23828 C 50.867626 262.79838 50.539184 263.25014 50.214844 263.90625 C 49.809838 264.72554 49.606686 265.46975 49.566406 266.29297 L 49.542969 266.77148 L 56.029297 266.77148 L 62.513672 266.77148 L 62.513672 266.5 C 62.512752 266.13596 62.420635 265.51805 62.306641 265.09961 C 61.653562 262.70238 59.739924 260.93123 57.263672 260.43359 C 56.903482 260.36119 56.720117 260.34825 56.052734 260.34766 z M 52.277344 263.17969 C 52.52378 263.13254 52.586056 263.13879 52.953125 263.25586 C 53.251223 263.35092 53.575101 263.65148 53.734375 263.98047 C 53.830229 264.17846 53.842897 264.24598 53.841797 264.54297 C 53.840617 264.8608 53.833242 264.89564 53.697266 265.15234 C 53.501294 265.5223 53.24114 265.73902 52.857422 265.85547 C 52.645593 265.91937 52.331181 265.92167 52.101562 265.85938 C 51.486865 265.6926 51.01137 264.95126 51.126953 264.3418 C 51.244181 263.72366 51.667991 263.29621 52.277344 263.17969 z M 59.986328 263.23047 C 60.281376 263.35136 60.378906 263.40355 60.378906 263.43945 C 60.378906 263.45955 60.421496 263.49623 60.472656 263.51953 C 60.601397 263.57818 60.815232 263.90124 60.888672 264.14844 C 60.96825 264.41631 60.940177 264.84605 60.828125 265.0957 C 60.743944 265.28325 60.476335 265.58805 60.289062 265.70703 C 60.22904 265.74514 60.094214 265.8052 59.990234 265.8418 C 59.81335 265.9041 59.453741 265.92501 59.273438 265.88281 C 59.232239 265.87318 59.093371 265.81561 58.964844 265.75391 C 58.715389 265.63419 58.488653 265.39994 58.320312 265.08789 C 58.1521 264.77606 58.186268 264.10876 58.380859 263.88477 C 58.409109 263.85217 58.431641 263.81178 58.431641 263.79688 C 58.431641 263.75825 58.632632 263.51172 58.664062 263.51172 C 58.67845 263.51172 58.732546 263.47263 58.785156 263.42383 C 59.030094 263.19684 59.657385 263.09564 59.986328 263.23047 z M 56.011719 267.25781 C 49.472032 267.25852 49.783111 267.24851 49.298828 267.48633 C 48.847739 267.70785 48.415036 268.20403 48.230469 268.71094 C 48.155779 268.91606 48.152145 269.00748 48.140625 271.01172 L 48.128906 273.09961 L 49.978516 273.09961 L 51.830078 273.09961 L 51.857422 272.81055 C 52.019192 271.0037 53.227015 269.55055 54.972656 269.06445 C 55.314627 268.96939 55.394205 268.96301 56.035156 268.96289 C 56.682645 268.96278 56.751568 268.96936 57.101562 269.06836 C 58.502262 269.46456 59.577401 270.48529 60.023438 271.8457 C 60.119949 272.14007 60.228085 272.74075 60.228516 272.97852 L 60.228516 273.09961 L 62.083984 273.09961 L 63.9375 273.09961 L 63.935547 271.14258 C 63.935037 269.58526 63.923719 269.13392 63.880859 268.93164 C 63.709727 268.12402 63.004677 267.43408 62.210938 267.29883 C 62.035779 267.26903 60.240844 267.25735 56.011719 267.25781 z M 47.681641 269.04688 L 46.773438 269.06641 C 45.610911 269.09196 45.190112 269.17906 44.423828 269.55273 C 43.478789 270.01357 42.663716 270.85882 42.142578 271.91992 C 41.692184 272.83697 41.612701 273.20687 41.587891 274.49609 L 41.568359 275.49805 L 42.378906 275.49805 L 43.1875 275.49805 L 43.1875 276.26562 L 43.1875 277.0332 L 42.947266 277.0332 L 42.705078 277.0332 L 42.683594 277.19141 C 42.633317 277.54904 42.064453 282.48751 42.064453 282.56641 L 42.064453 282.65039 L 44.779297 282.65039 C 46.927796 282.65039 47.493988 282.64052 47.492188 282.60352 C 47.490968 282.57777 47.469629 282.38035 47.443359 282.16406 C 47.417091 281.94776 47.271177 280.70525 47.119141 279.40234 L 46.841797 277.0332 L 46.607422 277.0332 L 46.371094 277.0332 L 46.371094 276.26562 L 46.371094 275.49805 L 47.027344 275.49805 L 47.681641 275.49805 L 47.681641 272.27148 L 47.681641 269.04688 z M 64.386719 269.05469 L 64.386719 272.27539 L 64.386719 275.49805 L 65.041016 275.49805 L 65.697266 275.49805 L 65.697266 276.26562 L 65.697266 277.0332 L 65.462891 277.0332 L 65.226562 277.0332 L 64.914062 279.7207 C 64.742365 281.19869 64.594584 282.4624 64.583984 282.5293 L 64.564453 282.65039 L 67.283203 282.65039 L 70.003906 282.65039 L 70.003906 282.5625 C 70.003906 282.48187 69.436846 277.56262 69.384766 277.19141 L 69.363281 277.0332 L 69.121094 277.0332 L 68.880859 277.0332 L 68.880859 276.26562 L 68.880859 275.49805 L 69.689453 275.49805 L 70.5 275.49805 L 70.480469 274.49609 C 70.466529 273.77144 70.445674 273.42182 70.402344 273.23242 C 69.948937 271.25038 68.538601 269.6892 66.783203 269.22656 C 66.280413 269.09405 65.895413 269.05469 65.089844 269.05469 L 64.386719 269.05469 z M 53.1875 270.36523 L 53.1875 273.11914 L 53.1875 275.87109 L 53.75 275.87109 L 54.3125 275.87109 L 54.3125 274.04688 L 54.314453 272.2207 L 54.423828 272.64648 C 54.483979 272.88117 54.57434 273.20267 54.625 273.35938 C 54.675661 273.51607 54.879676 274.14498 55.078125 274.75781 L 55.439453 275.87109 L 55.998047 275.87109 L 56.556641 275.87109 L 56.988281 274.55078 C 57.225558 273.82393 57.468737 273.04422 57.529297 272.81836 L 57.638672 272.4082 L 57.642578 274.13867 L 57.644531 275.87109 L 58.244141 275.87109 L 58.84375 275.87109 L 58.84375 273.11914 L 58.84375 270.36523 L 58.011719 270.375 L 57.179688 270.38477 L 56.630859 272.32422 C 56.329137 273.39054 56.07388 274.2718 56.0625 274.2832 C 56.039209 274.30649 56.053082 274.3465 55.716797 273.23047 C 55.580243 272.77729 55.417812 272.24647 55.357422 272.05078 C 55.297033 271.85508 55.158121 271.40151 55.048828 271.04102 L 54.851562 270.38477 L 54.019531 270.375 L 53.1875 270.36523 z M 48.126953 273.51172 L 48.138672 275.41211 L 48.150391 277.31445 L 48.248047 277.5625 C 48.439663 278.0556 48.692418 278.37435 49.107422 278.64258 C 49.316882 278.77796 49.668329 278.91758 49.892578 278.95508 C 49.944076 278.96378 52.701197 278.97161 56.019531 278.97461 C 61.91687 278.97961 62.058645 278.97865 62.341797 278.90625 C 62.747742 278.80242 62.976312 278.66888 63.304688 278.34375 C 63.508995 278.14147 63.622704 277.99224 63.708984 277.81055 C 63.925273 277.35512 63.934828 277.23326 63.935547 275.28125 L 63.9375 273.51172 L 62.072266 273.51172 L 60.207031 273.51172 L 60.164062 273.80859 C 59.984406 275.04122 59.11479 276.23671 57.962891 276.83398 C 57.62804 277.0076 57.077455 277.19457 56.708984 277.25977 C 56.371032 277.31957 55.621725 277.31104 55.28125 277.24414 C 53.854579 276.96389 52.655635 275.97526 52.140625 274.6543 C 51.999595 274.29257 51.876953 273.80415 51.876953 273.60742 L 51.876953 273.51172 L 50.001953 273.51172 L 48.126953 273.51172 z M 49.705078 279.39258 L 49.705078 281.04102 L 49.705078 282.6875 L 51.951172 282.6875 L 54.199219 282.6875 L 54.199219 281.04102 L 54.199219 279.39258 L 51.951172 279.39258 L 49.705078 279.39258 z M 57.869141 279.39258 L 57.869141 281.04102 L 57.869141 282.6875 L 60.117188 282.6875 L 62.363281 282.6875 L 62.363281 281.04102 L 62.363281 279.39258 L 60.117188 279.39258 L 57.869141 279.39258 z M 44.779297 283.0625 C 41.661535 283.0625 41.990125 283.01281 42.160156 283.46484 C 42.393195 284.08438 42.818707 284.69044 43.341797 285.14648 C 44.153814 285.85441 45.217309 286.28354 46.521484 286.42969 C 46.675978 286.44699 46.957895 286.4638 47.148438 286.4668 L 47.494141 286.4707 L 47.494141 284.76758 L 47.494141 283.0625 L 44.779297 283.0625 z M 57.71875 283.0625 L 57.71875 283.17578 C 57.71875 283.3024 57.435048 287.35881 57.398438 287.75391 L 57.375 288.00586 L 60.667969 288.00586 L 63.960938 288.00586 L 63.916016 287.73438 C 63.834763 287.23964 63.109384 283.19571 63.089844 283.12891 C 63.071814 283.06731 62.910237 283.0625 60.394531 283.0625 L 57.71875 283.0625 z M 64.574219 283.0625 L 64.574219 284.76758 L 64.574219 286.4707 L 64.855469 286.4707 C 65.806668 286.4707 66.939799 286.21318 67.722656 285.81836 C 68.754747 285.29785 69.535077 284.4568 69.908203 283.46484 C 70.078234 283.01277 70.406824 283.0625 67.289062 283.0625 L 64.574219 283.0625 z M 48.976562 283.08203 L 48.558594 285.42188 C 48.328446 286.70933 48.130251 287.81777 48.119141 287.88477 L 48.099609 288.00586 L 51.392578 288.00586 L 54.685547 288.00586 L 54.662109 287.73438 C 54.649925 287.58502 54.571728 286.4785 54.486328 285.27344 L 54.330078 283.08203 L 51.652344 283.08203 L 48.976562 283.08203 z M 55.097656 288.38086 L 51.474609 288.38281 L 47.851562 288.38477 L 47.251953 288.84375 L 46.652344 289.30469 L 46.642578 289.81641 L 46.630859 290.32812 L 50.865234 290.32812 L 55.097656 290.32812 L 55.097656 289.35352 L 55.097656 288.38086 z M 56.970703 288.38086 L 56.970703 289.35547 L 56.970703 290.32812 L 61.203125 290.32812 L 65.435547 290.32812 L 65.435547 289.82617 L 65.435547 289.32227 L 64.818359 288.85156 L 64.201172 288.38086 L 60.585938 288.38086 L 56.970703 288.38086 z "
       style="fill:#000000;stroke-width:0.03745318"
       id="path826"
       d="m 56.052734,260.34766 c -0.485665,-4e-4 -0.88694,0.0189 -1.048828,0.0488 -1.493833,0.27572 -2.558695,0.82432 -3.576172,1.8418 -0.560108,0.5601 -0.88855,1.01186 -1.21289,1.66797 -0.405006,0.81929 -0.608158,1.5635 -0.648438,2.38672 l -0.02344,0.47851 h 6.486328 6.484375 v -0.27148 c -9.2e-4,-0.36404 -0.09304,-0.98195 -0.207031,-1.40039 -0.653079,-2.39723 -2.566717,-4.16838 -5.042969,-4.66602 -0.36019,-0.0724 -0.543555,-0.0853 -1.210938,-0.0859 z m -3.77539,2.83203 c 0.246436,-0.0471 0.308712,-0.0409 0.675781,0.0762 0.298098,0.0951 0.621976,0.39562 0.78125,0.72461 0.09585,0.19799 0.108522,0.26551 0.107422,0.5625 -0.0012,0.31783 -0.0086,0.35267 -0.144531,0.60937 -0.195972,0.36996 -0.456126,0.58668 -0.839844,0.70313 -0.211829,0.0639 -0.526241,0.0662 -0.75586,0.004 -0.614697,-0.16678 -1.090192,-0.90812 -0.974609,-1.51758 0.117228,-0.61814 0.541038,-1.04559 1.150391,-1.16211 z m 7.708984,0.0508 c 0.295048,0.12089 0.392578,0.17308 0.392578,0.20898 0,0.0201 0.04259,0.0568 0.09375,0.0801 0.128741,0.0587 0.342576,0.38171 0.416016,0.62891 0.07958,0.26787 0.0515,0.69761 -0.06055,0.94726 -0.08418,0.18755 -0.35179,0.49235 -0.539063,0.61133 -0.06002,0.0381 -0.194848,0.0982 -0.298828,0.13477 -0.176884,0.0623 -0.536493,0.0832 -0.716796,0.041 -0.0412,-0.01 -0.180067,-0.0672 -0.308594,-0.1289 -0.249455,-0.11972 -0.476191,-0.35397 -0.644532,-0.66602 -0.168212,-0.31183 -0.134044,-0.97913 0.06055,-1.20312 0.02825,-0.0326 0.05078,-0.073 0.05078,-0.0879 0,-0.0386 0.200991,-0.28516 0.232421,-0.28516 0.01439,0 0.06848,-0.0391 0.121094,-0.0879 0.244938,-0.22699 0.872229,-0.32819 1.201172,-0.19336 z m -3.974609,4.02734 c -6.539687,7.1e-4 -6.228608,-0.009 -6.712891,0.22852 -0.451089,0.22152 -0.883792,0.7177 -1.068359,1.22461 -0.07469,0.20512 -0.07832,0.29654 -0.08984,2.30078 l -0.01172,2.08789 h 1.84961 1.851562 l 0.02734,-0.28906 c 0.16177,-1.80685 1.369593,-3.26 3.115234,-3.7461 0.341971,-0.0951 0.421549,-0.10144 1.0625,-0.10156 0.647489,-1.1e-4 0.716412,0.006 1.066406,0.10547 1.4007,0.3962 2.475839,1.41693 2.921876,2.77734 0.09651,0.29437 0.204647,0.89505 0.205078,1.13282 v 0.12109 h 1.855468 1.853516 l -0.002,-1.95703 c -5.1e-4,-1.55732 -0.01183,-2.00866 -0.05469,-2.21094 -0.171132,-0.80762 -0.876182,-1.49756 -1.669921,-1.63281 -0.175159,-0.0298 -1.970094,-0.0415 -6.199219,-0.041 z m -8.330078,1.78907 -0.908203,0.0195 c -1.162527,0.0255 -1.583326,0.11265 -2.34961,0.48632 -0.945039,0.46084 -1.760112,1.30609 -2.28125,2.36719 -0.450394,0.91705 -0.529877,1.28695 -0.554687,2.57617 l -0.01953,1.00196 h 0.810547 0.808594 v 0.76757 0.76758 h -0.240234 -0.242188 l -0.02148,0.15821 c -0.05028,0.35763 -0.619141,5.2961 -0.619141,5.375 v 0.084 h 2.714844 c 2.148499,0 2.714691,-0.01 2.712891,-0.0469 -0.0012,-0.0258 -0.02256,-0.22317 -0.04883,-0.43946 -0.02627,-0.2163 -0.172182,-1.45881 -0.324218,-2.76172 l -0.277344,-2.36914 h -0.234375 -0.236328 v -0.76758 -0.76757 h 0.65625 0.654297 v -3.22657 z m 16.705078,0.008 v 3.2207 3.22266 h 0.654297 0.65625 v 0.76757 0.76758 h -0.234375 -0.236329 l -0.3125,2.6875 c -0.171697,1.47799 -0.319478,2.7417 -0.330078,2.8086 l -0.01953,0.12109 h 2.71875 2.720703 v -0.0879 c 0,-0.0806 -0.56706,-4.99988 -0.61914,-5.37109 l -0.02148,-0.15821 h -0.242187 -0.240235 v -0.76758 -0.76757 h 0.808594 0.810547 l -0.01953,-1.00196 c -0.01394,-0.72465 -0.0348,-1.07427 -0.07813,-1.26367 -0.453407,-1.98204 -1.863743,-3.54322 -3.619141,-4.00586 -0.50279,-0.13251 -0.88779,-0.17187 -1.693359,-0.17187 z m -11.199219,1.31054 v 2.75391 2.75195 h 0.5625 0.5625 v -1.82421 l 0.002,-1.82618 0.109375,0.42578 c 0.06015,0.23469 0.150512,0.55619 0.201172,0.7129 0.05066,0.15669 0.254676,0.7856 0.453125,1.39843 l 0.361328,1.11328 h 0.558594 0.558594 l 0.43164,-1.32031 c 0.237277,-0.72685 0.480456,-1.50656 0.541016,-1.73242 l 0.109375,-0.41016 0.0039,1.73047 0.002,1.73242 h 0.59961 0.599609 v -2.75195 -2.75391 l -0.832031,0.01 -0.832031,0.01 -0.548829,1.93945 c -0.301722,1.06632 -0.556979,1.94758 -0.568359,1.95898 -0.02329,0.0233 -0.0094,0.0633 -0.345703,-1.05273 -0.136554,-0.45318 -0.298985,-0.984 -0.359375,-1.17969 -0.06039,-0.1957 -0.199301,-0.64927 -0.308594,-1.00976 l -0.197266,-0.65625 -0.832031,-0.01 z m -5.060547,3.14649 0.01172,1.90039 0.01172,1.90234 0.09766,0.24805 c 0.191616,0.4931 0.444371,0.81185 0.859375,1.08008 0.20946,0.13538 0.560907,0.275 0.785156,0.3125 0.0515,0.009 2.808619,0.0165 6.126953,0.0195 5.897339,0.005 6.039114,0.004 6.322266,-0.0684 0.405945,-0.10383 0.634515,-0.23737 0.962891,-0.5625 0.204307,-0.20228 0.318016,-0.35151 0.404296,-0.5332 0.216289,-0.45543 0.225844,-0.57729 0.226563,-2.5293 l 0.002,-1.76953 h -1.865234 -1.865235 l -0.04297,0.29687 c -0.179656,1.23263 -1.049272,2.42812 -2.201171,3.02539 -0.334851,0.17362 -0.885436,0.36059 -1.253907,0.42579 -0.337952,0.0598 -1.087259,0.0513 -1.427734,-0.0156 -1.426671,-0.28025 -2.625615,-1.26888 -3.140625,-2.58984 -0.14103,-0.36173 -0.263672,-0.85015 -0.263672,-1.04688 v -0.0957 h -1.875 z m 1.578125,5.88086 v 1.64844 1.64648 h 2.246094 2.248047 v -1.64648 -1.64844 h -2.248047 z m 8.164063,0 v 1.64844 1.64648 h 2.248047 2.246093 v -1.64648 -1.64844 h -2.246093 z m -13.089844,3.66992 c -3.117762,0 -2.789172,-0.0497 -2.619141,0.40234 0.233039,0.61954 0.658551,1.2256 1.181641,1.68164 0.812017,0.70793 1.875512,1.13706 3.179687,1.28321 0.154494,0.0173 0.436411,0.0341 0.626954,0.0371 l 0.345703,0.004 v -1.70312 -1.70508 z m 12.939453,0 v 0.11328 c 0,0.12662 -0.283702,4.18303 -0.320312,4.57813 l -0.02344,0.25195 h 3.292969 3.292969 l -0.04492,-0.27148 c -0.08125,-0.49474 -0.806632,-4.53867 -0.826172,-4.60547 -0.01803,-0.0616 -0.179607,-0.0664 -2.695313,-0.0664 z m 6.855469,0 v 1.70508 1.70312 h 0.28125 c 0.951199,0 2.08433,-0.25752 2.867187,-0.65234 1.032091,-0.52051 1.812421,-1.36156 2.185547,-2.35352 0.170031,-0.45207 0.498621,-0.40234 -2.619141,-0.40234 z m -15.597657,0.0195 -0.417968,2.33985 c -0.230148,1.28745 -0.428343,2.39589 -0.439453,2.46289 l -0.01953,0.12109 h 3.292969 3.292969 l -0.02344,-0.27148 c -0.01218,-0.14936 -0.09038,-1.25588 -0.175781,-2.46094 l -0.15625,-2.19141 h -2.677734 z m 6.121094,5.29883 -3.623047,0.002 -3.623047,0.002 -0.599609,0.45898 -0.599609,0.46094 -0.0098,0.51172 -0.01172,0.51171 h 4.234375 4.232422 v -0.9746 z m 1.873047,0 v 0.97461 0.97265 h 4.232422 4.232422 v -0.50195 -0.5039 l -0.617188,-0.47071 -0.617187,-0.4707 h -3.615234 z"
       transform="matrix(0.94267626,0,0,0.94267626,-38.317175,22.44551)" />
    <path
       style="color:#000000;font-style:normal;font-variant:normal;font-weight:normal;font-stretch:normal;font-size:medium;line-height:normal;font-family:sans-serif;font-variant-ligatures:normal;font-variant-position:normal;font-variant-caps:normal;font-variant-numeric:normal;font-variant-alternates:normal;font-feature-settings:normal;text-indent:0;text-align:start;text-decoration:none;text-decoration-line:none;text-decoration-style:solid;text-decoration-color:#000000;letter-spacing:normal;word-spacing:normal;text-transform:none;writing-mode:lr-tb;direction:ltr;text-orientation:mixed;dominant-baseline:auto;baseline-shift:baseline;text-anchor:start;white-space:normal;shape-padding:0;clip-rule:nonzero;display:inline;overflow:visible;visibility:visible;opacity:1;isolation:auto;mix-blend-mode:normal;color-interpolation:sRGB;color-interpolation-filters:linearRGB;solid-color:#000000;solid-opacity:1;vector-effect:none;fill:none;fill-opacity:1;fill-rule:nonzero;stroke:#000000;stroke-width:0.03530622;stroke-linecap:butt;stroke-linejoin:miter;stroke-miterlimit:4;stroke-dasharray:none;stroke-dashoffset:0;stroke-opacity:1;color-rendering:auto;image-rendering:auto;shape-rendering:auto;text-rendering:auto;enable-background:accumulate"
       d="m 14.522374,267.01785 c 0.639836,5.6e-4 0.934381,0.0204 1.309068,0.0957 2.633866,0.52932 4.710764,2.44742 5.409339,5.01165 0.132911,0.48789 0.221553,1.05582 0.222781,1.54106 v 0.002 0.25592 c -1.05e-4,0.0484 -0.0027,0.096 -0.01105,0.14362 v 0.002 h -0.0019 v 0.002 c -1e-6,2e-5 -3.2e-5,9.4e-4 0,0.002 l -0.0019,0.006 0.01105,0.008 c 0,0 0.0053,-0.01 0.0074,-0.0129 1.39e-4,-2e-4 0.0018,1.4e-4 0.0019,0 l -0.0092,0.0129 v 0.002 c 0.43202,0.28314 0.739445,0.65209 0.96293,1.12679 l 0.0056,0.011 h 0.613108 c 0.787,0 1.276448,0.0463 1.813546,0.1878 2.002858,0.52786 3.53341,2.26343 4.024783,4.41144 0.07869,0.34392 0.08054,0.66983 0.0939,1.3643 l 0.01841,0.94452 c 0.0088,0.47662 -0.373913,0.86695 -0.850619,0.86718 h -0.462132 l 0.02577,0.0294 c 0.113028,0.12617 0.186528,0.28331 0.209894,0.45109 l 0.01841,0.14544 v 0.004 h 0.0019 c 0.03769,0.26921 0.171456,1.4412 0.311157,2.65312 0.06995,0.60679 0.138634,1.20504 0.18964,1.65704 0.0255,0.22598 0.04582,0.4156 0.06076,0.55235 0.0074,0.0685 0.01417,0.12252 0.01841,0.16387 0.0021,0.0198 0.0021,0.0376 0.0037,0.0552 0.0021,0.0223 0.0056,-0.0319 0.0056,0.0976 v 0.0829 c -1.11e-4,0.13624 -0.03303,0.27122 -0.09574,0.39217 l -0.0019,0.006 0.0019,0.006 c 0.01003,0.0449 0.03755,0.085 0.06076,0.12152 0.02321,0.0365 0.03897,0.0691 0.03682,0.0902 -0.02447,0.24025 -0.05898,0.34813 -0.08654,0.39585 -0.01377,0.0239 -0.02564,0.0325 -0.03314,0.0369 -0.0038,0.002 -0.0055,0.004 -0.0092,0.006 -0.0019,7.4e-4 -0.0063,0.003 -0.0074,0.004 -5.01e-4,3.3e-4 -0.0052,0.004 -0.0056,0.004 -3.44e-4,3.9e-4 -0.0035,0.007 -0.0037,0.008 -0.433678,1.15295 -1.324478,2.09983 -2.472682,2.6789 -0.90047,0.45413 -2.036828,0.70517 -3.087631,0.70517 h -0.07918 l 0.0037,0.0221 c 0.0051,0.0299 0.02803,0.16058 0.0313,0.18044 l 0.02025,0.12704 0.504479,0.38664 0.581808,0.44373 c 0.211614,0.16129 0.335295,0.41146 0.335092,0.67754 v 0.47502 0.47317 c -3.12e-4,0.4703 -0.380329,0.85032 -0.850618,0.85063 h -3.989801 -3.989801 c -5.7553444,4e-5 3.989801,0 -1.765542,4e-5 h -3.9898024 -3.9916438 c -0.4781537,-2e-4 -0.8614345,-0.39284 -0.8506173,-0.87088 l 0.011048,-0.48053 0.00924,-0.48055 c 0.005,-0.25847 0.1266146,-0.49955 0.3314091,-0.6573 l 0.5652381,-0.43636 h 0.00189 l 0.00189,-0.002 0.4952737,-0.37928 v -0.006 c 0.00405,-0.0245 0.044655,-0.25387 0.053393,-0.30379 l 0.00368,-0.0203 -0.1436111,-0.004 h -0.00368 c -0.2166695,-0.004 -0.4747016,-0.0182 -0.6738665,-0.0405 -1.3618212,-0.1526 -2.5467922,-0.61481 -3.461389,-1.41217 -0.6025285,-0.5253 -1.07582552,-1.19503 -1.35141504,-1.9277 -1.7911e-4,-4.7e-4 -0.003299,-0.007 -0.003676,-0.008 -3.4408e-4,-3.9e-4 -0.004996,-0.004 -0.005562,-0.004 -0.001037,-6.5e-4 -0.005468,-0.003 -0.007353,-0.004 -0.003771,-0.002 -0.005468,-0.004 -0.009238,-0.006 -0.007541,-0.005 -0.0193626,-0.013 -0.0331445,-0.0369 -0.0275544,-0.0477 -0.0620564,-0.15559 -0.0865377,-0.39585 -0.002168,-0.0214 0.0136499,-0.0534 0.0368209,-0.0902 0.023171,-0.0368 0.050584,-0.0782 0.0607555,-0.12336 l 0.001885,-0.006 -0.001885,-0.006 c -0.062424,-0.12041 -0.0953423,-0.25469 -0.095741,-0.39032 v -0.0792 c 0,-0.13259 0.003488,-0.075 0.005562,-0.0976 0.001603,-0.0176 0.001603,-0.0355 0.003676,-0.0553 0.004242,-0.0414 0.0109162,-0.0971 0.0184105,-0.1657 0.0149508,-0.13687 0.0370283,-0.32567 0.0626031,-0.55235 0.0511402,-0.45326 0.11959073,-1.05444 0.18964006,-1.66257 0.13991296,-1.21463 0.27170858,-2.38135 0.30931658,-2.64944 l 0.022096,-0.14913 h -0.00189 c 0.023369,-0.16778 0.096866,-0.32491 0.2098925,-0.45109 l 0.025773,-0.0294 h -0.46213385 c -0.47670573,-2.4e-4 -0.85938139,-0.39056 -0.85061733,-0.86719 l 0.01841047,-0.94451 c 0.02399111,-1.24665 0.16269933,-1.87796 0.60942512,-2.78753 0.56731579,-1.15512 1.45444669,-2.09022 2.54080849,-2.61998 0.7852588,-0.38292 1.4368674,-0.52007 2.5702649,-0.54498 l 0.7327838,-0.0166 0.00556,-0.009 c 0.2315665,-0.491 0.578675,-0.89276 1.0347352,-1.18571 l 0.00924,-0.006 v -0.011 c -0.00434,-0.0419 -0.00556,-0.0849 -0.00368,-0.12704 l 0.022096,-0.45108 c 0.04357,-0.89049 0.2772354,-1.73051 0.699643,-2.585 0.3380493,-0.68384 0.7314979,-1.22494 1.3035431,-1.79697 1.0608014,-1.06082 2.2833794,-1.68854 3.8185744,-1.97189 0.337144,-0.0623 0.662054,-0.0593 1.143361,-0.0589 z"
       id="path866"
       inkscape:connector-curvature="0"
       sodipodi:nodetypes="cccccccccccccccccccscccccccccccsccccscccccccccccccscccccccccccccccccccccccccccccccccscccsccccsccccccccccccccsccccccccccccc" />
  </g>
</svg>
