<?xml version="1.0" encoding="UTF-8" standalone="no"?>
<!-- Created with Inkscape (http://www.inkscape.org/) -->

<svg
   xmlns:dc="http://purl.org/dc/elements/1.1/"
   xmlns:cc="http://creativecommons.org/ns#"
   xmlns:rdf="http://www.w3.org/1999/02/22-rdf-syntax-ns#"
   xmlns:svg="http://www.w3.org/2000/svg"
   xmlns="http://www.w3.org/2000/svg"
   xmlns:sodipodi="http://sodipodi.sourceforge.net/DTD/sodipodi-0.dtd"
   xmlns:inkscape="http://www.inkscape.org/namespaces/inkscape"
   width="210mm"
   height="297mm"
   viewBox="0 0 210 297"
   version="1.1"
   id="svg8"
   inkscape:version="0.92.3 (2405546, 2018-03-11)"
   sodipodi:docname="makey-soldering-kit.svg">
  <defs
     id="defs2" />
  <sodipodi:namedview
     id="base"
     pagecolor="#ffffff"
     bordercolor="#666666"
     borderopacity="1.0"
     inkscape:pageopacity="0.0"
     inkscape:pageshadow="2"
     inkscape:zoom="2"
     inkscape:cx="120.13848"
     inkscape:cy="182.80001"
     inkscape:document-units="mm"
     inkscape:current-layer="layer1"
     showgrid="false"
     inkscape:window-width="1920"
     inkscape:window-height="996"
     inkscape:window-x="-8"
     inkscape:window-y="-8"
     inkscape:window-maximized="1" />
  <metadata
     id="metadata5">
    <rdf:RDF>
      <cc:Work
         rdf:about="">
        <dc:format>image/svg+xml</dc:format>
        <dc:type
           rdf:resource="http://purl.org/dc/dcmitype/StillImage" />
        <dc:title></dc:title>
      </cc:Work>
    </rdf:RDF>
  </metadata>
  <g
     inkscape:label="Layer 1"
     inkscape:groupmode="layer"
     id="layer1">
    <path
       inkscape:connector-curvature="0"
       id="path871"
       d="m 7.9738499,289.21156 v -0.59205 l 0.7724374,-0.58263 0.7724355,-0.58265 h 4.7094272 4.709424 v 1.17469 1.17468 h -5.481862 -5.4818621 z m 13.6142951,-0.58264 v -1.17469 h 4.709425 4.709426 l 0.772439,0.58265 0.772439,0.58263 v 0.59205 0.59204 h -5.481869 -5.48186 z m -11.6573663,-2.06323 c 0.021902,-0.12427 0.2751863,-1.54065 0.5628443,-3.14756 l 0.523013,-2.92164 3.445606,-0.0156 3.445605,-0.0156 0.03056,0.19627 c 0.0168,0.10799 0.113613,1.40258 0.215119,2.87696 0.101506,1.47438 0.200006,2.80946 0.21888,2.96683 l 0.03432,0.28615 h -4.257884 -4.2578837 z m 12.2252653,-0.0301 c 0.01821,-0.1408 0.115694,-1.47588 0.216625,-2.96683 0.100933,-1.49094 0.197387,-2.79914 0.214355,-2.90708 l 0.03083,-0.19627 3.445604,0.0156 3.445605,0.0156 0.523015,2.92165 c 0.287657,1.60691 0.540935,3.02331 0.56284,3.14755 l 0.03985,0.22591 h -4.255925 -4.255921 z m 9.492224,-3.90205 v -2.16715 h 3.488313 3.488312 l -0.03272,0.13554 c -0.06064,0.25121 -0.425162,0.9995 -0.658304,1.35134 -1.047214,1.58033 -3.093149,2.63635 -5.351876,2.76235 -0.331322,0.0185 -0.676954,0.0453 -0.768068,0.0593 l -0.165664,0.0257 z m -19.698561,-4.96833 v -2.07828 h 2.891532 2.891531 v 2.07828 2.07829 h -2.891531 -2.891532 z m 10.843241,0 v -2.07828 h 2.891533 2.89153 v 2.07828 2.07829 h -2.89153 -2.891533 z m 8.85532,2.03205 c 0,-0.0627 0.770032,-6.66478 0.814519,-6.98363 0.03529,-0.25273 0.03545,-0.25287 0.318208,-0.27107 l 0.282927,-0.0183 v -1.05421 -1.05419 l -0.828305,-0.0168 -0.82831,-0.0168 v -4.18501 -4.18499 l 0.587344,5.4e-4 c 2.400596,0.003 3.867635,0.52836 5.196031,1.86389 0.979327,0.9846 1.662049,2.25753 1.956597,3.64809 0.06171,0.29128 0.08953,0.79693 0.09025,1.63957 l 7.58e-4,1.21841 -1.009028,0.0165 -1.009027,0.0165 v 1.0542 1.05421 l 0.282927,0.0183 c 0.282783,0.0183 0.282941,0.0184 0.318208,0.27108 0.04448,0.31885 0.814519,6.92102 0.814519,6.98364 0,0.0255 -1.572281,0.0463 -3.493953,0.0463 -1.921674,0 -3.493961,-0.0208 -3.493961,-0.0463 z m -19.752499,-4.92854 c -0.971456,-0.26124 -1.73913,-1.10607 -1.9327414,-2.12698 -0.034942,-0.18424 -0.061493,-1.29598 -0.061493,-2.575 v -2.2508 h 2.3665814 2.366584 l 0.108001,0.53428 c 0.254437,1.25875 0.990647,2.44795 2.030541,3.27997 1.487315,1.19 3.46085,1.54217 5.263434,0.93926 0.670797,-0.22437 1.159697,-0.49295 1.747329,-0.95993 1.044433,-0.82997 1.823125,-2.12398 2.029264,-3.3722 l 0.06959,-0.42138 h 2.370662 2.370662 v 2.2508 c 0,1.27902 -0.02656,2.39076 -0.06148,2.575 -0.142326,0.75045 -0.696473,1.54362 -1.312838,1.87907 -0.658611,0.35847 -0.263646,0.3436 -9.014713,0.33928 -6.804859,-0.003 -8.063405,-0.0172 -8.339373,-0.0913 z m 4.692436,-7.55518 v -3.55417 h 1.024084 c 0.563247,0 1.024085,0.0107 1.024085,0.0223 0,0.0933 1.579867,5.19614 1.62171,5.23798 0.03164,0.0316 0.07739,0.008 0.110906,-0.058 0.03137,-0.0616 0.379518,-1.25707 0.773645,-2.65676 l 0.716594,-2.54486 1.039144,-3.1e-4 1.039146,-3e-4 v 3.55417 3.55418 h -0.722884 -0.722883 v -2.40605 c 0,-1.55031 -0.02159,-2.4194 -0.06067,-2.44356 -0.06993,-0.0432 -0.06665,-0.0525 -0.23178,0.66291 -0.06883,0.29818 -0.390353,1.36167 -0.714522,2.36329 l -0.589399,1.8211 -0.672734,8.9e-4 -0.672735,8.9e-4 -0.181788,-0.55723 c -0.761474,-2.33409 -0.998847,-3.09721 -1.123347,-3.61138 -0.293393,-1.21169 -0.331286,-1.01007 -0.331286,1.76255 v 2.40606 h -0.662643 -0.662642 v -3.55418 z m -9.4072332,3.00901 c -2.2229324,-0.19784 -4.0745522,-1.50221 -5.1464392,-3.62539 -0.5909353,-1.17052 -0.7473555,-1.906 -0.7473555,-3.51395 v -1.16797 l 1.0391449,-0.0165 1.0391452,-0.0165 v -1.05421 -1.0542 l -0.3162614,-0.0183 c -0.1739431,-0.0107 -0.3162623,-0.0311 -0.3162623,-0.0467 0,-0.0523 -0.7785674,-6.73802 -0.8149513,-6.99825 l -0.035797,-0.25603 h 3.4976286 c 2.793321,0 3.4976297,0.0155 3.4976297,0.0768 0,0.10907 -0.7750592,6.78064 -0.8147629,7.01333 -0.03094,0.18131 -0.04946,0.19363 -0.3168704,0.21083 l -0.2840154,0.0183 v 1.05419 1.05421 l 0.8283053,0.0168 0.8283047,0.0168 v 4.18499 4.185 l -0.7078243,-0.008 c -0.3893034,-0.004 -0.9426332,-0.0293 -1.2296208,-0.0548 z m 2.7214576,-5.64381 c 9.777e-4,-2.70929 0.024391,-2.96599 0.3247606,-3.55876 0.351298,-0.69324 1.107999,-1.25059 1.896399,-1.39679 0.442418,-0.082 15.836124,-0.082 16.278539,0 0.79224,0.14692 1.545061,0.70347 1.900613,1.40511 0.290161,0.57261 0.319262,0.89773 0.320393,3.57985 l 7.58e-4,2.48491 h -2.345678 -2.345677 l -0.03597,-0.28614 c -0.12096,-0.96203 -0.242043,-1.396 -0.575676,-2.06322 -0.580397,-1.16075 -1.554241,-2.10775 -2.718367,-2.64343 -0.889151,-0.40916 -1.148946,-0.45923 -2.370062,-0.45672 -1.05714,0.003 -1.098671,0.007 -1.656606,0.19468 -0.849138,0.2856 -1.496832,0.67748 -2.151014,1.30144 -1.047559,0.99917 -1.634546,2.15657 -1.752268,3.45502 l -0.04245,0.46825 -2.364428,0.0157 -2.3644294,0.0157 8.889e-4,-2.51573 z m 1.8915596,-6.32593 c 0.222959,-2.82699 1.737291,-5.25911 4.167366,-6.69309 0.863875,-0.50977 2.293356,-0.99037 3.196596,-1.0747 0.212249,-0.0199 0.400187,-0.0592 0.417641,-0.0873 0.04143,-0.0671 1.333105,-0.0671 1.374534,0 0.01745,0.0283 0.205391,0.0676 0.41764,0.0873 0.903244,0.0843 2.332721,0.56493 3.196599,1.0747 2.430073,1.43398 3.944405,3.8661 4.167364,6.69309 l 0.04157,0.5271 h -8.510441 -8.510441 z m 4.357666,-0.5885 c 0.455467,-0.13526 0.868549,-0.49004 1.092578,-0.93836 0.160819,-0.32183 0.187336,-0.44038 0.187336,-0.83758 0,-0.39584 -0.02669,-0.51611 -0.184838,-0.83256 -0.70952,-1.41988 -2.72816,-1.35892 -3.388211,0.10227 -0.17322,0.38346 -0.174127,1.07506 -0.0019,1.45619 0.40652,0.89967 1.349095,1.33089 2.295042,1.04999 z m 9.580718,-0.0823 c 0.392797,-0.20133 0.713536,-0.52285 0.898304,-0.90051 0.215816,-0.4411 0.231417,-1.09193 0.03652,-1.52337 -0.523909,-1.15985 -2.000934,-1.50147 -2.956248,-0.68376 -0.137238,0.11747 -0.329315,0.37601 -0.431961,0.58144 -0.158141,0.31644 -0.184839,0.43672 -0.184839,0.83256 0,0.39608 0.02667,0.51603 0.185271,0.83343 0.218115,0.43649 0.585492,0.76395 1.038753,0.92589 0.416204,0.1487 1.053704,0.11906 1.4142,-0.0656 z m -23.6974572,-6.2336 c 0.4991414,-1.32609 1.4782732,-2.38391 2.8365586,-3.06454 0.7289749,-0.36529 1.8615249,-0.68596 2.8162345,-0.79738 l 0.3463812,-0.0404 v -5.50766 -5.50764 h 9.8793999 9.879398 v 5.06019 5.06016 h -9.758917 -9.7589188 v 0.45948 0.45945 l 0.3012017,-0.0289 0.3012016,-0.0289 v 2.15981 2.15978 h -3.4934208 -3.4934191 z m 11.0593562,-9.85746 v -4.81921 h -2.40961 -2.4096098 v 4.81921 4.81922 h 2.4096098 2.40961 z m 14.457655,0 v -4.81921 h -2.409609 -2.40961 v 4.81921 4.81922 h 2.40961 2.409609 z m -9.345803,4.13678 c 0.04251,-0.0512 0.06469,-0.41064 0.0616,-0.99799 -0.0027,-0.50488 0.0047,-0.92504 0.01625,-0.93368 0.0116,-0.008 0.346369,0.032 0.743955,0.0903 1.019192,0.14954 0.937509,0.16594 0.83697,-0.16813 -0.04672,-0.15527 -0.06987,-0.3247 -0.05141,-0.3765 0.01845,-0.0519 0.43868,-0.41951 0.933844,-0.81708 0.495163,-0.39759 0.900466,-0.74147 0.900674,-0.76417 1.79e-4,-0.0227 -0.09451,-0.0755 -0.210465,-0.11746 -0.256782,-0.0928 -0.260461,-0.14361 -0.06255,-0.86297 0.08155,-0.29646 0.142493,-0.54483 0.135397,-0.55192 -0.0071,-0.007 -0.256691,0.0369 -0.554655,0.0979 -0.603485,0.12334 -0.659455,0.10668 -0.719434,-0.21297 -0.02153,-0.1148 -0.06216,-0.2087 -0.09028,-0.2087 -0.02812,0 -0.246629,0.21687 -0.485574,0.48192 -0.238945,0.26508 -0.472237,0.48194 -0.518425,0.48194 -0.121866,0 -0.106333,-0.27204 0.06695,-1.17213 0.20728,-1.07671 0.215668,-1.03169 -0.157028,-0.84283 -0.169014,0.0856 -0.338441,0.14357 -0.376502,0.1288 -0.03805,-0.0149 -0.21562,-0.30132 -0.394574,-0.63663 -0.178953,-0.33531 -0.344279,-0.60964 -0.36739,-0.60964 -0.02311,0 -0.188435,0.27433 -0.367391,0.60964 -0.178954,0.33531 -0.356512,0.62179 -0.394574,0.63663 -0.03805,0.0149 -0.207486,-0.0431 -0.376502,-0.1288 -0.372693,-0.18886 -0.364307,-0.23388 -0.157027,0.84283 0.173283,0.90009 0.188823,1.17213 0.06696,1.17213 -0.04619,0 -0.27948,-0.21686 -0.518424,-0.48194 -0.238945,-0.26505 -0.457455,-0.48192 -0.485576,-0.48192 -0.02813,0 -0.06875,0.0939 -0.09028,0.2087 -0.05997,0.3197 -0.115947,0.33629 -0.719435,0.21297 -0.297965,-0.0609 -0.547559,-0.10492 -0.554655,-0.0979 -0.0071,0.007 0.05383,0.25546 0.135397,0.55192 0.192307,0.69896 0.189821,0.73285 -0.06255,0.85319 -0.11596,0.0553 -0.210672,0.11586 -0.210464,0.13457 1.8e-4,0.0188 0.405509,0.35932 0.900672,0.75691 0.495165,0.39757 0.9147,0.76354 0.932304,0.81324 0.0176,0.0497 -0.0069,0.21912 -0.05443,0.37651 -0.05751,0.19035 -0.06479,0.28614 -0.02175,0.28614 0.06808,0 1.227139,-0.1607 1.510855,-0.20948 l 0.165662,-0.0283 v 0.98241 c 0,0.54034 0.01807,1.0005 0.04016,1.02258 0.07201,0.072 0.485529,0.0423 0.553675,-0.0399 z"
       style="fill:#000000;stroke-width:0.06024024"
       sodipodi:nodetypes="cccccccccccccccccccccccscccccccccccscccccccccccccccccccccccccccccccccccccccccccccccccccccccccccssccccsccccccsccccscccccccssccscccccccscsscccscscccccccscccccssccsscccccccccccccccsscccccscccccccccccsccccscccccccsccccccccccsccccccccccccccccccccccccccccccccccccccccccccccccccccccccscsccccsccccscscccccccccsccsccc"
       inkscape:export-xdpi="600"
       inkscape:export-ydpi="600" />
    <path
       style="fill:none;fill-opacity:1;stroke:#000000;stroke-width:0.02008259;stroke-linecap:round;stroke-linejoin:round;stroke-miterlimit:4;stroke-dasharray:none;stroke-dashoffset:0;stroke-opacity:1"
       d="m 2.3264287,260.6416 v 0.0965 0.0557 l -0.041185,4.1e-4 -1.0390386,0.0164 c -0.55388457,0.009 -0.99826225,0.46036 -0.99824564,1.01433 v 1.16808 c 0,1.67369 0.22078286,2.71151 0.85625554,3.97025 1.2083672,2.39352 3.3966584,3.95135 5.9624105,4.17968 0.3436667,0.0305 0.8861302,0.0539 1.3073294,0.0588 h 0.00121 l 0.5001031,0.005 c 0.00235,0.15394 0.00189,0.35654 0.00508,0.49111 0.00555,0.23579 0.011987,0.43825 0.020008,0.60207 0.00801,0.16382 0.0016,0.23254 0.040791,0.4393 0.2182897,1.15105 0.9651758,2.10305 1.97884,2.62095 -0.0065,0.0449 -0.0098,0.0903 -0.0102,0.13572 v 2.07847 1.82155 c -0.458712,0.0371 -0.835012,0.37824 -0.9166593,0.83116 l -0.5232452,2.92215 c -0.2877298,1.60731 -0.5379937,3.01127 -0.5624699,3.15008 l -0.039613,0.22396 c -0.00243,0.0159 -0.00456,0.0316 -0.00629,0.0475 l -0.7495671,0.56563 -0.7734931,0.58207 c -0.2545868,0.19161 -0.4043482,0.49171 -0.4043975,0.81035 v 0.59308 0.3079 h -3.7654851 c -0.5601766,4e-5 -1.0142754,0.45415 -1.0143276,1.01434 v 5.29404 c 5.22e-5,0.56016 0.454151,1.01425 1.0143276,1.01432 h 34.1384362 c 0.560176,-7e-5 1.014275,-0.45416 1.014327,-1.01432 v -5.29404 c -5.2e-5,-0.56019 -0.454151,-1.0143 -1.014327,-1.01434 h -3.765091 v -0.3079 -0.59308 c -5.1e-5,-0.31864 -0.149813,-0.61874 -0.4044,-0.81035 l -0.773492,-0.58207 -0.748783,-0.56483 c -0.002,-0.0168 -0.0045,-0.0336 -0.0075,-0.0501 l -0.03963,-0.22201 -8.34e-4,-0.003 c -0.0045,-0.026 -0.08539,-0.47865 -0.104334,-0.58521 0.103348,0.0167 0.208667,0.0175 0.312221,0.003 l 0.165918,-0.0251 h 0.0051 c -0.106773,0.0167 0.350684,-0.0309 0.66759,-0.0487 2.539321,-0.14165 4.87258,-1.30077 6.14088,-3.21478 0.165153,-0.24922 0.318201,-0.53816 0.460093,-0.82959 0.141894,-0.29144 0.253364,-0.49138 0.338503,-0.84409 l 0.03256,-0.13533 c 0.04959,-0.20718 0.03271,-0.4247 -0.04824,-0.6217 0.01949,-0.0852 0.08825,-0.38586 0.08825,-0.38594 0,-0.13107 -0.0037,-0.0873 -0.0047,-0.0984 -9.78e-4,-0.0107 -0.0019,-0.0196 -0.0027,-0.0289 -0.002,-0.0189 -0.0041,-0.0407 -0.0071,-0.0679 -0.0059,-0.0544 -0.01443,-0.12935 -0.02509,-0.22359 -0.02132,-0.18856 -0.05173,-0.45317 -0.08825,-0.76995 -0.07303,-0.63355 -0.170715,-1.47491 -0.269859,-2.32441 -0.198291,-1.69896 -0.383251,-3.29594 -0.427147,-3.61054 -0.0088,-0.0627 -0.01267,-0.1272 -0.04747,-0.26124 -0.03477,-0.13397 -0.133808,-0.39584 -0.362036,-0.59187 -0.212816,-0.18281 -0.137222,-0.13293 -0.181211,-0.24897 v 0 -0.1012 -0.0572 h 0.01093 l 1.008835,-0.0164 c 0.554187,-0.009 0.998512,-0.46125 0.997855,-1.0155 l -0.0016,-1.21829 v 0 c -8.35e-4,-0.86426 -0.01395,-1.38487 -0.112174,-1.8486 -0.334331,-1.57839 -1.107858,-3.0246 -2.229089,-4.15187 -1.49757,-1.50562 -3.365452,-2.16154 -5.914166,-2.16398 h -8.34e-4 -0.588355 c -0.02344,4e-4 -0.04685,8.9e-4 -0.07021,0.004 -0.04295,-0.1124 -0.08123,-0.23707 -0.129441,-0.33222 -0.327619,-0.64651 -0.848185,-1.14839 -1.463049,-1.49796 0.03653,-0.1204 0.05036,-0.24644 0.04079,-0.37184 l -0.04157,-0.52795 c -0.110508,-1.40116 -0.535013,-2.70337 -1.176715,-3.86708 v -7.10069 c 0.154595,-0.18268 0.239621,-0.41415 0.24005,-0.65346 v -5.05987 -5.06105 c -5.5e-5,-0.56017 -0.454152,-1.01428 -1.014327,-1.01432 l -9.87923,-8.9e-4 -9.8789083,7.6e-4 c -0.5601745,5e-5 -1.0142728,0.45414 -1.0143272,1.01433 v 5.50859 4.6033 c -0.5120523,0.13592 -2.3247699,0.69896 -2.6024993,0.83507 -1.5597732,0.7816 -2.7413468,2.04432 -3.332062,3.61369 l -3.917e-4,8.9e-4 -0.14395134,0.384 c -0.085076,0.22743 -0.0857723,0.47778 -0.001965,0.70565 -0.0650183,0.16407 -0.0861088,0.34226 -0.061189,0.51698 l 0.0368705,0.25652 c -0.004296,-0.0303 0.0615678,0.5086 0.13924454,1.17004 0.077936,0.66364 0.1786683,1.52508 0.2780967,2.38009 0.099428,0.85502 0.1976518,1.70369 0.2710365,2.34128 0.036692,0.3188 0.067055,0.58477 0.088253,0.77192 0.0106,0.0936 0.018852,0.16757 0.024319,0.2173 0.00184,0.0168 0.00277,0.0261 0.00392,0.0369 -5.042e-4,-0.0136 -0.00118,-0.0144 -0.00118,-0.0632 0,0.3883 0.2092897,0.6387 0.3275189,0.748 0.1182296,0.10933 0.1935144,0.14285 0.2498554,0.17022 0.07346,0.0415 0.050469,0.0444 0.055699,0.1044 -3.516e-4,0.0429 0,0 0,0 z"
       id="path2080"
       inkscape:connector-curvature="0"
       sodipodi:nodetypes="ccccccsccccccsccccccccccccccccccccccccccccccccccccccscccscccccccccccccccccccsccccccccccccccccccccccccccsssscccscccc" />
    <path
       style="fill:none;fill-opacity:1;stroke:#000000;stroke-width:0.02008259;stroke-linecap:round;stroke-linejoin:round;stroke-miterlimit:4;stroke-dasharray:none;stroke-dashoffset:0;stroke-opacity:1"
       d="m 1.6945337,259.68215 c 0.00111,0.0299 0.0026,0.0224 0.00275,0.0239 2.09e-4,0.003 -2.489e-4,-8.9e-4 -7.817e-4,-0.007 -3.476e-4,-0.003 -0.00141,-0.012 -0.00196,-0.0177 z"
       id="path2078"
       inkscape:connector-curvature="0"
       sodipodi:nodetypes="ccccc" />
  </g>
</svg>
