<?xml version="1.0" encoding="UTF-8" standalone="no"?>
<!-- Created with Inkscape (http://www.inkscape.org/) -->

<svg
   xmlns:dc="http://purl.org/dc/elements/1.1/"
   xmlns:cc="http://creativecommons.org/ns#"
   xmlns:rdf="http://www.w3.org/1999/02/22-rdf-syntax-ns#"
   xmlns:svg="http://www.w3.org/2000/svg"
   xmlns="http://www.w3.org/2000/svg"
   xmlns:sodipodi="http://sodipodi.sourceforge.net/DTD/sodipodi-0.dtd"
   xmlns:inkscape="http://www.inkscape.org/namespaces/inkscape"
   width="210mm"
   height="297mm"
   viewBox="0 0 210 297"
   version="1.1"
   id="svg1460"
   inkscape:version="0.92.3 (2405546, 2018-03-11)"
   sodipodi:docname="makey-chest-mask.svg"
   inkscape:export-filename="C:\Projects\ottawa-badges-2018\artwork\makey-chest-mask.png"
   inkscape:export-xdpi="600"
   inkscape:export-ydpi="600">
  <defs
     id="defs1454" />
  <sodipodi:namedview
     id="base"
     pagecolor="#ffffff"
     bordercolor="#666666"
     borderopacity="1.0"
     inkscape:pageopacity="0.0"
     inkscape:pageshadow="2"
     inkscape:zoom="3.959798"
     inkscape:cx="57.626081"
     inkscape:cy="78.971312"
     inkscape:document-units="mm"
     inkscape:current-layer="layer1"
     showgrid="false"
     inkscape:window-width="1920"
     inkscape:window-height="996"
     inkscape:window-x="-8"
     inkscape:window-y="-8"
     inkscape:window-maximized="1" />
  <metadata
     id="metadata1457">
    <rdf:RDF>
      <cc:Work
         rdf:about="">
        <dc:format>image/svg+xml</dc:format>
        <dc:type
           rdf:resource="http://purl.org/dc/dcmitype/StillImage" />
        <dc:title></dc:title>
      </cc:Work>
    </rdf:RDF>
  </metadata>
  <g
     inkscape:label="Layer 1"
     inkscape:groupmode="layer"
     id="layer1">
    <path
       style="fill:#000000;fill-opacity:1;stroke:none;stroke-width:0.048248;stroke-linecap:round;stroke-linejoin:round;stroke-miterlimit:4;stroke-dasharray:none;stroke-dashoffset:0;stroke-opacity:1"
       d="m 3.9780516,289.09092 a 3.9776828,3.9547043 0 0 0 -3.9780516,3.95428 3.9776828,3.9547043 0 0 0 3.9780516,3.9548 3.9776828,3.9547043 0 0 0 3.977535,-3.9548 3.9776828,3.9547043 0 0 0 -3.977535,-3.95428 z m -2.6628864,1.35548 0.7844483,0.009 0.784448,0.009 0.1855184,0.61857 c 0.103028,0.33983 0.2340113,0.76739 0.2909382,0.95189 0.056928,0.18446 0.2102715,0.68487 0.3389974,1.11207 0.3170084,1.05206 0.3041232,1.01467 0.3260783,0.99271 0.010728,-0.0108 0.2509417,-0.84172 0.535368,-1.84692 l 0.517281,-1.82832 0.7844483,-0.009 0.7844483,-0.009 v 2.5957 2.59416 h -0.5653402 -0.5653402 l -0.00155,-1.63298 -0.00362,-1.63142 -0.1033529,0.38706 c -0.057089,0.21291 -0.2863709,0.94779 -0.5100465,1.63298 l -0.4066934,1.24436 h -0.5265828 -0.526583 l -0.3405476,-1.04902 c -0.1870731,-0.57772 -0.3796074,-1.17057 -0.4273639,-1.31829 -0.047756,-0.14771 -0.1329497,-0.45106 -0.1896526,-0.6723 l -0.1028361,-0.40151 -0.00207,1.72186 v 1.71926 h -0.5302001 -0.5302001 v -2.59416 z"
       id="path2049"
       inkscape:connector-curvature="0" />
  </g>
</svg>
