G04 #@! TF.FileFunction,Copper,L2,Bot,Signal*
%FSLAX46Y46*%
G04 Gerber Fmt 4.6, Leading zero omitted, Abs format (unit mm)*
G04 Created by KiCad (PCBNEW 4.0.7) date 09/06/18 00:22:22*
%MOMM*%
%LPD*%
G01*
G04 APERTURE LIST*
%ADD10C,0.100000*%
%ADD11R,0.800000X0.800000*%
%ADD12R,1.700000X1.700000*%
%ADD13O,1.700000X1.700000*%
%ADD14C,1.800000*%
%ADD15C,0.250000*%
G04 APERTURE END LIST*
D10*
D11*
X153800000Y-86000000D03*
X152200000Y-86000000D03*
X153800000Y-99000000D03*
X152200000Y-99000000D03*
X173800000Y-99000000D03*
X172200000Y-99000000D03*
X173800000Y-86000000D03*
X172200000Y-86000000D03*
D12*
X163000000Y-100000000D03*
D13*
X163000000Y-97460000D03*
X163000000Y-94920000D03*
D10*
G36*
X153553967Y-91314679D02*
X155185321Y-90553967D01*
X155946033Y-92185321D01*
X154314679Y-92946033D01*
X153553967Y-91314679D01*
X153553967Y-91314679D01*
G37*
D14*
X155823450Y-94052022D03*
D10*
G36*
X170435321Y-95196033D02*
X168803967Y-94435321D01*
X169564679Y-92803967D01*
X171196033Y-93564679D01*
X170435321Y-95196033D01*
X170435321Y-95196033D01*
G37*
D14*
X171073450Y-91697978D03*
D15*
X155823450Y-94052022D02*
X153800000Y-94052022D01*
X153800000Y-94052022D02*
X153800000Y-94050000D01*
X153800000Y-99000000D02*
X153800000Y-94050000D01*
X153800000Y-87950000D02*
X153800000Y-86000000D01*
X152750000Y-89000000D02*
X153800000Y-87950000D01*
X152750000Y-93000000D02*
X152750000Y-89000000D01*
X153800000Y-94050000D02*
X152750000Y-93000000D01*
X153800000Y-99000000D02*
X160000000Y-99000000D01*
X161540000Y-97460000D02*
X163000000Y-97460000D01*
X160000000Y-99000000D02*
X161540000Y-97460000D01*
X152200000Y-86000000D02*
X152200000Y-85050000D01*
X157000000Y-85250000D02*
X157000000Y-91750000D01*
X155750000Y-84000000D02*
X157000000Y-85250000D01*
X153250000Y-84000000D02*
X155750000Y-84000000D01*
X152200000Y-85050000D02*
X153250000Y-84000000D01*
X172200000Y-94550000D02*
X170550000Y-94550000D01*
X170550000Y-94550000D02*
X170000000Y-94000000D01*
X172200000Y-86000000D02*
X172200000Y-89450000D01*
X172200000Y-94550000D02*
X172200000Y-99000000D01*
X173000000Y-93750000D02*
X172200000Y-94550000D01*
X173000000Y-90250000D02*
X173000000Y-93750000D01*
X172200000Y-89450000D02*
X173000000Y-90250000D01*
X163000000Y-94920000D02*
X169080000Y-94920000D01*
X169080000Y-94920000D02*
X170000000Y-94000000D01*
X154750000Y-91750000D02*
X157000000Y-91750000D01*
X160170000Y-94920000D02*
X163000000Y-94920000D01*
X157000000Y-91750000D02*
X160170000Y-94920000D01*
X152200000Y-99000000D02*
X152200000Y-86000000D01*
X173800000Y-86000000D02*
X173800000Y-85050000D01*
X170500000Y-85000000D02*
X170500000Y-91124528D01*
X171500000Y-84000000D02*
X170500000Y-85000000D01*
X172750000Y-84000000D02*
X171500000Y-84000000D01*
X173800000Y-85050000D02*
X172750000Y-84000000D01*
X170500000Y-91124528D02*
X171073450Y-91697978D01*
X173800000Y-99000000D02*
X173800000Y-99700000D01*
X173500000Y-100000000D02*
X170000000Y-100000000D01*
X170000000Y-100000000D02*
X163000000Y-100000000D01*
X173800000Y-99700000D02*
X173500000Y-100000000D01*
X173800000Y-99000000D02*
X173800000Y-86000000D01*
M02*
