G04 #@! TF.FileFunction,Soldermask,Top*
%FSLAX46Y46*%
G04 Gerber Fmt 4.6, Leading zero omitted, Abs format (unit mm)*
G04 Created by KiCad (PCBNEW 4.0.7) date 09/06/18 00:22:22*
%MOMM*%
%LPD*%
G01*
G04 APERTURE LIST*
%ADD10C,0.100000*%
%ADD11C,0.010000*%
%ADD12R,2.100000X2.100000*%
%ADD13O,2.100000X2.100000*%
%ADD14C,2.200000*%
G04 APERTURE END LIST*
D10*
D11*
G36*
X163132559Y-84067440D02*
X163262785Y-84079731D01*
X163326780Y-84098330D01*
X163331000Y-84105333D01*
X163367625Y-84135684D01*
X163451228Y-84147666D01*
X163611897Y-84165032D01*
X163825490Y-84212530D01*
X164068795Y-84283262D01*
X164318598Y-84370331D01*
X164551684Y-84466836D01*
X164597968Y-84488435D01*
X165112004Y-84777944D01*
X165565028Y-85126108D01*
X165957897Y-85533785D01*
X166291466Y-86001829D01*
X166503897Y-86394365D01*
X166601544Y-86620730D01*
X166691256Y-86868869D01*
X166766135Y-87115567D01*
X166819282Y-87337611D01*
X166843800Y-87511787D01*
X166844667Y-87541105D01*
X166857562Y-87627304D01*
X166887000Y-87661333D01*
X166907616Y-87701129D01*
X166922215Y-87810582D01*
X166929045Y-87974789D01*
X166929333Y-88021166D01*
X166924651Y-88196404D01*
X166911774Y-88320499D01*
X166892456Y-88378550D01*
X166887000Y-88381000D01*
X166856648Y-88417624D01*
X166844667Y-88501228D01*
X166827301Y-88661896D01*
X166779803Y-88875490D01*
X166709070Y-89118795D01*
X166622002Y-89368598D01*
X166525496Y-89601684D01*
X166503897Y-89647967D01*
X166213710Y-90161894D01*
X165863246Y-90616562D01*
X165453607Y-91010876D01*
X164985891Y-91343742D01*
X164585222Y-91558256D01*
X164351824Y-91657523D01*
X164100644Y-91747515D01*
X163854427Y-91821484D01*
X163635917Y-91872684D01*
X163467859Y-91894367D01*
X163451228Y-91894666D01*
X163365029Y-91907562D01*
X163331000Y-91937000D01*
X163291037Y-91957284D01*
X163180412Y-91971753D01*
X163013025Y-91978864D01*
X162950000Y-91979333D01*
X162767440Y-91974892D01*
X162637215Y-91962601D01*
X162573220Y-91944002D01*
X162569000Y-91937000D01*
X162532667Y-91905556D01*
X162459636Y-91894666D01*
X162312629Y-91878355D01*
X162111195Y-91833899D01*
X161878063Y-91768015D01*
X161635962Y-91687422D01*
X161407623Y-91598838D01*
X161305624Y-91553604D01*
X160799688Y-91271458D01*
X160346870Y-90924093D01*
X159950271Y-90514605D01*
X159612994Y-90046089D01*
X159396102Y-89647967D01*
X159298456Y-89421602D01*
X159208744Y-89173463D01*
X159133865Y-88926765D01*
X159080718Y-88704721D01*
X159056200Y-88530545D01*
X159055333Y-88501228D01*
X159042437Y-88415028D01*
X159013000Y-88381000D01*
X158992384Y-88341204D01*
X158977784Y-88231751D01*
X158970955Y-88067543D01*
X158970667Y-88021166D01*
X158974632Y-87858562D01*
X158985212Y-87734199D01*
X159000438Y-87667512D01*
X159007171Y-87661333D01*
X159031821Y-87623194D01*
X159056620Y-87524994D01*
X159070422Y-87433765D01*
X159163865Y-86975686D01*
X159332364Y-86515255D01*
X159567736Y-86065594D01*
X159861796Y-85639824D01*
X160096220Y-85375333D01*
X160240667Y-85375333D01*
X160240667Y-90667000D01*
X161383667Y-90667000D01*
X161386685Y-89111250D01*
X161389704Y-87555500D01*
X161485602Y-87894166D01*
X161523612Y-88022326D01*
X161583646Y-88217178D01*
X161661357Y-88464958D01*
X161752396Y-88751905D01*
X161852415Y-89064254D01*
X161957066Y-89388244D01*
X161977464Y-89451058D01*
X162373429Y-90669284D01*
X162942001Y-90657558D01*
X163510572Y-90645833D01*
X163779315Y-89820333D01*
X163876778Y-89519179D01*
X163979918Y-89197442D01*
X164080343Y-88881503D01*
X164169661Y-88597743D01*
X164229279Y-88405785D01*
X164410500Y-87816737D01*
X164431667Y-89231285D01*
X164452833Y-90645833D01*
X165056083Y-90657578D01*
X165659333Y-90669324D01*
X165659333Y-85375333D01*
X164836686Y-85375333D01*
X164551767Y-85375928D01*
X164340281Y-85378371D01*
X164190998Y-85383647D01*
X164092689Y-85392740D01*
X164034125Y-85406637D01*
X164004076Y-85426322D01*
X163992243Y-85449416D01*
X163976305Y-85505154D01*
X163939905Y-85633346D01*
X163885596Y-85824970D01*
X163815935Y-86071001D01*
X163733474Y-86362418D01*
X163640768Y-86690196D01*
X163540373Y-87045311D01*
X163497878Y-87195666D01*
X163395207Y-87557367D01*
X163298889Y-87893626D01*
X163211489Y-88195718D01*
X163135571Y-88454913D01*
X163073699Y-88662486D01*
X163028437Y-88809707D01*
X163002350Y-88887849D01*
X162997687Y-88898016D01*
X162979381Y-88866329D01*
X162939966Y-88762579D01*
X162882452Y-88595864D01*
X162809846Y-88375282D01*
X162725157Y-88109929D01*
X162631394Y-87808902D01*
X162556720Y-87564516D01*
X162451494Y-87217638D01*
X162348098Y-86877292D01*
X162250648Y-86557001D01*
X162163265Y-86270285D01*
X162090068Y-86030667D01*
X162035176Y-85851669D01*
X162015558Y-85788083D01*
X161887744Y-85375333D01*
X160240667Y-85375333D01*
X160096220Y-85375333D01*
X160206361Y-85251066D01*
X160593246Y-84912441D01*
X160685564Y-84844306D01*
X160926842Y-84690572D01*
X161206170Y-84542512D01*
X161504492Y-84407651D01*
X161802752Y-84293512D01*
X162081892Y-84207620D01*
X162322857Y-84157499D01*
X162449973Y-84147666D01*
X162535635Y-84134651D01*
X162569000Y-84105333D01*
X162608963Y-84085048D01*
X162719587Y-84070579D01*
X162886975Y-84063468D01*
X162950000Y-84063000D01*
X163132559Y-84067440D01*
X163132559Y-84067440D01*
G37*
X163132559Y-84067440D02*
X163262785Y-84079731D01*
X163326780Y-84098330D01*
X163331000Y-84105333D01*
X163367625Y-84135684D01*
X163451228Y-84147666D01*
X163611897Y-84165032D01*
X163825490Y-84212530D01*
X164068795Y-84283262D01*
X164318598Y-84370331D01*
X164551684Y-84466836D01*
X164597968Y-84488435D01*
X165112004Y-84777944D01*
X165565028Y-85126108D01*
X165957897Y-85533785D01*
X166291466Y-86001829D01*
X166503897Y-86394365D01*
X166601544Y-86620730D01*
X166691256Y-86868869D01*
X166766135Y-87115567D01*
X166819282Y-87337611D01*
X166843800Y-87511787D01*
X166844667Y-87541105D01*
X166857562Y-87627304D01*
X166887000Y-87661333D01*
X166907616Y-87701129D01*
X166922215Y-87810582D01*
X166929045Y-87974789D01*
X166929333Y-88021166D01*
X166924651Y-88196404D01*
X166911774Y-88320499D01*
X166892456Y-88378550D01*
X166887000Y-88381000D01*
X166856648Y-88417624D01*
X166844667Y-88501228D01*
X166827301Y-88661896D01*
X166779803Y-88875490D01*
X166709070Y-89118795D01*
X166622002Y-89368598D01*
X166525496Y-89601684D01*
X166503897Y-89647967D01*
X166213710Y-90161894D01*
X165863246Y-90616562D01*
X165453607Y-91010876D01*
X164985891Y-91343742D01*
X164585222Y-91558256D01*
X164351824Y-91657523D01*
X164100644Y-91747515D01*
X163854427Y-91821484D01*
X163635917Y-91872684D01*
X163467859Y-91894367D01*
X163451228Y-91894666D01*
X163365029Y-91907562D01*
X163331000Y-91937000D01*
X163291037Y-91957284D01*
X163180412Y-91971753D01*
X163013025Y-91978864D01*
X162950000Y-91979333D01*
X162767440Y-91974892D01*
X162637215Y-91962601D01*
X162573220Y-91944002D01*
X162569000Y-91937000D01*
X162532667Y-91905556D01*
X162459636Y-91894666D01*
X162312629Y-91878355D01*
X162111195Y-91833899D01*
X161878063Y-91768015D01*
X161635962Y-91687422D01*
X161407623Y-91598838D01*
X161305624Y-91553604D01*
X160799688Y-91271458D01*
X160346870Y-90924093D01*
X159950271Y-90514605D01*
X159612994Y-90046089D01*
X159396102Y-89647967D01*
X159298456Y-89421602D01*
X159208744Y-89173463D01*
X159133865Y-88926765D01*
X159080718Y-88704721D01*
X159056200Y-88530545D01*
X159055333Y-88501228D01*
X159042437Y-88415028D01*
X159013000Y-88381000D01*
X158992384Y-88341204D01*
X158977784Y-88231751D01*
X158970955Y-88067543D01*
X158970667Y-88021166D01*
X158974632Y-87858562D01*
X158985212Y-87734199D01*
X159000438Y-87667512D01*
X159007171Y-87661333D01*
X159031821Y-87623194D01*
X159056620Y-87524994D01*
X159070422Y-87433765D01*
X159163865Y-86975686D01*
X159332364Y-86515255D01*
X159567736Y-86065594D01*
X159861796Y-85639824D01*
X160096220Y-85375333D01*
X160240667Y-85375333D01*
X160240667Y-90667000D01*
X161383667Y-90667000D01*
X161386685Y-89111250D01*
X161389704Y-87555500D01*
X161485602Y-87894166D01*
X161523612Y-88022326D01*
X161583646Y-88217178D01*
X161661357Y-88464958D01*
X161752396Y-88751905D01*
X161852415Y-89064254D01*
X161957066Y-89388244D01*
X161977464Y-89451058D01*
X162373429Y-90669284D01*
X162942001Y-90657558D01*
X163510572Y-90645833D01*
X163779315Y-89820333D01*
X163876778Y-89519179D01*
X163979918Y-89197442D01*
X164080343Y-88881503D01*
X164169661Y-88597743D01*
X164229279Y-88405785D01*
X164410500Y-87816737D01*
X164431667Y-89231285D01*
X164452833Y-90645833D01*
X165056083Y-90657578D01*
X165659333Y-90669324D01*
X165659333Y-85375333D01*
X164836686Y-85375333D01*
X164551767Y-85375928D01*
X164340281Y-85378371D01*
X164190998Y-85383647D01*
X164092689Y-85392740D01*
X164034125Y-85406637D01*
X164004076Y-85426322D01*
X163992243Y-85449416D01*
X163976305Y-85505154D01*
X163939905Y-85633346D01*
X163885596Y-85824970D01*
X163815935Y-86071001D01*
X163733474Y-86362418D01*
X163640768Y-86690196D01*
X163540373Y-87045311D01*
X163497878Y-87195666D01*
X163395207Y-87557367D01*
X163298889Y-87893626D01*
X163211489Y-88195718D01*
X163135571Y-88454913D01*
X163073699Y-88662486D01*
X163028437Y-88809707D01*
X163002350Y-88887849D01*
X162997687Y-88898016D01*
X162979381Y-88866329D01*
X162939966Y-88762579D01*
X162882452Y-88595864D01*
X162809846Y-88375282D01*
X162725157Y-88109929D01*
X162631394Y-87808902D01*
X162556720Y-87564516D01*
X162451494Y-87217638D01*
X162348098Y-86877292D01*
X162250648Y-86557001D01*
X162163265Y-86270285D01*
X162090068Y-86030667D01*
X162035176Y-85851669D01*
X162015558Y-85788083D01*
X161887744Y-85375333D01*
X160240667Y-85375333D01*
X160096220Y-85375333D01*
X160206361Y-85251066D01*
X160593246Y-84912441D01*
X160685564Y-84844306D01*
X160926842Y-84690572D01*
X161206170Y-84542512D01*
X161504492Y-84407651D01*
X161802752Y-84293512D01*
X162081892Y-84207620D01*
X162322857Y-84157499D01*
X162449973Y-84147666D01*
X162535635Y-84134651D01*
X162569000Y-84105333D01*
X162608963Y-84085048D01*
X162719587Y-84070579D01*
X162886975Y-84063468D01*
X162950000Y-84063000D01*
X163132559Y-84067440D01*
D12*
X163000000Y-100000000D03*
D13*
X163000000Y-97460000D03*
X163000000Y-94920000D03*
D10*
G36*
X153288181Y-91217942D02*
X155282058Y-90288181D01*
X156211819Y-92282058D01*
X154217942Y-93211819D01*
X153288181Y-91217942D01*
X153288181Y-91217942D01*
G37*
D14*
X155823450Y-94052022D03*
D10*
G36*
X170532058Y-95461819D02*
X168538181Y-94532058D01*
X169467942Y-92538181D01*
X171461819Y-93467942D01*
X170532058Y-95461819D01*
X170532058Y-95461819D01*
G37*
D14*
X171073450Y-91697978D03*
M02*
