G04 #@! TF.FileFunction,Legend,Bot*
%FSLAX46Y46*%
G04 Gerber Fmt 4.6, Leading zero omitted, Abs format (unit mm)*
G04 Created by KiCad (PCBNEW 4.0.7) date 09/06/18 00:22:22*
%MOMM*%
%LPD*%
G01*
G04 APERTURE LIST*
%ADD10C,0.100000*%
%ADD11C,0.150000*%
%ADD12C,0.120000*%
%ADD13R,1.200000X1.200000*%
%ADD14R,2.100000X2.100000*%
%ADD15O,2.100000X2.100000*%
%ADD16C,2.200000*%
%ADD17C,0.254000*%
G04 APERTURE END LIST*
D10*
D11*
X166928573Y-78802381D02*
X166738096Y-78802381D01*
X166642858Y-78850000D01*
X166547620Y-78945238D01*
X166500001Y-79135714D01*
X166500001Y-79469048D01*
X166547620Y-79659524D01*
X166642858Y-79754762D01*
X166738096Y-79802381D01*
X166928573Y-79802381D01*
X167023811Y-79754762D01*
X167119049Y-79659524D01*
X167166668Y-79469048D01*
X167166668Y-79135714D01*
X167119049Y-78945238D01*
X167023811Y-78850000D01*
X166928573Y-78802381D01*
X166071430Y-79135714D02*
X166071430Y-79802381D01*
X166071430Y-79230952D02*
X166023811Y-79183333D01*
X165928573Y-79135714D01*
X165785715Y-79135714D01*
X165690477Y-79183333D01*
X165642858Y-79278571D01*
X165642858Y-79802381D01*
X165023811Y-79802381D02*
X165119049Y-79754762D01*
X165166668Y-79659524D01*
X165166668Y-78802381D01*
X164738096Y-79135714D02*
X164500001Y-79802381D01*
X164261905Y-79135714D02*
X164500001Y-79802381D01*
X164595239Y-80040476D01*
X164642858Y-80088095D01*
X164738096Y-80135714D01*
X163119048Y-79802381D02*
X163119048Y-79135714D01*
X163119048Y-78802381D02*
X163166667Y-78850000D01*
X163119048Y-78897619D01*
X163071429Y-78850000D01*
X163119048Y-78802381D01*
X163119048Y-78897619D01*
X162642858Y-79135714D02*
X162642858Y-79802381D01*
X162642858Y-79230952D02*
X162595239Y-79183333D01*
X162500001Y-79135714D01*
X162357143Y-79135714D01*
X162261905Y-79183333D01*
X162214286Y-79278571D01*
X162214286Y-79802381D01*
X161785715Y-79754762D02*
X161690477Y-79802381D01*
X161500001Y-79802381D01*
X161404762Y-79754762D01*
X161357143Y-79659524D01*
X161357143Y-79611905D01*
X161404762Y-79516667D01*
X161500001Y-79469048D01*
X161642858Y-79469048D01*
X161738096Y-79421429D01*
X161785715Y-79326190D01*
X161785715Y-79278571D01*
X161738096Y-79183333D01*
X161642858Y-79135714D01*
X161500001Y-79135714D01*
X161404762Y-79183333D01*
X161071429Y-79135714D02*
X160690477Y-79135714D01*
X160928572Y-78802381D02*
X160928572Y-79659524D01*
X160880953Y-79754762D01*
X160785715Y-79802381D01*
X160690477Y-79802381D01*
X159928571Y-79802381D02*
X159928571Y-79278571D01*
X159976190Y-79183333D01*
X160071428Y-79135714D01*
X160261905Y-79135714D01*
X160357143Y-79183333D01*
X159928571Y-79754762D02*
X160023809Y-79802381D01*
X160261905Y-79802381D01*
X160357143Y-79754762D01*
X160404762Y-79659524D01*
X160404762Y-79564286D01*
X160357143Y-79469048D01*
X160261905Y-79421429D01*
X160023809Y-79421429D01*
X159928571Y-79373810D01*
X159309524Y-79802381D02*
X159404762Y-79754762D01*
X159452381Y-79659524D01*
X159452381Y-78802381D01*
X158785714Y-79802381D02*
X158880952Y-79754762D01*
X158928571Y-79659524D01*
X158928571Y-78802381D01*
X166833334Y-81452381D02*
X166833334Y-80452381D01*
X166595239Y-80452381D01*
X166452381Y-80500000D01*
X166357143Y-80595238D01*
X166309524Y-80690476D01*
X166261905Y-80880952D01*
X166261905Y-81023810D01*
X166309524Y-81214286D01*
X166357143Y-81309524D01*
X166452381Y-81404762D01*
X166595239Y-81452381D01*
X166833334Y-81452381D01*
X165357143Y-80452381D02*
X165833334Y-80452381D01*
X165880953Y-80928571D01*
X165833334Y-80880952D01*
X165738096Y-80833333D01*
X165500000Y-80833333D01*
X165404762Y-80880952D01*
X165357143Y-80928571D01*
X165309524Y-81023810D01*
X165309524Y-81261905D01*
X165357143Y-81357143D01*
X165404762Y-81404762D01*
X165500000Y-81452381D01*
X165738096Y-81452381D01*
X165833334Y-81404762D01*
X165880953Y-81357143D01*
X163690476Y-81452381D02*
X163690476Y-80928571D01*
X163738095Y-80833333D01*
X163833333Y-80785714D01*
X164023810Y-80785714D01*
X164119048Y-80833333D01*
X163690476Y-81404762D02*
X163785714Y-81452381D01*
X164023810Y-81452381D01*
X164119048Y-81404762D01*
X164166667Y-81309524D01*
X164166667Y-81214286D01*
X164119048Y-81119048D01*
X164023810Y-81071429D01*
X163785714Y-81071429D01*
X163690476Y-81023810D01*
X163214286Y-80785714D02*
X163214286Y-81452381D01*
X163214286Y-80880952D02*
X163166667Y-80833333D01*
X163071429Y-80785714D01*
X162928571Y-80785714D01*
X162833333Y-80833333D01*
X162785714Y-80928571D01*
X162785714Y-81452381D01*
X161880952Y-81452381D02*
X161880952Y-80452381D01*
X161880952Y-81404762D02*
X161976190Y-81452381D01*
X162166667Y-81452381D01*
X162261905Y-81404762D01*
X162309524Y-81357143D01*
X162357143Y-81261905D01*
X162357143Y-80976190D01*
X162309524Y-80880952D01*
X162261905Y-80833333D01*
X162166667Y-80785714D01*
X161976190Y-80785714D01*
X161880952Y-80833333D01*
X160642857Y-81452381D02*
X160642857Y-80452381D01*
X160404762Y-80452381D01*
X160261904Y-80500000D01*
X160166666Y-80595238D01*
X160119047Y-80690476D01*
X160071428Y-80880952D01*
X160071428Y-81023810D01*
X160119047Y-81214286D01*
X160166666Y-81309524D01*
X160261904Y-81404762D01*
X160404762Y-81452381D01*
X160642857Y-81452381D01*
X159214285Y-80452381D02*
X159404762Y-80452381D01*
X159500000Y-80500000D01*
X159547619Y-80547619D01*
X159642857Y-80690476D01*
X159690476Y-80880952D01*
X159690476Y-81261905D01*
X159642857Y-81357143D01*
X159595238Y-81404762D01*
X159500000Y-81452381D01*
X159309523Y-81452381D01*
X159214285Y-81404762D01*
X159166666Y-81357143D01*
X159119047Y-81261905D01*
X159119047Y-81023810D01*
X159166666Y-80928571D01*
X159214285Y-80880952D01*
X159309523Y-80833333D01*
X159500000Y-80833333D01*
X159595238Y-80880952D01*
X159642857Y-80928571D01*
X159690476Y-81023810D01*
X166333334Y-83102381D02*
X166428572Y-83054762D01*
X166476191Y-83007143D01*
X166523810Y-82911905D01*
X166523810Y-82626190D01*
X166476191Y-82530952D01*
X166428572Y-82483333D01*
X166333334Y-82435714D01*
X166190476Y-82435714D01*
X166095238Y-82483333D01*
X166047619Y-82530952D01*
X166000000Y-82626190D01*
X166000000Y-82911905D01*
X166047619Y-83007143D01*
X166095238Y-83054762D01*
X166190476Y-83102381D01*
X166333334Y-83102381D01*
X165571429Y-83102381D02*
X165571429Y-82435714D01*
X165571429Y-82626190D02*
X165523810Y-82530952D01*
X165476191Y-82483333D01*
X165380953Y-82435714D01*
X165285714Y-82435714D01*
X164190476Y-83102381D02*
X164190476Y-82102381D01*
X163952381Y-82102381D01*
X163809523Y-82150000D01*
X163714285Y-82245238D01*
X163666666Y-82340476D01*
X163619047Y-82530952D01*
X163619047Y-82673810D01*
X163666666Y-82864286D01*
X163714285Y-82959524D01*
X163809523Y-83054762D01*
X163952381Y-83102381D01*
X164190476Y-83102381D01*
X162666666Y-83102381D02*
X163238095Y-83102381D01*
X162952381Y-83102381D02*
X162952381Y-82102381D01*
X163047619Y-82245238D01*
X163142857Y-82340476D01*
X163238095Y-82388095D01*
X162238095Y-82721429D02*
X161476190Y-82721429D01*
X161000000Y-83102381D02*
X161000000Y-82102381D01*
X160761905Y-82102381D01*
X160619047Y-82150000D01*
X160523809Y-82245238D01*
X160476190Y-82340476D01*
X160428571Y-82530952D01*
X160428571Y-82673810D01*
X160476190Y-82864286D01*
X160523809Y-82959524D01*
X160619047Y-83054762D01*
X160761905Y-83102381D01*
X161000000Y-83102381D01*
X159571428Y-82435714D02*
X159571428Y-83102381D01*
X159809524Y-82054762D02*
X160047619Y-82769048D01*
X159428571Y-82769048D01*
D12*
X151700000Y-86500000D02*
X151700000Y-85500000D01*
X151700000Y-85500000D02*
X153800000Y-85500000D01*
X151700000Y-86500000D02*
X153800000Y-86500000D01*
X151700000Y-99500000D02*
X151700000Y-98500000D01*
X151700000Y-98500000D02*
X153800000Y-98500000D01*
X151700000Y-99500000D02*
X153800000Y-99500000D01*
X171700000Y-99500000D02*
X171700000Y-98500000D01*
X171700000Y-98500000D02*
X173800000Y-98500000D01*
X171700000Y-99500000D02*
X173800000Y-99500000D01*
X171700000Y-86500000D02*
X171700000Y-85500000D01*
X171700000Y-85500000D02*
X173800000Y-85500000D01*
X171700000Y-86500000D02*
X173800000Y-86500000D01*
X161670000Y-93590000D02*
X164330000Y-93590000D01*
X161670000Y-98730000D02*
X161670000Y-93590000D01*
X164330000Y-98730000D02*
X164330000Y-93590000D01*
X161670000Y-98730000D02*
X164330000Y-98730000D01*
X161670000Y-100000000D02*
X161670000Y-101330000D01*
X161670000Y-101330000D02*
X163000000Y-101330000D01*
X160540991Y-92172176D02*
G75*
G03X159222421Y-89344496I-659285J1413840D01*
G01*
X155724073Y-90975803D02*
X159222421Y-89344496D01*
X157042642Y-93803483D02*
X160540990Y-92172176D01*
X155724073Y-90975803D02*
X157042642Y-93803483D01*
X157211689Y-94166006D02*
X158226754Y-93692674D01*
X158226754Y-93692674D02*
X158057707Y-93330150D01*
X158057707Y-93330150D02*
X157042642Y-93803483D01*
X157042642Y-93803483D02*
X157211689Y-94166006D01*
X155728812Y-91293572D02*
X155846632Y-91238632D01*
X155846632Y-91238632D02*
X155846632Y-91238632D01*
X155846632Y-91238632D02*
X155728812Y-91293572D01*
X155728812Y-91293572D02*
X155728812Y-91293572D01*
X156802263Y-93595594D02*
X156920083Y-93540654D01*
X156920083Y-93540654D02*
X156920083Y-93540654D01*
X156920083Y-93540654D02*
X156802263Y-93595594D01*
X156802263Y-93595594D02*
X156802263Y-93595594D01*
X166601030Y-89292475D02*
G75*
G03X165282460Y-92120155I-659285J-1413840D01*
G01*
X168780808Y-93751461D02*
X165282460Y-92120155D01*
X170099377Y-90923781D02*
X166601029Y-89292474D01*
X168780808Y-93751461D02*
X170099377Y-90923781D01*
X170268425Y-90561258D02*
X169253360Y-90087925D01*
X169253360Y-90087925D02*
X169084313Y-90450448D01*
X169084313Y-90450448D02*
X170099377Y-90923781D01*
X170099377Y-90923781D02*
X170268425Y-90561258D01*
X169021188Y-93543572D02*
X168903368Y-93488632D01*
X168903368Y-93488632D02*
X168903368Y-93488632D01*
X168903368Y-93488632D02*
X169021188Y-93543572D01*
X169021188Y-93543572D02*
X169021188Y-93543572D01*
X170094638Y-91241550D02*
X169976818Y-91186610D01*
X169976818Y-91186610D02*
X169976818Y-91186610D01*
X169976818Y-91186610D02*
X170094638Y-91241550D01*
X170094638Y-91241550D02*
X170094638Y-91241550D01*
D11*
X153738095Y-87702381D02*
X153738095Y-86702381D01*
X153500000Y-86702381D01*
X153357142Y-86750000D01*
X153261904Y-86845238D01*
X153214285Y-86940476D01*
X153166666Y-87130952D01*
X153166666Y-87273810D01*
X153214285Y-87464286D01*
X153261904Y-87559524D01*
X153357142Y-87654762D01*
X153500000Y-87702381D01*
X153738095Y-87702381D01*
X152214285Y-87702381D02*
X152785714Y-87702381D01*
X152500000Y-87702381D02*
X152500000Y-86702381D01*
X152595238Y-86845238D01*
X152690476Y-86940476D01*
X152785714Y-86988095D01*
X153738095Y-100702381D02*
X153738095Y-99702381D01*
X153500000Y-99702381D01*
X153357142Y-99750000D01*
X153261904Y-99845238D01*
X153214285Y-99940476D01*
X153166666Y-100130952D01*
X153166666Y-100273810D01*
X153214285Y-100464286D01*
X153261904Y-100559524D01*
X153357142Y-100654762D01*
X153500000Y-100702381D01*
X153738095Y-100702381D01*
X152785714Y-99797619D02*
X152738095Y-99750000D01*
X152642857Y-99702381D01*
X152404761Y-99702381D01*
X152309523Y-99750000D01*
X152261904Y-99797619D01*
X152214285Y-99892857D01*
X152214285Y-99988095D01*
X152261904Y-100130952D01*
X152833333Y-100702381D01*
X152214285Y-100702381D01*
X173738095Y-100702381D02*
X173738095Y-99702381D01*
X173500000Y-99702381D01*
X173357142Y-99750000D01*
X173261904Y-99845238D01*
X173214285Y-99940476D01*
X173166666Y-100130952D01*
X173166666Y-100273810D01*
X173214285Y-100464286D01*
X173261904Y-100559524D01*
X173357142Y-100654762D01*
X173500000Y-100702381D01*
X173738095Y-100702381D01*
X172833333Y-99702381D02*
X172214285Y-99702381D01*
X172547619Y-100083333D01*
X172404761Y-100083333D01*
X172309523Y-100130952D01*
X172261904Y-100178571D01*
X172214285Y-100273810D01*
X172214285Y-100511905D01*
X172261904Y-100607143D01*
X172309523Y-100654762D01*
X172404761Y-100702381D01*
X172690476Y-100702381D01*
X172785714Y-100654762D01*
X172833333Y-100607143D01*
X173738095Y-87702381D02*
X173738095Y-86702381D01*
X173500000Y-86702381D01*
X173357142Y-86750000D01*
X173261904Y-86845238D01*
X173214285Y-86940476D01*
X173166666Y-87130952D01*
X173166666Y-87273810D01*
X173214285Y-87464286D01*
X173261904Y-87559524D01*
X173357142Y-87654762D01*
X173500000Y-87702381D01*
X173738095Y-87702381D01*
X172309523Y-87035714D02*
X172309523Y-87702381D01*
X172547619Y-86654762D02*
X172785714Y-87369048D01*
X172166666Y-87369048D01*
X163333333Y-101782381D02*
X163333333Y-102496667D01*
X163380953Y-102639524D01*
X163476191Y-102734762D01*
X163619048Y-102782381D01*
X163714286Y-102782381D01*
X162333333Y-102782381D02*
X162904762Y-102782381D01*
X162619048Y-102782381D02*
X162619048Y-101782381D01*
X162714286Y-101925238D01*
X162809524Y-102020476D01*
X162904762Y-102068095D01*
X153412298Y-94589469D02*
X154318606Y-94166850D01*
X154217982Y-93951063D01*
X154114451Y-93841714D01*
X153987886Y-93795649D01*
X153881447Y-93792741D01*
X153688692Y-93830082D01*
X153559219Y-93890456D01*
X153406714Y-94014112D01*
X153340523Y-94097519D01*
X153294458Y-94224083D01*
X153311675Y-94373681D01*
X153412298Y-94589469D01*
X153694741Y-92828967D02*
X153895988Y-93260543D01*
X153484537Y-93504947D01*
X153507570Y-93441665D01*
X153510478Y-93335225D01*
X153409855Y-93119437D01*
X153326448Y-93053246D01*
X153263166Y-93030214D01*
X153156725Y-93027306D01*
X152940938Y-93127929D01*
X152874748Y-93211336D01*
X152851715Y-93274618D01*
X152848807Y-93381058D01*
X152949430Y-93596846D01*
X153032837Y-93663036D01*
X153096119Y-93686069D01*
X173035017Y-93199564D02*
X172128709Y-92776946D01*
X172028086Y-92992733D01*
X172010869Y-93142331D01*
X172056934Y-93268896D01*
X172123125Y-93352302D01*
X172275630Y-93475958D01*
X172405103Y-93536333D01*
X172597858Y-93573674D01*
X172704297Y-93570766D01*
X172830862Y-93524700D01*
X172934394Y-93415352D01*
X173035017Y-93199564D01*
X171524968Y-94071672D02*
X171605468Y-93899041D01*
X171688874Y-93832851D01*
X171752156Y-93809818D01*
X171921878Y-93783877D01*
X172114633Y-93821218D01*
X172459893Y-93982216D01*
X172526084Y-94065623D01*
X172549116Y-94128905D01*
X172552025Y-94235344D01*
X172471526Y-94407975D01*
X172388119Y-94474165D01*
X172324837Y-94497198D01*
X172218397Y-94500106D01*
X172002610Y-94399483D01*
X171936418Y-94316076D01*
X171913386Y-94252794D01*
X171910478Y-94146354D01*
X171990977Y-93973723D01*
X172074383Y-93907533D01*
X172137666Y-93884500D01*
X172244106Y-93881593D01*
%LPC*%
D13*
X153800000Y-86000000D03*
X152200000Y-86000000D03*
X153800000Y-99000000D03*
X152200000Y-99000000D03*
X173800000Y-99000000D03*
X172200000Y-99000000D03*
X173800000Y-86000000D03*
X172200000Y-86000000D03*
D14*
X163000000Y-100000000D03*
D15*
X163000000Y-97460000D03*
X163000000Y-94920000D03*
D10*
G36*
X153288181Y-91217942D02*
X155282058Y-90288181D01*
X156211819Y-92282058D01*
X154217942Y-93211819D01*
X153288181Y-91217942D01*
X153288181Y-91217942D01*
G37*
D16*
X155823450Y-94052022D03*
D10*
G36*
X170532058Y-95461819D02*
X168538181Y-94532058D01*
X169467942Y-92538181D01*
X171461819Y-93467942D01*
X170532058Y-95461819D01*
X170532058Y-95461819D01*
G37*
D16*
X171073450Y-91697978D03*
D17*
G36*
X166873000Y-91873000D02*
X159127000Y-91873000D01*
X159127000Y-84127000D01*
X166873000Y-84127000D01*
X166873000Y-91873000D01*
X166873000Y-91873000D01*
G37*
X166873000Y-91873000D02*
X159127000Y-91873000D01*
X159127000Y-84127000D01*
X166873000Y-84127000D01*
X166873000Y-91873000D01*
M02*
