G04 #@! TF.FileFunction,Legend,Top*
%FSLAX46Y46*%
G04 Gerber Fmt 4.6, Leading zero omitted, Abs format (unit mm)*
G04 Created by KiCad (PCBNEW 4.0.7) date 09/06/18 00:22:22*
%MOMM*%
%LPD*%
G01*
G04 APERTURE LIST*
%ADD10C,0.100000*%
%ADD11C,0.010000*%
%ADD12R,2.100000X2.100000*%
%ADD13O,2.100000X2.100000*%
%ADD14C,2.200000*%
G04 APERTURE END LIST*
D10*
D11*
G36*
X161992000Y-104131334D02*
X154202667Y-104131334D01*
X154202667Y-103718136D01*
X154207779Y-103512698D01*
X154241025Y-103364738D01*
X154329275Y-103233742D01*
X154499393Y-103079199D01*
X154764163Y-102871469D01*
X155325659Y-102438000D01*
X161992000Y-102438000D01*
X161992000Y-104131334D01*
X161992000Y-104131334D01*
G37*
X161992000Y-104131334D02*
X154202667Y-104131334D01*
X154202667Y-103718136D01*
X154207779Y-103512698D01*
X154241025Y-103364738D01*
X154329275Y-103233742D01*
X154499393Y-103079199D01*
X154764163Y-102871469D01*
X155325659Y-102438000D01*
X161992000Y-102438000D01*
X161992000Y-104131334D01*
G36*
X171145036Y-102910876D02*
X171426652Y-103139245D01*
X171599600Y-103299058D01*
X171688514Y-103426184D01*
X171718029Y-103556489D01*
X171712778Y-103725840D01*
X171712016Y-103736376D01*
X171686334Y-104089000D01*
X163939334Y-104133042D01*
X163939334Y-102438000D01*
X170552373Y-102438000D01*
X171145036Y-102910876D01*
X171145036Y-102910876D01*
G37*
X171145036Y-102910876D02*
X171426652Y-103139245D01*
X171599600Y-103299058D01*
X171688514Y-103426184D01*
X171718029Y-103556489D01*
X171712778Y-103725840D01*
X171712016Y-103736376D01*
X171686334Y-104089000D01*
X163939334Y-104133042D01*
X163939334Y-102438000D01*
X170552373Y-102438000D01*
X171145036Y-102910876D01*
G36*
X161265541Y-97885879D02*
X161288268Y-98130241D01*
X161318230Y-98500344D01*
X161352120Y-98952922D01*
X161386629Y-99444710D01*
X161399950Y-99644000D01*
X161434002Y-100143924D01*
X161468925Y-100626467D01*
X161501338Y-101046850D01*
X161527860Y-101360297D01*
X161535803Y-101443167D01*
X161585293Y-101930000D01*
X155561567Y-101930000D01*
X155616720Y-101654834D01*
X155647108Y-101493917D01*
X155702012Y-101193908D01*
X155776439Y-100782458D01*
X155865399Y-100287218D01*
X155963900Y-99735839D01*
X156017907Y-99432334D01*
X156363940Y-97485000D01*
X158790717Y-97462545D01*
X161217494Y-97440091D01*
X161265541Y-97885879D01*
X161265541Y-97885879D01*
G37*
X161265541Y-97885879D02*
X161288268Y-98130241D01*
X161318230Y-98500344D01*
X161352120Y-98952922D01*
X161386629Y-99444710D01*
X161399950Y-99644000D01*
X161434002Y-100143924D01*
X161468925Y-100626467D01*
X161501338Y-101046850D01*
X161527860Y-101360297D01*
X161535803Y-101443167D01*
X161585293Y-101930000D01*
X155561567Y-101930000D01*
X155616720Y-101654834D01*
X155647108Y-101493917D01*
X155702012Y-101193908D01*
X155776439Y-100782458D01*
X155865399Y-100287218D01*
X155963900Y-99735839D01*
X156017907Y-99432334D01*
X156363940Y-97485000D01*
X158790717Y-97462545D01*
X161217494Y-97440091D01*
X161265541Y-97885879D01*
G36*
X167059296Y-97462549D02*
X169485000Y-97485000D01*
X169830532Y-99390000D01*
X169933484Y-99956915D01*
X170029694Y-100485417D01*
X170113900Y-100946711D01*
X170180843Y-101311995D01*
X170225259Y-101552474D01*
X170236535Y-101612500D01*
X170297007Y-101930000D01*
X164267625Y-101930000D01*
X164313707Y-101570167D01*
X164334698Y-101362562D01*
X164362592Y-101024149D01*
X164394502Y-100593167D01*
X164427543Y-100107858D01*
X164446287Y-99813334D01*
X164479280Y-99300642D01*
X164513284Y-98807042D01*
X164545220Y-98374934D01*
X164572009Y-98046719D01*
X164583188Y-97928216D01*
X164633591Y-97440098D01*
X167059296Y-97462549D01*
X167059296Y-97462549D01*
G37*
X167059296Y-97462549D02*
X169485000Y-97485000D01*
X169830532Y-99390000D01*
X169933484Y-99956915D01*
X170029694Y-100485417D01*
X170113900Y-100946711D01*
X170180843Y-101311995D01*
X170225259Y-101552474D01*
X170236535Y-101612500D01*
X170297007Y-101930000D01*
X164267625Y-101930000D01*
X164313707Y-101570167D01*
X164334698Y-101362562D01*
X164362592Y-101024149D01*
X164394502Y-100593167D01*
X164427543Y-100107858D01*
X164446287Y-99813334D01*
X164479280Y-99300642D01*
X164513284Y-98807042D01*
X164545220Y-98374934D01*
X164572009Y-98046719D01*
X164583188Y-97928216D01*
X164633591Y-97440098D01*
X167059296Y-97462549D01*
G36*
X154795334Y-100490667D02*
X154562500Y-100477117D01*
X154308492Y-100457384D01*
X154033334Y-100429737D01*
X153146993Y-100263517D01*
X152322351Y-99980473D01*
X151588157Y-99593179D01*
X150973162Y-99114211D01*
X150929958Y-99072296D01*
X150697489Y-98816975D01*
X150464238Y-98517357D01*
X150250559Y-98205916D01*
X150076810Y-97915127D01*
X149963346Y-97677462D01*
X149930523Y-97525397D01*
X149942779Y-97497444D01*
X150038437Y-97483306D01*
X150281479Y-97470522D01*
X150649956Y-97459582D01*
X151121921Y-97450975D01*
X151675425Y-97445192D01*
X152288521Y-97442722D01*
X152396445Y-97442667D01*
X154795334Y-97442667D01*
X154795334Y-100490667D01*
X154795334Y-100490667D01*
G37*
X154795334Y-100490667D02*
X154562500Y-100477117D01*
X154308492Y-100457384D01*
X154033334Y-100429737D01*
X153146993Y-100263517D01*
X152322351Y-99980473D01*
X151588157Y-99593179D01*
X150973162Y-99114211D01*
X150929958Y-99072296D01*
X150697489Y-98816975D01*
X150464238Y-98517357D01*
X150250559Y-98205916D01*
X150076810Y-97915127D01*
X149963346Y-97677462D01*
X149930523Y-97525397D01*
X149942779Y-97497444D01*
X150038437Y-97483306D01*
X150281479Y-97470522D01*
X150649956Y-97459582D01*
X151121921Y-97450975D01*
X151675425Y-97445192D01*
X152288521Y-97442722D01*
X152396445Y-97442667D01*
X154795334Y-97442667D01*
X154795334Y-100490667D01*
G36*
X174131824Y-97444242D02*
X174698304Y-97448696D01*
X175185056Y-97455620D01*
X175571034Y-97464605D01*
X175835187Y-97475243D01*
X175956467Y-97487125D01*
X175962000Y-97490330D01*
X175910712Y-97672704D01*
X175773888Y-97943024D01*
X175577085Y-98261438D01*
X175345862Y-98588097D01*
X175105779Y-98883151D01*
X174988321Y-99008458D01*
X174352562Y-99537667D01*
X173617748Y-99947534D01*
X172773199Y-100242629D01*
X171808236Y-100427526D01*
X171622834Y-100449254D01*
X171051334Y-100510394D01*
X171051334Y-97442667D01*
X173506667Y-97442667D01*
X174131824Y-97444242D01*
X174131824Y-97444242D01*
G37*
X174131824Y-97444242D02*
X174698304Y-97448696D01*
X175185056Y-97455620D01*
X175571034Y-97464605D01*
X175835187Y-97475243D01*
X175956467Y-97487125D01*
X175962000Y-97490330D01*
X175910712Y-97672704D01*
X175773888Y-97943024D01*
X175577085Y-98261438D01*
X175345862Y-98588097D01*
X175105779Y-98883151D01*
X174988321Y-99008458D01*
X174352562Y-99537667D01*
X173617748Y-99947534D01*
X172773199Y-100242629D01*
X171808236Y-100427526D01*
X171622834Y-100449254D01*
X171051334Y-100510394D01*
X171051334Y-97442667D01*
X173506667Y-97442667D01*
X174131824Y-97444242D01*
G36*
X161103000Y-96892334D02*
X157081334Y-96937732D01*
X157081334Y-93971334D01*
X161149332Y-93971334D01*
X161103000Y-96892334D01*
X161103000Y-96892334D01*
G37*
X161103000Y-96892334D02*
X157081334Y-96937732D01*
X157081334Y-93971334D01*
X161149332Y-93971334D01*
X161103000Y-96892334D01*
G36*
X168765334Y-96934667D02*
X164786000Y-96934667D01*
X164786000Y-93971334D01*
X168765334Y-93971334D01*
X168765334Y-96934667D01*
X168765334Y-96934667D01*
G37*
X168765334Y-96934667D02*
X164786000Y-96934667D01*
X164786000Y-93971334D01*
X168765334Y-93971334D01*
X168765334Y-96934667D01*
G36*
X154964667Y-90161334D02*
X153779334Y-90161334D01*
X153779334Y-90965667D01*
X153780803Y-91338286D01*
X153790778Y-91573290D01*
X153817603Y-91702397D01*
X153869627Y-91757327D01*
X153955197Y-91769797D01*
X153991000Y-91770000D01*
X154150266Y-91787028D01*
X154202667Y-91819627D01*
X154212322Y-91924013D01*
X154239176Y-92169725D01*
X154280060Y-92529987D01*
X154331807Y-92978021D01*
X154391249Y-93487050D01*
X154455218Y-94030296D01*
X154520547Y-94580983D01*
X154584066Y-95112333D01*
X154642609Y-95597569D01*
X154693008Y-96009914D01*
X154732094Y-96322589D01*
X154756700Y-96508819D01*
X154760220Y-96532500D01*
X154810218Y-96850000D01*
X152347442Y-96850000D01*
X151721348Y-96847908D01*
X151153941Y-96841991D01*
X150666229Y-96832793D01*
X150279221Y-96820854D01*
X150013924Y-96806717D01*
X149891346Y-96790924D01*
X149885443Y-96786500D01*
X149895419Y-96672098D01*
X149922394Y-96416658D01*
X149963218Y-96047271D01*
X150014737Y-95591030D01*
X150073802Y-95075027D01*
X150137259Y-94526353D01*
X150201958Y-93972101D01*
X150264747Y-93439361D01*
X150322474Y-92955228D01*
X150371989Y-92546791D01*
X150410138Y-92241143D01*
X150433771Y-92065377D01*
X150436996Y-92045167D01*
X150496735Y-91849955D01*
X150610588Y-91776222D01*
X150692837Y-91770000D01*
X150789279Y-91763952D01*
X150850033Y-91724621D01*
X150883345Y-91620226D01*
X150897459Y-91418987D01*
X150900621Y-91089124D01*
X150900667Y-90968963D01*
X150900667Y-90167926D01*
X150159834Y-90143463D01*
X149419000Y-90119000D01*
X149444212Y-89187667D01*
X149526822Y-88260651D01*
X149728056Y-87438730D01*
X150058252Y-86696814D01*
X150527746Y-86009815D01*
X150943013Y-85549964D01*
X151586749Y-85008568D01*
X152300452Y-84613357D01*
X153094852Y-84360142D01*
X153980674Y-84244736D01*
X154308500Y-84236137D01*
X154964667Y-84234667D01*
X154964667Y-90161334D01*
X154964667Y-90161334D01*
G37*
X154964667Y-90161334D02*
X153779334Y-90161334D01*
X153779334Y-90965667D01*
X153780803Y-91338286D01*
X153790778Y-91573290D01*
X153817603Y-91702397D01*
X153869627Y-91757327D01*
X153955197Y-91769797D01*
X153991000Y-91770000D01*
X154150266Y-91787028D01*
X154202667Y-91819627D01*
X154212322Y-91924013D01*
X154239176Y-92169725D01*
X154280060Y-92529987D01*
X154331807Y-92978021D01*
X154391249Y-93487050D01*
X154455218Y-94030296D01*
X154520547Y-94580983D01*
X154584066Y-95112333D01*
X154642609Y-95597569D01*
X154693008Y-96009914D01*
X154732094Y-96322589D01*
X154756700Y-96508819D01*
X154760220Y-96532500D01*
X154810218Y-96850000D01*
X152347442Y-96850000D01*
X151721348Y-96847908D01*
X151153941Y-96841991D01*
X150666229Y-96832793D01*
X150279221Y-96820854D01*
X150013924Y-96806717D01*
X149891346Y-96790924D01*
X149885443Y-96786500D01*
X149895419Y-96672098D01*
X149922394Y-96416658D01*
X149963218Y-96047271D01*
X150014737Y-95591030D01*
X150073802Y-95075027D01*
X150137259Y-94526353D01*
X150201958Y-93972101D01*
X150264747Y-93439361D01*
X150322474Y-92955228D01*
X150371989Y-92546791D01*
X150410138Y-92241143D01*
X150433771Y-92065377D01*
X150436996Y-92045167D01*
X150496735Y-91849955D01*
X150610588Y-91776222D01*
X150692837Y-91770000D01*
X150789279Y-91763952D01*
X150850033Y-91724621D01*
X150883345Y-91620226D01*
X150897459Y-91418987D01*
X150900621Y-91089124D01*
X150900667Y-90968963D01*
X150900667Y-90167926D01*
X150159834Y-90143463D01*
X149419000Y-90119000D01*
X149444212Y-89187667D01*
X149526822Y-88260651D01*
X149728056Y-87438730D01*
X150058252Y-86696814D01*
X150527746Y-86009815D01*
X150943013Y-85549964D01*
X151586749Y-85008568D01*
X152300452Y-84613357D01*
X153094852Y-84360142D01*
X153980674Y-84244736D01*
X154308500Y-84236137D01*
X154964667Y-84234667D01*
X154964667Y-90161334D01*
G36*
X171580500Y-84235918D02*
X172509415Y-84311967D01*
X173357209Y-84535543D01*
X174120746Y-84904992D01*
X174796893Y-85418663D01*
X175382513Y-86074904D01*
X175563668Y-86335139D01*
X175981733Y-87058995D01*
X176250894Y-87721239D01*
X176359404Y-88219246D01*
X176401010Y-88458789D01*
X176452734Y-88610052D01*
X176481793Y-88637334D01*
X176513884Y-88715686D01*
X176538765Y-88925562D01*
X176552823Y-89229190D01*
X176554667Y-89399334D01*
X176554667Y-90161334D01*
X174946000Y-90161334D01*
X174946000Y-91758753D01*
X175178834Y-91785543D01*
X175411667Y-91812334D01*
X175680481Y-94098334D01*
X175752072Y-94713585D01*
X175816957Y-95283517D01*
X175872448Y-95783518D01*
X175915855Y-96188974D01*
X175944490Y-96475274D01*
X175955647Y-96617167D01*
X175962000Y-96850000D01*
X171055567Y-96850000D01*
X171097212Y-96617167D01*
X171119387Y-96464121D01*
X171156430Y-96176225D01*
X171205157Y-95780895D01*
X171262382Y-95305548D01*
X171324922Y-94777602D01*
X171389591Y-94224472D01*
X171453204Y-93673576D01*
X171512577Y-93152331D01*
X171564526Y-92688154D01*
X171605865Y-92308461D01*
X171633409Y-92040670D01*
X171643975Y-91912197D01*
X171644000Y-91909918D01*
X171720048Y-91801603D01*
X171876834Y-91754457D01*
X172109667Y-91727667D01*
X172134011Y-90944500D01*
X172158355Y-90161334D01*
X170882000Y-90161334D01*
X170882000Y-84234667D01*
X171580500Y-84235918D01*
X171580500Y-84235918D01*
G37*
X171580500Y-84235918D02*
X172509415Y-84311967D01*
X173357209Y-84535543D01*
X174120746Y-84904992D01*
X174796893Y-85418663D01*
X175382513Y-86074904D01*
X175563668Y-86335139D01*
X175981733Y-87058995D01*
X176250894Y-87721239D01*
X176359404Y-88219246D01*
X176401010Y-88458789D01*
X176452734Y-88610052D01*
X176481793Y-88637334D01*
X176513884Y-88715686D01*
X176538765Y-88925562D01*
X176552823Y-89229190D01*
X176554667Y-89399334D01*
X176554667Y-90161334D01*
X174946000Y-90161334D01*
X174946000Y-91758753D01*
X175178834Y-91785543D01*
X175411667Y-91812334D01*
X175680481Y-94098334D01*
X175752072Y-94713585D01*
X175816957Y-95283517D01*
X175872448Y-95783518D01*
X175915855Y-96188974D01*
X175944490Y-96475274D01*
X175955647Y-96617167D01*
X175962000Y-96850000D01*
X171055567Y-96850000D01*
X171097212Y-96617167D01*
X171119387Y-96464121D01*
X171156430Y-96176225D01*
X171205157Y-95780895D01*
X171262382Y-95305548D01*
X171324922Y-94777602D01*
X171389591Y-94224472D01*
X171453204Y-93673576D01*
X171512577Y-93152331D01*
X171564526Y-92688154D01*
X171605865Y-92308461D01*
X171633409Y-92040670D01*
X171643975Y-91912197D01*
X171644000Y-91909918D01*
X171720048Y-91801603D01*
X171876834Y-91754457D01*
X172109667Y-91727667D01*
X172134011Y-90944500D01*
X172158355Y-90161334D01*
X170882000Y-90161334D01*
X170882000Y-84234667D01*
X171580500Y-84235918D01*
G36*
X159008556Y-88912500D02*
X159269414Y-89668558D01*
X159666243Y-90342768D01*
X160179984Y-90921401D01*
X160791582Y-91390728D01*
X161481979Y-91737019D01*
X162232116Y-91946546D01*
X163022938Y-92005579D01*
X163281043Y-91990483D01*
X163843543Y-91895048D01*
X164424704Y-91721845D01*
X164943778Y-91496513D01*
X165081846Y-91418640D01*
X165508439Y-91093725D01*
X165923466Y-90659794D01*
X166297995Y-90158711D01*
X166603095Y-89632338D01*
X166809835Y-89122537D01*
X166877743Y-88820050D01*
X166924963Y-88468000D01*
X170301594Y-88468000D01*
X170274297Y-90231787D01*
X170247000Y-91995573D01*
X169990997Y-92409335D01*
X169771125Y-92700961D01*
X169501701Y-92974477D01*
X169369916Y-93079715D01*
X169004837Y-93336334D01*
X163021919Y-93354472D01*
X157039000Y-93372611D01*
X156641849Y-93164898D01*
X156361425Y-92984490D01*
X156111273Y-92768347D01*
X156030635Y-92676535D01*
X155876228Y-92462054D01*
X155759404Y-92258656D01*
X155674986Y-92038398D01*
X155617797Y-91773341D01*
X155582662Y-91435541D01*
X155564404Y-90997058D01*
X155557846Y-90429950D01*
X155557334Y-90121720D01*
X155557334Y-88468000D01*
X158903927Y-88468000D01*
X159008556Y-88912500D01*
X159008556Y-88912500D01*
G37*
X159008556Y-88912500D02*
X159269414Y-89668558D01*
X159666243Y-90342768D01*
X160179984Y-90921401D01*
X160791582Y-91390728D01*
X161481979Y-91737019D01*
X162232116Y-91946546D01*
X163022938Y-92005579D01*
X163281043Y-91990483D01*
X163843543Y-91895048D01*
X164424704Y-91721845D01*
X164943778Y-91496513D01*
X165081846Y-91418640D01*
X165508439Y-91093725D01*
X165923466Y-90659794D01*
X166297995Y-90158711D01*
X166603095Y-89632338D01*
X166809835Y-89122537D01*
X166877743Y-88820050D01*
X166924963Y-88468000D01*
X170301594Y-88468000D01*
X170274297Y-90231787D01*
X170247000Y-91995573D01*
X169990997Y-92409335D01*
X169771125Y-92700961D01*
X169501701Y-92974477D01*
X169369916Y-93079715D01*
X169004837Y-93336334D01*
X163021919Y-93354472D01*
X157039000Y-93372611D01*
X156641849Y-93164898D01*
X156361425Y-92984490D01*
X156111273Y-92768347D01*
X156030635Y-92676535D01*
X155876228Y-92462054D01*
X155759404Y-92258656D01*
X155674986Y-92038398D01*
X155617797Y-91773341D01*
X155582662Y-91435541D01*
X155564404Y-90997058D01*
X155557846Y-90429950D01*
X155557334Y-90121720D01*
X155557334Y-88468000D01*
X158903927Y-88468000D01*
X159008556Y-88912500D01*
G36*
X165463334Y-90500000D02*
X164532000Y-90500000D01*
X164532000Y-88933667D01*
X164530280Y-88374443D01*
X164523961Y-87963117D01*
X164511307Y-87678279D01*
X164490583Y-87498517D01*
X164460053Y-87402420D01*
X164417980Y-87368577D01*
X164405000Y-87367334D01*
X164292499Y-87423051D01*
X164278000Y-87471010D01*
X164253196Y-87581678D01*
X164184302Y-87825690D01*
X164079597Y-88175356D01*
X163947358Y-88602988D01*
X163808443Y-89041633D01*
X163338885Y-90508580D01*
X162898276Y-90483123D01*
X162457667Y-90457667D01*
X162108435Y-89399334D01*
X161959163Y-88938518D01*
X161813771Y-88474922D01*
X161689282Y-88063686D01*
X161605280Y-87769500D01*
X161508195Y-87464917D01*
X161413078Y-87263630D01*
X161340679Y-87198000D01*
X161301104Y-87231939D01*
X161271638Y-87346084D01*
X161251040Y-87558924D01*
X161238073Y-87888951D01*
X161231495Y-88354656D01*
X161230000Y-88849000D01*
X161230000Y-90500000D01*
X160820778Y-90500000D01*
X160569961Y-90489200D01*
X160395292Y-90461763D01*
X160355111Y-90443556D01*
X160340664Y-90347552D01*
X160327584Y-90103981D01*
X160316362Y-89734610D01*
X160307490Y-89261203D01*
X160301460Y-88705524D01*
X160298764Y-88089339D01*
X160298667Y-87945889D01*
X160298667Y-85504667D01*
X161732174Y-85504667D01*
X162025947Y-86457167D01*
X162179126Y-86954332D01*
X162349017Y-87506558D01*
X162509577Y-88029153D01*
X162585768Y-88277500D01*
X162703114Y-88631517D01*
X162814144Y-88915858D01*
X162904721Y-89097076D01*
X162952570Y-89145334D01*
X163006585Y-89066666D01*
X163097418Y-88843376D01*
X163218537Y-88494530D01*
X163363412Y-88039196D01*
X163525510Y-87496441D01*
X163568866Y-87346167D01*
X164084409Y-85547000D01*
X164773871Y-85522409D01*
X165463334Y-85497819D01*
X165463334Y-90500000D01*
X165463334Y-90500000D01*
G37*
X165463334Y-90500000D02*
X164532000Y-90500000D01*
X164532000Y-88933667D01*
X164530280Y-88374443D01*
X164523961Y-87963117D01*
X164511307Y-87678279D01*
X164490583Y-87498517D01*
X164460053Y-87402420D01*
X164417980Y-87368577D01*
X164405000Y-87367334D01*
X164292499Y-87423051D01*
X164278000Y-87471010D01*
X164253196Y-87581678D01*
X164184302Y-87825690D01*
X164079597Y-88175356D01*
X163947358Y-88602988D01*
X163808443Y-89041633D01*
X163338885Y-90508580D01*
X162898276Y-90483123D01*
X162457667Y-90457667D01*
X162108435Y-89399334D01*
X161959163Y-88938518D01*
X161813771Y-88474922D01*
X161689282Y-88063686D01*
X161605280Y-87769500D01*
X161508195Y-87464917D01*
X161413078Y-87263630D01*
X161340679Y-87198000D01*
X161301104Y-87231939D01*
X161271638Y-87346084D01*
X161251040Y-87558924D01*
X161238073Y-87888951D01*
X161231495Y-88354656D01*
X161230000Y-88849000D01*
X161230000Y-90500000D01*
X160820778Y-90500000D01*
X160569961Y-90489200D01*
X160395292Y-90461763D01*
X160355111Y-90443556D01*
X160340664Y-90347552D01*
X160327584Y-90103981D01*
X160316362Y-89734610D01*
X160307490Y-89261203D01*
X160301460Y-88705524D01*
X160298764Y-88089339D01*
X160298667Y-87945889D01*
X160298667Y-85504667D01*
X161732174Y-85504667D01*
X162025947Y-86457167D01*
X162179126Y-86954332D01*
X162349017Y-87506558D01*
X162509577Y-88029153D01*
X162585768Y-88277500D01*
X162703114Y-88631517D01*
X162814144Y-88915858D01*
X162904721Y-89097076D01*
X162952570Y-89145334D01*
X163006585Y-89066666D01*
X163097418Y-88843376D01*
X163218537Y-88494530D01*
X163363412Y-88039196D01*
X163525510Y-87496441D01*
X163568866Y-87346167D01*
X164084409Y-85547000D01*
X164773871Y-85522409D01*
X165463334Y-85497819D01*
X165463334Y-90500000D01*
G36*
X166092310Y-82555758D02*
X166900572Y-82560418D01*
X167563205Y-82568179D01*
X168086131Y-82579109D01*
X168475270Y-82593278D01*
X168736543Y-82610754D01*
X168872887Y-82630791D01*
X169218492Y-82791197D01*
X169569440Y-83067513D01*
X169881511Y-83413729D01*
X170110486Y-83783837D01*
X170190473Y-84001706D01*
X170225720Y-84233882D01*
X170254316Y-84610582D01*
X170275113Y-85107085D01*
X170286966Y-85698672D01*
X170289334Y-86134826D01*
X170289334Y-87875334D01*
X167002633Y-87875334D01*
X166904058Y-87290913D01*
X166688268Y-86500331D01*
X166327686Y-85785529D01*
X165835988Y-85162612D01*
X165226849Y-84647680D01*
X164513946Y-84256837D01*
X164236744Y-84150371D01*
X163867831Y-84050909D01*
X163447154Y-83996826D01*
X162923334Y-83980667D01*
X162086725Y-84046502D01*
X161346237Y-84247604D01*
X160689331Y-84589362D01*
X160103471Y-85077167D01*
X159924314Y-85270286D01*
X159619780Y-85653820D01*
X159381620Y-86045940D01*
X159192719Y-86486684D01*
X159035964Y-87016091D01*
X158894239Y-87674199D01*
X158892220Y-87684834D01*
X158875897Y-87750026D01*
X158840133Y-87798337D01*
X158762380Y-87832296D01*
X158620090Y-87854433D01*
X158390717Y-87867277D01*
X158051713Y-87873358D01*
X157580529Y-87875205D01*
X157194112Y-87875334D01*
X155532116Y-87875334D01*
X155579183Y-85949167D01*
X155596629Y-85381629D01*
X155619399Y-84859779D01*
X155645751Y-84411283D01*
X155673939Y-84063805D01*
X155702221Y-83845012D01*
X155715014Y-83794593D01*
X155823085Y-83600391D01*
X156001327Y-83356008D01*
X156118692Y-83217612D01*
X156224711Y-83096605D01*
X156316852Y-82992027D01*
X156407593Y-82902635D01*
X156509414Y-82827190D01*
X156634792Y-82764450D01*
X156796205Y-82713175D01*
X157006134Y-82672123D01*
X157277055Y-82640054D01*
X157621447Y-82615727D01*
X158051789Y-82597901D01*
X158580559Y-82585334D01*
X159220235Y-82576786D01*
X159983296Y-82571017D01*
X160882221Y-82566784D01*
X161929487Y-82562848D01*
X162734554Y-82559700D01*
X164015222Y-82555468D01*
X165132501Y-82554131D01*
X166092310Y-82555758D01*
X166092310Y-82555758D01*
G37*
X166092310Y-82555758D02*
X166900572Y-82560418D01*
X167563205Y-82568179D01*
X168086131Y-82579109D01*
X168475270Y-82593278D01*
X168736543Y-82610754D01*
X168872887Y-82630791D01*
X169218492Y-82791197D01*
X169569440Y-83067513D01*
X169881511Y-83413729D01*
X170110486Y-83783837D01*
X170190473Y-84001706D01*
X170225720Y-84233882D01*
X170254316Y-84610582D01*
X170275113Y-85107085D01*
X170286966Y-85698672D01*
X170289334Y-86134826D01*
X170289334Y-87875334D01*
X167002633Y-87875334D01*
X166904058Y-87290913D01*
X166688268Y-86500331D01*
X166327686Y-85785529D01*
X165835988Y-85162612D01*
X165226849Y-84647680D01*
X164513946Y-84256837D01*
X164236744Y-84150371D01*
X163867831Y-84050909D01*
X163447154Y-83996826D01*
X162923334Y-83980667D01*
X162086725Y-84046502D01*
X161346237Y-84247604D01*
X160689331Y-84589362D01*
X160103471Y-85077167D01*
X159924314Y-85270286D01*
X159619780Y-85653820D01*
X159381620Y-86045940D01*
X159192719Y-86486684D01*
X159035964Y-87016091D01*
X158894239Y-87674199D01*
X158892220Y-87684834D01*
X158875897Y-87750026D01*
X158840133Y-87798337D01*
X158762380Y-87832296D01*
X158620090Y-87854433D01*
X158390717Y-87867277D01*
X158051713Y-87873358D01*
X157580529Y-87875205D01*
X157194112Y-87875334D01*
X155532116Y-87875334D01*
X155579183Y-85949167D01*
X155596629Y-85381629D01*
X155619399Y-84859779D01*
X155645751Y-84411283D01*
X155673939Y-84063805D01*
X155702221Y-83845012D01*
X155715014Y-83794593D01*
X155823085Y-83600391D01*
X156001327Y-83356008D01*
X156118692Y-83217612D01*
X156224711Y-83096605D01*
X156316852Y-82992027D01*
X156407593Y-82902635D01*
X156509414Y-82827190D01*
X156634792Y-82764450D01*
X156796205Y-82713175D01*
X157006134Y-82672123D01*
X157277055Y-82640054D01*
X157621447Y-82615727D01*
X158051789Y-82597901D01*
X158580559Y-82585334D01*
X159220235Y-82576786D01*
X159983296Y-82571017D01*
X160882221Y-82566784D01*
X161929487Y-82562848D01*
X162734554Y-82559700D01*
X164015222Y-82555468D01*
X165132501Y-82554131D01*
X166092310Y-82555758D01*
G36*
X163285640Y-75939833D02*
X163556839Y-75953087D01*
X163736438Y-75977494D01*
X163784111Y-76000834D01*
X163874351Y-76051112D01*
X164085746Y-76124290D01*
X164374418Y-76205365D01*
X164405000Y-76213117D01*
X165333490Y-76531668D01*
X166191720Y-76997220D01*
X166963198Y-77596203D01*
X167631432Y-78315048D01*
X168179929Y-79140184D01*
X168340284Y-79451000D01*
X168561999Y-79979749D01*
X168744707Y-80544557D01*
X168873244Y-81089388D01*
X168932450Y-81558203D01*
X168934667Y-81647880D01*
X168934667Y-81948667D01*
X156888616Y-81948667D01*
X156943838Y-81409672D01*
X156998268Y-81027251D01*
X157078286Y-80628062D01*
X157133319Y-80414839D01*
X157259169Y-80057760D01*
X157389046Y-79753024D01*
X158215715Y-79753024D01*
X158237112Y-80167158D01*
X158401164Y-80588788D01*
X158466969Y-80693256D01*
X158780514Y-81011191D01*
X159181321Y-81205670D01*
X159630446Y-81266129D01*
X160088942Y-81182007D01*
X160163225Y-81153317D01*
X160527404Y-80918557D01*
X160782723Y-80586713D01*
X160925896Y-80193093D01*
X160953637Y-79773004D01*
X160934080Y-79684597D01*
X164906828Y-79684597D01*
X164906894Y-80113087D01*
X165034927Y-80504808D01*
X165270318Y-80837826D01*
X165592460Y-81090207D01*
X165980742Y-81240018D01*
X166414558Y-81265326D01*
X166851892Y-81153317D01*
X167083614Y-81008798D01*
X167314485Y-80793444D01*
X167370678Y-80725452D01*
X167519497Y-80491541D01*
X167592313Y-80247581D01*
X167613566Y-79933139D01*
X167552369Y-79427469D01*
X167361154Y-79022848D01*
X167050999Y-78730861D01*
X166632983Y-78563092D01*
X166267667Y-78525714D01*
X165786746Y-78593309D01*
X165402582Y-78798853D01*
X165108156Y-79146490D01*
X165055338Y-79241271D01*
X164906828Y-79684597D01*
X160934080Y-79684597D01*
X160862662Y-79361756D01*
X160649685Y-78994657D01*
X160386435Y-78754562D01*
X159967189Y-78552697D01*
X159551114Y-78499210D01*
X159158136Y-78573973D01*
X158808181Y-78756862D01*
X158521175Y-79027750D01*
X158317044Y-79366513D01*
X158215715Y-79753024D01*
X157389046Y-79753024D01*
X157437613Y-79639070D01*
X157641929Y-79214335D01*
X157845393Y-78839121D01*
X158020668Y-78569793D01*
X158327254Y-78212257D01*
X158717898Y-77815782D01*
X159141135Y-77428384D01*
X159545502Y-77098080D01*
X159764551Y-76942768D01*
X160085754Y-76758481D01*
X160480179Y-76568765D01*
X160903071Y-76391230D01*
X161309678Y-76243491D01*
X161655244Y-76143159D01*
X161886167Y-76107800D01*
X162034884Y-76075008D01*
X162076667Y-76022000D01*
X162153998Y-75987571D01*
X162357019Y-75961601D01*
X162642271Y-75944629D01*
X162966298Y-75937194D01*
X163285640Y-75939833D01*
X163285640Y-75939833D01*
G37*
X163285640Y-75939833D02*
X163556839Y-75953087D01*
X163736438Y-75977494D01*
X163784111Y-76000834D01*
X163874351Y-76051112D01*
X164085746Y-76124290D01*
X164374418Y-76205365D01*
X164405000Y-76213117D01*
X165333490Y-76531668D01*
X166191720Y-76997220D01*
X166963198Y-77596203D01*
X167631432Y-78315048D01*
X168179929Y-79140184D01*
X168340284Y-79451000D01*
X168561999Y-79979749D01*
X168744707Y-80544557D01*
X168873244Y-81089388D01*
X168932450Y-81558203D01*
X168934667Y-81647880D01*
X168934667Y-81948667D01*
X156888616Y-81948667D01*
X156943838Y-81409672D01*
X156998268Y-81027251D01*
X157078286Y-80628062D01*
X157133319Y-80414839D01*
X157259169Y-80057760D01*
X157389046Y-79753024D01*
X158215715Y-79753024D01*
X158237112Y-80167158D01*
X158401164Y-80588788D01*
X158466969Y-80693256D01*
X158780514Y-81011191D01*
X159181321Y-81205670D01*
X159630446Y-81266129D01*
X160088942Y-81182007D01*
X160163225Y-81153317D01*
X160527404Y-80918557D01*
X160782723Y-80586713D01*
X160925896Y-80193093D01*
X160953637Y-79773004D01*
X160934080Y-79684597D01*
X164906828Y-79684597D01*
X164906894Y-80113087D01*
X165034927Y-80504808D01*
X165270318Y-80837826D01*
X165592460Y-81090207D01*
X165980742Y-81240018D01*
X166414558Y-81265326D01*
X166851892Y-81153317D01*
X167083614Y-81008798D01*
X167314485Y-80793444D01*
X167370678Y-80725452D01*
X167519497Y-80491541D01*
X167592313Y-80247581D01*
X167613566Y-79933139D01*
X167552369Y-79427469D01*
X167361154Y-79022848D01*
X167050999Y-78730861D01*
X166632983Y-78563092D01*
X166267667Y-78525714D01*
X165786746Y-78593309D01*
X165402582Y-78798853D01*
X165108156Y-79146490D01*
X165055338Y-79241271D01*
X164906828Y-79684597D01*
X160934080Y-79684597D01*
X160862662Y-79361756D01*
X160649685Y-78994657D01*
X160386435Y-78754562D01*
X159967189Y-78552697D01*
X159551114Y-78499210D01*
X159158136Y-78573973D01*
X158808181Y-78756862D01*
X158521175Y-79027750D01*
X158317044Y-79366513D01*
X158215715Y-79753024D01*
X157389046Y-79753024D01*
X157437613Y-79639070D01*
X157641929Y-79214335D01*
X157845393Y-78839121D01*
X158020668Y-78569793D01*
X158327254Y-78212257D01*
X158717898Y-77815782D01*
X159141135Y-77428384D01*
X159545502Y-77098080D01*
X159764551Y-76942768D01*
X160085754Y-76758481D01*
X160480179Y-76568765D01*
X160903071Y-76391230D01*
X161309678Y-76243491D01*
X161655244Y-76143159D01*
X161886167Y-76107800D01*
X162034884Y-76075008D01*
X162076667Y-76022000D01*
X162153998Y-75987571D01*
X162357019Y-75961601D01*
X162642271Y-75944629D01*
X162966298Y-75937194D01*
X163285640Y-75939833D01*
%LPC*%
G36*
X163132559Y-84067440D02*
X163262785Y-84079731D01*
X163326780Y-84098330D01*
X163331000Y-84105333D01*
X163367625Y-84135684D01*
X163451228Y-84147666D01*
X163611897Y-84165032D01*
X163825490Y-84212530D01*
X164068795Y-84283262D01*
X164318598Y-84370331D01*
X164551684Y-84466836D01*
X164597968Y-84488435D01*
X165112004Y-84777944D01*
X165565028Y-85126108D01*
X165957897Y-85533785D01*
X166291466Y-86001829D01*
X166503897Y-86394365D01*
X166601544Y-86620730D01*
X166691256Y-86868869D01*
X166766135Y-87115567D01*
X166819282Y-87337611D01*
X166843800Y-87511787D01*
X166844667Y-87541105D01*
X166857562Y-87627304D01*
X166887000Y-87661333D01*
X166907616Y-87701129D01*
X166922215Y-87810582D01*
X166929045Y-87974789D01*
X166929333Y-88021166D01*
X166924651Y-88196404D01*
X166911774Y-88320499D01*
X166892456Y-88378550D01*
X166887000Y-88381000D01*
X166856648Y-88417624D01*
X166844667Y-88501228D01*
X166827301Y-88661896D01*
X166779803Y-88875490D01*
X166709070Y-89118795D01*
X166622002Y-89368598D01*
X166525496Y-89601684D01*
X166503897Y-89647967D01*
X166213710Y-90161894D01*
X165863246Y-90616562D01*
X165453607Y-91010876D01*
X164985891Y-91343742D01*
X164585222Y-91558256D01*
X164351824Y-91657523D01*
X164100644Y-91747515D01*
X163854427Y-91821484D01*
X163635917Y-91872684D01*
X163467859Y-91894367D01*
X163451228Y-91894666D01*
X163365029Y-91907562D01*
X163331000Y-91937000D01*
X163291037Y-91957284D01*
X163180412Y-91971753D01*
X163013025Y-91978864D01*
X162950000Y-91979333D01*
X162767440Y-91974892D01*
X162637215Y-91962601D01*
X162573220Y-91944002D01*
X162569000Y-91937000D01*
X162532667Y-91905556D01*
X162459636Y-91894666D01*
X162312629Y-91878355D01*
X162111195Y-91833899D01*
X161878063Y-91768015D01*
X161635962Y-91687422D01*
X161407623Y-91598838D01*
X161305624Y-91553604D01*
X160799688Y-91271458D01*
X160346870Y-90924093D01*
X159950271Y-90514605D01*
X159612994Y-90046089D01*
X159396102Y-89647967D01*
X159298456Y-89421602D01*
X159208744Y-89173463D01*
X159133865Y-88926765D01*
X159080718Y-88704721D01*
X159056200Y-88530545D01*
X159055333Y-88501228D01*
X159042437Y-88415028D01*
X159013000Y-88381000D01*
X158992384Y-88341204D01*
X158977784Y-88231751D01*
X158970955Y-88067543D01*
X158970667Y-88021166D01*
X158974632Y-87858562D01*
X158985212Y-87734199D01*
X159000438Y-87667512D01*
X159007171Y-87661333D01*
X159031821Y-87623194D01*
X159056620Y-87524994D01*
X159070422Y-87433765D01*
X159163865Y-86975686D01*
X159332364Y-86515255D01*
X159567736Y-86065594D01*
X159861796Y-85639824D01*
X160096220Y-85375333D01*
X160240667Y-85375333D01*
X160240667Y-90667000D01*
X161383667Y-90667000D01*
X161386685Y-89111250D01*
X161389704Y-87555500D01*
X161485602Y-87894166D01*
X161523612Y-88022326D01*
X161583646Y-88217178D01*
X161661357Y-88464958D01*
X161752396Y-88751905D01*
X161852415Y-89064254D01*
X161957066Y-89388244D01*
X161977464Y-89451058D01*
X162373429Y-90669284D01*
X162942001Y-90657558D01*
X163510572Y-90645833D01*
X163779315Y-89820333D01*
X163876778Y-89519179D01*
X163979918Y-89197442D01*
X164080343Y-88881503D01*
X164169661Y-88597743D01*
X164229279Y-88405785D01*
X164410500Y-87816737D01*
X164431667Y-89231285D01*
X164452833Y-90645833D01*
X165056083Y-90657578D01*
X165659333Y-90669324D01*
X165659333Y-85375333D01*
X164836686Y-85375333D01*
X164551767Y-85375928D01*
X164340281Y-85378371D01*
X164190998Y-85383647D01*
X164092689Y-85392740D01*
X164034125Y-85406637D01*
X164004076Y-85426322D01*
X163992243Y-85449416D01*
X163976305Y-85505154D01*
X163939905Y-85633346D01*
X163885596Y-85824970D01*
X163815935Y-86071001D01*
X163733474Y-86362418D01*
X163640768Y-86690196D01*
X163540373Y-87045311D01*
X163497878Y-87195666D01*
X163395207Y-87557367D01*
X163298889Y-87893626D01*
X163211489Y-88195718D01*
X163135571Y-88454913D01*
X163073699Y-88662486D01*
X163028437Y-88809707D01*
X163002350Y-88887849D01*
X162997687Y-88898016D01*
X162979381Y-88866329D01*
X162939966Y-88762579D01*
X162882452Y-88595864D01*
X162809846Y-88375282D01*
X162725157Y-88109929D01*
X162631394Y-87808902D01*
X162556720Y-87564516D01*
X162451494Y-87217638D01*
X162348098Y-86877292D01*
X162250648Y-86557001D01*
X162163265Y-86270285D01*
X162090068Y-86030667D01*
X162035176Y-85851669D01*
X162015558Y-85788083D01*
X161887744Y-85375333D01*
X160240667Y-85375333D01*
X160096220Y-85375333D01*
X160206361Y-85251066D01*
X160593246Y-84912441D01*
X160685564Y-84844306D01*
X160926842Y-84690572D01*
X161206170Y-84542512D01*
X161504492Y-84407651D01*
X161802752Y-84293512D01*
X162081892Y-84207620D01*
X162322857Y-84157499D01*
X162449973Y-84147666D01*
X162535635Y-84134651D01*
X162569000Y-84105333D01*
X162608963Y-84085048D01*
X162719587Y-84070579D01*
X162886975Y-84063468D01*
X162950000Y-84063000D01*
X163132559Y-84067440D01*
X163132559Y-84067440D01*
G37*
X163132559Y-84067440D02*
X163262785Y-84079731D01*
X163326780Y-84098330D01*
X163331000Y-84105333D01*
X163367625Y-84135684D01*
X163451228Y-84147666D01*
X163611897Y-84165032D01*
X163825490Y-84212530D01*
X164068795Y-84283262D01*
X164318598Y-84370331D01*
X164551684Y-84466836D01*
X164597968Y-84488435D01*
X165112004Y-84777944D01*
X165565028Y-85126108D01*
X165957897Y-85533785D01*
X166291466Y-86001829D01*
X166503897Y-86394365D01*
X166601544Y-86620730D01*
X166691256Y-86868869D01*
X166766135Y-87115567D01*
X166819282Y-87337611D01*
X166843800Y-87511787D01*
X166844667Y-87541105D01*
X166857562Y-87627304D01*
X166887000Y-87661333D01*
X166907616Y-87701129D01*
X166922215Y-87810582D01*
X166929045Y-87974789D01*
X166929333Y-88021166D01*
X166924651Y-88196404D01*
X166911774Y-88320499D01*
X166892456Y-88378550D01*
X166887000Y-88381000D01*
X166856648Y-88417624D01*
X166844667Y-88501228D01*
X166827301Y-88661896D01*
X166779803Y-88875490D01*
X166709070Y-89118795D01*
X166622002Y-89368598D01*
X166525496Y-89601684D01*
X166503897Y-89647967D01*
X166213710Y-90161894D01*
X165863246Y-90616562D01*
X165453607Y-91010876D01*
X164985891Y-91343742D01*
X164585222Y-91558256D01*
X164351824Y-91657523D01*
X164100644Y-91747515D01*
X163854427Y-91821484D01*
X163635917Y-91872684D01*
X163467859Y-91894367D01*
X163451228Y-91894666D01*
X163365029Y-91907562D01*
X163331000Y-91937000D01*
X163291037Y-91957284D01*
X163180412Y-91971753D01*
X163013025Y-91978864D01*
X162950000Y-91979333D01*
X162767440Y-91974892D01*
X162637215Y-91962601D01*
X162573220Y-91944002D01*
X162569000Y-91937000D01*
X162532667Y-91905556D01*
X162459636Y-91894666D01*
X162312629Y-91878355D01*
X162111195Y-91833899D01*
X161878063Y-91768015D01*
X161635962Y-91687422D01*
X161407623Y-91598838D01*
X161305624Y-91553604D01*
X160799688Y-91271458D01*
X160346870Y-90924093D01*
X159950271Y-90514605D01*
X159612994Y-90046089D01*
X159396102Y-89647967D01*
X159298456Y-89421602D01*
X159208744Y-89173463D01*
X159133865Y-88926765D01*
X159080718Y-88704721D01*
X159056200Y-88530545D01*
X159055333Y-88501228D01*
X159042437Y-88415028D01*
X159013000Y-88381000D01*
X158992384Y-88341204D01*
X158977784Y-88231751D01*
X158970955Y-88067543D01*
X158970667Y-88021166D01*
X158974632Y-87858562D01*
X158985212Y-87734199D01*
X159000438Y-87667512D01*
X159007171Y-87661333D01*
X159031821Y-87623194D01*
X159056620Y-87524994D01*
X159070422Y-87433765D01*
X159163865Y-86975686D01*
X159332364Y-86515255D01*
X159567736Y-86065594D01*
X159861796Y-85639824D01*
X160096220Y-85375333D01*
X160240667Y-85375333D01*
X160240667Y-90667000D01*
X161383667Y-90667000D01*
X161386685Y-89111250D01*
X161389704Y-87555500D01*
X161485602Y-87894166D01*
X161523612Y-88022326D01*
X161583646Y-88217178D01*
X161661357Y-88464958D01*
X161752396Y-88751905D01*
X161852415Y-89064254D01*
X161957066Y-89388244D01*
X161977464Y-89451058D01*
X162373429Y-90669284D01*
X162942001Y-90657558D01*
X163510572Y-90645833D01*
X163779315Y-89820333D01*
X163876778Y-89519179D01*
X163979918Y-89197442D01*
X164080343Y-88881503D01*
X164169661Y-88597743D01*
X164229279Y-88405785D01*
X164410500Y-87816737D01*
X164431667Y-89231285D01*
X164452833Y-90645833D01*
X165056083Y-90657578D01*
X165659333Y-90669324D01*
X165659333Y-85375333D01*
X164836686Y-85375333D01*
X164551767Y-85375928D01*
X164340281Y-85378371D01*
X164190998Y-85383647D01*
X164092689Y-85392740D01*
X164034125Y-85406637D01*
X164004076Y-85426322D01*
X163992243Y-85449416D01*
X163976305Y-85505154D01*
X163939905Y-85633346D01*
X163885596Y-85824970D01*
X163815935Y-86071001D01*
X163733474Y-86362418D01*
X163640768Y-86690196D01*
X163540373Y-87045311D01*
X163497878Y-87195666D01*
X163395207Y-87557367D01*
X163298889Y-87893626D01*
X163211489Y-88195718D01*
X163135571Y-88454913D01*
X163073699Y-88662486D01*
X163028437Y-88809707D01*
X163002350Y-88887849D01*
X162997687Y-88898016D01*
X162979381Y-88866329D01*
X162939966Y-88762579D01*
X162882452Y-88595864D01*
X162809846Y-88375282D01*
X162725157Y-88109929D01*
X162631394Y-87808902D01*
X162556720Y-87564516D01*
X162451494Y-87217638D01*
X162348098Y-86877292D01*
X162250648Y-86557001D01*
X162163265Y-86270285D01*
X162090068Y-86030667D01*
X162035176Y-85851669D01*
X162015558Y-85788083D01*
X161887744Y-85375333D01*
X160240667Y-85375333D01*
X160096220Y-85375333D01*
X160206361Y-85251066D01*
X160593246Y-84912441D01*
X160685564Y-84844306D01*
X160926842Y-84690572D01*
X161206170Y-84542512D01*
X161504492Y-84407651D01*
X161802752Y-84293512D01*
X162081892Y-84207620D01*
X162322857Y-84157499D01*
X162449973Y-84147666D01*
X162535635Y-84134651D01*
X162569000Y-84105333D01*
X162608963Y-84085048D01*
X162719587Y-84070579D01*
X162886975Y-84063468D01*
X162950000Y-84063000D01*
X163132559Y-84067440D01*
D12*
X163000000Y-100000000D03*
D13*
X163000000Y-97460000D03*
X163000000Y-94920000D03*
D10*
G36*
X153288181Y-91217942D02*
X155282058Y-90288181D01*
X156211819Y-92282058D01*
X154217942Y-93211819D01*
X153288181Y-91217942D01*
X153288181Y-91217942D01*
G37*
D14*
X155823450Y-94052022D03*
D10*
G36*
X170532058Y-95461819D02*
X168538181Y-94532058D01*
X169467942Y-92538181D01*
X171461819Y-93467942D01*
X170532058Y-95461819D01*
X170532058Y-95461819D01*
G37*
D14*
X171073450Y-91697978D03*
M02*
